<?xml version="1.0" encoding="UTF-8" standalone="no"?>
<!DOCTYPE svg PUBLIC "-//W3C//DTD SVG 1.1//EN"
 "http://www.w3.org/Graphics/SVG/1.1/DTD/svg11.dtd">
<!-- Generated by graphviz version 2.44.0 (20200408.0750)
 -->
<!-- Title: VecCore/Backend/Interface.h Pages: 1 -->
<svg width="352pt" height="196pt"
 viewBox="0.00 0.00 351.50 196.00" xmlns="http://www.w3.org/2000/svg" xmlns:xlink="http://www.w3.org/1999/xlink">
<g id="graph0" class="graph" transform="scale(1 1) rotate(0) translate(4 192)">
<title>VecCore/Backend/Interface.h</title>
<polygon fill="white" stroke="transparent" points="-4,4 -4,-192 347.5,-192 347.5,4 -4,4"/>
<!-- Node1 -->
<g id="node1" class="node">
<title>Node1</title>
<g id="a_node1"><a xlink:title=" ">
<polygon fill="#bfbfbf" stroke="black" points="150,-168.5 150,-187.5 296,-187.5 296,-168.5 150,-168.5"/>
<text text-anchor="middle" x="223" y="-175.5" font-family="Helvetica,sans-Serif" font-size="10.00">VecCore/Backend/Interface.h</text>
</a>
</g>
</g>
<!-- Node2 -->
<g id="node2" class="node">
<title>Node2</title>
<g id="a_node2"><a xlink:href="Deprecated_8h.html" target="_top" xlink:title=" ">
<polygon fill="white" stroke="black" points="0,-112.5 0,-131.5 158,-131.5 158,-112.5 0,-112.5"/>
<text text-anchor="middle" x="79" y="-119.5" font-family="Helvetica,sans-Serif" font-size="10.00">VecCore/Backend/Deprecated.h</text>
</a>
</g>
</g>
<!-- Node1&#45;&gt;Node2 -->
<g id="edge1" class="edge">
<title>Node1&#45;&gt;Node2</title>
<path fill="none" stroke="midnightblue" d="M190.75,-164.91C163.68,-154.75 125.68,-140.51 101.71,-131.52"/>
<polygon fill="midnightblue" stroke="midnightblue" points="189.59,-168.21 200.18,-168.44 192.05,-161.66 189.59,-168.21"/>
</g>
<!-- Node3 -->
<g id="node3" class="node">
<title>Node3</title>
<g id="a_node3"><a xlink:href="Implementation_8h.html" target="_top" xlink:title=" ">
<polygon fill="white" stroke="black" points="132,-56.5 132,-75.5 306,-75.5 306,-56.5 132,-56.5"/>
<text text-anchor="middle" x="219" y="-63.5" font-family="Helvetica,sans-Serif" font-size="10.00">VecCore/Backend/Implementation.h</text>
</a>
</g>
</g>
<!-- Node1&#45;&gt;Node3 -->
<g id="edge2" class="edge">
<title>Node1&#45;&gt;Node3</title>
<path fill="none" stroke="midnightblue" d="M214.06,-159.2C210.48,-151.11 206.79,-141.3 205,-132 201.11,-111.82 209.4,-88.28 214.81,-75.81"/>
<polygon fill="midnightblue" stroke="midnightblue" points="210.94,-160.79 218.38,-168.34 217.27,-157.8 210.94,-160.79"/>
</g>
<!-- Node4 -->
<g id="node4" class="node">
<title>Node4</title>
<g id="a_node4"><a xlink:href="Scalar_8h.html" target="_top" xlink:title=" ">
<polygon fill="white" stroke="black" points="208.5,-0.5 208.5,-19.5 343.5,-19.5 343.5,-0.5 208.5,-0.5"/>
<text text-anchor="middle" x="276" y="-7.5" font-family="Helvetica,sans-Serif" font-size="10.00">VecCore/Backend/Scalar.h</text>
</a>
</g>
</g>
<!-- Node1&#45;&gt;Node4 -->
<g id="edge6" class="edge">
<title>Node1&#45;&gt;Node4</title>
<path fill="none" stroke="midnightblue" d="M271.6,-164.77C288.3,-157.99 305.24,-147.64 315,-132 332.88,-103.34 326.81,-87.65 315,-56 309.44,-41.08 296.45,-27.83 286.99,-19.63"/>
<polygon fill="midnightblue" stroke="midnightblue" points="270.02,-161.62 261.85,-168.36 272.44,-168.19 270.02,-161.62"/>
</g>
<!-- Node5 -->
<g id="node5" class="node">
<title>Node5</title>
<g id="a_node5"><a xlink:href="Limits_8h.html" target="_top" xlink:title=" ">
<polygon fill="white" stroke="black" points="214,-112.5 214,-131.5 306,-131.5 306,-112.5 214,-112.5"/>
<text text-anchor="middle" x="260" y="-119.5" font-family="Helvetica,sans-Serif" font-size="10.00">VecCore/Limits.h</text>
</a>
</g>
</g>
<!-- Node1&#45;&gt;Node5 -->
<g id="edge4" class="edge">
<title>Node1&#45;&gt;Node5</title>
<path fill="none" stroke="midnightblue" d="M234.95,-159.57C241.31,-150.27 248.87,-139.25 254,-131.75"/>
<polygon fill="midnightblue" stroke="midnightblue" points="231.87,-157.86 229.11,-168.08 237.65,-161.81 231.87,-157.86"/>
</g>
<!-- Node3&#45;&gt;Node4 -->
<g id="edge3" class="edge">
<title>Node3&#45;&gt;Node4</title>
<path fill="none" stroke="midnightblue" d="M235.62,-49.25C245.73,-39.67 258.28,-27.79 266.68,-19.83"/>
<polygon fill="midnightblue" stroke="midnightblue" points="233.01,-46.91 228.16,-56.32 237.82,-51.99 233.01,-46.91"/>
</g>
<!-- Node5&#45;&gt;Node3 -->
<g id="edge5" class="edge">
<title>Node5&#45;&gt;Node3</title>
<path fill="none" stroke="midnightblue" d="M246.98,-103.86C239.88,-94.5 231.4,-83.33 225.64,-75.75"/>
<polygon fill="midnightblue" stroke="midnightblue" points="244.39,-106.24 253.23,-112.08 249.97,-102 244.39,-106.24"/>
</g>
</g>
</svg>
