<?xml version="1.0" encoding="UTF-8" standalone="no"?>
<!DOCTYPE svg PUBLIC "-//W3C//DTD SVG 1.1//EN"
 "http://www.w3.org/Graphics/SVG/1.1/DTD/svg11.dtd">
<!-- Generated by graphviz version 2.44.0 (20200408.0750)
 -->
<!-- Title: vecCore::math::Min Pages: 1 -->
<svg width="569pt" height="39pt"
 viewBox="0.00 0.00 569.00 39.00" xmlns="http://www.w3.org/2000/svg" xmlns:xlink="http://www.w3.org/1999/xlink">
<g id="graph0" class="graph" transform="scale(1 1) rotate(0) translate(4 35)">
<title>vecCore::math::Min</title>
<polygon fill="white" stroke="transparent" points="-4,4 -4,-35 565,-35 565,4 -4,4"/>
<!-- Node1 -->
<g id="node1" class="node">
<title>Node1</title>
<g id="a_node1"><a xlink:title=" ">
<polygon fill="#bfbfbf" stroke="black" points="0,-6 0,-25 103,-25 103,-6 0,-6"/>
<text text-anchor="middle" x="51.5" y="-13" font-family="Helvetica,sans-Serif" font-size="10.00">vecCore::math::Min</text>
</a>
</g>
</g>
<!-- Node2 -->
<g id="node2" class="node">
<title>Node2</title>
<g id="a_node2"><a xlink:href="namespacevecCore_1_1math.html#aca944df9f7607ebcdc0928d49680b489" target="_top" xlink:title=" ">
<polygon fill="white" stroke="black" points="139,-6 139,-25 242,-25 242,-6 139,-6"/>
<text text-anchor="middle" x="190.5" y="-13" font-family="Helvetica,sans-Serif" font-size="10.00">vecCore::math::Min</text>
</a>
</g>
</g>
<!-- Node1&#45;&gt;Node2 -->
<g id="edge1" class="edge">
<title>Node1&#45;&gt;Node2</title>
<path fill="none" stroke="midnightblue" d="M103.12,-15.5C111.36,-15.5 119.97,-15.5 128.42,-15.5"/>
<polygon fill="midnightblue" stroke="midnightblue" points="128.63,-19 138.63,-15.5 128.63,-12 128.63,-19"/>
</g>
<!-- Node3 -->
<g id="node3" class="node">
<title>Node3</title>
<g id="a_node3"><a xlink:href="namespacevecCore.html#a1972c89078b634842dc5ffea5c7663de" target="_top" xlink:title=" ">
<polygon fill="white" stroke="black" points="278,-6 278,-25 362,-25 362,-6 278,-6"/>
<text text-anchor="middle" x="320" y="-13" font-family="Helvetica,sans-Serif" font-size="10.00">vecCore::Blend</text>
</a>
</g>
</g>
<!-- Node2&#45;&gt;Node3 -->
<g id="edge2" class="edge">
<title>Node2&#45;&gt;Node3</title>
<path fill="none" stroke="midnightblue" d="M242.26,-15.5C250.65,-15.5 259.36,-15.5 267.76,-15.5"/>
<polygon fill="midnightblue" stroke="midnightblue" points="267.82,-19 277.82,-15.5 267.82,-12 267.82,-19"/>
</g>
<!-- Node4 -->
<g id="node4" class="node">
<title>Node4</title>
<g id="a_node4"><a xlink:href="structvecCore_1_1MaskingImplementation.html#a7ccc92119e7a078416530a7a0ba57b46" target="_top" xlink:title=" ">
<polygon fill="white" stroke="black" points="398,-0.5 398,-30.5 561,-30.5 561,-0.5 398,-0.5"/>
<text text-anchor="start" x="406" y="-18.5" font-family="Helvetica,sans-Serif" font-size="10.00">vecCore::MaskingImplementation</text>
<text text-anchor="middle" x="479.5" y="-7.5" font-family="Helvetica,sans-Serif" font-size="10.00">::Blend</text>
</a>
</g>
</g>
<!-- Node3&#45;&gt;Node4 -->
<g id="edge3" class="edge">
<title>Node3&#45;&gt;Node4</title>
<path fill="none" stroke="midnightblue" d="M362.38,-15.5C370.33,-15.5 378.93,-15.5 387.75,-15.5"/>
<polygon fill="midnightblue" stroke="midnightblue" points="387.76,-19 397.76,-15.5 387.76,-12 387.76,-19"/>
</g>
</g>
</svg>
