<?xml version="1.0" encoding="UTF-8" standalone="no"?>
<!DOCTYPE svg PUBLIC "-//W3C//DTD SVG 1.1//EN"
 "http://www.w3.org/Graphics/SVG/1.1/DTD/svg11.dtd">
<!-- Generated by graphviz version 2.44.0 (20200408.0750)
 -->
<!-- Title: vecCore::math::Min Pages: 1 -->
<svg width="430pt" height="39pt"
 viewBox="0.00 0.00 430.00 39.00" xmlns="http://www.w3.org/2000/svg" xmlns:xlink="http://www.w3.org/1999/xlink">
<g id="graph0" class="graph" transform="scale(1 1) rotate(0) translate(4 35)">
<title>vecCore::math::Min</title>
<polygon fill="white" stroke="transparent" points="-4,4 -4,-35 426,-35 426,4 -4,4"/>
<!-- Node1 -->
<g id="node1" class="node">
<title>Node1</title>
<g id="a_node1"><a xlink:title=" ">
<polygon fill="#bfbfbf" stroke="black" points="0,-6 0,-25 103,-25 103,-6 0,-6"/>
<text text-anchor="middle" x="51.5" y="-13" font-family="Helvetica,sans-Serif" font-size="10.00">vecCore::math::Min</text>
</a>
</g>
</g>
<!-- Node2 -->
<g id="node2" class="node">
<title>Node2</title>
<g id="a_node2"><a xlink:href="namespacevecCore.html#a1972c89078b634842dc5ffea5c7663de" target="_top" xlink:title=" ">
<polygon fill="white" stroke="black" points="139,-6 139,-25 223,-25 223,-6 139,-6"/>
<text text-anchor="middle" x="181" y="-13" font-family="Helvetica,sans-Serif" font-size="10.00">vecCore::Blend</text>
</a>
</g>
</g>
<!-- Node1&#45;&gt;Node2 -->
<g id="edge1" class="edge">
<title>Node1&#45;&gt;Node2</title>
<path fill="none" stroke="midnightblue" d="M103.26,-15.5C111.65,-15.5 120.36,-15.5 128.76,-15.5"/>
<polygon fill="midnightblue" stroke="midnightblue" points="128.82,-19 138.82,-15.5 128.82,-12 128.82,-19"/>
</g>
<!-- Node3 -->
<g id="node3" class="node">
<title>Node3</title>
<g id="a_node3"><a xlink:href="structvecCore_1_1MaskingImplementation.html#a7ccc92119e7a078416530a7a0ba57b46" target="_top" xlink:title=" ">
<polygon fill="white" stroke="black" points="259,-0.5 259,-30.5 422,-30.5 422,-0.5 259,-0.5"/>
<text text-anchor="start" x="267" y="-18.5" font-family="Helvetica,sans-Serif" font-size="10.00">vecCore::MaskingImplementation</text>
<text text-anchor="middle" x="340.5" y="-7.5" font-family="Helvetica,sans-Serif" font-size="10.00">::Blend</text>
</a>
</g>
</g>
<!-- Node2&#45;&gt;Node3 -->
<g id="edge2" class="edge">
<title>Node2&#45;&gt;Node3</title>
<path fill="none" stroke="midnightblue" d="M223.38,-15.5C231.33,-15.5 239.93,-15.5 248.75,-15.5"/>
<polygon fill="midnightblue" stroke="midnightblue" points="248.76,-19 258.76,-15.5 248.76,-12 248.76,-19"/>
</g>
</g>
</svg>
