<?xml version="1.0" encoding="UTF-8" standalone="no"?>
<!DOCTYPE svg PUBLIC "-//W3C//DTD SVG 1.1//EN"
 "http://www.w3.org/Graphics/SVG/1.1/DTD/svg11.dtd">
<!-- Generated by graphviz version 2.44.0 (20200408.0750)
 -->
<!-- Title: vecCore::ReduceMin Pages: 1 -->
<svg width="872pt" height="83pt"
 viewBox="0.00 0.00 872.00 83.00" xmlns="http://www.w3.org/2000/svg" xmlns:xlink="http://www.w3.org/1999/xlink">
<g id="graph0" class="graph" transform="scale(1 1) rotate(0) translate(4 79)">
<title>vecCore::ReduceMin</title>
<polygon fill="white" stroke="transparent" points="-4,4 -4,-79 868,-79 868,4 -4,4"/>
<!-- Node1 -->
<g id="node1" class="node">
<title>Node1</title>
<g id="a_node1"><a xlink:title=" ">
<polygon fill="#bfbfbf" stroke="black" points="0,-28 0,-47 109,-47 109,-28 0,-28"/>
<text text-anchor="middle" x="54.5" y="-35" font-family="Helvetica,sans-Serif" font-size="10.00">vecCore::ReduceMin</text>
</a>
</g>
</g>
<!-- Node2 -->
<g id="node2" class="node">
<title>Node2</title>
<g id="a_node2"><a xlink:href="namespacevecCore.html#a0bc95998843376452d74d5c8f5337845" target="_top" xlink:title=" ">
<polygon fill="white" stroke="black" points="160.5,-47 160.5,-66 235.5,-66 235.5,-47 160.5,-47"/>
<text text-anchor="middle" x="198" y="-54" font-family="Helvetica,sans-Serif" font-size="10.00">vecCore::Get</text>
</a>
</g>
</g>
<!-- Node1&#45;&gt;Node2 -->
<g id="edge1" class="edge">
<title>Node1&#45;&gt;Node2</title>
<path fill="none" stroke="midnightblue" d="M109.4,-44.74C122.83,-46.54 137.13,-48.46 150.19,-50.21"/>
<polygon fill="midnightblue" stroke="midnightblue" points="149.98,-53.72 160.36,-51.58 150.92,-46.78 149.98,-53.72"/>
</g>
<!-- Node6 -->
<g id="node6" class="node">
<title>Node6</title>
<g id="a_node6"><a xlink:href="namespacevecCore_1_1math.html#a8eba2e0f27791ee4790ac93303e2801e" target="_top" xlink:title=" ">
<polygon fill="white" stroke="black" points="145,-9 145,-28 251,-28 251,-9 145,-9"/>
<text text-anchor="middle" x="198" y="-16" font-family="Helvetica,sans-Serif" font-size="10.00">vecCore::math::Max</text>
</a>
</g>
</g>
<!-- Node1&#45;&gt;Node6 -->
<g id="edge5" class="edge">
<title>Node1&#45;&gt;Node6</title>
<path fill="none" stroke="midnightblue" d="M109.4,-30.26C117.62,-29.16 126.16,-28.01 134.54,-26.89"/>
<polygon fill="midnightblue" stroke="midnightblue" points="135.21,-30.33 144.65,-25.53 134.28,-23.39 135.21,-30.33"/>
</g>
<!-- Node3 -->
<g id="node3" class="node">
<title>Node3</title>
<g id="a_node3"><a xlink:href="structvecCore_1_1IndexingImplementation.html#abd2d0f232679541dacf3c6d019372e42" target="_top" xlink:title=" ">
<polygon fill="white" stroke="black" points="287,-48 287,-67 472,-67 472,-48 287,-48"/>
<text text-anchor="middle" x="379.5" y="-55" font-family="Helvetica,sans-Serif" font-size="10.00">vecCore::IndexingImplementation::Get</text>
</a>
</g>
</g>
<!-- Node2&#45;&gt;Node3 -->
<g id="edge2" class="edge">
<title>Node2&#45;&gt;Node3</title>
<path fill="none" stroke="midnightblue" d="M235.76,-56.7C247.92,-56.77 262.12,-56.85 276.74,-56.93"/>
<polygon fill="midnightblue" stroke="midnightblue" points="276.9,-60.43 286.92,-56.99 276.94,-53.43 276.9,-60.43"/>
</g>
<!-- Node4 -->
<g id="node4" class="node">
<title>Node4</title>
<g id="a_node4"><a xlink:href="namespacevecCore.html#a744ecfff38071bf6a45e7a17cede5b0a" target="_top" xlink:title=" ">
<polygon fill="white" stroke="black" points="547.5,-50 547.5,-69 631.5,-69 631.5,-50 547.5,-50"/>
<text text-anchor="middle" x="589.5" y="-57" font-family="Helvetica,sans-Serif" font-size="10.00">vecCore::Begin</text>
</a>
</g>
</g>
<!-- Node3&#45;&gt;Node4 -->
<g id="edge3" class="edge">
<title>Node3&#45;&gt;Node4</title>
<path fill="none" stroke="midnightblue" d="M472.03,-58.38C494.39,-58.6 517.53,-58.82 537.23,-59.01"/>
<polygon fill="midnightblue" stroke="midnightblue" points="537.47,-62.51 547.5,-59.11 537.53,-55.51 537.47,-62.51"/>
</g>
<!-- Node5 -->
<g id="node5" class="node">
<title>Node5</title>
<g id="a_node5"><a xlink:href="structvecCore_1_1IteratorImplementation.html#a72e48906a04cbcb83fe7bac49836ed43" target="_top" xlink:title=" ">
<polygon fill="white" stroke="black" points="707,-44.5 707,-74.5 864,-74.5 864,-44.5 707,-44.5"/>
<text text-anchor="start" x="715" y="-62.5" font-family="Helvetica,sans-Serif" font-size="10.00">vecCore::IteratorImplementation</text>
<text text-anchor="middle" x="785.5" y="-51.5" font-family="Helvetica,sans-Serif" font-size="10.00">::Begin</text>
</a>
</g>
</g>
<!-- Node4&#45;&gt;Node5 -->
<g id="edge4" class="edge">
<title>Node4&#45;&gt;Node5</title>
<path fill="none" stroke="midnightblue" d="M631.64,-59.5C650.73,-59.5 674.19,-59.5 696.96,-59.5"/>
<polygon fill="midnightblue" stroke="midnightblue" points="697,-63 707,-59.5 697,-56 697,-63"/>
</g>
<!-- Node7 -->
<g id="node7" class="node">
<title>Node7</title>
<g id="a_node7"><a xlink:href="namespacevecCore.html#a1972c89078b634842dc5ffea5c7663de" target="_top" xlink:title=" ">
<polygon fill="white" stroke="black" points="337.5,-9 337.5,-28 421.5,-28 421.5,-9 337.5,-9"/>
<text text-anchor="middle" x="379.5" y="-16" font-family="Helvetica,sans-Serif" font-size="10.00">vecCore::Blend</text>
</a>
</g>
</g>
<!-- Node6&#45;&gt;Node7 -->
<g id="edge6" class="edge">
<title>Node6&#45;&gt;Node7</title>
<path fill="none" stroke="midnightblue" d="M251.4,-18.5C275.29,-18.5 303.47,-18.5 327.22,-18.5"/>
<polygon fill="midnightblue" stroke="midnightblue" points="327.45,-22 337.45,-18.5 327.45,-15 327.45,-22"/>
</g>
<!-- Node8 -->
<g id="node8" class="node">
<title>Node8</title>
<g id="a_node8"><a xlink:href="structvecCore_1_1MaskingImplementation.html#a7ccc92119e7a078416530a7a0ba57b46" target="_top" xlink:title=" ">
<polygon fill="white" stroke="black" points="508,-0.5 508,-30.5 671,-30.5 671,-0.5 508,-0.5"/>
<text text-anchor="start" x="516" y="-18.5" font-family="Helvetica,sans-Serif" font-size="10.00">vecCore::MaskingImplementation</text>
<text text-anchor="middle" x="589.5" y="-7.5" font-family="Helvetica,sans-Serif" font-size="10.00">::Blend</text>
</a>
</g>
</g>
<!-- Node7&#45;&gt;Node8 -->
<g id="edge7" class="edge">
<title>Node7&#45;&gt;Node8</title>
<path fill="none" stroke="midnightblue" d="M421.59,-17.91C443.43,-17.59 471.19,-17.19 497.78,-16.81"/>
<polygon fill="midnightblue" stroke="midnightblue" points="497.95,-20.31 507.9,-16.66 497.85,-13.31 497.95,-20.31"/>
</g>
</g>
</svg>
