<?xml version="1.0" encoding="UTF-8" standalone="no"?>
<!DOCTYPE svg PUBLIC "-//W3C//DTD SVG 1.1//EN"
 "http://www.w3.org/Graphics/SVG/1.1/DTD/svg11.dtd">
<!-- Generated by graphviz version 2.44.0 (20200408.0750)
 -->
<!-- Title: vecCore::math::Rsqrt Pages: 1 -->
<svg width="764pt" height="66pt"
 viewBox="0.00 0.00 764.00 66.00" xmlns="http://www.w3.org/2000/svg" xmlns:xlink="http://www.w3.org/1999/xlink">
<g id="graph0" class="graph" transform="scale(1 1) rotate(0) translate(4 62)">
<title>vecCore::math::Rsqrt</title>
<polygon fill="white" stroke="transparent" points="-4,4 -4,-62 760,-62 760,4 -4,4"/>
<!-- Node1 -->
<g id="node1" class="node">
<title>Node1</title>
<g id="a_node1"><a xlink:title=" ">
<polygon fill="#bfbfbf" stroke="black" points="0,-19.5 0,-38.5 111,-38.5 111,-19.5 0,-19.5"/>
<text text-anchor="middle" x="55.5" y="-26.5" font-family="Helvetica,sans-Serif" font-size="10.00">vecCore::math::Rsqrt</text>
</a>
</g>
</g>
<!-- Node2 -->
<g id="node2" class="node">
<title>Node2</title>
<g id="a_node2"><a xlink:href="namespacevecCore.html#a0bc95998843376452d74d5c8f5337845" target="_top" xlink:title=" ">
<polygon fill="white" stroke="black" points="147,-38.5 147,-57.5 222,-57.5 222,-38.5 147,-38.5"/>
<text text-anchor="middle" x="184.5" y="-45.5" font-family="Helvetica,sans-Serif" font-size="10.00">vecCore::Get</text>
</a>
</g>
</g>
<!-- Node1&#45;&gt;Node2 -->
<g id="edge1" class="edge">
<title>Node1&#45;&gt;Node2</title>
<path fill="none" stroke="midnightblue" d="M111.1,-37.17C119.7,-38.46 128.53,-39.78 136.92,-41.03"/>
<polygon fill="midnightblue" stroke="midnightblue" points="136.51,-44.51 146.92,-42.53 137.54,-37.59 136.51,-44.51"/>
</g>
<!-- Node6 -->
<g id="node6" class="node">
<title>Node6</title>
<g id="a_node6"><a xlink:href="namespacevecCore.html#a211f237ccf30b72af40548291b739272" target="_top" xlink:title=" ">
<polygon fill="white" stroke="black" points="147.5,-0.5 147.5,-19.5 221.5,-19.5 221.5,-0.5 147.5,-0.5"/>
<text text-anchor="middle" x="184.5" y="-7.5" font-family="Helvetica,sans-Serif" font-size="10.00">vecCore::Set</text>
</a>
</g>
</g>
<!-- Node1&#45;&gt;Node6 -->
<g id="edge5" class="edge">
<title>Node1&#45;&gt;Node6</title>
<path fill="none" stroke="midnightblue" d="M111.1,-20.83C119.8,-19.53 128.72,-18.2 137.2,-16.93"/>
<polygon fill="midnightblue" stroke="midnightblue" points="137.92,-20.36 147.29,-15.42 136.88,-13.44 137.92,-20.36"/>
</g>
<!-- Node3 -->
<g id="node3" class="node">
<title>Node3</title>
<g id="a_node3"><a xlink:href="structvecCore_1_1IndexingImplementation.html#abd2d0f232679541dacf3c6d019372e42" target="_top" xlink:title=" ">
<polygon fill="white" stroke="black" points="258,-38.5 258,-57.5 443,-57.5 443,-38.5 258,-38.5"/>
<text text-anchor="middle" x="350.5" y="-45.5" font-family="Helvetica,sans-Serif" font-size="10.00">vecCore::IndexingImplementation::Get</text>
</a>
</g>
</g>
<!-- Node2&#45;&gt;Node3 -->
<g id="edge2" class="edge">
<title>Node2&#45;&gt;Node3</title>
<path fill="none" stroke="midnightblue" d="M222.3,-48C230.13,-48 238.75,-48 247.7,-48"/>
<polygon fill="midnightblue" stroke="midnightblue" points="247.93,-51.5 257.93,-48 247.93,-44.5 247.93,-51.5"/>
</g>
<!-- Node4 -->
<g id="node4" class="node">
<title>Node4</title>
<g id="a_node4"><a xlink:href="namespacevecCore.html#a744ecfff38071bf6a45e7a17cede5b0a" target="_top" xlink:title=" ">
<polygon fill="white" stroke="black" points="479,-19.5 479,-38.5 563,-38.5 563,-19.5 479,-19.5"/>
<text text-anchor="middle" x="521" y="-26.5" font-family="Helvetica,sans-Serif" font-size="10.00">vecCore::Begin</text>
</a>
</g>
</g>
<!-- Node3&#45;&gt;Node4 -->
<g id="edge3" class="edge">
<title>Node3&#45;&gt;Node4</title>
<path fill="none" stroke="midnightblue" d="M436.24,-38.44C447.31,-37.2 458.36,-35.95 468.64,-34.79"/>
<polygon fill="midnightblue" stroke="midnightblue" points="469.08,-38.26 478.63,-33.67 468.3,-31.31 469.08,-38.26"/>
</g>
<!-- Node5 -->
<g id="node5" class="node">
<title>Node5</title>
<g id="a_node5"><a xlink:href="structvecCore_1_1IteratorImplementation.html#a72e48906a04cbcb83fe7bac49836ed43" target="_top" xlink:title=" ">
<polygon fill="white" stroke="black" points="599,-14 599,-44 756,-44 756,-14 599,-14"/>
<text text-anchor="start" x="607" y="-32" font-family="Helvetica,sans-Serif" font-size="10.00">vecCore::IteratorImplementation</text>
<text text-anchor="middle" x="677.5" y="-21" font-family="Helvetica,sans-Serif" font-size="10.00">::Begin</text>
</a>
</g>
</g>
<!-- Node4&#45;&gt;Node5 -->
<g id="edge4" class="edge">
<title>Node4&#45;&gt;Node5</title>
<path fill="none" stroke="midnightblue" d="M563.4,-29C571.39,-29 580.04,-29 588.87,-29"/>
<polygon fill="midnightblue" stroke="midnightblue" points="588.89,-32.5 598.89,-29 588.89,-25.5 588.89,-32.5"/>
</g>
<!-- Node7 -->
<g id="node7" class="node">
<title>Node7</title>
<g id="a_node7"><a xlink:href="structvecCore_1_1IndexingImplementation.html#a04d0ce397356d802d033e242a9b86bc7" target="_top" xlink:title=" ">
<polygon fill="white" stroke="black" points="258.5,-0.5 258.5,-19.5 442.5,-19.5 442.5,-0.5 258.5,-0.5"/>
<text text-anchor="middle" x="350.5" y="-7.5" font-family="Helvetica,sans-Serif" font-size="10.00">vecCore::IndexingImplementation::Set</text>
</a>
</g>
</g>
<!-- Node6&#45;&gt;Node7 -->
<g id="edge6" class="edge">
<title>Node6&#45;&gt;Node7</title>
<path fill="none" stroke="midnightblue" d="M221.9,-10C229.94,-10 238.83,-10 248.08,-10"/>
<polygon fill="midnightblue" stroke="midnightblue" points="248.22,-13.5 258.22,-10 248.22,-6.5 248.22,-13.5"/>
</g>
<!-- Node7&#45;&gt;Node4 -->
<g id="edge7" class="edge">
<title>Node7&#45;&gt;Node4</title>
<path fill="none" stroke="midnightblue" d="M436.24,-19.56C447.31,-20.8 458.36,-22.05 468.64,-23.21"/>
<polygon fill="midnightblue" stroke="midnightblue" points="468.3,-26.69 478.63,-24.33 469.08,-19.74 468.3,-26.69"/>
</g>
</g>
</svg>
