<?xml version="1.0" encoding="UTF-8" standalone="no"?>
<!DOCTYPE svg PUBLIC "-//W3C//DTD SVG 1.1//EN"
 "http://www.w3.org/Graphics/SVG/1.1/DTD/svg11.dtd">
<!-- Generated by graphviz version 2.44.0 (20200408.0750)
 -->
<!-- Title: vecCore::Blend Pages: 1 -->
<svg width="376pt" height="66pt"
 viewBox="0.00 0.00 376.00 66.00" xmlns="http://www.w3.org/2000/svg" xmlns:xlink="http://www.w3.org/1999/xlink">
<g id="graph0" class="graph" transform="scale(1 1) rotate(0) translate(4 62)">
<title>vecCore::Blend</title>
<polygon fill="white" stroke="transparent" points="-4,4 -4,-62 372,-62 372,4 -4,4"/>
<!-- Node1 -->
<g id="node1" class="node">
<title>Node1</title>
<g id="a_node1"><a xlink:title=" ">
<polygon fill="#bfbfbf" stroke="black" points="284,-19.5 284,-38.5 368,-38.5 368,-19.5 284,-19.5"/>
<text text-anchor="middle" x="326" y="-26.5" font-family="Helvetica,sans-Serif" font-size="10.00">vecCore::Blend</text>
</a>
</g>
</g>
<!-- Node2 -->
<g id="node2" class="node">
<title>Node2</title>
<g id="a_node2"><a xlink:href="namespacevecCore_1_1math.html#a8eba2e0f27791ee4790ac93303e2801e" target="_top" xlink:title=" ">
<polygon fill="white" stroke="black" points="142,-38.5 142,-57.5 248,-57.5 248,-38.5 142,-38.5"/>
<text text-anchor="middle" x="195" y="-45.5" font-family="Helvetica,sans-Serif" font-size="10.00">vecCore::math::Max</text>
</a>
</g>
</g>
<!-- Node1&#45;&gt;Node2 -->
<g id="edge1" class="edge">
<title>Node1&#45;&gt;Node2</title>
<path fill="none" stroke="midnightblue" d="M273.74,-36.55C265.31,-37.79 256.57,-39.08 248.12,-40.32"/>
<polygon fill="midnightblue" stroke="midnightblue" points="274.45,-39.98 283.83,-35.06 273.43,-33.06 274.45,-39.98"/>
</g>
<!-- Node4 -->
<g id="node4" class="node">
<title>Node4</title>
<g id="a_node4"><a xlink:href="namespacevecCore_1_1math.html#aca944df9f7607ebcdc0928d49680b489" target="_top" xlink:title=" ">
<polygon fill="white" stroke="black" points="143.5,-0.5 143.5,-19.5 246.5,-19.5 246.5,-0.5 143.5,-0.5"/>
<text text-anchor="middle" x="195" y="-7.5" font-family="Helvetica,sans-Serif" font-size="10.00">vecCore::math::Min</text>
</a>
</g>
</g>
<!-- Node1&#45;&gt;Node4 -->
<g id="edge3" class="edge">
<title>Node1&#45;&gt;Node4</title>
<path fill="none" stroke="midnightblue" d="M273.92,-21.48C264.97,-20.16 255.67,-18.79 246.73,-17.47"/>
<polygon fill="midnightblue" stroke="midnightblue" points="273.43,-24.94 283.83,-22.94 274.45,-18.02 273.43,-24.94"/>
</g>
<!-- Node3 -->
<g id="node3" class="node">
<title>Node3</title>
<g id="a_node3"><a xlink:href="namespacevecCore_1_1math.html#ab257deba7141db46bf96aec368ecd4bf" target="_top" xlink:title=" ">
<polygon fill="white" stroke="black" points="0,-38.5 0,-57.5 106,-57.5 106,-38.5 0,-38.5"/>
<text text-anchor="middle" x="53" y="-45.5" font-family="Helvetica,sans-Serif" font-size="10.00">vecCore::math::Max</text>
</a>
</g>
</g>
<!-- Node2&#45;&gt;Node3 -->
<g id="edge2" class="edge">
<title>Node2&#45;&gt;Node3</title>
<path fill="none" stroke="midnightblue" d="M131.61,-48C123.12,-48 114.47,-48 106.17,-48"/>
<polygon fill="midnightblue" stroke="midnightblue" points="131.87,-51.5 141.87,-48 131.87,-44.5 131.87,-51.5"/>
</g>
<!-- Node5 -->
<g id="node5" class="node">
<title>Node5</title>
<g id="a_node5"><a xlink:href="namespacevecCore_1_1math.html#afef7ec28dbf5317c32c0bf0369fb9f29" target="_top" xlink:title=" ">
<polygon fill="white" stroke="black" points="1.5,-0.5 1.5,-19.5 104.5,-19.5 104.5,-0.5 1.5,-0.5"/>
<text text-anchor="middle" x="53" y="-7.5" font-family="Helvetica,sans-Serif" font-size="10.00">vecCore::math::Min</text>
</a>
</g>
</g>
<!-- Node4&#45;&gt;Node5 -->
<g id="edge4" class="edge">
<title>Node4&#45;&gt;Node5</title>
<path fill="none" stroke="midnightblue" d="M133.31,-10C123.85,-10 114.16,-10 104.94,-10"/>
<polygon fill="midnightblue" stroke="midnightblue" points="133.46,-13.5 143.46,-10 133.46,-6.5 133.46,-13.5"/>
</g>
</g>
</svg>
