<?xml version="1.0" encoding="UTF-8" standalone="no"?>
<!DOCTYPE svg PUBLIC "-//W3C//DTD SVG 1.1//EN"
 "http://www.w3.org/Graphics/SVG/1.1/DTD/svg11.dtd">
<!-- Generated by graphviz version 2.44.1 (20200629.0846)
 -->
<!-- Title: vecCore::Begin Pages: 1 -->
<svg width="657pt" height="667pt"
 viewBox="0.00 0.00 657.00 667.00" xmlns="http://www.w3.org/2000/svg" xmlns:xlink="http://www.w3.org/1999/xlink">
<g id="graph0" class="graph" transform="scale(1 1) rotate(0) translate(4 663)">
<title>vecCore::Begin</title>
<polygon fill="white" stroke="transparent" points="-4,4 -4,-663 653,-663 653,4 -4,4"/>
<!-- Node1 -->
<g id="node1" class="node">
<title>Node1</title>
<g id="a_node1"><a xlink:title=" ">
<polygon fill="#bfbfbf" stroke="black" points="565,-364.5 565,-383.5 649,-383.5 649,-364.5 565,-364.5"/>
<text text-anchor="middle" x="607" y="-371.5" font-family="Helvetica,sans-Serif" font-size="10.00">vecCore::Begin</text>
</a>
</g>
</g>
<!-- Node2 -->
<g id="node2" class="node">
<title>Node2</title>
<g id="a_node2"><a xlink:href="structvecCore_1_1IndexingImplementation.html#abd2d0f232679541dacf3c6d019372e42" target="_top" xlink:title=" ">
<polygon fill="white" stroke="black" points="344,-345.5 344,-364.5 529,-364.5 529,-345.5 344,-345.5"/>
<text text-anchor="middle" x="436.5" y="-352.5" font-family="Helvetica,sans-Serif" font-size="10.00">vecCore::IndexingImplementation::Get</text>
</a>
</g>
</g>
<!-- Node1&#45;&gt;Node2 -->
<g id="edge1" class="edge">
<title>Node1&#45;&gt;Node2</title>
<path fill="none" stroke="midnightblue" d="M554.66,-368.21C544.25,-367.04 533.05,-365.77 521.84,-364.51"/>
<polygon fill="midnightblue" stroke="midnightblue" points="554.45,-371.71 564.78,-369.35 555.24,-364.75 554.45,-371.71"/>
</g>
<!-- Node17 -->
<g id="node17" class="node">
<title>Node17</title>
<g id="a_node17"><a xlink:href="structvecCore_1_1IndexingImplementation.html#a04d0ce397356d802d033e242a9b86bc7" target="_top" xlink:title=" ">
<polygon fill="white" stroke="black" points="344.5,-426.5 344.5,-445.5 528.5,-445.5 528.5,-426.5 344.5,-426.5"/>
<text text-anchor="middle" x="436.5" y="-433.5" font-family="Helvetica,sans-Serif" font-size="10.00">vecCore::IndexingImplementation::Set</text>
</a>
</g>
</g>
<!-- Node1&#45;&gt;Node17 -->
<g id="edge16" class="edge">
<title>Node1&#45;&gt;Node17</title>
<path fill="none" stroke="midnightblue" d="M570.6,-387.02C538.59,-398.8 492.2,-415.87 463.49,-426.44"/>
<polygon fill="midnightblue" stroke="midnightblue" points="571.86,-390.29 580.04,-383.55 569.45,-383.72 571.86,-390.29"/>
</g>
<!-- Node3 -->
<g id="node3" class="node">
<title>Node3</title>
<g id="a_node3"><a xlink:href="namespacevecCore.html#a0bc95998843376452d74d5c8f5337845" target="_top" xlink:title=" ">
<polygon fill="white" stroke="black" points="233,-259.5 233,-278.5 308,-278.5 308,-259.5 233,-259.5"/>
<text text-anchor="middle" x="270.5" y="-266.5" font-family="Helvetica,sans-Serif" font-size="10.00">vecCore::Get</text>
</a>
</g>
</g>
<!-- Node2&#45;&gt;Node3 -->
<g id="edge2" class="edge">
<title>Node2&#45;&gt;Node3</title>
<path fill="none" stroke="midnightblue" d="M408.08,-340.62C374.48,-323 318.5,-293.65 289.76,-278.57"/>
<polygon fill="midnightblue" stroke="midnightblue" points="406.84,-343.92 417.32,-345.47 410.09,-337.72 406.84,-343.92"/>
</g>
<!-- Node4 -->
<g id="node4" class="node">
<title>Node4</title>
<g id="a_node4"><a xlink:href="structvecCore_1_1GenericMaskingImplementation.html#a844c93572de9dd1576452a054aea46b3" target="_top" xlink:title=" ">
<polygon fill="white" stroke="black" points="0,-415 0,-445 197,-445 197,-415 0,-415"/>
<text text-anchor="start" x="8" y="-433" font-family="Helvetica,sans-Serif" font-size="10.00">vecCore::GenericMaskingImplementation</text>
<text text-anchor="middle" x="98.5" y="-422" font-family="Helvetica,sans-Serif" font-size="10.00">::Assign</text>
</a>
</g>
</g>
<!-- Node3&#45;&gt;Node4 -->
<g id="edge3" class="edge">
<title>Node3&#45;&gt;Node4</title>
<path fill="none" stroke="midnightblue" d="M264.52,-288.65C255.93,-318.46 235.43,-374.8 197,-405 192.05,-408.89 186.57,-412.17 180.8,-414.96"/>
<polygon fill="midnightblue" stroke="midnightblue" points="268,-289.21 267.24,-278.64 261.24,-287.37 268,-289.21"/>
</g>
<!-- Node5 -->
<g id="node5" class="node">
<title>Node5</title>
<g id="a_node5"><a xlink:href="structvecCore_1_1GenericMaskingImplementation.html#ad71b7c26a7165080d62f5d590b0f4d73" target="_top" xlink:title=" ">
<polygon fill="white" stroke="black" points="0,-366 0,-396 197,-396 197,-366 0,-366"/>
<text text-anchor="start" x="8" y="-384" font-family="Helvetica,sans-Serif" font-size="10.00">vecCore::GenericMaskingImplementation</text>
<text text-anchor="middle" x="98.5" y="-373" font-family="Helvetica,sans-Serif" font-size="10.00">::Blend</text>
</a>
</g>
</g>
<!-- Node3&#45;&gt;Node5 -->
<g id="edge4" class="edge">
<title>Node3&#45;&gt;Node5</title>
<path fill="none" stroke="midnightblue" d="M259.12,-287.28C246.85,-307.21 224.57,-338.58 197,-356 190.87,-359.87 184.16,-363.15 177.23,-365.92"/>
<polygon fill="midnightblue" stroke="midnightblue" points="262.22,-288.92 264.32,-278.53 256.2,-285.34 262.22,-288.92"/>
</g>
<!-- Node6 -->
<g id="node6" class="node">
<title>Node6</title>
<g id="a_node6"><a xlink:href="namespacevecCore.html#a98d52c47c802cf3d9d7f5f177b39f062" target="_top" xlink:title=" ">
<polygon fill="white" stroke="black" points="51.5,-513.5 51.5,-532.5 145.5,-532.5 145.5,-513.5 51.5,-513.5"/>
<text text-anchor="middle" x="98.5" y="-520.5" font-family="Helvetica,sans-Serif" font-size="10.00">vecCore::Convert</text>
</a>
</g>
</g>
<!-- Node3&#45;&gt;Node6 -->
<g id="edge5" class="edge">
<title>Node3&#45;&gt;Node6</title>
<path fill="none" stroke="midnightblue" d="M269.74,-288.96C269.12,-334.52 260.83,-446.65 197,-504 183.15,-516.45 163.63,-521.77 145.69,-523.77"/>
<polygon fill="midnightblue" stroke="midnightblue" points="273.24,-288.89 269.76,-278.88 266.24,-288.88 273.24,-288.89"/>
</g>
<!-- Node7 -->
<g id="node7" class="node">
<title>Node7</title>
<g id="a_node7"><a xlink:href="structvecCore_1_1GatherScatterImplementation.html#a76603f42775f63b3c9fa979bfbb79663" target="_top" xlink:title=" ">
<polygon fill="white" stroke="black" points="5,-464 5,-494 192,-494 192,-464 5,-464"/>
<text text-anchor="start" x="13" y="-482" font-family="Helvetica,sans-Serif" font-size="10.00">vecCore::GatherScatterImplementation</text>
<text text-anchor="middle" x="98.5" y="-471" font-family="Helvetica,sans-Serif" font-size="10.00">::Gather</text>
</a>
</g>
</g>
<!-- Node3&#45;&gt;Node7 -->
<g id="edge6" class="edge">
<title>Node3&#45;&gt;Node7</title>
<path fill="none" stroke="midnightblue" d="M267.63,-289.22C262.96,-327.54 247.29,-410.87 197,-455 193.07,-458.45 188.72,-461.42 184.11,-463.98"/>
<polygon fill="midnightblue" stroke="midnightblue" points="271.15,-289.18 268.75,-278.86 264.19,-288.42 271.15,-289.18"/>
</g>
<!-- Node8 -->
<g id="node8" class="node">
<title>Node8</title>
<g id="a_node8"><a xlink:href="namespacevecCore.html#ae21440201cbb30a1dcd1d17f9d573bc1" target="_top" xlink:title=" ">
<polygon fill="white" stroke="black" points="53.5,-190.5 53.5,-209.5 143.5,-209.5 143.5,-190.5 53.5,-190.5"/>
<text text-anchor="middle" x="98.5" y="-197.5" font-family="Helvetica,sans-Serif" font-size="10.00">vecCore::LaneAt</text>
</a>
</g>
</g>
<!-- Node3&#45;&gt;Node8 -->
<g id="edge7" class="edge">
<title>Node3&#45;&gt;Node8</title>
<path fill="none" stroke="midnightblue" d="M250.72,-252.8C236.79,-241.63 216.84,-227.34 197,-219 180.31,-211.98 160.91,-207.52 143.83,-204.71"/>
<polygon fill="midnightblue" stroke="midnightblue" points="248.62,-255.61 258.56,-259.27 253.08,-250.21 248.62,-255.61"/>
</g>
<!-- Node9 -->
<g id="node9" class="node">
<title>Node9</title>
<g id="a_node9"><a xlink:href="namespacevecCore.html#afef4f1f6e850798d457b565e0e52f45f" target="_top" xlink:title=" ">
<polygon fill="white" stroke="black" points="42.5,-152.5 42.5,-171.5 154.5,-171.5 154.5,-152.5 42.5,-152.5"/>
<text text-anchor="middle" x="98.5" y="-159.5" font-family="Helvetica,sans-Serif" font-size="10.00">vecCore::MaskEmpty</text>
</a>
</g>
</g>
<!-- Node3&#45;&gt;Node9 -->
<g id="edge8" class="edge">
<title>Node3&#45;&gt;Node9</title>
<path fill="none" stroke="midnightblue" d="M259.54,-250.52C247.53,-230.1 225.36,-197.88 197,-181 184.26,-173.41 169.07,-168.78 154.52,-165.97"/>
<polygon fill="midnightblue" stroke="midnightblue" points="256.64,-252.49 264.61,-259.47 262.73,-249.05 256.64,-252.49"/>
</g>
<!-- Node10 -->
<g id="node10" class="node">
<title>Node10</title>
<g id="a_node10"><a xlink:href="namespacevecCore.html#aeb6e15ac4cdf69979f998afd4bd5d4e3" target="_top" xlink:title=" ">
<polygon fill="white" stroke="black" points="49,-114.5 49,-133.5 148,-133.5 148,-114.5 49,-114.5"/>
<text text-anchor="middle" x="98.5" y="-121.5" font-family="Helvetica,sans-Serif" font-size="10.00">vecCore::MaskFull</text>
</a>
</g>
</g>
<!-- Node3&#45;&gt;Node10 -->
<g id="edge9" class="edge">
<title>Node3&#45;&gt;Node10</title>
<path fill="none" stroke="midnightblue" d="M263.91,-249.31C254.81,-221.03 233.98,-169.43 197,-143 182.97,-132.97 165.02,-127.88 148.36,-125.4"/>
<polygon fill="midnightblue" stroke="midnightblue" points="260.67,-250.67 266.93,-259.22 267.36,-248.64 260.67,-250.67"/>
</g>
<!-- Node11 -->
<g id="node11" class="node">
<title>Node11</title>
<g id="a_node11"><a xlink:href="namespacevecCore.html#aa75489a44b4d54c24a9cad72a929408a" target="_top" xlink:title=" ">
<polygon fill="white" stroke="black" points="41.5,-76.5 41.5,-95.5 155.5,-95.5 155.5,-76.5 41.5,-76.5"/>
<text text-anchor="middle" x="98.5" y="-83.5" font-family="Helvetica,sans-Serif" font-size="10.00">vecCore::MaskLaneAt</text>
</a>
</g>
</g>
<!-- Node3&#45;&gt;Node11 -->
<g id="edge10" class="edge">
<title>Node3&#45;&gt;Node11</title>
<path fill="none" stroke="midnightblue" d="M266.78,-249.49C260.85,-214.66 243.33,-141.97 197,-105 185.27,-95.64 170.26,-90.45 155.54,-87.67"/>
<polygon fill="midnightblue" stroke="midnightblue" points="263.33,-250.04 268.33,-259.38 270.24,-248.96 263.33,-250.04"/>
</g>
<!-- Node12 -->
<g id="node12" class="node">
<title>Node12</title>
<g id="a_node12"><a xlink:href="namespacevecCore.html#af5ae6bac35d59b00c29fd4380c615e86" target="_top" xlink:title=" ">
<polygon fill="white" stroke="black" points="43.5,-38.5 43.5,-57.5 153.5,-57.5 153.5,-38.5 43.5,-38.5"/>
<text text-anchor="middle" x="98.5" y="-45.5" font-family="Helvetica,sans-Serif" font-size="10.00">vecCore::ReduceAdd</text>
</a>
</g>
</g>
<!-- Node3&#45;&gt;Node12 -->
<g id="edge11" class="edge">
<title>Node3&#45;&gt;Node12</title>
<path fill="none" stroke="midnightblue" d="M268.58,-249.08C265.54,-208.2 252.56,-114.69 197,-67 185.03,-56.72 169.16,-51.36 153.71,-48.72"/>
<polygon fill="midnightblue" stroke="midnightblue" points="265.09,-249.36 269.19,-259.13 272.07,-248.93 265.09,-249.36"/>
</g>
<!-- Node13 -->
<g id="node13" class="node">
<title>Node13</title>
<g id="a_node13"><a xlink:href="namespacevecCore.html#a418a4e9c96935fc85e4e6712489e18ac" target="_top" xlink:title=" ">
<polygon fill="white" stroke="black" points="42.5,-0.5 42.5,-19.5 154.5,-19.5 154.5,-0.5 42.5,-0.5"/>
<text text-anchor="middle" x="98.5" y="-7.5" font-family="Helvetica,sans-Serif" font-size="10.00">vecCore::ReduceMax</text>
</a>
</g>
</g>
<!-- Node3&#45;&gt;Node13 -->
<g id="edge12" class="edge">
<title>Node3&#45;&gt;Node13</title>
<path fill="none" stroke="midnightblue" d="M269.89,-249.26C269.65,-203.18 262.19,-87.92 197,-29 185.42,-18.53 169.84,-13.09 154.54,-10.43"/>
<polygon fill="midnightblue" stroke="midnightblue" points="266.39,-249.39 269.83,-259.41 273.39,-249.44 266.39,-249.39"/>
</g>
<!-- Node14 -->
<g id="node14" class="node">
<title>Node14</title>
<g id="a_node14"><a xlink:href="namespacevecCore.html#ae701e4480574bb9dd38ac3df90884257" target="_top" xlink:title=" ">
<polygon fill="white" stroke="black" points="44,-327.5 44,-346.5 153,-346.5 153,-327.5 44,-327.5"/>
<text text-anchor="middle" x="98.5" y="-334.5" font-family="Helvetica,sans-Serif" font-size="10.00">vecCore::ReduceMin</text>
</a>
</g>
</g>
<!-- Node3&#45;&gt;Node14 -->
<g id="edge13" class="edge">
<title>Node3&#45;&gt;Node14</title>
<path fill="none" stroke="midnightblue" d="M250.09,-284.84C236.12,-295.47 216.4,-308.95 197,-317 183.28,-322.7 167.77,-326.83 153.23,-329.79"/>
<polygon fill="midnightblue" stroke="midnightblue" points="252.27,-287.58 257.99,-278.67 247.96,-282.07 252.27,-287.58"/>
</g>
<!-- Node15 -->
<g id="node15" class="node">
<title>Node15</title>
<g id="a_node15"><a xlink:href="structvecCore_1_1GatherScatterImplementation.html#a03f8ce92b4f7500e88272ed448518090" target="_top" xlink:title=" ">
<polygon fill="white" stroke="black" points="5,-278 5,-308 192,-308 192,-278 5,-278"/>
<text text-anchor="start" x="13" y="-296" font-family="Helvetica,sans-Serif" font-size="10.00">vecCore::GatherScatterImplementation</text>
<text text-anchor="middle" x="98.5" y="-285" font-family="Helvetica,sans-Serif" font-size="10.00">::Scatter</text>
</a>
</g>
</g>
<!-- Node3&#45;&gt;Node15 -->
<g id="edge14" class="edge">
<title>Node3&#45;&gt;Node15</title>
<path fill="none" stroke="midnightblue" d="M222.58,-275.62C213.02,-276.97 202.64,-278.44 192.11,-279.93"/>
<polygon fill="midnightblue" stroke="midnightblue" points="223.2,-279.07 232.61,-274.21 222.22,-272.14 223.2,-279.07"/>
</g>
<!-- Node16 -->
<g id="node16" class="node">
<title>Node16</title>
<g id="a_node16"><a xlink:href="structvecCore_1_1LoadStoreImplementation.html#abaa8e55659d773dc8abb850b16e04678" target="_top" xlink:title=" ">
<polygon fill="white" stroke="black" points="13.5,-229 13.5,-259 183.5,-259 183.5,-229 13.5,-229"/>
<text text-anchor="start" x="21.5" y="-247" font-family="Helvetica,sans-Serif" font-size="10.00">vecCore::LoadStoreImplementation</text>
<text text-anchor="middle" x="98.5" y="-236" font-family="Helvetica,sans-Serif" font-size="10.00">::Store</text>
</a>
</g>
</g>
<!-- Node3&#45;&gt;Node16 -->
<g id="edge15" class="edge">
<title>Node3&#45;&gt;Node16</title>
<path fill="none" stroke="midnightblue" d="M222.4,-262.07C210.36,-260.3 197.05,-258.35 183.76,-256.39"/>
<polygon fill="midnightblue" stroke="midnightblue" points="222.21,-265.58 232.61,-263.58 223.23,-258.66 222.21,-265.58"/>
</g>
<!-- Node18 -->
<g id="node18" class="node">
<title>Node18</title>
<g id="a_node18"><a xlink:href="namespacevecCore.html#a211f237ccf30b72af40548291b739272" target="_top" xlink:title=" ">
<polygon fill="white" stroke="black" points="233.5,-491.5 233.5,-510.5 307.5,-510.5 307.5,-491.5 233.5,-491.5"/>
<text text-anchor="middle" x="270.5" y="-498.5" font-family="Helvetica,sans-Serif" font-size="10.00">vecCore::Set</text>
</a>
</g>
</g>
<!-- Node17&#45;&gt;Node18 -->
<g id="edge17" class="edge">
<title>Node17&#45;&gt;Node18</title>
<path fill="none" stroke="midnightblue" d="M402,-449.28C370.34,-461.82 323.64,-480.34 295.53,-491.48"/>
<polygon fill="midnightblue" stroke="midnightblue" points="403.29,-452.53 411.3,-445.59 400.72,-446.02 403.29,-452.53"/>
</g>
<!-- Node18&#45;&gt;Node4 -->
<g id="edge18" class="edge">
<title>Node18&#45;&gt;Node4</title>
<path fill="none" stroke="midnightblue" d="M248.71,-485.32C234.72,-475.41 215.52,-463.01 197,-455 188.26,-451.22 178.82,-447.92 169.38,-445.06"/>
<polygon fill="midnightblue" stroke="midnightblue" points="246.94,-488.36 257.09,-491.4 251.05,-482.69 246.94,-488.36"/>
</g>
<!-- Node18&#45;&gt;Node5 -->
<g id="edge21" class="edge">
<title>Node18&#45;&gt;Node5</title>
<path fill="none" stroke="midnightblue" d="M260.48,-482.38C248.88,-460.45 226.64,-424.53 197,-405 191.76,-401.55 186.07,-398.59 180.15,-396.06"/>
<polygon fill="midnightblue" stroke="midnightblue" points="257.4,-484.04 265.05,-491.36 263.64,-480.86 257.4,-484.04"/>
</g>
<!-- Node18&#45;&gt;Node6 -->
<g id="edge22" class="edge">
<title>Node18&#45;&gt;Node6</title>
<path fill="none" stroke="midnightblue" d="M223.44,-506.96C199.26,-510.09 169.72,-513.91 145.54,-517.04"/>
<polygon fill="midnightblue" stroke="midnightblue" points="223.98,-510.42 233.45,-505.67 223.08,-503.48 223.98,-510.42"/>
</g>
<!-- Node18&#45;&gt;Node7 -->
<g id="edge23" class="edge">
<title>Node18&#45;&gt;Node7</title>
<path fill="none" stroke="midnightblue" d="M223.26,-495.02C213.52,-493.76 202.93,-492.38 192.16,-490.99"/>
<polygon fill="midnightblue" stroke="midnightblue" points="223.08,-498.52 233.45,-496.33 223.98,-491.58 223.08,-498.52"/>
</g>
<!-- Node19 -->
<g id="node19" class="node">
<title>Node19</title>
<g id="a_node19"><a xlink:href="namespacevecCore.html#a1f2a79b75b5b3decff8b5afdb08e8af8" target="_top" xlink:title=" ">
<polygon fill="white" stroke="black" points="43.5,-639.5 43.5,-658.5 153.5,-658.5 153.5,-639.5 43.5,-639.5"/>
<text text-anchor="middle" x="98.5" y="-646.5" font-family="Helvetica,sans-Serif" font-size="10.00">vecCore::AssignLane</text>
</a>
</g>
</g>
<!-- Node18&#45;&gt;Node19 -->
<g id="edge19" class="edge">
<title>Node18&#45;&gt;Node19</title>
<path fill="none" stroke="midnightblue" d="M264.3,-520.35C255.5,-549.1 234.85,-602.65 197,-630 184.49,-639.04 168.81,-644.08 153.7,-646.81"/>
<polygon fill="midnightblue" stroke="midnightblue" points="267.69,-521.23 267.1,-510.65 260.96,-519.28 267.69,-521.23"/>
</g>
<!-- Node20 -->
<g id="node20" class="node">
<title>Node20</title>
<g id="a_node20"><a xlink:href="namespacevecCore.html#a164486a9bb5308400ead845fa48177c9" target="_top" xlink:title=" ">
<polygon fill="white" stroke="black" points="31.5,-601.5 31.5,-620.5 165.5,-620.5 165.5,-601.5 31.5,-601.5"/>
<text text-anchor="middle" x="98.5" y="-608.5" font-family="Helvetica,sans-Serif" font-size="10.00">vecCore::AssignMaskLane</text>
</a>
</g>
</g>
<!-- Node18&#45;&gt;Node20 -->
<g id="edge20" class="edge">
<title>Node18&#45;&gt;Node20</title>
<path fill="none" stroke="midnightblue" d="M260.05,-519.5C248.26,-540.57 226.07,-574.36 197,-592 187.49,-597.77 176.58,-601.84 165.59,-604.7"/>
<polygon fill="midnightblue" stroke="midnightblue" points="263.2,-521.02 264.85,-510.56 257.03,-517.71 263.2,-521.02"/>
</g>
<!-- Node21 -->
<g id="node21" class="node">
<title>Node21</title>
<g id="a_node21"><a xlink:href="structvecCore_1_1LoadStoreImplementation.html#ab0899849de37f38f65884b2c83b01f44" target="_top" xlink:title=" ">
<polygon fill="white" stroke="black" points="13.5,-552 13.5,-582 183.5,-582 183.5,-552 13.5,-552"/>
<text text-anchor="start" x="21.5" y="-570" font-family="Helvetica,sans-Serif" font-size="10.00">vecCore::LoadStoreImplementation</text>
<text text-anchor="middle" x="98.5" y="-559" font-family="Helvetica,sans-Serif" font-size="10.00">::Load</text>
</a>
</g>
</g>
<!-- Node18&#45;&gt;Node21 -->
<g id="edge24" class="edge">
<title>Node18&#45;&gt;Node21</title>
<path fill="none" stroke="midnightblue" d="M246.25,-516.24C232.4,-524.78 214.22,-535.07 197,-542 187.68,-545.75 177.63,-549.08 167.64,-551.99"/>
<polygon fill="midnightblue" stroke="midnightblue" points="248.49,-518.97 255.08,-510.67 244.75,-513.05 248.49,-518.97"/>
</g>
</g>
</svg>
