<?xml version="1.0" encoding="UTF-8" standalone="no"?>
<!DOCTYPE svg PUBLIC "-//W3C//DTD SVG 1.1//EN"
 "http://www.w3.org/Graphics/SVG/1.1/DTD/svg11.dtd">
<!-- Generated by graphviz version 2.44.0 (20200408.0750)
 -->
<!-- Title: VecCore/Backend/Scalar.h Pages: 1 -->
<svg width="308pt" height="196pt"
 viewBox="0.00 0.00 307.50 196.00" xmlns="http://www.w3.org/2000/svg" xmlns:xlink="http://www.w3.org/1999/xlink">
<g id="graph0" class="graph" transform="scale(1 1) rotate(0) translate(4 192)">
<title>VecCore/Backend/Scalar.h</title>
<polygon fill="white" stroke="transparent" points="-4,4 -4,-192 303.5,-192 303.5,4 -4,4"/>
<!-- Node1 -->
<g id="node1" class="node">
<title>Node1</title>
<g id="a_node1"><a xlink:title=" ">
<polygon fill="#bfbfbf" stroke="black" points="0,-168.5 0,-187.5 135,-187.5 135,-168.5 0,-168.5"/>
<text text-anchor="middle" x="67.5" y="-175.5" font-family="Helvetica,sans-Serif" font-size="10.00">VecCore/Backend/Scalar.h</text>
</a>
</g>
</g>
<!-- Node2 -->
<g id="node2" class="node">
<title>Node2</title>
<g id="a_node2"><a xlink:href="Interface_8h.html" target="_top" xlink:title=" ">
<polygon fill="white" stroke="black" points="1,-0.5 1,-19.5 64,-19.5 64,-0.5 1,-0.5"/>
<text text-anchor="middle" x="32.5" y="-7.5" font-family="Helvetica,sans-Serif" font-size="10.00">Interface.h</text>
</a>
</g>
</g>
<!-- Node1&#45;&gt;Node2 -->
<g id="edge1" class="edge">
<title>Node1&#45;&gt;Node2</title>
<path fill="none" stroke="midnightblue" d="M65.62,-168.08C60.11,-141.95 43.93,-65.21 36.42,-29.58"/>
<polygon fill="midnightblue" stroke="midnightblue" points="39.79,-28.63 34.31,-19.57 32.94,-30.08 39.79,-28.63"/>
</g>
<!-- Node3 -->
<g id="node3" class="node">
<title>Node3</title>
<g id="a_node3"><a xlink:href="Implementation_8h.html" target="_top" xlink:title=" ">
<polygon fill="white" stroke="black" points="69.5,-112.5 69.5,-131.5 161.5,-131.5 161.5,-112.5 69.5,-112.5"/>
<text text-anchor="middle" x="115.5" y="-119.5" font-family="Helvetica,sans-Serif" font-size="10.00">Implementation.h</text>
</a>
</g>
</g>
<!-- Node1&#45;&gt;Node3 -->
<g id="edge2" class="edge">
<title>Node1&#45;&gt;Node3</title>
<path fill="none" stroke="midnightblue" d="M75.43,-168.08C82.35,-160.3 92.57,-148.8 100.95,-139.37"/>
<polygon fill="midnightblue" stroke="midnightblue" points="103.69,-141.55 107.72,-131.75 98.46,-136.9 103.69,-141.55"/>
</g>
<!-- Node3&#45;&gt;Node2 -->
<g id="edge3" class="edge">
<title>Node3&#45;&gt;Node2</title>
<path fill="none" stroke="midnightblue" d="M107.41,-112.3C99.29,-103.42 86.57,-89.12 76.5,-76 64.48,-60.34 51.98,-41.59 43.39,-28.27"/>
<polygon fill="midnightblue" stroke="midnightblue" points="46.21,-26.19 37.88,-19.64 40.31,-29.95 46.21,-26.19"/>
</g>
<!-- Node4 -->
<g id="node4" class="node">
<title>Node4</title>
<g id="a_node4"><a xlink:href="Limits_8h.html" target="_top" xlink:title=" ">
<polygon fill="white" stroke="black" points="85.5,-56.5 85.5,-75.5 145.5,-75.5 145.5,-56.5 85.5,-56.5"/>
<text text-anchor="middle" x="115.5" y="-63.5" font-family="Helvetica,sans-Serif" font-size="10.00">../Limits.h</text>
</a>
</g>
</g>
<!-- Node3&#45;&gt;Node4 -->
<g id="edge4" class="edge">
<title>Node3&#45;&gt;Node4</title>
<path fill="none" stroke="midnightblue" d="M115.5,-112.08C115.5,-105.01 115.5,-94.86 115.5,-85.99"/>
<polygon fill="midnightblue" stroke="midnightblue" points="119,-85.75 115.5,-75.75 112,-85.75 119,-85.75"/>
</g>
<!-- Node8 -->
<g id="node8" class="node">
<title>Node8</title>
<g id="a_node8"><a xlink:title=" ">
<polygon fill="white" stroke="#bfbfbf" points="163.5,-56.5 163.5,-75.5 219.5,-75.5 219.5,-56.5 163.5,-56.5"/>
<text text-anchor="middle" x="191.5" y="-63.5" font-family="Helvetica,sans-Serif" font-size="10.00">algorithm</text>
</a>
</g>
</g>
<!-- Node3&#45;&gt;Node8 -->
<g id="edge9" class="edge">
<title>Node3&#45;&gt;Node8</title>
<path fill="none" stroke="midnightblue" d="M127.71,-112.32C139.28,-104.11 156.88,-91.6 170.66,-81.81"/>
<polygon fill="midnightblue" stroke="midnightblue" points="172.94,-84.48 179.07,-75.83 168.89,-78.77 172.94,-84.48"/>
</g>
<!-- Node9 -->
<g id="node9" class="node">
<title>Node9</title>
<g id="a_node9"><a xlink:title=" ">
<polygon fill="white" stroke="#bfbfbf" points="237.5,-56.5 237.5,-75.5 299.5,-75.5 299.5,-56.5 237.5,-56.5"/>
<text text-anchor="middle" x="268.5" y="-63.5" font-family="Helvetica,sans-Serif" font-size="10.00">type_traits</text>
</a>
</g>
</g>
<!-- Node3&#45;&gt;Node9 -->
<g id="edge10" class="edge">
<title>Node3&#45;&gt;Node9</title>
<path fill="none" stroke="midnightblue" d="M139.74,-112.44C165.37,-103.4 205.99,-89.06 234.74,-78.92"/>
<polygon fill="midnightblue" stroke="midnightblue" points="236.11,-82.15 244.37,-75.52 233.78,-75.54 236.11,-82.15"/>
</g>
<!-- Node4&#45;&gt;Node2 -->
<g id="edge5" class="edge">
<title>Node4&#45;&gt;Node2</title>
<path fill="none" stroke="midnightblue" d="M102.16,-56.32C89.34,-47.98 69.72,-35.21 54.56,-25.35"/>
<polygon fill="midnightblue" stroke="midnightblue" points="56.09,-22.17 45.8,-19.65 52.28,-28.04 56.09,-22.17"/>
</g>
<!-- Node5 -->
<g id="node5" class="node">
<title>Node5</title>
<g id="a_node5"><a xlink:title=" ">
<polygon fill="white" stroke="#bfbfbf" points="82,-0.5 82,-19.5 123,-19.5 123,-0.5 82,-0.5"/>
<text text-anchor="middle" x="102.5" y="-7.5" font-family="Helvetica,sans-Serif" font-size="10.00">cfloat</text>
</a>
</g>
</g>
<!-- Node4&#45;&gt;Node5 -->
<g id="edge6" class="edge">
<title>Node4&#45;&gt;Node5</title>
<path fill="none" stroke="midnightblue" d="M113.35,-56.08C111.63,-48.93 109.15,-38.64 107,-29.69"/>
<polygon fill="midnightblue" stroke="midnightblue" points="110.35,-28.65 104.61,-19.75 103.54,-30.29 110.35,-28.65"/>
</g>
<!-- Node6 -->
<g id="node6" class="node">
<title>Node6</title>
<g id="a_node6"><a xlink:title=" ">
<polygon fill="white" stroke="#bfbfbf" points="141,-0.5 141,-19.5 186,-19.5 186,-0.5 141,-0.5"/>
<text text-anchor="middle" x="163.5" y="-7.5" font-family="Helvetica,sans-Serif" font-size="10.00">climits</text>
</a>
</g>
</g>
<!-- Node4&#45;&gt;Node6 -->
<g id="edge7" class="edge">
<title>Node4&#45;&gt;Node6</title>
<path fill="none" stroke="midnightblue" d="M123.43,-56.08C130.35,-48.3 140.57,-36.8 148.95,-27.37"/>
<polygon fill="midnightblue" stroke="midnightblue" points="151.69,-29.55 155.72,-19.75 146.46,-24.9 151.69,-29.55"/>
</g>
<!-- Node7 -->
<g id="node7" class="node">
<title>Node7</title>
<g id="a_node7"><a xlink:title=" ">
<polygon fill="white" stroke="#bfbfbf" points="204.5,-0.5 204.5,-19.5 248.5,-19.5 248.5,-0.5 204.5,-0.5"/>
<text text-anchor="middle" x="226.5" y="-7.5" font-family="Helvetica,sans-Serif" font-size="10.00">cmath</text>
</a>
</g>
</g>
<!-- Node4&#45;&gt;Node7 -->
<g id="edge8" class="edge">
<title>Node4&#45;&gt;Node7</title>
<path fill="none" stroke="midnightblue" d="M133.33,-56.32C151.22,-47.62 178.98,-34.12 199.55,-24.11"/>
<polygon fill="midnightblue" stroke="midnightblue" points="201.25,-27.18 208.71,-19.65 198.19,-20.88 201.25,-27.18"/>
</g>
</g>
</svg>
