<?xml version="1.0" encoding="UTF-8" standalone="no"?>
<!DOCTYPE svg PUBLIC "-//W3C//DTD SVG 1.1//EN"
 "http://www.w3.org/Graphics/SVG/1.1/DTD/svg11.dtd">
<!-- Generated by graphviz version 2.44.0 (20200408.0750)
 -->
<!-- Title: vecCore::IteratorImplementation::Begin Pages: 1 -->
<!--zoomable 896 -->
<svg id="main" version="1.1" xmlns="http://www.w3.org/2000/svg" xmlns:xlink="http://www.w3.org/1999/xlink" xml:space="preserve" onload="init(evt)">
<style type="text/css"><![CDATA[
.edge:hover path { stroke: red; }
.edge:hover polygon { stroke: red; fill: red; }
]]></style>
<script type="text/javascript"><![CDATA[
var edges = document.getElementsByTagName('g');
if (edges && edges.length) {
  for (var i=0;i<edges.length;i++) {
    if (edges[i].id.substr(0,4)=='edge') {
      edges[i].setAttribute('class','edge');
    }
  }
}
]]></script>
        <defs>
                <circle id="rim" cx="0" cy="0" r="7"/>
                <circle id="rim2" cx="0" cy="0" r="3.5"/>
                <g id="zoomPlus">
                        <use xlink:href="#rim" fill="#404040">
                                <set attributeName="fill" to="#808080" begin="zoomplus.mouseover" end="zoomplus.mouseout"/>
                        </use>
                        <path d="M-4,0h8M0,-4v8" fill="none" stroke="white" stroke-width="1.5" pointer-events="none"/>
                </g>
                <g id="zoomMin">
                        <use xlink:href="#rim" fill="#404040">
                                <set attributeName="fill" to="#808080" begin="zoomminus.mouseover" end="zoomminus.mouseout"/>
                        </use>
                        <path d="M-4,0h8" fill="none" stroke="white" stroke-width="1.5" pointer-events="none"/>
                </g>
                <g id="dirArrow">
                        <path fill="none" stroke="white" stroke-width="1.5" d="M0,-3.0v7 M-2.5,-0.5L0,-3.0L2.5,-0.5"/>
                </g>
               <g id="resetDef">
                       <use xlink:href="#rim2" fill="#404040">
                               <set attributeName="fill" to="#808080" begin="reset.mouseover" end="reset.mouseout"/>
                       </use>
               </g>
        </defs>

<script type="text/javascript">
var viewWidth = 850;
var viewHeight = 896;
var sectionId = 'dynsection-0';
</script>
<script xlink:href="svgpan.js"/>
<svg id="graph" class="graph">
<g id="viewport">
<title>vecCore::IteratorImplementation::Begin</title>
<polygon fill="white" stroke="transparent" points="-4,4 -4,-892 846,-892 846,4 -4,4"/>
<!-- Node1 -->
<g id="node1" class="node">
<title>Node1</title>
<g id="a_node1"><a xlink:title=" ">
<polygon fill="#bfbfbf" stroke="black" points="685,-461 685,-491 842,-491 842,-461 685,-461"/>
<text text-anchor="start" x="693" y="-479" font-family="Helvetica,sans-Serif" font-size="10.00">vecCore::IteratorImplementation</text>
<text text-anchor="middle" x="763.5" y="-468" font-family="Helvetica,sans-Serif" font-size="10.00">::Begin</text>
</a>
</g>
</g>
<!-- Node2 -->
<g id="node2" class="node">
<title>Node2</title>
<g id="a_node2"><a xlink:href="namespacevecCore.html#a744ecfff38071bf6a45e7a17cede5b0a" target="_top" xlink:title=" ">
<polygon fill="white" stroke="black" points="565,-466.5 565,-485.5 649,-485.5 649,-466.5 565,-466.5"/>
<text text-anchor="middle" x="607" y="-473.5" font-family="Helvetica,sans-Serif" font-size="10.00">vecCore::Begin</text>
</a>
</g>
</g>
<!-- Node1&#45;&gt;Node2 -->
<g id="edge1" class="edge">
<title>Node1&#45;&gt;Node2</title>
<path fill="none" stroke="midnightblue" d="M674.72,-476C665.84,-476 657.15,-476 649.13,-476"/>
<polygon fill="midnightblue" stroke="midnightblue" points="674.8,-479.5 684.8,-476 674.8,-472.5 674.8,-479.5"/>
</g>
<!-- Node3 -->
<g id="node3" class="node">
<title>Node3</title>
<g id="a_node3"><a xlink:href="structvecCore_1_1IndexingImplementation.html#abd2d0f232679541dacf3c6d019372e42" target="_top" xlink:title=" ">
<polygon fill="white" stroke="black" points="344,-447.5 344,-466.5 529,-466.5 529,-447.5 344,-447.5"/>
<text text-anchor="middle" x="436.5" y="-454.5" font-family="Helvetica,sans-Serif" font-size="10.00">vecCore::IndexingImplementation::Get</text>
</a>
</g>
</g>
<!-- Node2&#45;&gt;Node3 -->
<g id="edge2" class="edge">
<title>Node2&#45;&gt;Node3</title>
<path fill="none" stroke="midnightblue" d="M554.66,-470.21C544.25,-469.04 533.05,-467.77 521.84,-466.51"/>
<polygon fill="midnightblue" stroke="midnightblue" points="554.45,-473.71 564.78,-471.35 555.24,-466.75 554.45,-473.71"/>
</g>
<!-- Node24 -->
<g id="node24" class="node">
<title>Node24</title>
<g id="a_node24"><a xlink:href="structvecCore_1_1IndexingImplementation.html#a04d0ce397356d802d033e242a9b86bc7" target="_top" xlink:title=" ">
<polygon fill="white" stroke="black" points="344.5,-516.5 344.5,-535.5 528.5,-535.5 528.5,-516.5 344.5,-516.5"/>
<text text-anchor="middle" x="436.5" y="-523.5" font-family="Helvetica,sans-Serif" font-size="10.00">vecCore::IndexingImplementation::Set</text>
</a>
</g>
</g>
<!-- Node2&#45;&gt;Node24 -->
<g id="edge23" class="edge">
<title>Node2&#45;&gt;Node24</title>
<path fill="none" stroke="midnightblue" d="M564.01,-488.46C534.83,-497.12 496.54,-508.48 469.76,-516.43"/>
<polygon fill="midnightblue" stroke="midnightblue" points="565.32,-491.72 573.91,-485.52 563.33,-485.01 565.32,-491.72"/>
</g>
<!-- Node4 -->
<g id="node4" class="node">
<title>Node4</title>
<g id="a_node4"><a xlink:href="namespacevecCore.html#a0bc95998843376452d74d5c8f5337845" target="_top" xlink:title=" ">
<polygon fill="white" stroke="black" points="233,-384.5 233,-403.5 308,-403.5 308,-384.5 233,-384.5"/>
<text text-anchor="middle" x="270.5" y="-391.5" font-family="Helvetica,sans-Serif" font-size="10.00">vecCore::Get</text>
</a>
</g>
</g>
<!-- Node3&#45;&gt;Node4 -->
<g id="edge3" class="edge">
<title>Node3&#45;&gt;Node4</title>
<path fill="none" stroke="midnightblue" d="M400.96,-443.73C369.65,-431.7 324.25,-414.27 296.37,-403.55"/>
<polygon fill="midnightblue" stroke="midnightblue" points="400,-447.11 410.59,-447.43 402.51,-440.58 400,-447.11"/>
</g>
<!-- Node5 -->
<g id="node5" class="node">
<title>Node5</title>
<g id="a_node5"><a xlink:href="structvecCore_1_1GenericMaskingImplementation.html#acb5e860109dfa08c23d52d1fc308b134" target="_top" xlink:title=" ">
<polygon fill="white" stroke="black" points="0,-655 0,-685 197,-685 197,-655 0,-655"/>
<text text-anchor="start" x="8" y="-673" font-family="Helvetica,sans-Serif" font-size="10.00">vecCore::GenericMaskingImplementation</text>
<text text-anchor="middle" x="98.5" y="-662" font-family="Helvetica,sans-Serif" font-size="10.00">::Assign</text>
</a>
</g>
</g>
<!-- Node4&#45;&gt;Node5 -->
<g id="edge4" class="edge">
<title>Node4&#45;&gt;Node5</title>
<path fill="none" stroke="midnightblue" d="M266.43,-413.65C257.71,-467.06 231.15,-613.15 197,-646 193.48,-649.38 189.57,-652.31 185.39,-654.85"/>
<polygon fill="midnightblue" stroke="midnightblue" points="269.9,-414.16 268.02,-403.73 262.98,-413.05 269.9,-414.16"/>
</g>
<!-- Node6 -->
<g id="node6" class="node">
<title>Node6</title>
<g id="a_node6"><a xlink:href="structvecCore_1_1GenericMaskingImplementation.html#a19c7d4192f03dbcd2045c8983d89bcc8" target="_top" xlink:title=" ">
<polygon fill="white" stroke="black" points="0,-606 0,-636 197,-636 197,-606 0,-606"/>
<text text-anchor="start" x="8" y="-624" font-family="Helvetica,sans-Serif" font-size="10.00">vecCore::GenericMaskingImplementation</text>
<text text-anchor="middle" x="98.5" y="-613" font-family="Helvetica,sans-Serif" font-size="10.00">::Blend</text>
</a>
</g>
</g>
<!-- Node4&#45;&gt;Node6 -->
<g id="edge5" class="edge">
<title>Node4&#45;&gt;Node6</title>
<path fill="none" stroke="midnightblue" d="M268.32,-413.92C264.82,-454.45 251.03,-546.81 197,-596 192.74,-599.88 187.95,-603.18 182.85,-605.98"/>
<polygon fill="midnightblue" stroke="midnightblue" points="271.83,-413.96 269.07,-403.73 264.85,-413.45 271.83,-413.96"/>
</g>
<!-- Node7 -->
<g id="node7" class="node">
<title>Node7</title>
<g id="a_node7"><a xlink:href="namespacevecCore.html#a98d52c47c802cf3d9d7f5f177b39f062" target="_top" xlink:title=" ">
<polygon fill="white" stroke="black" points="51.5,-567.5 51.5,-586.5 145.5,-586.5 145.5,-567.5 51.5,-567.5"/>
<text text-anchor="middle" x="98.5" y="-574.5" font-family="Helvetica,sans-Serif" font-size="10.00">vecCore::Convert</text>
</a>
</g>
</g>
<!-- Node4&#45;&gt;Node7 -->
<g id="edge6" class="edge">
<title>Node4&#45;&gt;Node7</title>
<path fill="none" stroke="midnightblue" d="M266.78,-413.51C260.85,-448.34 243.33,-521.03 197,-558 182.71,-569.4 163.54,-574.62 145.98,-576.82"/>
<polygon fill="midnightblue" stroke="midnightblue" points="270.24,-414.04 268.33,-403.62 263.33,-412.96 270.24,-414.04"/>
</g>
<!-- Node8 -->
<g id="node8" class="node">
<title>Node8</title>
<g id="a_node8"><a xlink:href="namespacevecCore_1_1math.html#aafc401ef969bc88a6ca94d970cfb9f68" target="_top" xlink:title=" ">
<polygon fill="white" stroke="black" points="42.5,-529.5 42.5,-548.5 154.5,-548.5 154.5,-529.5 42.5,-529.5"/>
<text text-anchor="middle" x="98.5" y="-536.5" font-family="Helvetica,sans-Serif" font-size="10.00">vecCore::math::Frexp</text>
</a>
</g>
</g>
<!-- Node4&#45;&gt;Node8 -->
<g id="edge7" class="edge">
<title>Node4&#45;&gt;Node8</title>
<path fill="none" stroke="midnightblue" d="M263.83,-413.49C254.63,-441.49 233.67,-492.61 197,-519 184.73,-527.83 169.45,-532.96 154.66,-535.89"/>
<polygon fill="midnightblue" stroke="midnightblue" points="267.25,-414.27 266.88,-403.68 260.57,-412.19 267.25,-414.27"/>
</g>
<!-- Node9 -->
<g id="node9" class="node">
<title>Node9</title>
<g id="a_node9"><a xlink:href="structvecCore_1_1GatherScatterImplementation.html#a76603f42775f63b3c9fa979bfbb79663" target="_top" xlink:title=" ">
<polygon fill="white" stroke="black" points="5,-480 5,-510 192,-510 192,-480 5,-480"/>
<text text-anchor="start" x="13" y="-498" font-family="Helvetica,sans-Serif" font-size="10.00">vecCore::GatherScatterImplementation</text>
<text text-anchor="middle" x="98.5" y="-487" font-family="Helvetica,sans-Serif" font-size="10.00">::Gather</text>
</a>
</g>
</g>
<!-- Node4&#45;&gt;Node9 -->
<g id="edge8" class="edge">
<title>Node4&#45;&gt;Node9</title>
<path fill="none" stroke="midnightblue" d="M257.2,-411.79C244.23,-429.22 222.19,-455.24 197,-470 190.37,-473.89 183.13,-477.18 175.7,-479.96"/>
<polygon fill="midnightblue" stroke="midnightblue" points="260.12,-413.73 263.13,-403.57 254.45,-409.63 260.12,-413.73"/>
</g>
<!-- Node10 -->
<g id="node10" class="node">
<title>Node10</title>
<g id="a_node10"><a xlink:href="namespacevecCore.html#ae21440201cbb30a1dcd1d17f9d573bc1" target="_top" xlink:title=" ">
<polygon fill="white" stroke="black" points="53.5,-190.5 53.5,-209.5 143.5,-209.5 143.5,-190.5 53.5,-190.5"/>
<text text-anchor="middle" x="98.5" y="-197.5" font-family="Helvetica,sans-Serif" font-size="10.00">vecCore::LaneAt</text>
</a>
</g>
</g>
<!-- Node4&#45;&gt;Node10 -->
<g id="edge9" class="edge">
<title>Node4&#45;&gt;Node10</title>
<path fill="none" stroke="midnightblue" d="M267.35,-374.22C262.25,-337.52 245.92,-258.99 197,-219 182.18,-206.89 161.88,-201.7 143.64,-199.72"/>
<polygon fill="midnightblue" stroke="midnightblue" points="263.88,-374.69 268.59,-384.18 270.83,-373.82 263.88,-374.69"/>
</g>
<!-- Node11 -->
<g id="node11" class="node">
<title>Node11</title>
<g id="a_node11"><a xlink:href="namespacevecCore_1_1math.html#abf3f3fb9c9f659995beba38251e10d01" target="_top" xlink:title=" ">
<polygon fill="white" stroke="black" points="42,-441.5 42,-460.5 155,-460.5 155,-441.5 42,-441.5"/>
<text text-anchor="middle" x="98.5" y="-448.5" font-family="Helvetica,sans-Serif" font-size="10.00">vecCore::math::Ldexp</text>
</a>
</g>
</g>
<!-- Node4&#45;&gt;Node11 -->
<g id="edge10" class="edge">
<title>Node4&#45;&gt;Node11</title>
<path fill="none" stroke="midnightblue" d="M245.72,-408.72C231.93,-416.66 214,-426.03 197,-432 183.74,-436.66 169.04,-440.27 155.16,-443.04"/>
<polygon fill="midnightblue" stroke="midnightblue" points="247.7,-411.61 254.53,-403.5 244.14,-405.58 247.7,-411.61"/>
</g>
<!-- Node12 -->
<g id="node12" class="node">
<title>Node12</title>
<g id="a_node12"><a xlink:href="namespacevecCore.html#a983a96931061419dd4fa5d5722d2dabc" target="_top" xlink:title=" ">
<polygon fill="white" stroke="black" points="42.5,-152.5 42.5,-171.5 154.5,-171.5 154.5,-152.5 42.5,-152.5"/>
<text text-anchor="middle" x="98.5" y="-159.5" font-family="Helvetica,sans-Serif" font-size="10.00">vecCore::MaskEmpty</text>
</a>
</g>
</g>
<!-- Node4&#45;&gt;Node12 -->
<g id="edge11" class="edge">
<title>Node4&#45;&gt;Node12</title>
<path fill="none" stroke="midnightblue" d="M268.99,-373.9C266.76,-331.32 255.23,-231.82 197,-181 185.31,-170.79 169.78,-165.42 154.57,-162.73"/>
<polygon fill="midnightblue" stroke="midnightblue" points="265.5,-374.24 269.4,-384.09 272.5,-373.96 265.5,-374.24"/>
</g>
<!-- Node13 -->
<g id="node13" class="node">
<title>Node13</title>
<g id="a_node13"><a xlink:href="namespacevecCore.html#ae79db151f13997d052f60ac17ffacd0b" target="_top" xlink:title=" ">
<polygon fill="white" stroke="black" points="49,-114.5 49,-133.5 148,-133.5 148,-114.5 49,-114.5"/>
<text text-anchor="middle" x="98.5" y="-121.5" font-family="Helvetica,sans-Serif" font-size="10.00">vecCore::MaskFull</text>
</a>
</g>
</g>
<!-- Node4&#45;&gt;Node13 -->
<g id="edge12" class="edge">
<title>Node4&#45;&gt;Node13</title>
<path fill="none" stroke="midnightblue" d="M270.2,-374.02C270.7,-326.3 264.86,-205.09 197,-143 183.83,-130.95 165.37,-125.54 148.06,-123.37"/>
<polygon fill="midnightblue" stroke="midnightblue" points="266.7,-374.17 269.98,-384.25 273.7,-374.32 266.7,-374.17"/>
</g>
<!-- Node14 -->
<g id="node14" class="node">
<title>Node14</title>
<g id="a_node14"><a xlink:href="namespacevecCore.html#afe64f125f00615de3fdbc386fd3c33df" target="_top" xlink:title=" ">
<polygon fill="white" stroke="black" points="41.5,-76.5 41.5,-95.5 155.5,-95.5 155.5,-76.5 41.5,-76.5"/>
<text text-anchor="middle" x="98.5" y="-83.5" font-family="Helvetica,sans-Serif" font-size="10.00">vecCore::MaskLaneAt</text>
</a>
</g>
</g>
<!-- Node4&#45;&gt;Node14 -->
<g id="edge13" class="edge">
<title>Node4&#45;&gt;Node14</title>
<path fill="none" stroke="midnightblue" d="M267.28,-374.17C260.27,-315.19 236.68,-142.62 197,-105 185.86,-94.44 170.68,-88.93 155.62,-86.23"/>
<polygon fill="midnightblue" stroke="midnightblue" points="263.83,-374.85 268.46,-384.38 270.79,-374.04 263.83,-374.85"/>
</g>
<!-- Node15 -->
<g id="node15" class="node">
<title>Node15</title>
<g id="a_node15"><a xlink:href="namespacevecCore_1_1math.html#ab0c8b7fb50f327e9af305aaf12b89464" target="_top" xlink:title=" ">
<polygon fill="white" stroke="black" points="44,-403.5 44,-422.5 153,-422.5 153,-403.5 44,-403.5"/>
<text text-anchor="middle" x="98.5" y="-410.5" font-family="Helvetica,sans-Serif" font-size="10.00">vecCore::math::Modf</text>
</a>
</g>
</g>
<!-- Node4&#45;&gt;Node15 -->
<g id="edge14" class="edge">
<title>Node4&#45;&gt;Node15</title>
<path fill="none" stroke="midnightblue" d="M222.42,-399.26C200.91,-401.67 175.33,-404.52 153.1,-407.01"/>
<polygon fill="midnightblue" stroke="midnightblue" points="223.06,-402.71 232.61,-398.12 222.29,-395.76 223.06,-402.71"/>
</g>
<!-- Node16 -->
<g id="node16" class="node">
<title>Node16</title>
<g id="a_node16"><a xlink:href="namespacevecCore.html#af5ae6bac35d59b00c29fd4380c615e86" target="_top" xlink:title=" ">
<polygon fill="white" stroke="black" points="43.5,-38.5 43.5,-57.5 153.5,-57.5 153.5,-38.5 43.5,-38.5"/>
<text text-anchor="middle" x="98.5" y="-45.5" font-family="Helvetica,sans-Serif" font-size="10.00">vecCore::ReduceAdd</text>
</a>
</g>
</g>
<!-- Node4&#45;&gt;Node16 -->
<g id="edge15" class="edge">
<title>Node4&#45;&gt;Node16</title>
<path fill="none" stroke="midnightblue" d="M267.9,-374.14C262.32,-310.07 241.59,-110.46 197,-67 185.45,-55.75 169.33,-50.18 153.52,-47.64"/>
<polygon fill="midnightblue" stroke="midnightblue" points="264.44,-374.79 268.77,-384.46 271.41,-374.2 264.44,-374.79"/>
</g>
<!-- Node17 -->
<g id="node17" class="node">
<title>Node17</title>
<g id="a_node17"><a xlink:href="namespacevecCore.html#a418a4e9c96935fc85e4e6712489e18ac" target="_top" xlink:title=" ">
<polygon fill="white" stroke="black" points="42.5,-0.5 42.5,-19.5 154.5,-19.5 154.5,-0.5 42.5,-0.5"/>
<text text-anchor="middle" x="98.5" y="-7.5" font-family="Helvetica,sans-Serif" font-size="10.00">vecCore::ReduceMax</text>
</a>
</g>
</g>
<!-- Node4&#45;&gt;Node17 -->
<g id="edge16" class="edge">
<title>Node4&#45;&gt;Node17</title>
<path fill="none" stroke="midnightblue" d="M268.39,-374.12C264.14,-305.24 246.54,-78.36 197,-29 185.82,-17.86 170.18,-12.26 154.69,-9.66"/>
<polygon fill="midnightblue" stroke="midnightblue" points="264.92,-374.64 269,-384.42 271.9,-374.23 264.92,-374.64"/>
</g>
<!-- Node18 -->
<g id="node18" class="node">
<title>Node18</title>
<g id="a_node18"><a xlink:href="namespacevecCore.html#ae701e4480574bb9dd38ac3df90884257" target="_top" xlink:title=" ">
<polygon fill="white" stroke="black" points="44,-327.5 44,-346.5 153,-346.5 153,-327.5 44,-327.5"/>
<text text-anchor="middle" x="98.5" y="-334.5" font-family="Helvetica,sans-Serif" font-size="10.00">vecCore::ReduceMin</text>
</a>
</g>
</g>
<!-- Node4&#45;&gt;Node18 -->
<g id="edge17" class="edge">
<title>Node4&#45;&gt;Node18</title>
<path fill="none" stroke="midnightblue" d="M245.72,-379.28C231.93,-371.34 214,-361.97 197,-356 183.09,-351.12 167.59,-347.37 153.12,-344.56"/>
<polygon fill="midnightblue" stroke="midnightblue" points="244.14,-382.42 254.53,-384.5 247.7,-376.39 244.14,-382.42"/>
</g>
<!-- Node19 -->
<g id="node19" class="node">
<title>Node19</title>
<g id="a_node19"><a xlink:href="namespacevecCore_1_1math.html#ac0d4c095b17b1c95fa3396bceeb653f1" target="_top" xlink:title=" ">
<polygon fill="white" stroke="black" points="43,-365.5 43,-384.5 154,-384.5 154,-365.5 43,-365.5"/>
<text text-anchor="middle" x="98.5" y="-372.5" font-family="Helvetica,sans-Serif" font-size="10.00">vecCore::math::Rsqrt</text>
</a>
</g>
</g>
<!-- Node4&#45;&gt;Node19 -->
<g id="edge18" class="edge">
<title>Node4&#45;&gt;Node19</title>
<path fill="none" stroke="midnightblue" d="M222.55,-388.75C201.33,-386.38 176.13,-383.56 154.08,-381.1"/>
<polygon fill="midnightblue" stroke="midnightblue" points="222.29,-392.24 232.61,-389.88 223.06,-385.29 222.29,-392.24"/>
</g>
<!-- Node20 -->
<g id="node20" class="node">
<title>Node20</title>
<g id="a_node20"><a xlink:href="namespacevecCore_1_1math.html#aa70516c832781cce9b3c4e7f731b4109" target="_top" xlink:title=" ">
<polygon fill="white" stroke="black" points="39,-742.5 39,-761.5 158,-761.5 158,-742.5 39,-742.5"/>
<text text-anchor="middle" x="98.5" y="-749.5" font-family="Helvetica,sans-Serif" font-size="10.00">vecCore::math::Scalbln</text>
</a>
</g>
</g>
<!-- Node4&#45;&gt;Node20 -->
<g id="edge19" class="edge">
<title>Node4&#45;&gt;Node20</title>
<path fill="none" stroke="midnightblue" d="M265.63,-413.5C251.45,-484.75 202.86,-727.25 197,-733 186.6,-743.21 172.45,-748.75 158.14,-751.59"/>
<polygon fill="midnightblue" stroke="midnightblue" points="269.08,-414.08 267.6,-403.59 262.22,-412.72 269.08,-414.08"/>
</g>
<!-- Node21 -->
<g id="node21" class="node">
<title>Node21</title>
<g id="a_node21"><a xlink:href="namespacevecCore_1_1math.html#aa5562e1ba0d2918347591294473de6c4" target="_top" xlink:title=" ">
<polygon fill="white" stroke="black" points="40,-704.5 40,-723.5 157,-723.5 157,-704.5 40,-704.5"/>
<text text-anchor="middle" x="98.5" y="-711.5" font-family="Helvetica,sans-Serif" font-size="10.00">vecCore::math::Scalbn</text>
</a>
</g>
</g>
<!-- Node4&#45;&gt;Node21 -->
<g id="edge20" class="edge">
<title>Node4&#45;&gt;Node21</title>
<path fill="none" stroke="midnightblue" d="M266.06,-413.49C254.69,-477.01 217.84,-675.06 197,-695 186.29,-705.25 171.77,-710.76 157.21,-713.56"/>
<polygon fill="midnightblue" stroke="midnightblue" points="269.52,-414.03 267.83,-403.58 262.63,-412.81 269.52,-414.03"/>
</g>
<!-- Node22 -->
<g id="node22" class="node">
<title>Node22</title>
<g id="a_node22"><a xlink:href="structvecCore_1_1GatherScatterImplementation.html#a03f8ce92b4f7500e88272ed448518090" target="_top" xlink:title=" ">
<polygon fill="white" stroke="black" points="5,-278 5,-308 192,-308 192,-278 5,-278"/>
<text text-anchor="start" x="13" y="-296" font-family="Helvetica,sans-Serif" font-size="10.00">vecCore::GatherScatterImplementation</text>
<text text-anchor="middle" x="98.5" y="-285" font-family="Helvetica,sans-Serif" font-size="10.00">::Scatter</text>
</a>
</g>
</g>
<!-- Node4&#45;&gt;Node22 -->
<g id="edge21" class="edge">
<title>Node4&#45;&gt;Node22</title>
<path fill="none" stroke="midnightblue" d="M257.2,-376.21C244.23,-358.78 222.19,-332.76 197,-318 190.37,-314.11 183.13,-310.82 175.7,-308.04"/>
<polygon fill="midnightblue" stroke="midnightblue" points="254.45,-378.37 263.13,-384.43 260.12,-374.27 254.45,-378.37"/>
</g>
<!-- Node23 -->
<g id="node23" class="node">
<title>Node23</title>
<g id="a_node23"><a xlink:href="structvecCore_1_1LoadStoreImplementation.html#abaa8e55659d773dc8abb850b16e04678" target="_top" xlink:title=" ">
<polygon fill="white" stroke="black" points="13.5,-229 13.5,-259 183.5,-259 183.5,-229 13.5,-229"/>
<text text-anchor="start" x="21.5" y="-247" font-family="Helvetica,sans-Serif" font-size="10.00">vecCore::LoadStoreImplementation</text>
<text text-anchor="middle" x="98.5" y="-236" font-family="Helvetica,sans-Serif" font-size="10.00">::Store</text>
</a>
</g>
</g>
<!-- Node4&#45;&gt;Node23 -->
<g id="edge22" class="edge">
<title>Node4&#45;&gt;Node23</title>
<path fill="none" stroke="midnightblue" d="M263.74,-374.54C254.42,-346.56 233.32,-295.33 197,-268 192.4,-264.54 187.37,-261.58 182.09,-259.03"/>
<polygon fill="midnightblue" stroke="midnightblue" points="260.48,-375.87 266.83,-384.35 267.16,-373.76 260.48,-375.87"/>
</g>
<!-- Node25 -->
<g id="node25" class="node">
<title>Node25</title>
<g id="a_node25"><a xlink:href="namespacevecCore.html#a211f237ccf30b72af40548291b739272" target="_top" xlink:title=" ">
<polygon fill="white" stroke="black" points="233.5,-589.5 233.5,-608.5 307.5,-608.5 307.5,-589.5 233.5,-589.5"/>
<text text-anchor="middle" x="270.5" y="-596.5" font-family="Helvetica,sans-Serif" font-size="10.00">vecCore::Set</text>
</a>
</g>
</g>
<!-- Node24&#45;&gt;Node25 -->
<g id="edge24" class="edge">
<title>Node24&#45;&gt;Node25</title>
<path fill="none" stroke="midnightblue" d="M404.56,-539.77C371.94,-554.29 321.43,-576.77 292.95,-589.45"/>
<polygon fill="midnightblue" stroke="midnightblue" points="406.35,-542.81 414.06,-535.54 403.5,-536.41 406.35,-542.81"/>
</g>
<!-- Node25&#45;&gt;Node5 -->
<g id="edge25" class="edge">
<title>Node25&#45;&gt;Node5</title>
<path fill="none" stroke="midnightblue" d="M249.04,-614.92C235.06,-625.11 215.75,-637.89 197,-646 189.16,-649.39 180.75,-652.36 172.27,-654.95"/>
<polygon fill="midnightblue" stroke="midnightblue" points="251.48,-617.47 257.39,-608.68 247.29,-611.86 251.48,-617.47"/>
</g>
<!-- Node25&#45;&gt;Node6 -->
<g id="edge28" class="edge">
<title>Node25&#45;&gt;Node6</title>
<path fill="none" stroke="midnightblue" d="M223.33,-604.98C215.04,-606.05 206.14,-607.2 197.03,-608.38"/>
<polygon fill="midnightblue" stroke="midnightblue" points="223.98,-608.42 233.45,-603.67 223.08,-601.48 223.98,-608.42"/>
</g>
<!-- Node25&#45;&gt;Node7 -->
<g id="edge29" class="edge">
<title>Node25&#45;&gt;Node7</title>
<path fill="none" stroke="midnightblue" d="M223.44,-593.04C199.26,-589.91 169.72,-586.09 145.54,-582.96"/>
<polygon fill="midnightblue" stroke="midnightblue" points="223.08,-596.52 233.45,-594.33 223.98,-589.58 223.08,-596.52"/>
</g>
<!-- Node25&#45;&gt;Node8 -->
<g id="edge30" class="edge">
<title>Node25&#45;&gt;Node8</title>
<path fill="none" stroke="midnightblue" d="M247.31,-583.96C233.41,-575.18 214.8,-564.57 197,-558 183.57,-553.04 168.6,-549.3 154.5,-546.51"/>
<polygon fill="midnightblue" stroke="midnightblue" points="245.42,-586.91 255.72,-589.41 249.23,-581.03 245.42,-586.91"/>
</g>
<!-- Node25&#45;&gt;Node9 -->
<g id="edge31" class="edge">
<title>Node25&#45;&gt;Node9</title>
<path fill="none" stroke="midnightblue" d="M257.57,-580.78C244.74,-562.66 222.7,-535.39 197,-520 190.48,-516.09 183.36,-512.79 176.03,-510.01"/>
<polygon fill="midnightblue" stroke="midnightblue" points="254.87,-583.04 263.4,-589.31 260.65,-579.08 254.87,-583.04"/>
</g>
<!-- Node25&#45;&gt;Node11 -->
<g id="edge32" class="edge">
<title>Node25&#45;&gt;Node11</title>
<path fill="none" stroke="midnightblue" d="M264.3,-579.65C255.5,-550.9 234.85,-497.35 197,-470 184.91,-461.26 169.86,-456.26 155.22,-453.47"/>
<polygon fill="midnightblue" stroke="midnightblue" points="260.96,-580.72 267.1,-589.35 267.69,-578.77 260.96,-580.72"/>
</g>
<!-- Node25&#45;&gt;Node15 -->
<g id="edge34" class="edge">
<title>Node25&#45;&gt;Node15</title>
<path fill="none" stroke="midnightblue" d="M266.9,-579.14C261.15,-543.69 243.91,-469.69 197,-432 184.63,-422.06 168.56,-416.81 153.05,-414.17"/>
<polygon fill="midnightblue" stroke="midnightblue" points="263.46,-579.83 268.39,-589.21 270.39,-578.8 263.46,-579.83"/>
</g>
<!-- Node25&#45;&gt;Node19 -->
<g id="edge35" class="edge">
<title>Node25&#45;&gt;Node19</title>
<path fill="none" stroke="midnightblue" d="M268.71,-579.37C265.95,-538.21 253.44,-442.68 197,-394 185.18,-383.81 169.53,-378.45 154.24,-375.78"/>
<polygon fill="midnightblue" stroke="midnightblue" points="265.23,-579.66 269.27,-589.45 272.21,-579.27 265.23,-579.66"/>
</g>
<!-- Node25&#45;&gt;Node20 -->
<g id="edge36" class="edge">
<title>Node25&#45;&gt;Node20</title>
<path fill="none" stroke="midnightblue" d="M264.65,-618.65C256.22,-648.39 235.94,-704.39 197,-733 185.74,-741.27 171.85,-746.21 158.11,-749.1"/>
<polygon fill="midnightblue" stroke="midnightblue" points="268.12,-619.21 267.31,-608.65 261.35,-617.41 268.12,-619.21"/>
</g>
<!-- Node25&#45;&gt;Node21 -->
<g id="edge37" class="edge">
<title>Node25&#45;&gt;Node21</title>
<path fill="none" stroke="midnightblue" d="M260.64,-617.87C249.2,-640.04 227.11,-676.2 197,-695 185.08,-702.44 170.87,-707.07 157.03,-709.93"/>
<polygon fill="midnightblue" stroke="midnightblue" points="263.84,-619.29 265.14,-608.78 257.57,-616.19 263.84,-619.29"/>
</g>
<!-- Node26 -->
<g id="node26" class="node">
<title>Node26</title>
<g id="a_node26"><a xlink:href="namespacevecCore.html#a1f2a79b75b5b3decff8b5afdb08e8af8" target="_top" xlink:title=" ">
<polygon fill="white" stroke="black" points="43.5,-868.5 43.5,-887.5 153.5,-887.5 153.5,-868.5 43.5,-868.5"/>
<text text-anchor="middle" x="98.5" y="-875.5" font-family="Helvetica,sans-Serif" font-size="10.00">vecCore::AssignLane</text>
</a>
</g>
</g>
<!-- Node25&#45;&gt;Node26 -->
<g id="edge26" class="edge">
<title>Node25&#45;&gt;Node26</title>
<path fill="none" stroke="midnightblue" d="M266.72,-618.62C258.56,-673.32 233,-825.76 197,-859 185.28,-869.82 169.3,-875.31 153.67,-877.89"/>
<polygon fill="midnightblue" stroke="midnightblue" points="270.21,-618.9 268.19,-608.5 263.29,-617.89 270.21,-618.9"/>
</g>
<!-- Node27 -->
<g id="node27" class="node">
<title>Node27</title>
<g id="a_node27"><a xlink:href="namespacevecCore.html#a5eae7ebdaef3d28d27e2ac63a67e1399" target="_top" xlink:title=" ">
<polygon fill="white" stroke="black" points="31.5,-830.5 31.5,-849.5 165.5,-849.5 165.5,-830.5 31.5,-830.5"/>
<text text-anchor="middle" x="98.5" y="-837.5" font-family="Helvetica,sans-Serif" font-size="10.00">vecCore::AssignMaskLane</text>
</a>
</g>
</g>
<!-- Node25&#45;&gt;Node27 -->
<g id="edge27" class="edge">
<title>Node25&#45;&gt;Node27</title>
<path fill="none" stroke="midnightblue" d="M269.31,-619.04C267.75,-662.85 257.52,-767.51 197,-821 188.15,-828.82 177.05,-833.82 165.55,-836.94"/>
<polygon fill="midnightblue" stroke="midnightblue" points="272.82,-618.91 269.55,-608.83 265.82,-618.74 272.82,-618.91"/>
</g>
<!-- Node28 -->
<g id="node28" class="node">
<title>Node28</title>
<g id="a_node28"><a xlink:href="structvecCore_1_1LoadStoreImplementation.html#ab0899849de37f38f65884b2c83b01f44" target="_top" xlink:title=" ">
<polygon fill="white" stroke="black" points="13.5,-781 13.5,-811 183.5,-811 183.5,-781 13.5,-781"/>
<text text-anchor="start" x="21.5" y="-799" font-family="Helvetica,sans-Serif" font-size="10.00">vecCore::LoadStoreImplementation</text>
<text text-anchor="middle" x="98.5" y="-788" font-family="Helvetica,sans-Serif" font-size="10.00">::Load</text>
</a>
</g>
</g>
<!-- Node25&#45;&gt;Node28 -->
<g id="edge33" class="edge">
<title>Node25&#45;&gt;Node28</title>
<path fill="none" stroke="midnightblue" d="M266.95,-618.65C261.22,-654.5 243.95,-730.52 197,-771 192.5,-774.88 187.48,-778.17 182.14,-780.96"/>
<polygon fill="midnightblue" stroke="midnightblue" points="270.44,-618.92 268.42,-608.52 263.52,-617.91 270.44,-618.92"/>
</g>
</g>
</svg>
        <g id="navigator" transform="translate(0 0)" fill="#404254">
                <rect fill="#f2f5e9" fill-opacity="0.5" stroke="#606060" stroke-width=".5" x="0" y="0" width="60" height="60"/>
                <use id="zoomplus" xlink:href="#zoomPlus" x="17" y="9" onmousedown="handleZoom(evt,'in')"/>
                <use id="zoomminus" xlink:href="#zoomMin" x="42" y="9" onmousedown="handleZoom(evt,'out')"/>
                <use id="reset" xlink:href="#resetDef" x="30" y="36" onmousedown="handleReset()"/>
                <g id="arrowUp" xlink:href="#dirArrow" transform="translate(30 24)" onmousedown="handlePan(0,-1)">
                  <use xlink:href="#rim" fill="#404040">
                        <set attributeName="fill" to="#808080" begin="arrowUp.mouseover" end="arrowUp.mouseout"/>
                  </use>
                  <path fill="none" stroke="white" stroke-width="1.5" d="M0,-3.0v7 M-2.5,-0.5L0,-3.0L2.5,-0.5"/>
                </g>
                <g id="arrowRight" xlink:href="#dirArrow" transform="rotate(90) translate(36 -43)" onmousedown="handlePan(1,0)">
                  <use xlink:href="#rim" fill="#404040">
                        <set attributeName="fill" to="#808080" begin="arrowRight.mouseover" end="arrowRight.mouseout"/>
                  </use>
                  <path fill="none" stroke="white" stroke-width="1.5" d="M0,-3.0v7 M-2.5,-0.5L0,-3.0L2.5,-0.5"/>
                </g>
                <g id="arrowDown" xlink:href="#dirArrow" transform="rotate(180) translate(-30 -48)" onmousedown="handlePan(0,1)">
                  <use xlink:href="#rim" fill="#404040">
                        <set attributeName="fill" to="#808080" begin="arrowDown.mouseover" end="arrowDown.mouseout"/>
                  </use>
                  <path fill="none" stroke="white" stroke-width="1.5" d="M0,-3.0v7 M-2.5,-0.5L0,-3.0L2.5,-0.5"/>
                </g>
                <g id="arrowLeft" xlink:href="#dirArrow" transform="rotate(270) translate(-36 17)" onmousedown="handlePan(-1,0)">
                  <use xlink:href="#rim" fill="#404040">
                        <set attributeName="fill" to="#808080" begin="arrowLeft.mouseover" end="arrowLeft.mouseout"/>
                  </use>
                  <path fill="none" stroke="white" stroke-width="1.5" d="M0,-3.0v7 M-2.5,-0.5L0,-3.0L2.5,-0.5"/>
                </g>
        </g>
        <svg viewBox="0 0 15 15" width="100%" height="30px" preserveAspectRatio="xMaxYMin meet">
         <g id="arrow_out" transform="scale(0.3 0.3)">
          <a xlink:href="structvecCore_1_1IteratorImplementation_a72e48906a04cbcb83fe7bac49836ed43_icgraph_org.svg" target="_base">
           <rect id="button" ry="5" rx="5" y="6" x="6" height="38" width="38"
                fill="#f2f5e9" fill-opacity="0.5" stroke="#606060" stroke-width="1.0"/>
           <path id="arrow"
             d="M 11.500037,31.436501 C 11.940474,20.09759 22.043105,11.32322 32.158766,21.979434 L 37.068811,17.246167 C 37.068811,17.246167 37.088388,32 37.088388,32 L 22.160133,31.978069 C 22.160133,31.978069 26.997745,27.140456 26.997745,27.140456 C 18.528582,18.264221 13.291696,25.230495 11.500037,31.436501 z"
             style="fill:#404040;"/>
          </a>
         </g>
        </svg>
</svg>
