<?xml version="1.0" encoding="UTF-8" standalone="no"?>
<!DOCTYPE svg PUBLIC "-//W3C//DTD SVG 1.1//EN"
 "http://www.w3.org/Graphics/SVG/1.1/DTD/svg11.dtd">
<!-- Generated by graphviz version 2.44.1 (20200629.0846)
 -->
<!-- Title: vecCore::IndexingImplementation::Get Pages: 1 -->
<svg width="537pt" height="541pt"
 viewBox="0.00 0.00 537.00 541.00" xmlns="http://www.w3.org/2000/svg" xmlns:xlink="http://www.w3.org/1999/xlink">
<g id="graph0" class="graph" transform="scale(1 1) rotate(0) translate(4 537)">
<title>vecCore::IndexingImplementation::Get</title>
<polygon fill="white" stroke="transparent" points="-4,4 -4,-537 533,-537 533,4 -4,4"/>
<!-- Node1 -->
<g id="node1" class="node">
<title>Node1</title>
<g id="a_node1"><a xlink:title=" ">
<polygon fill="#bfbfbf" stroke="black" points="344,-251 344,-270 529,-270 529,-251 344,-251"/>
<text text-anchor="middle" x="436.5" y="-258" font-family="Helvetica,sans-Serif" font-size="10.00">vecCore::IndexingImplementation::Get</text>
</a>
</g>
</g>
<!-- Node2 -->
<g id="node2" class="node">
<title>Node2</title>
<g id="a_node2"><a xlink:href="namespacevecCore.html#a0bc95998843376452d74d5c8f5337845" target="_top" xlink:title=" ">
<polygon fill="white" stroke="black" points="233,-251 233,-270 308,-270 308,-251 233,-251"/>
<text text-anchor="middle" x="270.5" y="-258" font-family="Helvetica,sans-Serif" font-size="10.00">vecCore::Get</text>
</a>
</g>
</g>
<!-- Node1&#45;&gt;Node2 -->
<g id="edge1" class="edge">
<title>Node1&#45;&gt;Node2</title>
<path fill="none" stroke="midnightblue" d="M333.65,-260.5C324.67,-260.5 316.03,-260.5 308.19,-260.5"/>
<polygon fill="midnightblue" stroke="midnightblue" points="333.91,-264 343.91,-260.5 333.91,-257 333.91,-264"/>
</g>
<!-- Node3 -->
<g id="node3" class="node">
<title>Node3</title>
<g id="a_node3"><a xlink:href="structvecCore_1_1GenericMaskingImplementation.html#a844c93572de9dd1576452a054aea46b3" target="_top" xlink:title=" ">
<polygon fill="white" stroke="black" points="0,-502.5 0,-532.5 197,-532.5 197,-502.5 0,-502.5"/>
<text text-anchor="start" x="8" y="-520.5" font-family="Helvetica,sans-Serif" font-size="10.00">vecCore::GenericMaskingImplementation</text>
<text text-anchor="middle" x="98.5" y="-509.5" font-family="Helvetica,sans-Serif" font-size="10.00">::Assign</text>
</a>
</g>
</g>
<!-- Node2&#45;&gt;Node3 -->
<g id="edge2" class="edge">
<title>Node2&#45;&gt;Node3</title>
<path fill="none" stroke="midnightblue" d="M269.48,-280.37C268.29,-325.28 258.86,-435.26 197,-493.5 193.45,-496.85 189.5,-499.75 185.3,-502.26"/>
<polygon fill="midnightblue" stroke="midnightblue" points="272.98,-280.24 269.63,-270.19 265.98,-280.14 272.98,-280.24"/>
</g>
<!-- Node4 -->
<g id="node4" class="node">
<title>Node4</title>
<g id="a_node4"><a xlink:href="structvecCore_1_1GenericMaskingImplementation.html#ad71b7c26a7165080d62f5d590b0f4d73" target="_top" xlink:title=" ">
<polygon fill="white" stroke="black" points="0,-453.5 0,-483.5 197,-483.5 197,-453.5 0,-453.5"/>
<text text-anchor="start" x="8" y="-471.5" font-family="Helvetica,sans-Serif" font-size="10.00">vecCore::GenericMaskingImplementation</text>
<text text-anchor="middle" x="98.5" y="-460.5" font-family="Helvetica,sans-Serif" font-size="10.00">::Blend</text>
</a>
</g>
</g>
<!-- Node2&#45;&gt;Node4 -->
<g id="edge3" class="edge">
<title>Node2&#45;&gt;Node4</title>
<path fill="none" stroke="midnightblue" d="M267.48,-280.35C262.57,-318 246.49,-399.89 197,-443.5 192.67,-447.31 187.84,-450.56 182.71,-453.32"/>
<polygon fill="midnightblue" stroke="midnightblue" points="270.99,-280.52 268.67,-270.18 264.03,-279.71 270.99,-280.52"/>
</g>
<!-- Node5 -->
<g id="node5" class="node">
<title>Node5</title>
<g id="a_node5"><a xlink:href="namespacevecCore.html#a98d52c47c802cf3d9d7f5f177b39f062" target="_top" xlink:title=" ">
<polygon fill="white" stroke="black" points="51.5,-415 51.5,-434 145.5,-434 145.5,-415 51.5,-415"/>
<text text-anchor="middle" x="98.5" y="-422" font-family="Helvetica,sans-Serif" font-size="10.00">vecCore::Convert</text>
</a>
</g>
</g>
<!-- Node2&#45;&gt;Node5 -->
<g id="edge4" class="edge">
<title>Node2&#45;&gt;Node5</title>
<path fill="none" stroke="midnightblue" d="M265.56,-279.96C258.08,-311.59 238.69,-373.82 197,-405.5 182.45,-416.56 163.23,-421.72 145.7,-423.97"/>
<polygon fill="midnightblue" stroke="midnightblue" points="268.99,-280.67 267.73,-270.15 262.15,-279.16 268.99,-280.67"/>
</g>
<!-- Node6 -->
<g id="node6" class="node">
<title>Node6</title>
<g id="a_node6"><a xlink:href="structvecCore_1_1GatherScatterImplementation.html#a76603f42775f63b3c9fa979bfbb79663" target="_top" xlink:title=" ">
<polygon fill="white" stroke="black" points="5,-365.5 5,-395.5 192,-395.5 192,-365.5 5,-365.5"/>
<text text-anchor="start" x="13" y="-383.5" font-family="Helvetica,sans-Serif" font-size="10.00">vecCore::GatherScatterImplementation</text>
<text text-anchor="middle" x="98.5" y="-372.5" font-family="Helvetica,sans-Serif" font-size="10.00">::Gather</text>
</a>
</g>
</g>
<!-- Node2&#45;&gt;Node6 -->
<g id="edge5" class="edge">
<title>Node2&#45;&gt;Node6</title>
<path fill="none" stroke="midnightblue" d="M260.24,-279.17C248.52,-300.85 226.27,-336.12 197,-355.5 191.17,-359.36 184.79,-362.62 178.16,-365.38"/>
<polygon fill="midnightblue" stroke="midnightblue" points="263.5,-280.5 265.01,-270.01 257.29,-277.27 263.5,-280.5"/>
</g>
<!-- Node7 -->
<g id="node7" class="node">
<title>Node7</title>
<g id="a_node7"><a xlink:href="namespacevecCore.html#ae21440201cbb30a1dcd1d17f9d573bc1" target="_top" xlink:title=" ">
<polygon fill="white" stroke="black" points="53.5,-327 53.5,-346 143.5,-346 143.5,-327 53.5,-327"/>
<text text-anchor="middle" x="98.5" y="-334" font-family="Helvetica,sans-Serif" font-size="10.00">vecCore::LaneAt</text>
</a>
</g>
</g>
<!-- Node2&#45;&gt;Node7 -->
<g id="edge6" class="edge">
<title>Node2&#45;&gt;Node7</title>
<path fill="none" stroke="midnightblue" d="M252.94,-277.34C239.16,-290.33 218.42,-307.69 197,-317.5 180.38,-325.11 160.81,-329.68 143.58,-332.41"/>
<polygon fill="midnightblue" stroke="midnightblue" points="255.46,-279.76 260.19,-270.28 250.58,-274.75 255.46,-279.76"/>
</g>
<!-- Node8 -->
<g id="node8" class="node">
<title>Node8</title>
<g id="a_node8"><a xlink:href="namespacevecCore.html#afef4f1f6e850798d457b565e0e52f45f" target="_top" xlink:title=" ">
<polygon fill="white" stroke="black" points="42.5,-289 42.5,-308 154.5,-308 154.5,-289 42.5,-289"/>
<text text-anchor="middle" x="98.5" y="-296" font-family="Helvetica,sans-Serif" font-size="10.00">vecCore::MaskEmpty</text>
</a>
</g>
</g>
<!-- Node2&#45;&gt;Node8 -->
<g id="edge7" class="edge">
<title>Node2&#45;&gt;Node8</title>
<path fill="none" stroke="midnightblue" d="M225.12,-272.61C215.86,-275 206.13,-277.42 197,-279.5 182.37,-282.84 166.43,-286.1 151.75,-288.96"/>
<polygon fill="midnightblue" stroke="midnightblue" points="226.16,-275.96 234.95,-270.04 224.39,-269.18 226.16,-275.96"/>
</g>
<!-- Node9 -->
<g id="node9" class="node">
<title>Node9</title>
<g id="a_node9"><a xlink:href="namespacevecCore.html#aeb6e15ac4cdf69979f998afd4bd5d4e3" target="_top" xlink:title=" ">
<polygon fill="white" stroke="black" points="49,-251 49,-270 148,-270 148,-251 49,-251"/>
<text text-anchor="middle" x="98.5" y="-258" font-family="Helvetica,sans-Serif" font-size="10.00">vecCore::MaskFull</text>
</a>
</g>
</g>
<!-- Node2&#45;&gt;Node9 -->
<g id="edge8" class="edge">
<title>Node2&#45;&gt;Node9</title>
<path fill="none" stroke="midnightblue" d="M222.37,-260.5C199.3,-260.5 171.55,-260.5 148.26,-260.5"/>
<polygon fill="midnightblue" stroke="midnightblue" points="222.61,-264 232.61,-260.5 222.61,-257 222.61,-264"/>
</g>
<!-- Node10 -->
<g id="node10" class="node">
<title>Node10</title>
<g id="a_node10"><a xlink:href="namespacevecCore.html#aa75489a44b4d54c24a9cad72a929408a" target="_top" xlink:title=" ">
<polygon fill="white" stroke="black" points="41.5,-213 41.5,-232 155.5,-232 155.5,-213 41.5,-213"/>
<text text-anchor="middle" x="98.5" y="-220" font-family="Helvetica,sans-Serif" font-size="10.00">vecCore::MaskLaneAt</text>
</a>
</g>
</g>
<!-- Node2&#45;&gt;Node10 -->
<g id="edge9" class="edge">
<title>Node2&#45;&gt;Node10</title>
<path fill="none" stroke="midnightblue" d="M225.12,-248.39C215.86,-246 206.13,-243.58 197,-241.5 182.37,-238.16 166.43,-234.9 151.75,-232.04"/>
<polygon fill="midnightblue" stroke="midnightblue" points="224.39,-251.82 234.95,-250.96 226.16,-245.04 224.39,-251.82"/>
</g>
<!-- Node11 -->
<g id="node11" class="node">
<title>Node11</title>
<g id="a_node11"><a xlink:href="namespacevecCore.html#af5ae6bac35d59b00c29fd4380c615e86" target="_top" xlink:title=" ">
<polygon fill="white" stroke="black" points="43.5,-175 43.5,-194 153.5,-194 153.5,-175 43.5,-175"/>
<text text-anchor="middle" x="98.5" y="-182" font-family="Helvetica,sans-Serif" font-size="10.00">vecCore::ReduceAdd</text>
</a>
</g>
</g>
<!-- Node2&#45;&gt;Node11 -->
<g id="edge10" class="edge">
<title>Node2&#45;&gt;Node11</title>
<path fill="none" stroke="midnightblue" d="M252.94,-243.66C239.16,-230.67 218.42,-213.31 197,-203.5 183.52,-197.33 168.09,-193.16 153.54,-190.34"/>
<polygon fill="midnightblue" stroke="midnightblue" points="250.58,-246.25 260.19,-250.72 255.46,-241.24 250.58,-246.25"/>
</g>
<!-- Node12 -->
<g id="node12" class="node">
<title>Node12</title>
<g id="a_node12"><a xlink:href="namespacevecCore.html#a418a4e9c96935fc85e4e6712489e18ac" target="_top" xlink:title=" ">
<polygon fill="white" stroke="black" points="42.5,-137 42.5,-156 154.5,-156 154.5,-137 42.5,-137"/>
<text text-anchor="middle" x="98.5" y="-144" font-family="Helvetica,sans-Serif" font-size="10.00">vecCore::ReduceMax</text>
</a>
</g>
</g>
<!-- Node2&#45;&gt;Node12 -->
<g id="edge11" class="edge">
<title>Node2&#45;&gt;Node12</title>
<path fill="none" stroke="midnightblue" d="M260.59,-241.83C249.09,-219.88 226.96,-184.1 197,-165.5 184.4,-157.68 169.26,-152.96 154.71,-150.16"/>
<polygon fill="midnightblue" stroke="midnightblue" points="257.49,-243.46 265.11,-250.83 263.75,-240.32 257.49,-243.46"/>
</g>
<!-- Node13 -->
<g id="node13" class="node">
<title>Node13</title>
<g id="a_node13"><a xlink:href="namespacevecCore.html#ae701e4480574bb9dd38ac3df90884257" target="_top" xlink:title=" ">
<polygon fill="white" stroke="black" points="44,-99 44,-118 153,-118 153,-99 44,-99"/>
<text text-anchor="middle" x="98.5" y="-106" font-family="Helvetica,sans-Serif" font-size="10.00">vecCore::ReduceMin</text>
</a>
</g>
</g>
<!-- Node2&#45;&gt;Node13 -->
<g id="edge12" class="edge">
<title>Node2&#45;&gt;Node13</title>
<path fill="none" stroke="midnightblue" d="M264.6,-241C256.12,-211.47 235.76,-155.88 197,-127.5 184.34,-118.23 168.36,-113.15 153.02,-110.45"/>
<polygon fill="midnightblue" stroke="midnightblue" points="261.3,-242.18 267.29,-250.92 268.05,-240.36 261.3,-242.18"/>
</g>
<!-- Node14 -->
<g id="node14" class="node">
<title>Node14</title>
<g id="a_node14"><a xlink:href="structvecCore_1_1GatherScatterImplementation.html#a03f8ce92b4f7500e88272ed448518090" target="_top" xlink:title=" ">
<polygon fill="white" stroke="black" points="5,-49.5 5,-79.5 192,-79.5 192,-49.5 5,-49.5"/>
<text text-anchor="start" x="13" y="-67.5" font-family="Helvetica,sans-Serif" font-size="10.00">vecCore::GatherScatterImplementation</text>
<text text-anchor="middle" x="98.5" y="-56.5" font-family="Helvetica,sans-Serif" font-size="10.00">::Scatter</text>
</a>
</g>
</g>
<!-- Node2&#45;&gt;Node14 -->
<g id="edge13" class="edge">
<title>Node2&#45;&gt;Node14</title>
<path fill="none" stroke="midnightblue" d="M266.83,-240.45C260.96,-204.61 243.54,-129.54 197,-89.5 192.5,-85.63 187.47,-82.34 182.14,-79.55"/>
<polygon fill="midnightblue" stroke="midnightblue" points="263.41,-241.25 268.35,-250.62 270.33,-240.21 263.41,-241.25"/>
</g>
<!-- Node15 -->
<g id="node15" class="node">
<title>Node15</title>
<g id="a_node15"><a xlink:href="structvecCore_1_1LoadStoreImplementation.html#abaa8e55659d773dc8abb850b16e04678" target="_top" xlink:title=" ">
<polygon fill="white" stroke="black" points="13.5,-0.5 13.5,-30.5 183.5,-30.5 183.5,-0.5 13.5,-0.5"/>
<text text-anchor="start" x="21.5" y="-18.5" font-family="Helvetica,sans-Serif" font-size="10.00">vecCore::LoadStoreImplementation</text>
<text text-anchor="middle" x="98.5" y="-7.5" font-family="Helvetica,sans-Serif" font-size="10.00">::Store</text>
</a>
</g>
</g>
<!-- Node2&#45;&gt;Node15 -->
<g id="edge14" class="edge">
<title>Node2&#45;&gt;Node15</title>
<path fill="none" stroke="midnightblue" d="M269.02,-240.89C266.87,-197.98 255.52,-95.21 197,-40.5 192.92,-36.68 188.33,-33.43 183.43,-30.65"/>
<polygon fill="midnightblue" stroke="midnightblue" points="265.52,-241.03 269.4,-250.89 272.52,-240.76 265.52,-241.03"/>
</g>
</g>
</svg>
