<?xml version="1.0" encoding="UTF-8" standalone="no"?>
<!DOCTYPE svg PUBLIC "-//W3C//DTD SVG 1.1//EN"
 "http://www.w3.org/Graphics/SVG/1.1/DTD/svg11.dtd">
<!-- Generated by graphviz version 2.44.0 (20200408.0750)
 -->
<!-- Title: vecCore::IndexingImplementation::Set Pages: 1 -->
<svg width="535pt" height="532pt"
 viewBox="0.00 0.00 535.00 531.50" xmlns="http://www.w3.org/2000/svg" xmlns:xlink="http://www.w3.org/1999/xlink">
<g id="graph0" class="graph" transform="scale(1 1) rotate(0) translate(4 527.5)">
<title>vecCore::IndexingImplementation::Set</title>
<polygon fill="white" stroke="transparent" points="-4,4 -4,-527.5 531,-527.5 531,4 -4,4"/>
<!-- Node1 -->
<g id="node1" class="node">
<title>Node1</title>
<g id="a_node1"><a xlink:title=" ">
<polygon fill="#bfbfbf" stroke="black" points="343,-246.5 343,-265.5 527,-265.5 527,-246.5 343,-246.5"/>
<text text-anchor="middle" x="435" y="-253.5" font-family="Helvetica,sans-Serif" font-size="10.00">vecCore::IndexingImplementation::Set</text>
</a>
</g>
</g>
<!-- Node2 -->
<g id="node2" class="node">
<title>Node2</title>
<g id="a_node2"><a xlink:href="namespacevecCore.html#a211f237ccf30b72af40548291b739272" target="_top" xlink:title=" ">
<polygon fill="white" stroke="black" points="233,-246.5 233,-265.5 307,-265.5 307,-246.5 233,-246.5"/>
<text text-anchor="middle" x="270" y="-253.5" font-family="Helvetica,sans-Serif" font-size="10.00">vecCore::Set</text>
</a>
</g>
</g>
<!-- Node1&#45;&gt;Node2 -->
<g id="edge1" class="edge">
<title>Node1&#45;&gt;Node2</title>
<path fill="none" stroke="midnightblue" d="M332.95,-256C323.82,-256 315.03,-256 307.09,-256"/>
<polygon fill="midnightblue" stroke="midnightblue" points="332.97,-259.5 342.97,-256 332.97,-252.5 332.97,-259.5"/>
</g>
<!-- Node3 -->
<g id="node3" class="node">
<title>Node3</title>
<g id="a_node3"><a xlink:href="structvecCore_1_1GenericMaskingImplementation.html#acb5e860109dfa08c23d52d1fc308b134" target="_top" xlink:title=" ">
<polygon fill="white" stroke="black" points="0,-493 0,-523 197,-523 197,-493 0,-493"/>
<text text-anchor="start" x="8" y="-511" font-family="Helvetica,sans-Serif" font-size="10.00">vecCore::GenericMaskingImplementation</text>
<text text-anchor="middle" x="98.5" y="-500" font-family="Helvetica,sans-Serif" font-size="10.00">::Assign</text>
</a>
</g>
</g>
<!-- Node2&#45;&gt;Node3 -->
<g id="edge2" class="edge">
<title>Node2&#45;&gt;Node3</title>
<path fill="none" stroke="midnightblue" d="M268.79,-275.93C267.2,-320 256.97,-426.3 197,-483 192.94,-486.84 188.37,-490.11 183.48,-492.9"/>
<polygon fill="midnightblue" stroke="midnightblue" points="272.29,-275.99 269.04,-265.91 265.29,-275.82 272.29,-275.99"/>
</g>
<!-- Node4 -->
<g id="node4" class="node">
<title>Node4</title>
<g id="a_node4"><a xlink:href="namespacevecCore.html#a1f2a79b75b5b3decff8b5afdb08e8af8" target="_top" xlink:title=" ">
<polygon fill="white" stroke="black" points="43.5,-454.5 43.5,-473.5 153.5,-473.5 153.5,-454.5 43.5,-454.5"/>
<text text-anchor="middle" x="98.5" y="-461.5" font-family="Helvetica,sans-Serif" font-size="10.00">vecCore::AssignLane</text>
</a>
</g>
</g>
<!-- Node2&#45;&gt;Node4 -->
<g id="edge3" class="edge">
<title>Node2&#45;&gt;Node4</title>
<path fill="none" stroke="midnightblue" d="M267.59,-275.7C263.71,-314.53 249.32,-400.96 197,-445 184.93,-455.16 169.03,-460.49 153.58,-463.13"/>
<polygon fill="midnightblue" stroke="midnightblue" points="271.09,-275.95 268.46,-265.69 264.11,-275.34 271.09,-275.95"/>
</g>
<!-- Node5 -->
<g id="node5" class="node">
<title>Node5</title>
<g id="a_node5"><a xlink:href="namespacevecCore.html#a5eae7ebdaef3d28d27e2ac63a67e1399" target="_top" xlink:title=" ">
<polygon fill="white" stroke="black" points="31.5,-416.5 31.5,-435.5 165.5,-435.5 165.5,-416.5 31.5,-416.5"/>
<text text-anchor="middle" x="98.5" y="-423.5" font-family="Helvetica,sans-Serif" font-size="10.00">vecCore::AssignMaskLane</text>
</a>
</g>
</g>
<!-- Node2&#45;&gt;Node5 -->
<g id="edge4" class="edge">
<title>Node2&#45;&gt;Node5</title>
<path fill="none" stroke="midnightblue" d="M265.48,-275.77C258.55,-308.53 239.92,-373.75 197,-407 187.87,-414.08 176.83,-418.75 165.52,-421.79"/>
<polygon fill="midnightblue" stroke="midnightblue" points="268.98,-276.13 267.46,-265.64 262.11,-274.78 268.98,-276.13"/>
</g>
<!-- Node6 -->
<g id="node6" class="node">
<title>Node6</title>
<g id="a_node6"><a xlink:href="structvecCore_1_1GenericMaskingImplementation.html#a19c7d4192f03dbcd2045c8983d89bcc8" target="_top" xlink:title=" ">
<polygon fill="white" stroke="black" points="0,-367 0,-397 197,-397 197,-367 0,-367"/>
<text text-anchor="start" x="8" y="-385" font-family="Helvetica,sans-Serif" font-size="10.00">vecCore::GenericMaskingImplementation</text>
<text text-anchor="middle" x="98.5" y="-374" font-family="Helvetica,sans-Serif" font-size="10.00">::Blend</text>
</a>
</g>
</g>
<!-- Node2&#45;&gt;Node6 -->
<g id="edge5" class="edge">
<title>Node2&#45;&gt;Node6</title>
<path fill="none" stroke="midnightblue" d="M260.62,-274.88C249.44,-297.83 227.47,-336.1 197,-357 191.38,-360.86 185.21,-364.12 178.79,-366.87"/>
<polygon fill="midnightblue" stroke="midnightblue" points="263.8,-276.34 264.86,-265.8 257.46,-273.37 263.8,-276.34"/>
</g>
<!-- Node7 -->
<g id="node7" class="node">
<title>Node7</title>
<g id="a_node7"><a xlink:href="namespacevecCore.html#a98d52c47c802cf3d9d7f5f177b39f062" target="_top" xlink:title=" ">
<polygon fill="white" stroke="black" points="51.5,-328.5 51.5,-347.5 145.5,-347.5 145.5,-328.5 51.5,-328.5"/>
<text text-anchor="middle" x="98.5" y="-335.5" font-family="Helvetica,sans-Serif" font-size="10.00">vecCore::Convert</text>
</a>
</g>
</g>
<!-- Node2&#45;&gt;Node7 -->
<g id="edge6" class="edge">
<title>Node2&#45;&gt;Node7</title>
<path fill="none" stroke="midnightblue" d="M253.82,-273.68C240.38,-288.17 219.44,-308 197,-319 181.2,-326.74 162.52,-331.33 145.75,-334.05"/>
<polygon fill="midnightblue" stroke="midnightblue" points="256.75,-275.66 260.83,-265.88 251.54,-270.98 256.75,-275.66"/>
</g>
<!-- Node8 -->
<g id="node8" class="node">
<title>Node8</title>
<g id="a_node8"><a xlink:href="namespacevecCore_1_1math.html#aafc401ef969bc88a6ca94d970cfb9f68" target="_top" xlink:title=" ">
<polygon fill="white" stroke="black" points="42.5,-290.5 42.5,-309.5 154.5,-309.5 154.5,-290.5 42.5,-290.5"/>
<text text-anchor="middle" x="98.5" y="-297.5" font-family="Helvetica,sans-Serif" font-size="10.00">vecCore::math::Frexp</text>
</a>
</g>
</g>
<!-- Node2&#45;&gt;Node8 -->
<g id="edge7" class="edge">
<title>Node2&#45;&gt;Node8</title>
<path fill="none" stroke="midnightblue" d="M234.76,-269C222.91,-273.2 209.48,-277.64 197,-281 183.43,-284.66 168.62,-287.91 154.73,-290.65"/>
<polygon fill="midnightblue" stroke="midnightblue" points="236.07,-272.25 244.28,-265.56 233.69,-265.67 236.07,-272.25"/>
</g>
<!-- Node9 -->
<g id="node9" class="node">
<title>Node9</title>
<g id="a_node9"><a xlink:href="structvecCore_1_1GatherScatterImplementation.html#a76603f42775f63b3c9fa979bfbb79663" target="_top" xlink:title=" ">
<polygon fill="white" stroke="black" points="5,-241 5,-271 192,-271 192,-241 5,-241"/>
<text text-anchor="start" x="13" y="-259" font-family="Helvetica,sans-Serif" font-size="10.00">vecCore::GatherScatterImplementation</text>
<text text-anchor="middle" x="98.5" y="-248" font-family="Helvetica,sans-Serif" font-size="10.00">::Gather</text>
</a>
</g>
</g>
<!-- Node2&#45;&gt;Node9 -->
<g id="edge8" class="edge">
<title>Node2&#45;&gt;Node9</title>
<path fill="none" stroke="midnightblue" d="M222.34,-256C212.88,-256 202.63,-256 192.21,-256"/>
<polygon fill="midnightblue" stroke="midnightblue" points="222.64,-259.5 232.64,-256 222.64,-252.5 222.64,-259.5"/>
</g>
<!-- Node10 -->
<g id="node10" class="node">
<title>Node10</title>
<g id="a_node10"><a xlink:href="namespacevecCore_1_1math.html#abf3f3fb9c9f659995beba38251e10d01" target="_top" xlink:title=" ">
<polygon fill="white" stroke="black" points="42,-202.5 42,-221.5 155,-221.5 155,-202.5 42,-202.5"/>
<text text-anchor="middle" x="98.5" y="-209.5" font-family="Helvetica,sans-Serif" font-size="10.00">vecCore::math::Ldexp</text>
</a>
</g>
</g>
<!-- Node2&#45;&gt;Node10 -->
<g id="edge9" class="edge">
<title>Node2&#45;&gt;Node10</title>
<path fill="none" stroke="midnightblue" d="M233.21,-243.13C221.73,-239.26 208.91,-235.19 197,-232 182.48,-228.11 166.57,-224.55 151.89,-221.55"/>
<polygon fill="midnightblue" stroke="midnightblue" points="232.3,-246.52 242.9,-246.46 234.58,-239.9 232.3,-246.52"/>
</g>
<!-- Node11 -->
<g id="node11" class="node">
<title>Node11</title>
<g id="a_node11"><a xlink:href="structvecCore_1_1LoadStoreImplementation.html#ab0899849de37f38f65884b2c83b01f44" target="_top" xlink:title=" ">
<polygon fill="white" stroke="black" points="13.5,-153 13.5,-183 183.5,-183 183.5,-153 13.5,-153"/>
<text text-anchor="start" x="21.5" y="-171" font-family="Helvetica,sans-Serif" font-size="10.00">vecCore::LoadStoreImplementation</text>
<text text-anchor="middle" x="98.5" y="-160" font-family="Helvetica,sans-Serif" font-size="10.00">::Load</text>
</a>
</g>
</g>
<!-- Node2&#45;&gt;Node11 -->
<g id="edge10" class="edge">
<title>Node2&#45;&gt;Node11</title>
<path fill="none" stroke="midnightblue" d="M253.65,-238.65C240.1,-224.37 219.11,-204.65 197,-193 189.66,-189.13 181.68,-185.84 173.56,-183.04"/>
<polygon fill="midnightblue" stroke="midnightblue" points="251.37,-241.34 260.72,-246.32 256.52,-236.6 251.37,-241.34"/>
</g>
<!-- Node12 -->
<g id="node12" class="node">
<title>Node12</title>
<g id="a_node12"><a xlink:href="namespacevecCore_1_1math.html#ab0c8b7fb50f327e9af305aaf12b89464" target="_top" xlink:title=" ">
<polygon fill="white" stroke="black" points="44,-114.5 44,-133.5 153,-133.5 153,-114.5 44,-114.5"/>
<text text-anchor="middle" x="98.5" y="-121.5" font-family="Helvetica,sans-Serif" font-size="10.00">vecCore::math::Modf</text>
</a>
</g>
</g>
<!-- Node2&#45;&gt;Node12 -->
<g id="edge11" class="edge">
<title>Node2&#45;&gt;Node12</title>
<path fill="none" stroke="midnightblue" d="M262.11,-236.71C251.97,-211.25 230.53,-166.99 197,-144 184.17,-135.21 168.31,-130.13 153.14,-127.23"/>
<polygon fill="midnightblue" stroke="midnightblue" points="258.95,-238.24 265.76,-246.35 265.49,-235.76 258.95,-238.24"/>
</g>
<!-- Node13 -->
<g id="node13" class="node">
<title>Node13</title>
<g id="a_node13"><a xlink:href="namespacevecCore_1_1math.html#ac0d4c095b17b1c95fa3396bceeb653f1" target="_top" xlink:title=" ">
<polygon fill="white" stroke="black" points="43,-76.5 43,-95.5 154,-95.5 154,-76.5 43,-76.5"/>
<text text-anchor="middle" x="98.5" y="-83.5" font-family="Helvetica,sans-Serif" font-size="10.00">vecCore::math::Rsqrt</text>
</a>
</g>
</g>
<!-- Node2&#45;&gt;Node13 -->
<g id="edge12" class="edge">
<title>Node2&#45;&gt;Node13</title>
<path fill="none" stroke="midnightblue" d="M265.48,-236.23C258.55,-203.47 239.92,-138.25 197,-105 184.8,-95.55 169.21,-90.38 154.1,-87.66"/>
<polygon fill="midnightblue" stroke="midnightblue" points="262.11,-237.22 267.46,-246.36 268.98,-235.87 262.11,-237.22"/>
</g>
<!-- Node14 -->
<g id="node14" class="node">
<title>Node14</title>
<g id="a_node14"><a xlink:href="namespacevecCore_1_1math.html#aa70516c832781cce9b3c4e7f731b4109" target="_top" xlink:title=" ">
<polygon fill="white" stroke="black" points="39,-38.5 39,-57.5 158,-57.5 158,-38.5 39,-38.5"/>
<text text-anchor="middle" x="98.5" y="-45.5" font-family="Helvetica,sans-Serif" font-size="10.00">vecCore::math::Scalbln</text>
</a>
</g>
</g>
<!-- Node2&#45;&gt;Node14 -->
<g id="edge13" class="edge">
<title>Node2&#45;&gt;Node14</title>
<path fill="none" stroke="midnightblue" d="M267.59,-236.3C263.71,-197.47 249.32,-111.04 197,-67 186.11,-57.84 172.12,-52.61 158.15,-49.73"/>
<polygon fill="midnightblue" stroke="midnightblue" points="264.11,-236.66 268.46,-246.31 271.09,-236.05 264.11,-236.66"/>
</g>
<!-- Node15 -->
<g id="node15" class="node">
<title>Node15</title>
<g id="a_node15"><a xlink:href="namespacevecCore_1_1math.html#aa5562e1ba0d2918347591294473de6c4" target="_top" xlink:title=" ">
<polygon fill="white" stroke="black" points="40,-0.5 40,-19.5 157,-19.5 157,-0.5 40,-0.5"/>
<text text-anchor="middle" x="98.5" y="-7.5" font-family="Helvetica,sans-Serif" font-size="10.00">vecCore::math::Scalbn</text>
</a>
</g>
</g>
<!-- Node2&#45;&gt;Node15 -->
<g id="edge14" class="edge">
<title>Node2&#45;&gt;Node15</title>
<path fill="none" stroke="midnightblue" d="M269.04,-236.42C268,-192.21 258.89,-84.17 197,-29 186.06,-19.25 171.63,-13.87 157.24,-11.05"/>
<polygon fill="midnightblue" stroke="midnightblue" points="265.54,-236.49 269.16,-246.44 272.54,-236.4 265.54,-236.49"/>
</g>
</g>
</svg>
