<?xml version="1.0" encoding="UTF-8" standalone="no"?>
<!DOCTYPE svg PUBLIC "-//W3C//DTD SVG 1.1//EN"
 "http://www.w3.org/Graphics/SVG/1.1/DTD/svg11.dtd">
<!-- Generated by graphviz version 2.44.0 (20200408.0750)
 -->
<!-- Title: vecCore::IndexingImplementation::Get Pages: 1 -->
<!--zoomable 769 -->
<svg id="main" version="1.1" xmlns="http://www.w3.org/2000/svg" xmlns:xlink="http://www.w3.org/1999/xlink" xml:space="preserve" onload="init(evt)">
<style type="text/css"><![CDATA[
.edge:hover path { stroke: red; }
.edge:hover polygon { stroke: red; fill: red; }
]]></style>
<script type="text/javascript"><![CDATA[
var edges = document.getElementsByTagName('g');
if (edges && edges.length) {
  for (var i=0;i<edges.length;i++) {
    if (edges[i].id.substr(0,4)=='edge') {
      edges[i].setAttribute('class','edge');
    }
  }
}
]]></script>
        <defs>
                <circle id="rim" cx="0" cy="0" r="7"/>
                <circle id="rim2" cx="0" cy="0" r="3.5"/>
                <g id="zoomPlus">
                        <use xlink:href="#rim" fill="#404040">
                                <set attributeName="fill" to="#808080" begin="zoomplus.mouseover" end="zoomplus.mouseout"/>
                        </use>
                        <path d="M-4,0h8M0,-4v8" fill="none" stroke="white" stroke-width="1.5" pointer-events="none"/>
                </g>
                <g id="zoomMin">
                        <use xlink:href="#rim" fill="#404040">
                                <set attributeName="fill" to="#808080" begin="zoomminus.mouseover" end="zoomminus.mouseout"/>
                        </use>
                        <path d="M-4,0h8" fill="none" stroke="white" stroke-width="1.5" pointer-events="none"/>
                </g>
                <g id="dirArrow">
                        <path fill="none" stroke="white" stroke-width="1.5" d="M0,-3.0v7 M-2.5,-0.5L0,-3.0L2.5,-0.5"/>
                </g>
               <g id="resetDef">
                       <use xlink:href="#rim2" fill="#404040">
                               <set attributeName="fill" to="#808080" begin="reset.mouseover" end="reset.mouseout"/>
                       </use>
               </g>
        </defs>

<script type="text/javascript">
var viewWidth = 537;
var viewHeight = 769;
var sectionId = 'dynsection-1';
</script>
<script xlink:href="svgpan.js"/>
<svg id="graph" class="graph">
<g id="viewport">
<title>vecCore::IndexingImplementation::Get</title>
<polygon fill="white" stroke="transparent" points="-4,4 -4,-765 533,-765 533,4 -4,4"/>
<!-- Node1 -->
<g id="node1" class="node">
<title>Node1</title>
<g id="a_node1"><a xlink:title=" ">
<polygon fill="#bfbfbf" stroke="black" points="344,-365 344,-384 529,-384 529,-365 344,-365"/>
<text text-anchor="middle" x="436.5" y="-372" font-family="Helvetica,sans-Serif" font-size="10.00">vecCore::IndexingImplementation::Get</text>
</a>
</g>
</g>
<!-- Node2 -->
<g id="node2" class="node">
<title>Node2</title>
<g id="a_node2"><a xlink:href="namespacevecCore.html#a0bc95998843376452d74d5c8f5337845" target="_top" xlink:title=" ">
<polygon fill="white" stroke="black" points="233,-365 233,-384 308,-384 308,-365 233,-365"/>
<text text-anchor="middle" x="270.5" y="-372" font-family="Helvetica,sans-Serif" font-size="10.00">vecCore::Get</text>
</a>
</g>
</g>
<!-- Node1&#45;&gt;Node2 -->
<g id="edge1" class="edge">
<title>Node1&#45;&gt;Node2</title>
<path fill="none" stroke="midnightblue" d="M333.65,-374.5C324.67,-374.5 316.03,-374.5 308.19,-374.5"/>
<polygon fill="midnightblue" stroke="midnightblue" points="333.91,-378 343.91,-374.5 333.91,-371 333.91,-378"/>
</g>
<!-- Node3 -->
<g id="node3" class="node">
<title>Node3</title>
<g id="a_node3"><a xlink:href="structvecCore_1_1GenericMaskingImplementation.html#acb5e860109dfa08c23d52d1fc308b134" target="_top" xlink:title=" ">
<polygon fill="white" stroke="black" points="0,-730.5 0,-760.5 197,-760.5 197,-730.5 0,-730.5"/>
<text text-anchor="start" x="8" y="-748.5" font-family="Helvetica,sans-Serif" font-size="10.00">vecCore::GenericMaskingImplementation</text>
<text text-anchor="middle" x="98.5" y="-737.5" font-family="Helvetica,sans-Serif" font-size="10.00">::Assign</text>
</a>
</g>
</g>
<!-- Node2&#45;&gt;Node3 -->
<g id="edge2" class="edge">
<title>Node2&#45;&gt;Node3</title>
<path fill="none" stroke="midnightblue" d="M268.06,-394.61C262.87,-461.33 242.97,-673.88 197,-721.5 193.73,-724.89 190.07,-727.83 186.13,-730.37"/>
<polygon fill="midnightblue" stroke="midnightblue" points="271.58,-394.47 268.84,-384.23 264.6,-393.94 271.58,-394.47"/>
</g>
<!-- Node4 -->
<g id="node4" class="node">
<title>Node4</title>
<g id="a_node4"><a xlink:href="structvecCore_1_1GenericMaskingImplementation.html#a19c7d4192f03dbcd2045c8983d89bcc8" target="_top" xlink:title=" ">
<polygon fill="white" stroke="black" points="0,-681.5 0,-711.5 197,-711.5 197,-681.5 0,-681.5"/>
<text text-anchor="start" x="8" y="-699.5" font-family="Helvetica,sans-Serif" font-size="10.00">vecCore::GenericMaskingImplementation</text>
<text text-anchor="middle" x="98.5" y="-688.5" font-family="Helvetica,sans-Serif" font-size="10.00">::Blend</text>
</a>
</g>
</g>
<!-- Node2&#45;&gt;Node4 -->
<g id="edge3" class="edge">
<title>Node2&#45;&gt;Node4</title>
<path fill="none" stroke="midnightblue" d="M267.35,-393.99C260.39,-453.54 236.61,-631.43 197,-671.5 193.19,-675.35 188.88,-678.64 184.23,-681.44"/>
<polygon fill="midnightblue" stroke="midnightblue" points="270.83,-394.35 268.48,-384.02 263.87,-393.56 270.83,-394.35"/>
</g>
<!-- Node5 -->
<g id="node5" class="node">
<title>Node5</title>
<g id="a_node5"><a xlink:href="namespacevecCore.html#a98d52c47c802cf3d9d7f5f177b39f062" target="_top" xlink:title=" ">
<polygon fill="white" stroke="black" points="51.5,-643 51.5,-662 145.5,-662 145.5,-643 51.5,-643"/>
<text text-anchor="middle" x="98.5" y="-650" font-family="Helvetica,sans-Serif" font-size="10.00">vecCore::Convert</text>
</a>
</g>
</g>
<!-- Node2&#45;&gt;Node5 -->
<g id="edge4" class="edge">
<title>Node2&#45;&gt;Node5</title>
<path fill="none" stroke="midnightblue" d="M266.65,-394.41C258.41,-449.22 232.8,-600.47 197,-633.5 183.31,-646.13 163.82,-651.48 145.86,-653.45"/>
<polygon fill="midnightblue" stroke="midnightblue" points="270.15,-394.66 268.15,-384.25 263.23,-393.64 270.15,-394.66"/>
</g>
<!-- Node6 -->
<g id="node6" class="node">
<title>Node6</title>
<g id="a_node6"><a xlink:href="namespacevecCore_1_1math.html#aafc401ef969bc88a6ca94d970cfb9f68" target="_top" xlink:title=" ">
<polygon fill="white" stroke="black" points="42.5,-605 42.5,-624 154.5,-624 154.5,-605 42.5,-605"/>
<text text-anchor="middle" x="98.5" y="-612" font-family="Helvetica,sans-Serif" font-size="10.00">vecCore::math::Frexp</text>
</a>
</g>
</g>
<!-- Node2&#45;&gt;Node6 -->
<g id="edge5" class="edge">
<title>Node2&#45;&gt;Node6</title>
<path fill="none" stroke="midnightblue" d="M269.28,-394.45C267.66,-438.07 257.31,-542.27 197,-595.5 185.36,-605.77 169.86,-611.17 154.64,-613.85"/>
<polygon fill="midnightblue" stroke="midnightblue" points="272.79,-394.37 269.54,-384.29 265.79,-394.2 272.79,-394.37"/>
</g>
<!-- Node7 -->
<g id="node7" class="node">
<title>Node7</title>
<g id="a_node7"><a xlink:href="structvecCore_1_1GatherScatterImplementation.html#a76603f42775f63b3c9fa979bfbb79663" target="_top" xlink:title=" ">
<polygon fill="white" stroke="black" points="5,-555.5 5,-585.5 192,-585.5 192,-555.5 5,-555.5"/>
<text text-anchor="start" x="13" y="-573.5" font-family="Helvetica,sans-Serif" font-size="10.00">vecCore::GatherScatterImplementation</text>
<text text-anchor="middle" x="98.5" y="-562.5" font-family="Helvetica,sans-Serif" font-size="10.00">::Gather</text>
</a>
</g>
</g>
<!-- Node2&#45;&gt;Node7 -->
<g id="edge6" class="edge">
<title>Node2&#45;&gt;Node7</title>
<path fill="none" stroke="midnightblue" d="M266.83,-394.55C260.96,-430.39 243.54,-505.46 197,-545.5 192.5,-549.37 187.47,-552.66 182.14,-555.45"/>
<polygon fill="midnightblue" stroke="midnightblue" points="270.33,-394.79 268.35,-384.38 263.41,-393.75 270.33,-394.79"/>
</g>
<!-- Node8 -->
<g id="node8" class="node">
<title>Node8</title>
<g id="a_node8"><a xlink:href="namespacevecCore.html#ae21440201cbb30a1dcd1d17f9d573bc1" target="_top" xlink:title=" ">
<polygon fill="white" stroke="black" points="53.5,-517 53.5,-536 143.5,-536 143.5,-517 53.5,-517"/>
<text text-anchor="middle" x="98.5" y="-524" font-family="Helvetica,sans-Serif" font-size="10.00">vecCore::LaneAt</text>
</a>
</g>
</g>
<!-- Node2&#45;&gt;Node8 -->
<g id="edge7" class="edge">
<title>Node2&#45;&gt;Node8</title>
<path fill="none" stroke="midnightblue" d="M264.6,-394C256.12,-423.53 235.76,-479.12 197,-507.5 181.7,-518.71 161.54,-523.79 143.53,-525.95"/>
<polygon fill="midnightblue" stroke="midnightblue" points="268.05,-394.64 267.29,-384.08 261.3,-392.82 268.05,-394.64"/>
</g>
<!-- Node9 -->
<g id="node9" class="node">
<title>Node9</title>
<g id="a_node9"><a xlink:href="namespacevecCore_1_1math.html#abf3f3fb9c9f659995beba38251e10d01" target="_top" xlink:title=" ">
<polygon fill="white" stroke="black" points="42,-479 42,-498 155,-498 155,-479 42,-479"/>
<text text-anchor="middle" x="98.5" y="-486" font-family="Helvetica,sans-Serif" font-size="10.00">vecCore::math::Ldexp</text>
</a>
</g>
</g>
<!-- Node2&#45;&gt;Node9 -->
<g id="edge8" class="edge">
<title>Node2&#45;&gt;Node9</title>
<path fill="none" stroke="midnightblue" d="M260.59,-393.17C249.09,-415.12 226.96,-450.9 197,-469.5 184.55,-477.23 169.61,-481.93 155.22,-484.74"/>
<polygon fill="midnightblue" stroke="midnightblue" points="263.75,-394.68 265.11,-384.17 257.49,-391.54 263.75,-394.68"/>
</g>
<!-- Node10 -->
<g id="node10" class="node">
<title>Node10</title>
<g id="a_node10"><a xlink:href="namespacevecCore.html#a983a96931061419dd4fa5d5722d2dabc" target="_top" xlink:title=" ">
<polygon fill="white" stroke="black" points="42.5,-441 42.5,-460 154.5,-460 154.5,-441 42.5,-441"/>
<text text-anchor="middle" x="98.5" y="-448" font-family="Helvetica,sans-Serif" font-size="10.00">vecCore::MaskEmpty</text>
</a>
</g>
</g>
<!-- Node2&#45;&gt;Node10 -->
<g id="edge9" class="edge">
<title>Node2&#45;&gt;Node10</title>
<path fill="none" stroke="midnightblue" d="M252.94,-391.34C239.16,-404.33 218.42,-421.69 197,-431.5 183.83,-437.53 168.8,-441.65 154.56,-444.46"/>
<polygon fill="midnightblue" stroke="midnightblue" points="255.46,-393.76 260.19,-384.28 250.58,-388.75 255.46,-393.76"/>
</g>
<!-- Node11 -->
<g id="node11" class="node">
<title>Node11</title>
<g id="a_node11"><a xlink:href="namespacevecCore.html#ae79db151f13997d052f60ac17ffacd0b" target="_top" xlink:title=" ">
<polygon fill="white" stroke="black" points="49,-403 49,-422 148,-422 148,-403 49,-403"/>
<text text-anchor="middle" x="98.5" y="-410" font-family="Helvetica,sans-Serif" font-size="10.00">vecCore::MaskFull</text>
</a>
</g>
</g>
<!-- Node2&#45;&gt;Node11 -->
<g id="edge10" class="edge">
<title>Node2&#45;&gt;Node11</title>
<path fill="none" stroke="midnightblue" d="M225.12,-386.61C215.86,-389 206.13,-391.42 197,-393.5 181.2,-397.11 163.85,-400.63 148.23,-403.64"/>
<polygon fill="midnightblue" stroke="midnightblue" points="226.16,-389.96 234.95,-384.04 224.39,-383.18 226.16,-389.96"/>
</g>
<!-- Node12 -->
<g id="node12" class="node">
<title>Node12</title>
<g id="a_node12"><a xlink:href="namespacevecCore.html#afe64f125f00615de3fdbc386fd3c33df" target="_top" xlink:title=" ">
<polygon fill="white" stroke="black" points="41.5,-365 41.5,-384 155.5,-384 155.5,-365 41.5,-365"/>
<text text-anchor="middle" x="98.5" y="-372" font-family="Helvetica,sans-Serif" font-size="10.00">vecCore::MaskLaneAt</text>
</a>
</g>
</g>
<!-- Node2&#45;&gt;Node12 -->
<g id="edge11" class="edge">
<title>Node2&#45;&gt;Node12</title>
<path fill="none" stroke="midnightblue" d="M222.49,-374.5C201.81,-374.5 177.35,-374.5 155.72,-374.5"/>
<polygon fill="midnightblue" stroke="midnightblue" points="222.61,-378 232.61,-374.5 222.61,-371 222.61,-378"/>
</g>
<!-- Node13 -->
<g id="node13" class="node">
<title>Node13</title>
<g id="a_node13"><a xlink:href="namespacevecCore_1_1math.html#ab0c8b7fb50f327e9af305aaf12b89464" target="_top" xlink:title=" ">
<polygon fill="white" stroke="black" points="44,-327 44,-346 153,-346 153,-327 44,-327"/>
<text text-anchor="middle" x="98.5" y="-334" font-family="Helvetica,sans-Serif" font-size="10.00">vecCore::math::Modf</text>
</a>
</g>
</g>
<!-- Node2&#45;&gt;Node13 -->
<g id="edge12" class="edge">
<title>Node2&#45;&gt;Node13</title>
<path fill="none" stroke="midnightblue" d="M225.12,-362.39C215.86,-360 206.13,-357.58 197,-355.5 182.37,-352.16 166.43,-348.9 151.75,-346.04"/>
<polygon fill="midnightblue" stroke="midnightblue" points="224.39,-365.82 234.95,-364.96 226.16,-359.04 224.39,-365.82"/>
</g>
<!-- Node14 -->
<g id="node14" class="node">
<title>Node14</title>
<g id="a_node14"><a xlink:href="namespacevecCore.html#af5ae6bac35d59b00c29fd4380c615e86" target="_top" xlink:title=" ">
<polygon fill="white" stroke="black" points="43.5,-289 43.5,-308 153.5,-308 153.5,-289 43.5,-289"/>
<text text-anchor="middle" x="98.5" y="-296" font-family="Helvetica,sans-Serif" font-size="10.00">vecCore::ReduceAdd</text>
</a>
</g>
</g>
<!-- Node2&#45;&gt;Node14 -->
<g id="edge13" class="edge">
<title>Node2&#45;&gt;Node14</title>
<path fill="none" stroke="midnightblue" d="M252.94,-357.66C239.16,-344.67 218.42,-327.31 197,-317.5 183.52,-311.33 168.09,-307.16 153.54,-304.34"/>
<polygon fill="midnightblue" stroke="midnightblue" points="250.58,-360.25 260.19,-364.72 255.46,-355.24 250.58,-360.25"/>
</g>
<!-- Node15 -->
<g id="node15" class="node">
<title>Node15</title>
<g id="a_node15"><a xlink:href="namespacevecCore.html#a418a4e9c96935fc85e4e6712489e18ac" target="_top" xlink:title=" ">
<polygon fill="white" stroke="black" points="42.5,-251 42.5,-270 154.5,-270 154.5,-251 42.5,-251"/>
<text text-anchor="middle" x="98.5" y="-258" font-family="Helvetica,sans-Serif" font-size="10.00">vecCore::ReduceMax</text>
</a>
</g>
</g>
<!-- Node2&#45;&gt;Node15 -->
<g id="edge14" class="edge">
<title>Node2&#45;&gt;Node15</title>
<path fill="none" stroke="midnightblue" d="M260.59,-355.83C249.09,-333.88 226.96,-298.1 197,-279.5 184.4,-271.68 169.26,-266.96 154.71,-264.16"/>
<polygon fill="midnightblue" stroke="midnightblue" points="257.49,-357.46 265.11,-364.83 263.75,-354.32 257.49,-357.46"/>
</g>
<!-- Node16 -->
<g id="node16" class="node">
<title>Node16</title>
<g id="a_node16"><a xlink:href="namespacevecCore.html#ae701e4480574bb9dd38ac3df90884257" target="_top" xlink:title=" ">
<polygon fill="white" stroke="black" points="44,-213 44,-232 153,-232 153,-213 44,-213"/>
<text text-anchor="middle" x="98.5" y="-220" font-family="Helvetica,sans-Serif" font-size="10.00">vecCore::ReduceMin</text>
</a>
</g>
</g>
<!-- Node2&#45;&gt;Node16 -->
<g id="edge15" class="edge">
<title>Node2&#45;&gt;Node16</title>
<path fill="none" stroke="midnightblue" d="M264.6,-355C256.12,-325.47 235.76,-269.88 197,-241.5 184.34,-232.23 168.36,-227.15 153.02,-224.45"/>
<polygon fill="midnightblue" stroke="midnightblue" points="261.3,-356.18 267.29,-364.92 268.05,-354.36 261.3,-356.18"/>
</g>
<!-- Node17 -->
<g id="node17" class="node">
<title>Node17</title>
<g id="a_node17"><a xlink:href="namespacevecCore_1_1math.html#ac0d4c095b17b1c95fa3396bceeb653f1" target="_top" xlink:title=" ">
<polygon fill="white" stroke="black" points="43,-175 43,-194 154,-194 154,-175 43,-175"/>
<text text-anchor="middle" x="98.5" y="-182" font-family="Helvetica,sans-Serif" font-size="10.00">vecCore::math::Rsqrt</text>
</a>
</g>
</g>
<!-- Node2&#45;&gt;Node17 -->
<g id="edge16" class="edge">
<title>Node2&#45;&gt;Node17</title>
<path fill="none" stroke="midnightblue" d="M267.13,-354.69C261.71,-318.62 244.92,-242.34 197,-203.5 184.94,-193.73 169.31,-188.48 154.11,-185.78"/>
<polygon fill="midnightblue" stroke="midnightblue" points="263.7,-355.46 268.52,-364.9 270.64,-354.52 263.7,-355.46"/>
</g>
<!-- Node18 -->
<g id="node18" class="node">
<title>Node18</title>
<g id="a_node18"><a xlink:href="namespacevecCore_1_1math.html#aa70516c832781cce9b3c4e7f731b4109" target="_top" xlink:title=" ">
<polygon fill="white" stroke="black" points="39,-137 39,-156 158,-156 158,-137 39,-137"/>
<text text-anchor="middle" x="98.5" y="-144" font-family="Helvetica,sans-Serif" font-size="10.00">vecCore::math::Scalbln</text>
</a>
</g>
</g>
<!-- Node2&#45;&gt;Node18 -->
<g id="edge17" class="edge">
<title>Node2&#45;&gt;Node18</title>
<path fill="none" stroke="midnightblue" d="M268.86,-354.76C266.38,-312.97 254.4,-215.3 197,-165.5 186.19,-156.12 172.14,-150.82 158.09,-147.95"/>
<polygon fill="midnightblue" stroke="midnightblue" points="265.37,-354.94 269.33,-364.77 272.36,-354.62 265.37,-354.94"/>
</g>
<!-- Node19 -->
<g id="node19" class="node">
<title>Node19</title>
<g id="a_node19"><a xlink:href="namespacevecCore_1_1math.html#aa5562e1ba0d2918347591294473de6c4" target="_top" xlink:title=" ">
<polygon fill="white" stroke="black" points="40,-99 40,-118 157,-118 157,-99 40,-99"/>
<text text-anchor="middle" x="98.5" y="-106" font-family="Helvetica,sans-Serif" font-size="10.00">vecCore::math::Scalbn</text>
</a>
</g>
</g>
<!-- Node2&#45;&gt;Node19 -->
<g id="edge18" class="edge">
<title>Node2&#45;&gt;Node19</title>
<path fill="none" stroke="midnightblue" d="M270.09,-354.83C270.34,-307.85 263.99,-188.53 197,-127.5 186.1,-117.57 171.61,-112.15 157.13,-109.34"/>
<polygon fill="midnightblue" stroke="midnightblue" points="266.59,-354.84 269.92,-364.9 273.59,-354.96 266.59,-354.84"/>
</g>
<!-- Node20 -->
<g id="node20" class="node">
<title>Node20</title>
<g id="a_node20"><a xlink:href="structvecCore_1_1GatherScatterImplementation.html#a03f8ce92b4f7500e88272ed448518090" target="_top" xlink:title=" ">
<polygon fill="white" stroke="black" points="5,-49.5 5,-79.5 192,-79.5 192,-49.5 5,-49.5"/>
<text text-anchor="start" x="13" y="-67.5" font-family="Helvetica,sans-Serif" font-size="10.00">vecCore::GatherScatterImplementation</text>
<text text-anchor="middle" x="98.5" y="-56.5" font-family="Helvetica,sans-Serif" font-size="10.00">::Scatter</text>
</a>
</g>
</g>
<!-- Node2&#45;&gt;Node20 -->
<g id="edge19" class="edge">
<title>Node2&#45;&gt;Node20</title>
<path fill="none" stroke="midnightblue" d="M267.09,-354.66C259.61,-296.41 235.04,-127.61 197,-89.5 193.17,-85.67 188.84,-82.39 184.19,-79.6"/>
<polygon fill="midnightblue" stroke="midnightblue" points="263.64,-355.28 268.35,-364.76 270.58,-354.41 263.64,-355.28"/>
</g>
<!-- Node21 -->
<g id="node21" class="node">
<title>Node21</title>
<g id="a_node21"><a xlink:href="structvecCore_1_1LoadStoreImplementation.html#abaa8e55659d773dc8abb850b16e04678" target="_top" xlink:title=" ">
<polygon fill="white" stroke="black" points="13.5,-0.5 13.5,-30.5 183.5,-30.5 183.5,-0.5 13.5,-0.5"/>
<text text-anchor="start" x="21.5" y="-18.5" font-family="Helvetica,sans-Serif" font-size="10.00">vecCore::LoadStoreImplementation</text>
<text text-anchor="middle" x="98.5" y="-7.5" font-family="Helvetica,sans-Serif" font-size="10.00">::Store</text>
</a>
</g>
</g>
<!-- Node2&#45;&gt;Node21 -->
<g id="edge20" class="edge">
<title>Node2&#45;&gt;Node21</title>
<path fill="none" stroke="midnightblue" d="M267.89,-354.73C262.24,-290.06 241.18,-86.35 197,-40.5 193.12,-36.47 188.69,-33.06 183.9,-30.18"/>
<polygon fill="midnightblue" stroke="midnightblue" points="264.41,-355.14 268.75,-364.81 271.39,-354.55 264.41,-355.14"/>
</g>
</g>
</svg>
        <g id="navigator" transform="translate(0 0)" fill="#404254">
                <rect fill="#f2f5e9" fill-opacity="0.5" stroke="#606060" stroke-width=".5" x="0" y="0" width="60" height="60"/>
                <use id="zoomplus" xlink:href="#zoomPlus" x="17" y="9" onmousedown="handleZoom(evt,'in')"/>
                <use id="zoomminus" xlink:href="#zoomMin" x="42" y="9" onmousedown="handleZoom(evt,'out')"/>
                <use id="reset" xlink:href="#resetDef" x="30" y="36" onmousedown="handleReset()"/>
                <g id="arrowUp" xlink:href="#dirArrow" transform="translate(30 24)" onmousedown="handlePan(0,-1)">
                  <use xlink:href="#rim" fill="#404040">
                        <set attributeName="fill" to="#808080" begin="arrowUp.mouseover" end="arrowUp.mouseout"/>
                  </use>
                  <path fill="none" stroke="white" stroke-width="1.5" d="M0,-3.0v7 M-2.5,-0.5L0,-3.0L2.5,-0.5"/>
                </g>
                <g id="arrowRight" xlink:href="#dirArrow" transform="rotate(90) translate(36 -43)" onmousedown="handlePan(1,0)">
                  <use xlink:href="#rim" fill="#404040">
                        <set attributeName="fill" to="#808080" begin="arrowRight.mouseover" end="arrowRight.mouseout"/>
                  </use>
                  <path fill="none" stroke="white" stroke-width="1.5" d="M0,-3.0v7 M-2.5,-0.5L0,-3.0L2.5,-0.5"/>
                </g>
                <g id="arrowDown" xlink:href="#dirArrow" transform="rotate(180) translate(-30 -48)" onmousedown="handlePan(0,1)">
                  <use xlink:href="#rim" fill="#404040">
                        <set attributeName="fill" to="#808080" begin="arrowDown.mouseover" end="arrowDown.mouseout"/>
                  </use>
                  <path fill="none" stroke="white" stroke-width="1.5" d="M0,-3.0v7 M-2.5,-0.5L0,-3.0L2.5,-0.5"/>
                </g>
                <g id="arrowLeft" xlink:href="#dirArrow" transform="rotate(270) translate(-36 17)" onmousedown="handlePan(-1,0)">
                  <use xlink:href="#rim" fill="#404040">
                        <set attributeName="fill" to="#808080" begin="arrowLeft.mouseover" end="arrowLeft.mouseout"/>
                  </use>
                  <path fill="none" stroke="white" stroke-width="1.5" d="M0,-3.0v7 M-2.5,-0.5L0,-3.0L2.5,-0.5"/>
                </g>
        </g>
        <svg viewBox="0 0 15 15" width="100%" height="30px" preserveAspectRatio="xMaxYMin meet">
         <g id="arrow_out" transform="scale(0.3 0.3)">
          <a xlink:href="structvecCore_1_1IndexingImplementation_abd2d0f232679541dacf3c6d019372e42_icgraph_org.svg" target="_base">
           <rect id="button" ry="5" rx="5" y="6" x="6" height="38" width="38"
                fill="#f2f5e9" fill-opacity="0.5" stroke="#606060" stroke-width="1.0"/>
           <path id="arrow"
             d="M 11.500037,31.436501 C 11.940474,20.09759 22.043105,11.32322 32.158766,21.979434 L 37.068811,17.246167 C 37.068811,17.246167 37.088388,32 37.088388,32 L 22.160133,31.978069 C 22.160133,31.978069 26.997745,27.140456 26.997745,27.140456 C 18.528582,18.264221 13.291696,25.230495 11.500037,31.436501 z"
             style="fill:#404040;"/>
          </a>
         </g>
        </svg>
</svg>
