<?xml version="1.0" encoding="UTF-8" standalone="no"?>
<!DOCTYPE svg PUBLIC "-//W3C//DTD SVG 1.1//EN"
 "http://www.w3.org/Graphics/SVG/1.1/DTD/svg11.dtd">
<!-- Generated by graphviz version 7.1.0 (20230121.1956)
 -->
<!-- Title: VecCore/Backend/Implementation.h Pages: 1 -->
<svg width="294pt" height="137pt"
 viewBox="0.00 0.00 293.50 137.00" xmlns="http://www.w3.org/2000/svg" xmlns:xlink="http://www.w3.org/1999/xlink">
<g id="graph0" class="graph" transform="scale(1 1) rotate(0) translate(4 133)">
<title>VecCore/Backend/Implementation.h</title>
<!-- Node1 -->
<g id="node1" class="node">
<title>Node1</title>
<g id="a_node1"><a xlink:title=" ">
<polygon fill="#999999" stroke="#666666" points="226.5,-129 52.5,-129 52.5,-110 226.5,-110 226.5,-129"/>
<text text-anchor="middle" x="139.5" y="-117" font-family="Helvetica,sans-Serif" font-size="10.00">VecCore/Backend/Implementation.h</text>
</a>
</g>
</g>
<!-- Node2 -->
<g id="node2" class="node">
<title>Node2</title>
<g id="a_node2"><a xlink:href="Interface_8h.html" target="_top" xlink:title=" ">
<polygon fill="white" stroke="#666666" points="63,-19 0,-19 0,0 63,0 63,-19"/>
<text text-anchor="middle" x="31.5" y="-7" font-family="Helvetica,sans-Serif" font-size="10.00">Interface.h</text>
</a>
</g>
</g>
<!-- Node1&#45;&gt;Node2 -->
<g id="edge1" class="edge">
<title>Node1&#45;&gt;Node2</title>
<path fill="none" stroke="#63b8ff" d="M116.54,-109.58C99.82,-102.14 77.56,-90.15 62.5,-74 50.72,-61.37 42.52,-43.43 37.53,-29.84"/>
<polygon fill="#63b8ff" stroke="#63b8ff" points="40.96,-29.05 34.44,-20.69 34.32,-31.28 40.96,-29.05"/>
</g>
<!-- Node3 -->
<g id="node3" class="node">
<title>Node3</title>
<g id="a_node3"><a xlink:href="Limits_8h.html" target="_top" xlink:title=" ">
<polygon fill="white" stroke="#666666" points="131.5,-74 71.5,-74 71.5,-55 131.5,-55 131.5,-74"/>
<text text-anchor="middle" x="101.5" y="-62" font-family="Helvetica,sans-Serif" font-size="10.00">../Limits.h</text>
</a>
</g>
</g>
<!-- Node1&#45;&gt;Node3 -->
<g id="edge2" class="edge">
<title>Node1&#45;&gt;Node3</title>
<path fill="none" stroke="#63b8ff" d="M133.23,-109.75C128.14,-102.66 120.8,-92.42 114.47,-83.59"/>
<polygon fill="#63b8ff" stroke="#63b8ff" points="117.46,-81.76 108.79,-75.67 111.78,-85.84 117.46,-81.76"/>
</g>
<!-- Node7 -->
<g id="node7" class="node">
<title>Node7</title>
<g id="a_node7"><a xlink:title=" ">
<polygon fill="#e0e0e0" stroke="#999999" points="205.5,-74 149.5,-74 149.5,-55 205.5,-55 205.5,-74"/>
<text text-anchor="middle" x="177.5" y="-62" font-family="Helvetica,sans-Serif" font-size="10.00">algorithm</text>
</a>
</g>
</g>
<!-- Node1&#45;&gt;Node7 -->
<g id="edge7" class="edge">
<title>Node1&#45;&gt;Node7</title>
<path fill="none" stroke="#63b8ff" d="M145.77,-109.75C150.86,-102.66 158.2,-92.42 164.53,-83.59"/>
<polygon fill="#63b8ff" stroke="#63b8ff" points="167.22,-85.84 170.21,-75.67 161.54,-81.76 167.22,-85.84"/>
</g>
<!-- Node8 -->
<g id="node8" class="node">
<title>Node8</title>
<g id="a_node8"><a xlink:title=" ">
<polygon fill="#e0e0e0" stroke="#999999" points="285.5,-74 223.5,-74 223.5,-55 285.5,-55 285.5,-74"/>
<text text-anchor="middle" x="254.5" y="-62" font-family="Helvetica,sans-Serif" font-size="10.00">type_traits</text>
</a>
</g>
</g>
<!-- Node1&#45;&gt;Node8 -->
<g id="edge8" class="edge">
<title>Node1&#45;&gt;Node8</title>
<path fill="none" stroke="#63b8ff" d="M159.01,-109.51C177.13,-101.16 204.35,-88.61 225.1,-79.05"/>
<polygon fill="#63b8ff" stroke="#63b8ff" points="226.29,-82.36 233.91,-74.99 223.36,-76 226.29,-82.36"/>
</g>
<!-- Node3&#45;&gt;Node2 -->
<g id="edge3" class="edge">
<title>Node3&#45;&gt;Node2</title>
<path fill="none" stroke="#63b8ff" d="M89.63,-54.51C79.41,-46.77 64.43,-35.43 52.24,-26.2"/>
<polygon fill="#63b8ff" stroke="#63b8ff" points="54.49,-23.52 44.41,-20.27 50.27,-29.1 54.49,-23.52"/>
</g>
<!-- Node4 -->
<g id="node4" class="node">
<title>Node4</title>
<g id="a_node4"><a xlink:title=" ">
<polygon fill="#e0e0e0" stroke="#999999" points="122,-19 81,-19 81,0 122,0 122,-19"/>
<text text-anchor="middle" x="101.5" y="-7" font-family="Helvetica,sans-Serif" font-size="10.00">cfloat</text>
</a>
</g>
</g>
<!-- Node3&#45;&gt;Node4 -->
<g id="edge4" class="edge">
<title>Node3&#45;&gt;Node4</title>
<path fill="none" stroke="#63b8ff" d="M101.5,-54.75C101.5,-48.27 101.5,-39.16 101.5,-30.9"/>
<polygon fill="#63b8ff" stroke="#63b8ff" points="105,-30.96 101.5,-20.96 98,-30.96 105,-30.96"/>
</g>
<!-- Node5 -->
<g id="node5" class="node">
<title>Node5</title>
<g id="a_node5"><a xlink:title=" ">
<polygon fill="#e0e0e0" stroke="#999999" points="185,-19 140,-19 140,0 185,0 185,-19"/>
<text text-anchor="middle" x="162.5" y="-7" font-family="Helvetica,sans-Serif" font-size="10.00">climits</text>
</a>
</g>
</g>
<!-- Node3&#45;&gt;Node5 -->
<g id="edge5" class="edge">
<title>Node3&#45;&gt;Node5</title>
<path fill="none" stroke="#63b8ff" d="M111.85,-54.51C120.58,-46.93 133.29,-35.88 143.8,-26.75"/>
<polygon fill="#63b8ff" stroke="#63b8ff" points="145.91,-29.55 151.16,-20.35 141.32,-24.27 145.91,-29.55"/>
</g>
<!-- Node6 -->
<g id="node6" class="node">
<title>Node6</title>
<g id="a_node6"><a xlink:title=" ">
<polygon fill="#e0e0e0" stroke="#999999" points="247.5,-19 203.5,-19 203.5,0 247.5,0 247.5,-19"/>
<text text-anchor="middle" x="225.5" y="-7" font-family="Helvetica,sans-Serif" font-size="10.00">cmath</text>
</a>
</g>
</g>
<!-- Node3&#45;&gt;Node6 -->
<g id="edge6" class="edge">
<title>Node3&#45;&gt;Node6</title>
<path fill="none" stroke="#63b8ff" d="M122.53,-54.51C142.25,-46.08 171.97,-33.38 194.41,-23.79"/>
<polygon fill="#63b8ff" stroke="#63b8ff" points="195.56,-27.1 203.38,-19.95 192.81,-20.66 195.56,-27.1"/>
</g>
</g>
</svg>
