<?xml version="1.0" encoding="UTF-8" standalone="no"?>
<!DOCTYPE svg PUBLIC "-//W3C//DTD SVG 1.1//EN"
 "http://www.w3.org/Graphics/SVG/1.1/DTD/svg11.dtd">
<!-- Generated by graphviz version 7.1.0 (20230121.1956)
 -->
<!-- Title: VecCore/Backend/Interface.h Pages: 1 -->
<svg width="351pt" height="192pt"
 viewBox="0.00 0.00 351.00 192.00" xmlns="http://www.w3.org/2000/svg" xmlns:xlink="http://www.w3.org/1999/xlink">
<g id="graph0" class="graph" transform="scale(1 1) rotate(0) translate(4 188)">
<title>VecCore/Backend/Interface.h</title>
<!-- Node1 -->
<g id="node1" class="node">
<title>Node1</title>
<g id="a_node1"><a xlink:title=" ">
<polygon fill="#999999" stroke="#666666" points="296,-184 150,-184 150,-165 296,-165 296,-184"/>
<text text-anchor="middle" x="223" y="-172" font-family="Helvetica,sans-Serif" font-size="10.00">VecCore/Backend/Interface.h</text>
</a>
</g>
</g>
<!-- Node2 -->
<g id="node2" class="node">
<title>Node2</title>
<g id="a_node2"><a xlink:href="Deprecated_8h.html" target="_top" xlink:title=" ">
<polygon fill="white" stroke="#666666" points="158,-129 0,-129 0,-110 158,-110 158,-129"/>
<text text-anchor="middle" x="79" y="-117" font-family="Helvetica,sans-Serif" font-size="10.00">VecCore/Backend/Deprecated.h</text>
</a>
</g>
</g>
<!-- Node1&#45;&gt;Node2 -->
<g id="edge1" class="edge">
<title>Node1&#45;&gt;Node2</title>
<path fill="none" stroke="#63b8ff" d="M187.91,-160.58C161.59,-150.9 126.25,-137.89 103.07,-129.36"/>
<polygon fill="#63b8ff" stroke="#63b8ff" points="186.56,-163.82 197.15,-163.99 188.98,-157.25 186.56,-163.82"/>
</g>
<!-- Node3 -->
<g id="node3" class="node">
<title>Node3</title>
<g id="a_node3"><a xlink:href="Implementation_8h.html" target="_top" xlink:title=" ">
<polygon fill="white" stroke="#666666" points="306,-74 132,-74 132,-55 306,-55 306,-74"/>
<text text-anchor="middle" x="219" y="-62" font-family="Helvetica,sans-Serif" font-size="10.00">VecCore/Backend/Implementation.h</text>
</a>
</g>
</g>
<!-- Node1&#45;&gt;Node3 -->
<g id="edge2" class="edge">
<title>Node1&#45;&gt;Node3</title>
<path fill="none" stroke="#63b8ff" d="M213.34,-154.27C209.99,-146.61 206.67,-137.58 205,-129 201.16,-109.28 209.43,-86.28 214.82,-74.1"/>
<polygon fill="#63b8ff" stroke="#63b8ff" points="210.14,-155.69 217.57,-163.24 216.47,-152.7 210.14,-155.69"/>
</g>
<!-- Node4 -->
<g id="node4" class="node">
<title>Node4</title>
<g id="a_node4"><a xlink:href="Scalar_8h.html" target="_top" xlink:title=" ">
<polygon fill="white" stroke="#666666" points="343,-19 209,-19 209,0 343,0 343,-19"/>
<text text-anchor="middle" x="276" y="-7" font-family="Helvetica,sans-Serif" font-size="10.00">VecCore/Backend/Scalar.h</text>
</a>
</g>
</g>
<!-- Node1&#45;&gt;Node4 -->
<g id="edge4" class="edge">
<title>Node1&#45;&gt;Node4</title>
<path fill="none" stroke="#63b8ff" d="M273.71,-160.66C289.71,-153.96 305.64,-143.92 315,-129 332.47,-101.14 326.58,-85.78 315,-55 309.5,-40.39 296.78,-27.44 287.36,-19.33"/>
<polygon fill="#63b8ff" stroke="#63b8ff" points="272.79,-157.27 264.67,-164.07 275.26,-163.82 272.79,-157.27"/>
</g>
<!-- Node5 -->
<g id="node5" class="node">
<title>Node5</title>
<g id="a_node5"><a xlink:href="Limits_8h.html" target="_top" xlink:title=" ">
<polygon fill="white" stroke="#666666" points="306,-129 214,-129 214,-110 306,-110 306,-129"/>
<text text-anchor="middle" x="260" y="-117" font-family="Helvetica,sans-Serif" font-size="10.00">VecCore/Limits.h</text>
</a>
</g>
</g>
<!-- Node1&#45;&gt;Node5 -->
<g id="edge5" class="edge">
<title>Node1&#45;&gt;Node5</title>
<path fill="none" stroke="#63b8ff" d="M235.66,-155.36C241.77,-146.62 248.82,-136.51 253.76,-129.44"/>
<polygon fill="#63b8ff" stroke="#63b8ff" points="232.83,-153.3 229.98,-163.51 238.57,-157.31 232.83,-153.3"/>
</g>
<!-- Node3&#45;&gt;Node4 -->
<g id="edge3" class="edge">
<title>Node3&#45;&gt;Node4</title>
<path fill="none" stroke="#63b8ff" d="M236.95,-46.81C246.73,-37.72 258.44,-26.82 266.47,-19.36"/>
<polygon fill="#63b8ff" stroke="#63b8ff" points="234.72,-44.11 229.78,-53.48 239.48,-49.23 234.72,-44.11"/>
</g>
<!-- Node5&#45;&gt;Node3 -->
<g id="edge6" class="edge">
<title>Node5&#45;&gt;Node3</title>
<path fill="none" stroke="#63b8ff" d="M246.19,-100.65C239.37,-91.84 231.45,-81.59 225.92,-74.44"/>
<polygon fill="#63b8ff" stroke="#63b8ff" points="243.42,-102.78 252.3,-108.55 248.95,-98.5 243.42,-102.78"/>
</g>
</g>
</svg>
