<?xml version="1.0" encoding="UTF-8" standalone="no"?>
<!DOCTYPE svg PUBLIC "-//W3C//DTD SVG 1.1//EN"
 "http://www.w3.org/Graphics/SVG/1.1/DTD/svg11.dtd">
<!-- Generated by graphviz version 7.1.0 (20230121.1956)
 -->
<!-- Title: vecCore::Convert Pages: 1 -->
<svg width="747pt" height="64pt"
 viewBox="0.00 0.00 747.00 64.00" xmlns="http://www.w3.org/2000/svg" xmlns:xlink="http://www.w3.org/1999/xlink">
<g id="graph0" class="graph" transform="scale(1 1) rotate(0) translate(4 60)">
<title>vecCore::Convert</title>
<!-- Node1 -->
<g id="node1" class="node">
<title>Node1</title>
<g id="a_node1"><a xlink:title=" ">
<polygon fill="#999999" stroke="#666666" points="94,-37 0,-37 0,-18 94,-18 94,-37"/>
<text text-anchor="middle" x="47" y="-25" font-family="Helvetica,sans-Serif" font-size="10.00">vecCore::Convert</text>
</a>
</g>
</g>
<!-- Node2 -->
<g id="node2" class="node">
<title>Node2</title>
<g id="a_node2"><a xlink:href="namespacevecCore.html#a0bc95998843376452d74d5c8f5337845" target="_top" xlink:title=" ">
<polygon fill="white" stroke="#666666" points="205,-56 130,-56 130,-37 205,-37 205,-56"/>
<text text-anchor="middle" x="167.5" y="-44" font-family="Helvetica,sans-Serif" font-size="10.00">vecCore::Get</text>
</a>
</g>
</g>
<!-- Node1&#45;&gt;Node2 -->
<g id="edge1" class="edge">
<title>Node1&#45;&gt;Node2</title>
<path fill="none" stroke="#63b8ff" d="M94.49,-34.95C102.34,-36.21 110.49,-37.52 118.37,-38.78"/>
<polygon fill="#63b8ff" stroke="#63b8ff" points="117.74,-42.23 128.16,-40.35 118.84,-35.31 117.74,-42.23"/>
</g>
<!-- Node6 -->
<g id="node6" class="node">
<title>Node6</title>
<g id="a_node6"><a xlink:href="namespacevecCore.html#a211f237ccf30b72af40548291b739272" target="_top" xlink:title=" ">
<polygon fill="white" stroke="#666666" points="204.5,-19 130.5,-19 130.5,0 204.5,0 204.5,-19"/>
<text text-anchor="middle" x="167.5" y="-7" font-family="Helvetica,sans-Serif" font-size="10.00">vecCore::Set</text>
</a>
</g>
</g>
<!-- Node1&#45;&gt;Node6 -->
<g id="edge5" class="edge">
<title>Node1&#45;&gt;Node6</title>
<path fill="none" stroke="#63b8ff" d="M94.49,-20.44C102.52,-19.22 110.86,-17.95 118.91,-16.73"/>
<polygon fill="#63b8ff" stroke="#63b8ff" points="119.17,-20.23 128.53,-15.27 118.12,-13.31 119.17,-20.23"/>
</g>
<!-- Node3 -->
<g id="node3" class="node">
<title>Node3</title>
<g id="a_node3"><a xlink:href="structvecCore_1_1IndexingImplementation.html#a0b0b6789dfa2a5b707df9ebd1886a6b4" target="_top" xlink:title=" ">
<polygon fill="white" stroke="#666666" points="426,-56 241,-56 241,-37 426,-37 426,-56"/>
<text text-anchor="middle" x="333.5" y="-44" font-family="Helvetica,sans-Serif" font-size="10.00">vecCore::IndexingImplementation::Get</text>
</a>
</g>
</g>
<!-- Node2&#45;&gt;Node3 -->
<g id="edge2" class="edge">
<title>Node2&#45;&gt;Node3</title>
<path fill="none" stroke="#63b8ff" d="M205.3,-46.5C212.72,-46.5 220.86,-46.5 229.32,-46.5"/>
<polygon fill="#63b8ff" stroke="#63b8ff" points="229.09,-50 239.09,-46.5 229.09,-43 229.09,-50"/>
</g>
<!-- Node4 -->
<g id="node4" class="node">
<title>Node4</title>
<g id="a_node4"><a xlink:href="namespacevecCore.html#a744ecfff38071bf6a45e7a17cede5b0a" target="_top" xlink:title=" ">
<polygon fill="white" stroke="#666666" points="546,-37 462,-37 462,-18 546,-18 546,-37"/>
<text text-anchor="middle" x="504" y="-25" font-family="Helvetica,sans-Serif" font-size="10.00">vecCore::Begin</text>
</a>
</g>
</g>
<!-- Node3&#45;&gt;Node4 -->
<g id="edge3" class="edge">
<title>Node3&#45;&gt;Node4</title>
<path fill="none" stroke="#63b8ff" d="M422.7,-36.55C432.22,-35.48 441.68,-34.41 450.58,-33.41"/>
<polygon fill="#63b8ff" stroke="#63b8ff" points="450.87,-36.9 460.41,-32.3 450.08,-29.94 450.87,-36.9"/>
</g>
<!-- Node5 -->
<g id="node5" class="node">
<title>Node5</title>
<g id="a_node5"><a xlink:href="structvecCore_1_1IteratorImplementation.html#a8d629157cd044ba27ad3f77d09c9930a" target="_top" xlink:title=" ">
<polygon fill="white" stroke="#666666" points="739,-42.5 582,-42.5 582,-12.5 739,-12.5 739,-42.5"/>
<text text-anchor="start" x="590" y="-30.5" font-family="Helvetica,sans-Serif" font-size="10.00">vecCore::IteratorImplementation</text>
<text text-anchor="middle" x="660.5" y="-19.5" font-family="Helvetica,sans-Serif" font-size="10.00">::Begin</text>
</a>
</g>
</g>
<!-- Node4&#45;&gt;Node5 -->
<g id="edge4" class="edge">
<title>Node4&#45;&gt;Node5</title>
<path fill="none" stroke="#63b8ff" d="M546.4,-27.5C553.9,-27.5 561.98,-27.5 570.24,-27.5"/>
<polygon fill="#63b8ff" stroke="#63b8ff" points="570.08,-31 580.08,-27.5 570.08,-24 570.08,-31"/>
</g>
<!-- Node7 -->
<g id="node7" class="node">
<title>Node7</title>
<g id="a_node7"><a xlink:href="structvecCore_1_1IndexingImplementation.html#a04d0ce397356d802d033e242a9b86bc7" target="_top" xlink:title=" ">
<polygon fill="white" stroke="#666666" points="425.5,-19 241.5,-19 241.5,0 425.5,0 425.5,-19"/>
<text text-anchor="middle" x="333.5" y="-7" font-family="Helvetica,sans-Serif" font-size="10.00">vecCore::IndexingImplementation::Set</text>
</a>
</g>
</g>
<!-- Node6&#45;&gt;Node7 -->
<g id="edge6" class="edge">
<title>Node6&#45;&gt;Node7</title>
<path fill="none" stroke="#63b8ff" d="M204.9,-9.5C212.59,-9.5 221.08,-9.5 229.9,-9.5"/>
<polygon fill="#63b8ff" stroke="#63b8ff" points="229.71,-13 239.71,-9.5 229.71,-6 229.71,-13"/>
</g>
<!-- Node7&#45;&gt;Node4 -->
<g id="edge7" class="edge">
<title>Node7&#45;&gt;Node4</title>
<path fill="none" stroke="#63b8ff" d="M425.65,-19.24C434.09,-20.14 442.44,-21.03 450.35,-21.88"/>
<polygon fill="#63b8ff" stroke="#63b8ff" points="449.77,-25.33 460.09,-22.92 450.52,-18.37 449.77,-25.33"/>
</g>
</g>
</svg>
