<?xml version="1.0" encoding="UTF-8" standalone="no"?>
<!DOCTYPE svg PUBLIC "-//W3C//DTD SVG 1.1//EN"
 "http://www.w3.org/Graphics/SVG/1.1/DTD/svg11.dtd">
<!-- Generated by graphviz version 7.1.0 (20230121.1956)
 -->
<!-- Title: vecCore::MaskFull Pages: 1 -->
<svg width="752pt" height="38pt"
 viewBox="0.00 0.00 752.00 38.00" xmlns="http://www.w3.org/2000/svg" xmlns:xlink="http://www.w3.org/1999/xlink">
<g id="graph0" class="graph" transform="scale(1 1) rotate(0) translate(4 34)">
<title>vecCore::MaskFull</title>
<!-- Node1 -->
<g id="node1" class="node">
<title>Node1</title>
<g id="a_node1"><a xlink:title=" ">
<polygon fill="#999999" stroke="#666666" points="99,-24.5 0,-24.5 0,-5.5 99,-5.5 99,-24.5"/>
<text text-anchor="middle" x="49.5" y="-12.5" font-family="Helvetica,sans-Serif" font-size="10.00">vecCore::MaskFull</text>
</a>
</g>
</g>
<!-- Node2 -->
<g id="node2" class="node">
<title>Node2</title>
<g id="a_node2"><a xlink:href="namespacevecCore.html#a0bc95998843376452d74d5c8f5337845" target="_top" xlink:title=" ">
<polygon fill="white" stroke="#666666" points="210,-24.5 135,-24.5 135,-5.5 210,-5.5 210,-24.5"/>
<text text-anchor="middle" x="172.5" y="-12.5" font-family="Helvetica,sans-Serif" font-size="10.00">vecCore::Get</text>
</a>
</g>
</g>
<!-- Node1&#45;&gt;Node2 -->
<g id="edge1" class="edge">
<title>Node1&#45;&gt;Node2</title>
<path fill="none" stroke="#63b8ff" d="M99.37,-15C107.3,-15 115.51,-15 123.42,-15"/>
<polygon fill="#63b8ff" stroke="#63b8ff" points="123.22,-18.5 133.22,-15 123.22,-11.5 123.22,-18.5"/>
</g>
<!-- Node3 -->
<g id="node3" class="node">
<title>Node3</title>
<g id="a_node3"><a xlink:href="structvecCore_1_1IndexingImplementation.html#a0b0b6789dfa2a5b707df9ebd1886a6b4" target="_top" xlink:title=" ">
<polygon fill="white" stroke="#666666" points="431,-24.5 246,-24.5 246,-5.5 431,-5.5 431,-24.5"/>
<text text-anchor="middle" x="338.5" y="-12.5" font-family="Helvetica,sans-Serif" font-size="10.00">vecCore::IndexingImplementation::Get</text>
</a>
</g>
</g>
<!-- Node2&#45;&gt;Node3 -->
<g id="edge2" class="edge">
<title>Node2&#45;&gt;Node3</title>
<path fill="none" stroke="#63b8ff" d="M210.3,-15C217.72,-15 225.86,-15 234.32,-15"/>
<polygon fill="#63b8ff" stroke="#63b8ff" points="234.09,-18.5 244.09,-15 234.09,-11.5 234.09,-18.5"/>
</g>
<!-- Node4 -->
<g id="node4" class="node">
<title>Node4</title>
<g id="a_node4"><a xlink:href="namespacevecCore.html#a744ecfff38071bf6a45e7a17cede5b0a" target="_top" xlink:title=" ">
<polygon fill="white" stroke="#666666" points="551,-24.5 467,-24.5 467,-5.5 551,-5.5 551,-24.5"/>
<text text-anchor="middle" x="509" y="-12.5" font-family="Helvetica,sans-Serif" font-size="10.00">vecCore::Begin</text>
</a>
</g>
</g>
<!-- Node3&#45;&gt;Node4 -->
<g id="edge3" class="edge">
<title>Node3&#45;&gt;Node4</title>
<path fill="none" stroke="#63b8ff" d="M431.15,-15C439.45,-15 447.66,-15 455.44,-15"/>
<polygon fill="#63b8ff" stroke="#63b8ff" points="455.38,-18.5 465.38,-15 455.38,-11.5 455.38,-18.5"/>
</g>
<!-- Node5 -->
<g id="node5" class="node">
<title>Node5</title>
<g id="a_node5"><a xlink:href="structvecCore_1_1IteratorImplementation.html#a8d629157cd044ba27ad3f77d09c9930a" target="_top" xlink:title=" ">
<polygon fill="white" stroke="#666666" points="744,-30 587,-30 587,0 744,0 744,-30"/>
<text text-anchor="start" x="595" y="-18" font-family="Helvetica,sans-Serif" font-size="10.00">vecCore::IteratorImplementation</text>
<text text-anchor="middle" x="665.5" y="-7" font-family="Helvetica,sans-Serif" font-size="10.00">::Begin</text>
</a>
</g>
</g>
<!-- Node4&#45;&gt;Node5 -->
<g id="edge4" class="edge">
<title>Node4&#45;&gt;Node5</title>
<path fill="none" stroke="#63b8ff" d="M551.4,-15C558.9,-15 566.98,-15 575.24,-15"/>
<polygon fill="#63b8ff" stroke="#63b8ff" points="575.08,-18.5 585.08,-15 575.08,-11.5 575.08,-18.5"/>
</g>
</g>
</svg>
