<?xml version="1.0" encoding="UTF-8" standalone="no"?>
<!DOCTYPE svg PUBLIC "-//W3C//DTD SVG 1.1//EN"
 "http://www.w3.org/Graphics/SVG/1.1/DTD/svg11.dtd">
<!-- Generated by graphviz version 7.1.0 (20230121.1956)
 -->
<!-- Title: vecCore::Load Pages: 1 -->
<svg width="204pt" height="45pt"
 viewBox="0.00 0.00 204.00 45.00" xmlns="http://www.w3.org/2000/svg" xmlns:xlink="http://www.w3.org/1999/xlink">
<g id="graph0" class="graph" transform="scale(1 1) rotate(0) translate(4 41)">
<title>vecCore::Load</title>
<!-- Node1 -->
<g id="node1" class="node">
<title>Node1</title>
<g id="a_node1"><a xlink:title=" ">
<polygon fill="#999999" stroke="#666666" points="80,-19 0,-19 0,0 80,0 80,-19"/>
<text text-anchor="middle" x="40" y="-7" font-family="Helvetica,sans-Serif" font-size="10.00">vecCore::Load</text>
</a>
</g>
</g>
<!-- Node2 -->
<g id="node2" class="node">
<title>Node2</title>
<g id="a_node2"><a xlink:href="namespacevecCore.html#a677e6e32a43336d0f1eb6cf02a8cc5e4" target="_top" xlink:title=" ">
<polygon fill="white" stroke="#666666" points="196,-19 116,-19 116,0 196,0 196,-19"/>
<text text-anchor="middle" x="156" y="-7" font-family="Helvetica,sans-Serif" font-size="10.00">vecCore::Load</text>
</a>
</g>
</g>
<!-- Node1&#45;&gt;Node2 -->
<g id="edge1" class="edge">
<title>Node1&#45;&gt;Node2</title>
<path fill="none" stroke="#63b8ff" d="M80.23,-9.5C88.02,-9.5 96.31,-9.5 104.42,-9.5"/>
<polygon fill="#63b8ff" stroke="#63b8ff" points="104.18,-13 114.18,-9.5 104.18,-6 104.18,-13"/>
</g>
<!-- Node2&#45;&gt;Node2 -->
<g id="edge2" class="edge">
<title>Node2&#45;&gt;Node2</title>
<path fill="none" stroke="#63b8ff" d="M137.84,-19.37C129.56,-27.94 135.61,-37 156,-37 167.15,-37 174.01,-34.29 176.59,-30.43"/>
<polygon fill="#63b8ff" stroke="#63b8ff" points="180.05,-29.86 174.49,-20.85 173.21,-31.36 180.05,-29.86"/>
</g>
</g>
</svg>
