<?xml version="1.0" encoding="UTF-8" standalone="no"?>
<!DOCTYPE svg PUBLIC "-//W3C//DTD SVG 1.1//EN"
 "http://www.w3.org/Graphics/SVG/1.1/DTD/svg11.dtd">
<!-- Generated by graphviz version 7.1.0 (20230121.1956)
 -->
<!-- Title: vecCore::FromPtr Pages: 1 -->
<svg width="219pt" height="45pt"
 viewBox="0.00 0.00 219.00 45.00" xmlns="http://www.w3.org/2000/svg" xmlns:xlink="http://www.w3.org/1999/xlink">
<g id="graph0" class="graph" transform="scale(1 1) rotate(0) translate(4 41)">
<title>vecCore::FromPtr</title>
<!-- Node1 -->
<g id="node1" class="node">
<title>Node1</title>
<g id="a_node1"><a xlink:title=" ">
<polygon fill="#999999" stroke="#666666" points="95,-19 0,-19 0,0 95,0 95,-19"/>
<text text-anchor="middle" x="47.5" y="-7" font-family="Helvetica,sans-Serif" font-size="10.00">vecCore::FromPtr</text>
</a>
</g>
</g>
<!-- Node2 -->
<g id="node2" class="node">
<title>Node2</title>
<g id="a_node2"><a xlink:href="namespacevecCore.html#a677e6e32a43336d0f1eb6cf02a8cc5e4" target="_top" xlink:title=" ">
<polygon fill="white" stroke="#666666" points="211,-19 131,-19 131,0 211,0 211,-19"/>
<text text-anchor="middle" x="171" y="-7" font-family="Helvetica,sans-Serif" font-size="10.00">vecCore::Load</text>
</a>
</g>
</g>
<!-- Node1&#45;&gt;Node2 -->
<g id="edge1" class="edge">
<title>Node1&#45;&gt;Node2</title>
<path fill="none" stroke="#63b8ff" d="M95.48,-9.5C103.28,-9.5 111.41,-9.5 119.3,-9.5"/>
<polygon fill="#63b8ff" stroke="#63b8ff" points="119.12,-13 129.12,-9.5 119.12,-6 119.12,-13"/>
</g>
<!-- Node2&#45;&gt;Node2 -->
<g id="edge2" class="edge">
<title>Node2&#45;&gt;Node2</title>
<path fill="none" stroke="#63b8ff" d="M151.67,-19.37C142.85,-27.94 149.29,-37 171,-37 182.87,-37 190.18,-34.29 192.92,-30.43"/>
<polygon fill="#63b8ff" stroke="#63b8ff" points="196.36,-29.78 190.68,-20.84 189.55,-31.38 196.36,-29.78"/>
</g>
</g>
</svg>
