<?xml version="1.0" encoding="UTF-8" standalone="no"?>
<!DOCTYPE svg PUBLIC "-//W3C//DTD SVG 1.1//EN"
 "http://www.w3.org/Graphics/SVG/1.1/DTD/svg11.dtd">
<!-- Generated by graphviz version 7.1.0 (20230121.1956)
 -->
<!-- Title: vecCore::MaskedAssign Pages: 1 -->
<svg width="331pt" height="56pt"
 viewBox="0.00 0.00 331.00 56.00" xmlns="http://www.w3.org/2000/svg" xmlns:xlink="http://www.w3.org/1999/xlink">
<g id="graph0" class="graph" transform="scale(1 1) rotate(0) translate(4 52)">
<title>vecCore::MaskedAssign</title>
<!-- Node1 -->
<g id="node1" class="node">
<title>Node1</title>
<g id="a_node1"><a xlink:title=" ">
<polygon fill="#999999" stroke="#666666" points="124,-24.5 0,-24.5 0,-5.5 124,-5.5 124,-24.5"/>
<text text-anchor="middle" x="62" y="-12.5" font-family="Helvetica,sans-Serif" font-size="10.00">vecCore::MaskedAssign</text>
</a>
</g>
</g>
<!-- Node2 -->
<g id="node2" class="node">
<title>Node2</title>
<g id="a_node2"><a xlink:href="structvecCore_1_1MaskingImplementation.html#ac9be4378bd7dda189124dbc9bf677f94" target="_top" xlink:title=" ">
<polygon fill="white" stroke="#666666" points="323,-30 160,-30 160,0 323,0 323,-30"/>
<text text-anchor="start" x="168" y="-18" font-family="Helvetica,sans-Serif" font-size="10.00">vecCore::MaskingImplementation</text>
<text text-anchor="middle" x="241.5" y="-7" font-family="Helvetica,sans-Serif" font-size="10.00">::Assign</text>
</a>
</g>
</g>
<!-- Node1&#45;&gt;Node2 -->
<g id="edge1" class="edge">
<title>Node1&#45;&gt;Node2</title>
<path fill="none" stroke="#63b8ff" d="M124.09,-15C131.86,-15 139.94,-15 148.07,-15"/>
<polygon fill="#63b8ff" stroke="#63b8ff" points="148.04,-18.5 158.04,-15 148.04,-11.5 148.04,-18.5"/>
</g>
<!-- Node2&#45;&gt;Node2 -->
<g id="edge2" class="edge">
<title>Node2&#45;&gt;Node2</title>
<path fill="none" stroke="#63b8ff" d="M209.95,-30.28C202.94,-39.41 213.45,-48 241.5,-48 256.84,-48 266.93,-45.43 271.79,-41.61"/>
<polygon fill="#63b8ff" stroke="#63b8ff" points="275.25,-42.11 272.88,-31.78 268.3,-41.33 275.25,-42.11"/>
</g>
</g>
</svg>
