<?xml version="1.0" encoding="UTF-8" standalone="no"?>
<!DOCTYPE svg PUBLIC "-//W3C//DTD SVG 1.1//EN"
 "http://www.w3.org/Graphics/SVG/1.1/DTD/svg11.dtd">
<!-- Generated by graphviz version 7.1.0 (20230121.1956)
 -->
<!-- Title: vecCore::Get Pages: 1 -->
<!--zoomable 528 -->
<svg id="main" version="1.1" xmlns="http://www.w3.org/2000/svg" xmlns:xlink="http://www.w3.org/1999/xlink" xml:space="preserve" onload="init(evt)">
<style type="text/css"><![CDATA[
.edge:hover path { stroke: red; }
.edge:hover polygon { stroke: red; fill: red; }
]]></style>
<script type="text/javascript"><![CDATA[
var edges = document.getElementsByTagName('g');
if (edges && edges.length) {
  for (var i=0;i<edges.length;i++) {
    if (edges[i].id.substr(0,4)=='edge') {
      edges[i].setAttribute('class','edge');
    }
  }
}
]]></script>
        <defs>
                <circle id="rim" cx="0" cy="0" r="7"/>
                <circle id="rim2" cx="0" cy="0" r="3.5"/>
                <g id="zoomPlus">
                        <use xlink:href="#rim" fill="#404040">
                                <set attributeName="fill" to="#808080" begin="zoomplus.mouseover" end="zoomplus.mouseout"/>
                        </use>
                        <path d="M-4,0h8M0,-4v8" fill="none" stroke="white" stroke-width="1.5" pointer-events="none"/>
                </g>
                <g id="zoomMin">
                        <use xlink:href="#rim" fill="#404040">
                                <set attributeName="fill" to="#808080" begin="zoomminus.mouseover" end="zoomminus.mouseout"/>
                        </use>
                        <path d="M-4,0h8" fill="none" stroke="white" stroke-width="1.5" pointer-events="none"/>
                </g>
                <g id="dirArrow">
                        <path fill="none" stroke="white" stroke-width="1.5" d="M0,-3.0v7 M-2.5,-0.5L0,-3.0L2.5,-0.5"/>
                </g>
               <g id="resetDef">
                       <use xlink:href="#rim2" fill="#404040">
                               <set attributeName="fill" to="#808080" begin="reset.mouseover" end="reset.mouseout"/>
                       </use>
               </g>
        </defs>

<script type="text/javascript">
var viewWidth = 316;
var viewHeight = 528;
var sectionId = 'dynsection-13';
</script>
<script xlink:href="svgpan.js"/>
<svg id="graph" class="graph">
<g id="viewport">
<title>vecCore::Get</title>
<!-- Node1 -->
<g id="node1" class="node">
<title>Node1</title>
<g id="a_node1"><a xlink:title=" ">
<polygon fill="#999999" stroke="#666666" points="308,-263.5 233,-263.5 233,-244.5 308,-244.5 308,-263.5"/>
<text text-anchor="middle" x="270.5" y="-251.5" font-family="Helvetica,sans-Serif" font-size="10.00">vecCore::Get</text>
</a>
</g>
</g>
<!-- Node2 -->
<g id="node2" class="node">
<title>Node2</title>
<g id="a_node2"><a xlink:href="structvecCore_1_1GenericMaskingImplementation.html#a844c93572de9dd1576452a054aea46b3" target="_top" xlink:title=" ">
<polygon fill="white" stroke="#666666" points="197,-520 0,-520 0,-490 197,-490 197,-520"/>
<text text-anchor="start" x="8" y="-508" font-family="Helvetica,sans-Serif" font-size="10.00">vecCore::GenericMaskingImplementation</text>
<text text-anchor="middle" x="98.5" y="-497" font-family="Helvetica,sans-Serif" font-size="10.00">::Assign</text>
</a>
</g>
</g>
<!-- Node1&#45;&gt;Node2 -->
<g id="edge1" class="edge">
<title>Node1&#45;&gt;Node2</title>
<path fill="none" stroke="#63b8ff" d="M269.23,-275.4C267.44,-320.39 256.7,-425.21 197,-481 193.43,-484.33 189.48,-487.22 185.27,-489.73"/>
<polygon fill="#63b8ff" stroke="#63b8ff" points="272.72,-275.54 269.49,-265.45 265.73,-275.35 272.72,-275.54"/>
</g>
<!-- Node3 -->
<g id="node3" class="node">
<title>Node3</title>
<g id="a_node3"><a xlink:href="structvecCore_1_1GenericMaskingImplementation.html#ad71b7c26a7165080d62f5d590b0f4d73" target="_top" xlink:title=" ">
<polygon fill="white" stroke="#666666" points="197,-472 0,-472 0,-442 197,-442 197,-472"/>
<text text-anchor="start" x="8" y="-460" font-family="Helvetica,sans-Serif" font-size="10.00">vecCore::GenericMaskingImplementation</text>
<text text-anchor="middle" x="98.5" y="-449" font-family="Helvetica,sans-Serif" font-size="10.00">::Blend</text>
</a>
</g>
</g>
<!-- Node1&#45;&gt;Node3 -->
<g id="edge2" class="edge">
<title>Node1&#45;&gt;Node3</title>
<path fill="none" stroke="#63b8ff" d="M267.17,-274.96C261.85,-312.51 245.28,-391.2 197,-433 193.18,-436.31 188.97,-439.18 184.52,-441.66"/>
<polygon fill="#63b8ff" stroke="#63b8ff" points="270.59,-275.79 268.38,-265.42 263.65,-274.9 270.59,-275.79"/>
</g>
<!-- Node4 -->
<g id="node4" class="node">
<title>Node4</title>
<g id="a_node4"><a xlink:href="namespacevecCore.html#a98d52c47c802cf3d9d7f5f177b39f062" target="_top" xlink:title=" ">
<polygon fill="white" stroke="#666666" points="145.5,-423.5 51.5,-423.5 51.5,-404.5 145.5,-404.5 145.5,-423.5"/>
<text text-anchor="middle" x="98.5" y="-411.5" font-family="Helvetica,sans-Serif" font-size="10.00">vecCore::Convert</text>
</a>
</g>
</g>
<!-- Node1&#45;&gt;Node4 -->
<g id="edge3" class="edge">
<title>Node1&#45;&gt;Node4</title>
<path fill="none" stroke="#63b8ff" d="M264.97,-274.61C256.96,-305.86 237.22,-364.79 197,-395 182.38,-405.98 163.15,-411.12 145.64,-413.38"/>
<polygon fill="#63b8ff" stroke="#63b8ff" points="268.29,-275.77 267.2,-265.23 261.48,-274.15 268.29,-275.77"/>
</g>
<!-- Node5 -->
<g id="node5" class="node">
<title>Node5</title>
<g id="a_node5"><a xlink:href="structvecCore_1_1GatherScatterImplementation.html#a76603f42775f63b3c9fa979bfbb79663" target="_top" xlink:title=" ">
<polygon fill="white" stroke="#666666" points="192,-386 5,-386 5,-356 192,-356 192,-386"/>
<text text-anchor="start" x="13" y="-374" font-family="Helvetica,sans-Serif" font-size="10.00">vecCore::GatherScatterImplementation</text>
<text text-anchor="middle" x="98.5" y="-363" font-family="Helvetica,sans-Serif" font-size="10.00">::Gather</text>
</a>
</g>
</g>
<!-- Node1&#45;&gt;Node5 -->
<g id="edge4" class="edge">
<title>Node1&#45;&gt;Node5</title>
<path fill="none" stroke="#63b8ff" d="M259.32,-273.86C247.33,-295.22 225.38,-328.61 197,-347 191.88,-350.32 186.34,-353.18 180.58,-355.64"/>
<polygon fill="#63b8ff" stroke="#63b8ff" points="262.29,-275.72 263.95,-265.25 256.13,-272.4 262.29,-275.72"/>
</g>
<!-- Node6 -->
<g id="node6" class="node">
<title>Node6</title>
<g id="a_node6"><a xlink:href="namespacevecCore.html#a94761283f7f9d3f6225508f4cf115975" target="_top" xlink:title=" ">
<polygon fill="white" stroke="#666666" points="143.5,-337.5 53.5,-337.5 53.5,-318.5 143.5,-318.5 143.5,-337.5"/>
<text text-anchor="middle" x="98.5" y="-325.5" font-family="Helvetica,sans-Serif" font-size="10.00">vecCore::LaneAt</text>
</a>
</g>
</g>
<!-- Node1&#45;&gt;Node6 -->
<g id="edge5" class="edge">
<title>Node1&#45;&gt;Node6</title>
<path fill="none" stroke="#63b8ff" d="M252.13,-271.31C238.34,-284.02 217.97,-300.63 197,-310 180.34,-317.44 160.76,-321.81 143.54,-324.37"/>
<polygon fill="#63b8ff" stroke="#63b8ff" points="254.25,-274.12 259.08,-264.69 249.42,-269.05 254.25,-274.12"/>
</g>
<!-- Node7 -->
<g id="node7" class="node">
<title>Node7</title>
<g id="a_node7"><a xlink:href="namespacevecCore.html#a045d76341de9a761a3693f0f7a87ab72" target="_top" xlink:title=" ">
<polygon fill="white" stroke="#666666" points="154.5,-300.5 42.5,-300.5 42.5,-281.5 154.5,-281.5 154.5,-300.5"/>
<text text-anchor="middle" x="98.5" y="-288.5" font-family="Helvetica,sans-Serif" font-size="10.00">vecCore::MaskEmpty</text>
</a>
</g>
</g>
<!-- Node1&#45;&gt;Node7 -->
<g id="edge6" class="edge">
<title>Node1&#45;&gt;Node7</title>
<path fill="none" stroke="#63b8ff" d="M222.57,-266.84C214.09,-269 205.3,-271.15 197,-273 183.39,-276.03 168.63,-278.95 154.82,-281.52"/>
<polygon fill="#63b8ff" stroke="#63b8ff" points="223.23,-270.28 232.02,-264.38 221.46,-263.51 223.23,-270.28"/>
</g>
<!-- Node8 -->
<g id="node8" class="node">
<title>Node8</title>
<g id="a_node8"><a xlink:href="namespacevecCore.html#a4a739052a81f3a56cdcf64b88480e0c2" target="_top" xlink:title=" ">
<polygon fill="white" stroke="#666666" points="148,-263.5 49,-263.5 49,-244.5 148,-244.5 148,-263.5"/>
<text text-anchor="middle" x="98.5" y="-251.5" font-family="Helvetica,sans-Serif" font-size="10.00">vecCore::MaskFull</text>
</a>
</g>
</g>
<!-- Node1&#45;&gt;Node8 -->
<g id="edge7" class="edge">
<title>Node1&#45;&gt;Node8</title>
<path fill="none" stroke="#63b8ff" d="M221.12,-254C198.3,-254 171.13,-254 148.26,-254"/>
<polygon fill="#63b8ff" stroke="#63b8ff" points="221.1,-257.5 231.1,-254 221.1,-250.5 221.1,-257.5"/>
</g>
<!-- Node9 -->
<g id="node9" class="node">
<title>Node9</title>
<g id="a_node9"><a xlink:href="namespacevecCore.html#aa75489a44b4d54c24a9cad72a929408a" target="_top" xlink:title=" ">
<polygon fill="white" stroke="#666666" points="155.5,-226.5 41.5,-226.5 41.5,-207.5 155.5,-207.5 155.5,-226.5"/>
<text text-anchor="middle" x="98.5" y="-214.5" font-family="Helvetica,sans-Serif" font-size="10.00">vecCore::MaskLaneAt</text>
</a>
</g>
</g>
<!-- Node1&#45;&gt;Node9 -->
<g id="edge8" class="edge">
<title>Node1&#45;&gt;Node9</title>
<path fill="none" stroke="#63b8ff" d="M221.71,-241.77C213.49,-239.77 205.01,-237.77 197,-236 182.86,-232.87 167.5,-229.75 153.24,-226.96"/>
<polygon fill="#63b8ff" stroke="#63b8ff" points="220.69,-245.12 231.23,-244.12 222.36,-238.32 220.69,-245.12"/>
</g>
<!-- Node10 -->
<g id="node10" class="node">
<title>Node10</title>
<g id="a_node10"><a xlink:href="namespacevecCore.html#af5ae6bac35d59b00c29fd4380c615e86" target="_top" xlink:title=" ">
<polygon fill="white" stroke="#666666" points="153.5,-189.5 43.5,-189.5 43.5,-170.5 153.5,-170.5 153.5,-189.5"/>
<text text-anchor="middle" x="98.5" y="-177.5" font-family="Helvetica,sans-Serif" font-size="10.00">vecCore::ReduceAdd</text>
</a>
</g>
</g>
<!-- Node1&#45;&gt;Node10 -->
<g id="edge9" class="edge">
<title>Node1&#45;&gt;Node10</title>
<path fill="none" stroke="#63b8ff" d="M251.57,-236.64C237.75,-224.25 217.58,-208.21 197,-199 183.62,-193.01 168.38,-188.91 153.98,-186.09"/>
<polygon fill="#63b8ff" stroke="#63b8ff" points="248.85,-238.89 258.56,-243.11 253.6,-233.75 248.85,-238.89"/>
</g>
<!-- Node11 -->
<g id="node11" class="node">
<title>Node11</title>
<g id="a_node11"><a xlink:href="namespacevecCore.html#a418a4e9c96935fc85e4e6712489e18ac" target="_top" xlink:title=" ">
<polygon fill="white" stroke="#666666" points="154.5,-152.5 42.5,-152.5 42.5,-133.5 154.5,-133.5 154.5,-152.5"/>
<text text-anchor="middle" x="98.5" y="-140.5" font-family="Helvetica,sans-Serif" font-size="10.00">vecCore::ReduceMax</text>
</a>
</g>
</g>
<!-- Node1&#45;&gt;Node11 -->
<g id="edge10" class="edge">
<title>Node1&#45;&gt;Node11</title>
<path fill="none" stroke="#63b8ff" d="M259.43,-234.09C247.53,-212.73 225.68,-179.5 197,-162 184.41,-154.32 169.36,-149.65 154.89,-146.84"/>
<polygon fill="#63b8ff" stroke="#63b8ff" points="256.23,-235.52 264.02,-242.71 262.41,-232.23 256.23,-235.52"/>
</g>
<!-- Node12 -->
<g id="node12" class="node">
<title>Node12</title>
<g id="a_node12"><a xlink:href="namespacevecCore.html#ae701e4480574bb9dd38ac3df90884257" target="_top" xlink:title=" ">
<polygon fill="white" stroke="#666666" points="153,-115.5 44,-115.5 44,-96.5 153,-96.5 153,-115.5"/>
<text text-anchor="middle" x="98.5" y="-103.5" font-family="Helvetica,sans-Serif" font-size="10.00">vecCore::ReduceMin</text>
</a>
</g>
</g>
<!-- Node1&#45;&gt;Node12 -->
<g id="edge11" class="edge">
<title>Node1&#45;&gt;Node12</title>
<path fill="none" stroke="#63b8ff" d="M263.94,-233.5C254.96,-204.49 234.35,-151.99 197,-125 184.42,-115.91 168.63,-110.86 153.45,-108.14"/>
<polygon fill="#63b8ff" stroke="#63b8ff" points="260.52,-234.27 266.67,-242.9 267.24,-232.32 260.52,-234.27"/>
</g>
<!-- Node13 -->
<g id="node13" class="node">
<title>Node13</title>
<g id="a_node13"><a xlink:href="structvecCore_1_1GatherScatterImplementation.html#a03f8ce92b4f7500e88272ed448518090" target="_top" xlink:title=" ">
<polygon fill="white" stroke="#666666" points="192,-78 5,-78 5,-48 192,-48 192,-78"/>
<text text-anchor="start" x="13" y="-66" font-family="Helvetica,sans-Serif" font-size="10.00">vecCore::GatherScatterImplementation</text>
<text text-anchor="middle" x="98.5" y="-55" font-family="Helvetica,sans-Serif" font-size="10.00">::Scatter</text>
</a>
</g>
</g>
<!-- Node1&#45;&gt;Node13 -->
<g id="edge12" class="edge">
<title>Node1&#45;&gt;Node13</title>
<path fill="none" stroke="#63b8ff" d="M266.39,-233.15C260.01,-197.82 242.01,-126.3 197,-88 192.61,-84.26 187.73,-81.07 182.56,-78.35"/>
<polygon fill="#63b8ff" stroke="#63b8ff" points="262.92,-233.61 268.01,-242.91 269.83,-232.47 262.92,-233.61"/>
</g>
<!-- Node14 -->
<g id="node14" class="node">
<title>Node14</title>
<g id="a_node14"><a xlink:href="structvecCore_1_1LoadStoreImplementation.html#abaa8e55659d773dc8abb850b16e04678" target="_top" xlink:title=" ">
<polygon fill="white" stroke="#666666" points="183.5,-30 13.5,-30 13.5,0 183.5,0 183.5,-30"/>
<text text-anchor="start" x="21.5" y="-18" font-family="Helvetica,sans-Serif" font-size="10.00">vecCore::LoadStoreImplementation</text>
<text text-anchor="middle" x="98.5" y="-7" font-family="Helvetica,sans-Serif" font-size="10.00">::Store</text>
</a>
</g>
</g>
<!-- Node1&#45;&gt;Node14 -->
<g id="edge13" class="edge">
<title>Node1&#45;&gt;Node14</title>
<path fill="none" stroke="#63b8ff" d="M268.79,-232.83C266.16,-189.7 253.88,-91.3 197,-39 193.02,-35.34 188.58,-32.22 183.84,-29.55"/>
<polygon fill="#63b8ff" stroke="#63b8ff" points="265.29,-232.78 269.26,-242.6 272.28,-232.44 265.29,-232.78"/>
</g>
</g>
</svg>
        <g id="navigator" transform="translate(0 0)" fill="#404254">
                <rect fill="#f2f5e9" fill-opacity="0.5" stroke="#606060" stroke-width=".5" x="0" y="0" width="60" height="60"/>
                <use id="zoomplus" xlink:href="#zoomPlus" x="17" y="9" onmousedown="handleZoom(evt,'in')"/>
                <use id="zoomminus" xlink:href="#zoomMin" x="42" y="9" onmousedown="handleZoom(evt,'out')"/>
                <use id="reset" xlink:href="#resetDef" x="30" y="36" onmousedown="handleReset()"/>
                <g id="arrowUp" xlink:href="#dirArrow" transform="translate(30 24)" onmousedown="handlePan(0,-1)">
                  <use xlink:href="#rim" fill="#404040">
                        <set attributeName="fill" to="#808080" begin="arrowUp.mouseover" end="arrowUp.mouseout"/>
                  </use>
                  <path fill="none" stroke="white" stroke-width="1.5" d="M0,-3.0v7 M-2.5,-0.5L0,-3.0L2.5,-0.5"/>
                </g>
                <g id="arrowRight" xlink:href="#dirArrow" transform="rotate(90) translate(36 -43)" onmousedown="handlePan(1,0)">
                  <use xlink:href="#rim" fill="#404040">
                        <set attributeName="fill" to="#808080" begin="arrowRight.mouseover" end="arrowRight.mouseout"/>
                  </use>
                  <path fill="none" stroke="white" stroke-width="1.5" d="M0,-3.0v7 M-2.5,-0.5L0,-3.0L2.5,-0.5"/>
                </g>
                <g id="arrowDown" xlink:href="#dirArrow" transform="rotate(180) translate(-30 -48)" onmousedown="handlePan(0,1)">
                  <use xlink:href="#rim" fill="#404040">
                        <set attributeName="fill" to="#808080" begin="arrowDown.mouseover" end="arrowDown.mouseout"/>
                  </use>
                  <path fill="none" stroke="white" stroke-width="1.5" d="M0,-3.0v7 M-2.5,-0.5L0,-3.0L2.5,-0.5"/>
                </g>
                <g id="arrowLeft" xlink:href="#dirArrow" transform="rotate(270) translate(-36 17)" onmousedown="handlePan(-1,0)">
                  <use xlink:href="#rim" fill="#404040">
                        <set attributeName="fill" to="#808080" begin="arrowLeft.mouseover" end="arrowLeft.mouseout"/>
                  </use>
                  <path fill="none" stroke="white" stroke-width="1.5" d="M0,-3.0v7 M-2.5,-0.5L0,-3.0L2.5,-0.5"/>
                </g>
        </g>
        <svg viewBox="0 0 15 15" width="100%" height="30px" preserveAspectRatio="xMaxYMin meet">
         <g id="arrow_out" transform="scale(0.3 0.3)">
          <a xlink:href="namespacevecCore_a0bc95998843376452d74d5c8f5337845_icgraph_org.svg" target="_base">
           <rect id="button" ry="5" rx="5" y="6" x="6" height="38" width="38"
                fill="#f2f5e9" fill-opacity="0.5" stroke="#606060" stroke-width="1.0"/>
           <path id="arrow"
             d="M 11.500037,31.436501 C 11.940474,20.09759 22.043105,11.32322 32.158766,21.979434 L 37.068811,17.246167 C 37.068811,17.246167 37.088388,32 37.088388,32 L 22.160133,31.978069 C 22.160133,31.978069 26.997745,27.140456 26.997745,27.140456 C 18.528582,18.264221 13.291696,25.230495 11.500037,31.436501 z"
             style="fill:#404040;"/>
          </a>
         </g>
        </svg>
</svg>
