<?xml version="1.0" encoding="UTF-8" standalone="no"?>
<!DOCTYPE svg PUBLIC "-//W3C//DTD SVG 1.1//EN"
 "http://www.w3.org/Graphics/SVG/1.1/DTD/svg11.dtd">
<!-- Generated by graphviz version 7.1.0 (20230121.1956)
 -->
<!-- Title: vecCore::Blend Pages: 1 -->
<svg width="291pt" height="56pt"
 viewBox="0.00 0.00 291.00 56.00" xmlns="http://www.w3.org/2000/svg" xmlns:xlink="http://www.w3.org/1999/xlink">
<g id="graph0" class="graph" transform="scale(1 1) rotate(0) translate(4 52)">
<title>vecCore::Blend</title>
<!-- Node1 -->
<g id="node1" class="node">
<title>Node1</title>
<g id="a_node1"><a xlink:title=" ">
<polygon fill="#999999" stroke="#666666" points="84,-24.5 0,-24.5 0,-5.5 84,-5.5 84,-24.5"/>
<text text-anchor="middle" x="42" y="-12.5" font-family="Helvetica,sans-Serif" font-size="10.00">vecCore::Blend</text>
</a>
</g>
</g>
<!-- Node2 -->
<g id="node2" class="node">
<title>Node2</title>
<g id="a_node2"><a xlink:href="structvecCore_1_1MaskingImplementation.html#a7ccc92119e7a078416530a7a0ba57b46" target="_top" xlink:title=" ">
<polygon fill="white" stroke="#666666" points="283,-30 120,-30 120,0 283,0 283,-30"/>
<text text-anchor="start" x="128" y="-18" font-family="Helvetica,sans-Serif" font-size="10.00">vecCore::MaskingImplementation</text>
<text text-anchor="middle" x="201.5" y="-7" font-family="Helvetica,sans-Serif" font-size="10.00">::Blend</text>
</a>
</g>
</g>
<!-- Node1&#45;&gt;Node2 -->
<g id="edge1" class="edge">
<title>Node1&#45;&gt;Node2</title>
<path fill="none" stroke="#63b8ff" d="M84.38,-15C91.9,-15 100.01,-15 108.33,-15"/>
<polygon fill="#63b8ff" stroke="#63b8ff" points="108.25,-18.5 118.25,-15 108.25,-11.5 108.25,-18.5"/>
</g>
<!-- Node2&#45;&gt;Node2 -->
<g id="edge2" class="edge">
<title>Node2&#45;&gt;Node2</title>
<path fill="none" stroke="#63b8ff" d="M173.46,-30.28C167.23,-39.41 176.58,-48 201.5,-48 215.13,-48 224.1,-45.43 228.41,-41.61"/>
<polygon fill="#63b8ff" stroke="#63b8ff" points="231.88,-42.08 229.39,-31.78 224.92,-41.39 231.88,-42.08"/>
</g>
</g>
</svg>
