<?xml version="1.0" encoding="UTF-8" standalone="no"?>
<!DOCTYPE svg PUBLIC "-//W3C//DTD SVG 1.1//EN"
 "http://www.w3.org/Graphics/SVG/1.1/DTD/svg11.dtd">
<!-- Generated by graphviz version 7.1.0 (20230121.1956)
 -->
<!-- Title: vecCore::MaskEmpty Pages: 1 -->
<svg width="765pt" height="38pt"
 viewBox="0.00 0.00 765.00 38.00" xmlns="http://www.w3.org/2000/svg" xmlns:xlink="http://www.w3.org/1999/xlink">
<g id="graph0" class="graph" transform="scale(1 1) rotate(0) translate(4 34)">
<title>vecCore::MaskEmpty</title>
<!-- Node1 -->
<g id="node1" class="node">
<title>Node1</title>
<g id="a_node1"><a xlink:title=" ">
<polygon fill="#999999" stroke="#666666" points="112,-24.5 0,-24.5 0,-5.5 112,-5.5 112,-24.5"/>
<text text-anchor="middle" x="56" y="-12.5" font-family="Helvetica,sans-Serif" font-size="10.00">vecCore::MaskEmpty</text>
</a>
</g>
</g>
<!-- Node2 -->
<g id="node2" class="node">
<title>Node2</title>
<g id="a_node2"><a xlink:href="namespacevecCore.html#a0bc95998843376452d74d5c8f5337845" target="_top" xlink:title=" ">
<polygon fill="white" stroke="#666666" points="223,-24.5 148,-24.5 148,-5.5 223,-5.5 223,-24.5"/>
<text text-anchor="middle" x="185.5" y="-12.5" font-family="Helvetica,sans-Serif" font-size="10.00">vecCore::Get</text>
</a>
</g>
</g>
<!-- Node1&#45;&gt;Node2 -->
<g id="edge1" class="edge">
<title>Node1&#45;&gt;Node2</title>
<path fill="none" stroke="#63b8ff" d="M112.18,-15C120.23,-15 128.47,-15 136.36,-15"/>
<polygon fill="#63b8ff" stroke="#63b8ff" points="136.11,-18.5 146.11,-15 136.11,-11.5 136.11,-18.5"/>
</g>
<!-- Node3 -->
<g id="node3" class="node">
<title>Node3</title>
<g id="a_node3"><a xlink:href="structvecCore_1_1IndexingImplementation.html#a0b0b6789dfa2a5b707df9ebd1886a6b4" target="_top" xlink:title=" ">
<polygon fill="white" stroke="#666666" points="444,-24.5 259,-24.5 259,-5.5 444,-5.5 444,-24.5"/>
<text text-anchor="middle" x="351.5" y="-12.5" font-family="Helvetica,sans-Serif" font-size="10.00">vecCore::IndexingImplementation::Get</text>
</a>
</g>
</g>
<!-- Node2&#45;&gt;Node3 -->
<g id="edge2" class="edge">
<title>Node2&#45;&gt;Node3</title>
<path fill="none" stroke="#63b8ff" d="M223.3,-15C230.72,-15 238.86,-15 247.32,-15"/>
<polygon fill="#63b8ff" stroke="#63b8ff" points="247.09,-18.5 257.09,-15 247.09,-11.5 247.09,-18.5"/>
</g>
<!-- Node4 -->
<g id="node4" class="node">
<title>Node4</title>
<g id="a_node4"><a xlink:href="namespacevecCore.html#a744ecfff38071bf6a45e7a17cede5b0a" target="_top" xlink:title=" ">
<polygon fill="white" stroke="#666666" points="564,-24.5 480,-24.5 480,-5.5 564,-5.5 564,-24.5"/>
<text text-anchor="middle" x="522" y="-12.5" font-family="Helvetica,sans-Serif" font-size="10.00">vecCore::Begin</text>
</a>
</g>
</g>
<!-- Node3&#45;&gt;Node4 -->
<g id="edge3" class="edge">
<title>Node3&#45;&gt;Node4</title>
<path fill="none" stroke="#63b8ff" d="M444.15,-15C452.45,-15 460.66,-15 468.44,-15"/>
<polygon fill="#63b8ff" stroke="#63b8ff" points="468.38,-18.5 478.38,-15 468.38,-11.5 468.38,-18.5"/>
</g>
<!-- Node5 -->
<g id="node5" class="node">
<title>Node5</title>
<g id="a_node5"><a xlink:href="structvecCore_1_1IteratorImplementation.html#a8d629157cd044ba27ad3f77d09c9930a" target="_top" xlink:title=" ">
<polygon fill="white" stroke="#666666" points="757,-30 600,-30 600,0 757,0 757,-30"/>
<text text-anchor="start" x="608" y="-18" font-family="Helvetica,sans-Serif" font-size="10.00">vecCore::IteratorImplementation</text>
<text text-anchor="middle" x="678.5" y="-7" font-family="Helvetica,sans-Serif" font-size="10.00">::Begin</text>
</a>
</g>
</g>
<!-- Node4&#45;&gt;Node5 -->
<g id="edge4" class="edge">
<title>Node4&#45;&gt;Node5</title>
<path fill="none" stroke="#63b8ff" d="M564.4,-15C571.9,-15 579.98,-15 588.24,-15"/>
<polygon fill="#63b8ff" stroke="#63b8ff" points="588.08,-18.5 598.08,-15 588.08,-11.5 588.08,-18.5"/>
</g>
</g>
</svg>
