<?xml version="1.0" encoding="UTF-8" standalone="no"?>
<!DOCTYPE svg PUBLIC "-//W3C//DTD SVG 1.1//EN"
 "http://www.w3.org/Graphics/SVG/1.1/DTD/svg11.dtd">
<!-- Generated by graphviz version 7.1.0 (20230121.1956)
 -->
<!-- Title: VecCore/Backend/Scalar.h Pages: 1 -->
<svg width="307pt" height="192pt"
 viewBox="0.00 0.00 307.00 192.00" xmlns="http://www.w3.org/2000/svg" xmlns:xlink="http://www.w3.org/1999/xlink">
<g id="graph0" class="graph" transform="scale(1 1) rotate(0) translate(4 188)">
<title>VecCore/Backend/Scalar.h</title>
<!-- Node1 -->
<g id="node1" class="node">
<title>Node1</title>
<g id="a_node1"><a xlink:title=" ">
<polygon fill="#999999" stroke="#666666" points="134,-184 0,-184 0,-165 134,-165 134,-184"/>
<text text-anchor="middle" x="67" y="-172" font-family="Helvetica,sans-Serif" font-size="10.00">VecCore/Backend/Scalar.h</text>
</a>
</g>
</g>
<!-- Node2 -->
<g id="node2" class="node">
<title>Node2</title>
<g id="a_node2"><a xlink:href="Interface_8h.html" target="_top" xlink:title=" ">
<polygon fill="white" stroke="#666666" points="63.5,-19 0.5,-19 0.5,0 63.5,0 63.5,-19"/>
<text text-anchor="middle" x="32" y="-7" font-family="Helvetica,sans-Serif" font-size="10.00">Interface.h</text>
</a>
</g>
</g>
<!-- Node1&#45;&gt;Node2 -->
<g id="edge1" class="edge">
<title>Node1&#45;&gt;Node2</title>
<path fill="none" stroke="#63b8ff" d="M65.12,-164.74C59.68,-139.42 43.86,-65.72 36.22,-30.16"/>
<polygon fill="#63b8ff" stroke="#63b8ff" points="39.73,-29.83 34.21,-20.79 32.89,-31.3 39.73,-29.83"/>
</g>
<!-- Node3 -->
<g id="node3" class="node">
<title>Node3</title>
<g id="a_node3"><a xlink:href="Implementation_8h.html" target="_top" xlink:title=" ">
<polygon fill="white" stroke="#666666" points="161,-129 69,-129 69,-110 161,-110 161,-129"/>
<text text-anchor="middle" x="115" y="-117" font-family="Helvetica,sans-Serif" font-size="10.00">Implementation.h</text>
</a>
</g>
</g>
<!-- Node1&#45;&gt;Node3 -->
<g id="edge2" class="edge">
<title>Node1&#45;&gt;Node3</title>
<path fill="none" stroke="#63b8ff" d="M74.93,-164.75C81.56,-157.43 91.22,-146.76 99.39,-137.74"/>
<polygon fill="#63b8ff" stroke="#63b8ff" points="101.77,-140.33 105.89,-130.56 96.58,-135.63 101.77,-140.33"/>
</g>
<!-- Node3&#45;&gt;Node2 -->
<g id="edge3" class="edge">
<title>Node3&#45;&gt;Node2</title>
<path fill="none" stroke="#63b8ff" d="M106.62,-109.55C98.5,-100.75 85.99,-86.79 76,-74 64.52,-59.3 52.53,-41.83 43.97,-28.94"/>
<polygon fill="#63b8ff" stroke="#63b8ff" points="46.92,-27.05 38.5,-20.62 41.07,-30.9 46.92,-27.05"/>
</g>
<!-- Node4 -->
<g id="node4" class="node">
<title>Node4</title>
<g id="a_node4"><a xlink:href="Limits_8h.html" target="_top" xlink:title=" ">
<polygon fill="white" stroke="#666666" points="145,-74 85,-74 85,-55 145,-55 145,-74"/>
<text text-anchor="middle" x="115" y="-62" font-family="Helvetica,sans-Serif" font-size="10.00">../Limits.h</text>
</a>
</g>
</g>
<!-- Node3&#45;&gt;Node4 -->
<g id="edge4" class="edge">
<title>Node3&#45;&gt;Node4</title>
<path fill="none" stroke="#63b8ff" d="M115,-109.75C115,-103.27 115,-94.16 115,-85.9"/>
<polygon fill="#63b8ff" stroke="#63b8ff" points="118.5,-85.96 115,-75.96 111.5,-85.96 118.5,-85.96"/>
</g>
<!-- Node8 -->
<g id="node8" class="node">
<title>Node8</title>
<g id="a_node8"><a xlink:title=" ">
<polygon fill="#e0e0e0" stroke="#999999" points="219,-74 163,-74 163,-55 219,-55 219,-74"/>
<text text-anchor="middle" x="191" y="-62" font-family="Helvetica,sans-Serif" font-size="10.00">algorithm</text>
</a>
</g>
</g>
<!-- Node3&#45;&gt;Node8 -->
<g id="edge9" class="edge">
<title>Node3&#45;&gt;Node8</title>
<path fill="none" stroke="#63b8ff" d="M127.89,-109.51C139.1,-101.7 155.57,-90.21 168.88,-80.93"/>
<polygon fill="#63b8ff" stroke="#63b8ff" points="170.86,-83.81 177.06,-75.22 166.85,-78.07 170.86,-83.81"/>
</g>
<!-- Node9 -->
<g id="node9" class="node">
<title>Node9</title>
<g id="a_node9"><a xlink:title=" ">
<polygon fill="#e0e0e0" stroke="#999999" points="299,-74 237,-74 237,-55 299,-55 299,-74"/>
<text text-anchor="middle" x="268" y="-62" font-family="Helvetica,sans-Serif" font-size="10.00">type_traits</text>
</a>
</g>
</g>
<!-- Node3&#45;&gt;Node9 -->
<g id="edge10" class="edge">
<title>Node3&#45;&gt;Node9</title>
<path fill="none" stroke="#63b8ff" d="M140.95,-109.51C165.87,-100.88 203.73,-87.76 231.64,-78.1"/>
<polygon fill="#63b8ff" stroke="#63b8ff" points="232.44,-81.52 240.74,-74.94 230.15,-74.91 232.44,-81.52"/>
</g>
<!-- Node4&#45;&gt;Node2 -->
<g id="edge5" class="edge">
<title>Node4&#45;&gt;Node2</title>
<path fill="none" stroke="#63b8ff" d="M100.92,-54.51C88.44,-46.54 69.98,-34.75 55.31,-25.38"/>
<polygon fill="#63b8ff" stroke="#63b8ff" points="57.46,-22.6 47.15,-20.17 53.69,-28.5 57.46,-22.6"/>
</g>
<!-- Node5 -->
<g id="node5" class="node">
<title>Node5</title>
<g id="a_node5"><a xlink:title=" ">
<polygon fill="#e0e0e0" stroke="#999999" points="122.5,-19 81.5,-19 81.5,0 122.5,0 122.5,-19"/>
<text text-anchor="middle" x="102" y="-7" font-family="Helvetica,sans-Serif" font-size="10.00">cfloat</text>
</a>
</g>
</g>
<!-- Node4&#45;&gt;Node5 -->
<g id="edge6" class="edge">
<title>Node4&#45;&gt;Node5</title>
<path fill="none" stroke="#63b8ff" d="M112.85,-54.75C111.24,-48.19 108.98,-38.95 106.93,-30.6"/>
<polygon fill="#63b8ff" stroke="#63b8ff" points="110.34,-29.79 104.55,-20.91 103.54,-31.46 110.34,-29.79"/>
</g>
<!-- Node6 -->
<g id="node6" class="node">
<title>Node6</title>
<g id="a_node6"><a xlink:title=" ">
<polygon fill="#e0e0e0" stroke="#999999" points="185.5,-19 140.5,-19 140.5,0 185.5,0 185.5,-19"/>
<text text-anchor="middle" x="163" y="-7" font-family="Helvetica,sans-Serif" font-size="10.00">climits</text>
</a>
</g>
</g>
<!-- Node4&#45;&gt;Node6 -->
<g id="edge7" class="edge">
<title>Node4&#45;&gt;Node6</title>
<path fill="none" stroke="#63b8ff" d="M122.93,-54.75C129.56,-47.43 139.22,-36.76 147.39,-27.74"/>
<polygon fill="#63b8ff" stroke="#63b8ff" points="149.77,-30.33 153.89,-20.56 144.58,-25.63 149.77,-30.33"/>
</g>
<!-- Node7 -->
<g id="node7" class="node">
<title>Node7</title>
<g id="a_node7"><a xlink:title=" ">
<polygon fill="#e0e0e0" stroke="#999999" points="248,-19 204,-19 204,0 248,0 248,-19"/>
<text text-anchor="middle" x="226" y="-7" font-family="Helvetica,sans-Serif" font-size="10.00">cmath</text>
</a>
</g>
</g>
<!-- Node4&#45;&gt;Node7 -->
<g id="edge8" class="edge">
<title>Node4&#45;&gt;Node7</title>
<path fill="none" stroke="#63b8ff" d="M133.83,-54.51C151.16,-46.24 177.11,-33.84 197.07,-24.31"/>
<polygon fill="#63b8ff" stroke="#63b8ff" points="198.57,-27.48 206.08,-20.01 195.55,-21.16 198.57,-27.48"/>
</g>
</g>
</svg>
