<?xml version="1.0" encoding="UTF-8" standalone="no"?>
<!DOCTYPE svg PUBLIC "-//W3C//DTD SVG 1.1//EN"
 "http://www.w3.org/Graphics/SVG/1.1/DTD/svg11.dtd">
<!-- Generated by graphviz version 7.1.0 (20230121.1956)
 -->
<!-- Title: vecCore::GatherScatterImplementation::Gather Pages: 1 -->
<svg width="840pt" height="64pt"
 viewBox="0.00 0.00 840.00 64.00" xmlns="http://www.w3.org/2000/svg" xmlns:xlink="http://www.w3.org/1999/xlink">
<g id="graph0" class="graph" transform="scale(1 1) rotate(0) translate(4 60)">
<title>vecCore::GatherScatterImplementation::Gather</title>
<!-- Node1 -->
<g id="node1" class="node">
<title>Node1</title>
<g id="a_node1"><a xlink:title=" ">
<polygon fill="#999999" stroke="#666666" points="187,-42.5 0,-42.5 0,-12.5 187,-12.5 187,-42.5"/>
<text text-anchor="start" x="8" y="-30.5" font-family="Helvetica,sans-Serif" font-size="10.00">vecCore::GatherScatterImplementation</text>
<text text-anchor="middle" x="93.5" y="-19.5" font-family="Helvetica,sans-Serif" font-size="10.00">::Gather</text>
</a>
</g>
</g>
<!-- Node2 -->
<g id="node2" class="node">
<title>Node2</title>
<g id="a_node2"><a xlink:href="namespacevecCore.html#a0bc95998843376452d74d5c8f5337845" target="_top" xlink:title=" ">
<polygon fill="white" stroke="#666666" points="298,-56 223,-56 223,-37 298,-37 298,-56"/>
<text text-anchor="middle" x="260.5" y="-44" font-family="Helvetica,sans-Serif" font-size="10.00">vecCore::Get</text>
</a>
</g>
</g>
<!-- Node1&#45;&gt;Node2 -->
<g id="edge1" class="edge">
<title>Node1&#45;&gt;Node2</title>
<path fill="none" stroke="#63b8ff" d="M187.13,-38.17C195.52,-39.13 203.77,-40.08 211.52,-40.98"/>
<polygon fill="#63b8ff" stroke="#63b8ff" points="211.02,-44.44 221.36,-42.11 211.82,-37.49 211.02,-44.44"/>
</g>
<!-- Node6 -->
<g id="node6" class="node">
<title>Node6</title>
<g id="a_node6"><a xlink:href="namespacevecCore.html#a211f237ccf30b72af40548291b739272" target="_top" xlink:title=" ">
<polygon fill="white" stroke="#666666" points="297.5,-19 223.5,-19 223.5,0 297.5,0 297.5,-19"/>
<text text-anchor="middle" x="260.5" y="-7" font-family="Helvetica,sans-Serif" font-size="10.00">vecCore::Set</text>
</a>
</g>
</g>
<!-- Node1&#45;&gt;Node6 -->
<g id="edge5" class="edge">
<title>Node1&#45;&gt;Node6</title>
<path fill="none" stroke="#63b8ff" d="M187.13,-17.4C195.62,-16.47 203.96,-15.56 211.79,-14.7"/>
<polygon fill="#63b8ff" stroke="#63b8ff" points="212.17,-18.18 221.73,-13.62 211.41,-11.23 212.17,-18.18"/>
</g>
<!-- Node3 -->
<g id="node3" class="node">
<title>Node3</title>
<g id="a_node3"><a xlink:href="structvecCore_1_1IndexingImplementation.html#a0b0b6789dfa2a5b707df9ebd1886a6b4" target="_top" xlink:title=" ">
<polygon fill="white" stroke="#666666" points="519,-56 334,-56 334,-37 519,-37 519,-56"/>
<text text-anchor="middle" x="426.5" y="-44" font-family="Helvetica,sans-Serif" font-size="10.00">vecCore::IndexingImplementation::Get</text>
</a>
</g>
</g>
<!-- Node2&#45;&gt;Node3 -->
<g id="edge2" class="edge">
<title>Node2&#45;&gt;Node3</title>
<path fill="none" stroke="#63b8ff" d="M298.3,-46.5C305.72,-46.5 313.86,-46.5 322.32,-46.5"/>
<polygon fill="#63b8ff" stroke="#63b8ff" points="322.09,-50 332.09,-46.5 322.09,-43 322.09,-50"/>
</g>
<!-- Node4 -->
<g id="node4" class="node">
<title>Node4</title>
<g id="a_node4"><a xlink:href="namespacevecCore.html#a744ecfff38071bf6a45e7a17cede5b0a" target="_top" xlink:title=" ">
<polygon fill="white" stroke="#666666" points="639,-37 555,-37 555,-18 639,-18 639,-37"/>
<text text-anchor="middle" x="597" y="-25" font-family="Helvetica,sans-Serif" font-size="10.00">vecCore::Begin</text>
</a>
</g>
</g>
<!-- Node3&#45;&gt;Node4 -->
<g id="edge3" class="edge">
<title>Node3&#45;&gt;Node4</title>
<path fill="none" stroke="#63b8ff" d="M515.7,-36.55C525.22,-35.48 534.68,-34.41 543.58,-33.41"/>
<polygon fill="#63b8ff" stroke="#63b8ff" points="543.87,-36.9 553.41,-32.3 543.08,-29.94 543.87,-36.9"/>
</g>
<!-- Node5 -->
<g id="node5" class="node">
<title>Node5</title>
<g id="a_node5"><a xlink:href="structvecCore_1_1IteratorImplementation.html#a8d629157cd044ba27ad3f77d09c9930a" target="_top" xlink:title=" ">
<polygon fill="white" stroke="#666666" points="832,-42.5 675,-42.5 675,-12.5 832,-12.5 832,-42.5"/>
<text text-anchor="start" x="683" y="-30.5" font-family="Helvetica,sans-Serif" font-size="10.00">vecCore::IteratorImplementation</text>
<text text-anchor="middle" x="753.5" y="-19.5" font-family="Helvetica,sans-Serif" font-size="10.00">::Begin</text>
</a>
</g>
</g>
<!-- Node4&#45;&gt;Node5 -->
<g id="edge4" class="edge">
<title>Node4&#45;&gt;Node5</title>
<path fill="none" stroke="#63b8ff" d="M639.4,-27.5C646.9,-27.5 654.98,-27.5 663.24,-27.5"/>
<polygon fill="#63b8ff" stroke="#63b8ff" points="663.08,-31 673.08,-27.5 663.08,-24 663.08,-31"/>
</g>
<!-- Node7 -->
<g id="node7" class="node">
<title>Node7</title>
<g id="a_node7"><a xlink:href="structvecCore_1_1IndexingImplementation.html#a04d0ce397356d802d033e242a9b86bc7" target="_top" xlink:title=" ">
<polygon fill="white" stroke="#666666" points="518.5,-19 334.5,-19 334.5,0 518.5,0 518.5,-19"/>
<text text-anchor="middle" x="426.5" y="-7" font-family="Helvetica,sans-Serif" font-size="10.00">vecCore::IndexingImplementation::Set</text>
</a>
</g>
</g>
<!-- Node6&#45;&gt;Node7 -->
<g id="edge6" class="edge">
<title>Node6&#45;&gt;Node7</title>
<path fill="none" stroke="#63b8ff" d="M297.9,-9.5C305.59,-9.5 314.08,-9.5 322.9,-9.5"/>
<polygon fill="#63b8ff" stroke="#63b8ff" points="322.71,-13 332.71,-9.5 322.71,-6 322.71,-13"/>
</g>
<!-- Node7&#45;&gt;Node4 -->
<g id="edge7" class="edge">
<title>Node7&#45;&gt;Node4</title>
<path fill="none" stroke="#63b8ff" d="M518.65,-19.24C527.09,-20.14 535.44,-21.03 543.35,-21.88"/>
<polygon fill="#63b8ff" stroke="#63b8ff" points="542.77,-25.33 553.09,-22.92 543.52,-18.37 542.77,-25.33"/>
</g>
</g>
</svg>
