<?xml version="1.0" encoding="UTF-8" standalone="no"?>
<!DOCTYPE svg PUBLIC "-//W3C//DTD SVG 1.1//EN"
 "http://www.w3.org/Graphics/SVG/1.1/DTD/svg11.dtd">
<!-- Generated by graphviz version 7.1.0 (20230121.1956)
 -->
<!-- Title: vecCore::IteratorImplementation::Begin Pages: 1 -->
<svg width="850pt" height="651pt"
 viewBox="0.00 0.00 850.00 651.00" xmlns="http://www.w3.org/2000/svg" xmlns:xlink="http://www.w3.org/1999/xlink">
<g id="graph0" class="graph" transform="scale(1 1) rotate(0) translate(4 647)">
<title>vecCore::IteratorImplementation::Begin</title>
<!-- Node1 -->
<g id="node1" class="node">
<title>Node1</title>
<g id="a_node1"><a xlink:title=" ">
<polygon fill="#999999" stroke="#666666" points="842,-378.5 685,-378.5 685,-348.5 842,-348.5 842,-378.5"/>
<text text-anchor="start" x="693" y="-366.5" font-family="Helvetica,sans-Serif" font-size="10.00">vecCore::IteratorImplementation</text>
<text text-anchor="middle" x="763.5" y="-355.5" font-family="Helvetica,sans-Serif" font-size="10.00">::Begin</text>
</a>
</g>
</g>
<!-- Node2 -->
<g id="node2" class="node">
<title>Node2</title>
<g id="a_node2"><a xlink:href="namespacevecCore.html#a744ecfff38071bf6a45e7a17cede5b0a" target="_top" xlink:title=" ">
<polygon fill="white" stroke="#666666" points="649,-373 565,-373 565,-354 649,-354 649,-373"/>
<text text-anchor="middle" x="607" y="-361" font-family="Helvetica,sans-Serif" font-size="10.00">vecCore::Begin</text>
</a>
</g>
</g>
<!-- Node1&#45;&gt;Node2 -->
<g id="edge1" class="edge">
<title>Node1&#45;&gt;Node2</title>
<path fill="none" stroke="#63b8ff" d="M673.29,-363.5C664.91,-363.5 656.72,-363.5 649.13,-363.5"/>
<polygon fill="#63b8ff" stroke="#63b8ff" points="673.28,-367 683.28,-363.5 673.28,-360 673.28,-367"/>
</g>
<!-- Node3 -->
<g id="node3" class="node">
<title>Node3</title>
<g id="a_node3"><a xlink:href="structvecCore_1_1IndexingImplementation.html#a0b0b6789dfa2a5b707df9ebd1886a6b4" target="_top" xlink:title=" ">
<polygon fill="white" stroke="#666666" points="529,-355 344,-355 344,-336 529,-336 529,-355"/>
<text text-anchor="middle" x="436.5" y="-343" font-family="Helvetica,sans-Serif" font-size="10.00">vecCore::IndexingImplementation::Get</text>
</a>
</g>
</g>
<!-- Node2&#45;&gt;Node3 -->
<g id="edge2" class="edge">
<title>Node2&#45;&gt;Node3</title>
<path fill="none" stroke="#63b8ff" d="M553.38,-357.88C545.63,-357.05 537.46,-356.18 529.19,-355.3"/>
<polygon fill="#63b8ff" stroke="#63b8ff" points="552.96,-361.35 563.28,-358.94 553.7,-354.39 552.96,-361.35"/>
</g>
<!-- Node18 -->
<g id="node18" class="node">
<title>Node18</title>
<g id="a_node18"><a xlink:href="structvecCore_1_1IndexingImplementation.html#a04d0ce397356d802d033e242a9b86bc7" target="_top" xlink:title=" ">
<polygon fill="white" stroke="#666666" points="528.5,-434 344.5,-434 344.5,-415 528.5,-415 528.5,-434"/>
<text text-anchor="middle" x="436.5" y="-422" font-family="Helvetica,sans-Serif" font-size="10.00">vecCore::IndexingImplementation::Set</text>
</a>
</g>
</g>
<!-- Node2&#45;&gt;Node18 -->
<g id="edge17" class="edge">
<title>Node2&#45;&gt;Node18</title>
<path fill="none" stroke="#63b8ff" d="M568.03,-377.25C536.69,-388.59 492.96,-404.42 464.94,-414.57"/>
<polygon fill="#63b8ff" stroke="#63b8ff" points="568.92,-380.65 577.13,-373.95 566.54,-374.06 568.92,-380.65"/>
</g>
<!-- Node4 -->
<g id="node4" class="node">
<title>Node4</title>
<g id="a_node4"><a xlink:href="namespacevecCore.html#a0bc95998843376452d74d5c8f5337845" target="_top" xlink:title=" ">
<polygon fill="white" stroke="#666666" points="308,-271 233,-271 233,-252 308,-252 308,-271"/>
<text text-anchor="middle" x="270.5" y="-259" font-family="Helvetica,sans-Serif" font-size="10.00">vecCore::Get</text>
</a>
</g>
</g>
<!-- Node3&#45;&gt;Node4 -->
<g id="edge3" class="edge">
<title>Node3&#45;&gt;Node4</title>
<path fill="none" stroke="#63b8ff" d="M405.98,-330.38C372.66,-313.31 319.4,-286.03 290.93,-271.45"/>
<polygon fill="#63b8ff" stroke="#63b8ff" points="404.2,-333.4 414.7,-334.84 407.39,-327.17 404.2,-333.4"/>
</g>
<!-- Node5 -->
<g id="node5" class="node">
<title>Node5</title>
<g id="a_node5"><a xlink:href="structvecCore_1_1GenericMaskingImplementation.html#a844c93572de9dd1576452a054aea46b3" target="_top" xlink:title=" ">
<polygon fill="white" stroke="#666666" points="197,-434.5 0,-434.5 0,-404.5 197,-404.5 197,-434.5"/>
<text text-anchor="start" x="8" y="-422.5" font-family="Helvetica,sans-Serif" font-size="10.00">vecCore::GenericMaskingImplementation</text>
<text text-anchor="middle" x="98.5" y="-411.5" font-family="Helvetica,sans-Serif" font-size="10.00">::Assign</text>
</a>
</g>
</g>
<!-- Node4&#45;&gt;Node5 -->
<g id="edge4" class="edge">
<title>Node4&#45;&gt;Node5</title>
<path fill="none" stroke="#63b8ff" d="M264.11,-282.13C255.25,-311.86 234.7,-366.35 197,-395.5 192.72,-398.81 188.05,-401.66 183.15,-404.13"/>
<polygon fill="#63b8ff" stroke="#63b8ff" points="267.38,-283.42 266.71,-272.84 260.64,-281.53 267.38,-283.42"/>
</g>
<!-- Node6 -->
<g id="node6" class="node">
<title>Node6</title>
<g id="a_node6"><a xlink:href="structvecCore_1_1GenericMaskingImplementation.html#ad71b7c26a7165080d62f5d590b0f4d73" target="_top" xlink:title=" ">
<polygon fill="white" stroke="#666666" points="197,-386.5 0,-386.5 0,-356.5 197,-356.5 197,-386.5"/>
<text text-anchor="start" x="8" y="-374.5" font-family="Helvetica,sans-Serif" font-size="10.00">vecCore::GenericMaskingImplementation</text>
<text text-anchor="middle" x="98.5" y="-363.5" font-family="Helvetica,sans-Serif" font-size="10.00">::Blend</text>
</a>
</g>
</g>
<!-- Node4&#45;&gt;Node6 -->
<g id="edge5" class="edge">
<title>Node4&#45;&gt;Node6</title>
<path fill="none" stroke="#63b8ff" d="M257.94,-281.04C245.38,-300.56 223.52,-329.95 197,-346.5 191.07,-350.2 184.61,-353.35 177.94,-356.04"/>
<polygon fill="#63b8ff" stroke="#63b8ff" points="260.85,-283 263.13,-272.65 254.89,-279.31 260.85,-283"/>
</g>
<!-- Node7 -->
<g id="node7" class="node">
<title>Node7</title>
<g id="a_node7"><a xlink:href="namespacevecCore.html#a98d52c47c802cf3d9d7f5f177b39f062" target="_top" xlink:title=" ">
<polygon fill="white" stroke="#666666" points="145.5,-520 51.5,-520 51.5,-501 145.5,-501 145.5,-520"/>
<text text-anchor="middle" x="98.5" y="-508" font-family="Helvetica,sans-Serif" font-size="10.00">vecCore::Convert</text>
</a>
</g>
</g>
<!-- Node4&#45;&gt;Node7 -->
<g id="edge6" class="edge">
<title>Node4&#45;&gt;Node7</title>
<path fill="none" stroke="#63b8ff" d="M269.56,-282.49C268.47,-327.98 259.09,-436.05 197,-491.5 183.11,-503.91 163.58,-509.23 145.65,-511.23"/>
<polygon fill="#63b8ff" stroke="#63b8ff" points="273.06,-282.73 269.67,-272.69 266.06,-282.65 273.06,-282.73"/>
</g>
<!-- Node8 -->
<g id="node8" class="node">
<title>Node8</title>
<g id="a_node8"><a xlink:href="structvecCore_1_1GatherScatterImplementation.html#a76603f42775f63b3c9fa979bfbb79663" target="_top" xlink:title=" ">
<polygon fill="white" stroke="#666666" points="192,-482.5 5,-482.5 5,-452.5 192,-452.5 192,-482.5"/>
<text text-anchor="start" x="13" y="-470.5" font-family="Helvetica,sans-Serif" font-size="10.00">vecCore::GatherScatterImplementation</text>
<text text-anchor="middle" x="98.5" y="-459.5" font-family="Helvetica,sans-Serif" font-size="10.00">::Gather</text>
</a>
</g>
</g>
<!-- Node4&#45;&gt;Node8 -->
<g id="edge7" class="edge">
<title>Node4&#45;&gt;Node8</title>
<path fill="none" stroke="#63b8ff" d="M267.36,-282.27C262.3,-320.21 246.08,-400.75 197,-443.5 193.19,-446.82 188.99,-449.7 184.54,-452.19"/>
<polygon fill="#63b8ff" stroke="#63b8ff" points="270.79,-283 268.5,-272.66 263.84,-282.17 270.79,-283"/>
</g>
<!-- Node9 -->
<g id="node9" class="node">
<title>Node9</title>
<g id="a_node9"><a xlink:href="namespacevecCore.html#a94761283f7f9d3f6225508f4cf115975" target="_top" xlink:title=" ">
<polygon fill="white" stroke="#666666" points="143.5,-204 53.5,-204 53.5,-185 143.5,-185 143.5,-204"/>
<text text-anchor="middle" x="98.5" y="-192" font-family="Helvetica,sans-Serif" font-size="10.00">vecCore::LaneAt</text>
</a>
</g>
</g>
<!-- Node4&#45;&gt;Node9 -->
<g id="edge8" class="edge">
<title>Node4&#45;&gt;Node9</title>
<path fill="none" stroke="#63b8ff" d="M249.07,-244.8C235.18,-234.28 215.96,-221.26 197,-213.5 180.24,-206.64 160.83,-202.21 143.76,-199.37"/>
<polygon fill="#63b8ff" stroke="#63b8ff" points="246.54,-247.26 256.57,-250.66 250.85,-241.75 246.54,-247.26"/>
</g>
<!-- Node10 -->
<g id="node10" class="node">
<title>Node10</title>
<g id="a_node10"><a xlink:href="namespacevecCore.html#a045d76341de9a761a3693f0f7a87ab72" target="_top" xlink:title=" ">
<polygon fill="white" stroke="#666666" points="154.5,-167 42.5,-167 42.5,-148 154.5,-148 154.5,-167"/>
<text text-anchor="middle" x="98.5" y="-155" font-family="Helvetica,sans-Serif" font-size="10.00">vecCore::MaskEmpty</text>
</a>
</g>
</g>
<!-- Node4&#45;&gt;Node10 -->
<g id="edge9" class="edge">
<title>Node4&#45;&gt;Node10</title>
<path fill="none" stroke="#63b8ff" d="M258.59,-241.94C246.32,-221.89 224.48,-191.47 197,-175.5 184.35,-168.15 169.35,-163.69 154.96,-161.02"/>
<polygon fill="#63b8ff" stroke="#63b8ff" points="255.41,-243.43 263.48,-250.29 261.45,-239.89 255.41,-243.43"/>
</g>
<!-- Node11 -->
<g id="node11" class="node">
<title>Node11</title>
<g id="a_node11"><a xlink:href="namespacevecCore.html#a4a739052a81f3a56cdcf64b88480e0c2" target="_top" xlink:title=" ">
<polygon fill="white" stroke="#666666" points="148,-130 49,-130 49,-111 148,-111 148,-130"/>
<text text-anchor="middle" x="98.5" y="-118" font-family="Helvetica,sans-Serif" font-size="10.00">vecCore::MaskFull</text>
</a>
</g>
</g>
<!-- Node4&#45;&gt;Node11 -->
<g id="edge10" class="edge">
<title>Node4&#45;&gt;Node11</title>
<path fill="none" stroke="#63b8ff" d="M263.29,-240.69C253.81,-212.73 232.92,-163.62 197,-138.5 182.89,-128.63 164.93,-123.73 148.28,-121.42"/>
<polygon fill="#63b8ff" stroke="#63b8ff" points="259.93,-241.67 266.31,-250.13 266.6,-239.54 259.93,-241.67"/>
</g>
<!-- Node12 -->
<g id="node12" class="node">
<title>Node12</title>
<g id="a_node12"><a xlink:href="namespacevecCore.html#aa75489a44b4d54c24a9cad72a929408a" target="_top" xlink:title=" ">
<polygon fill="white" stroke="#666666" points="155.5,-93 41.5,-93 41.5,-74 155.5,-74 155.5,-93"/>
<text text-anchor="middle" x="98.5" y="-81" font-family="Helvetica,sans-Serif" font-size="10.00">vecCore::MaskLaneAt</text>
</a>
</g>
</g>
<!-- Node4&#45;&gt;Node12 -->
<g id="edge11" class="edge">
<title>Node4&#45;&gt;Node12</title>
<path fill="none" stroke="#63b8ff" d="M266.33,-240.57C259.9,-205.84 241.92,-136.65 197,-101.5 185.34,-92.38 170.51,-87.35 155.96,-84.7"/>
<polygon fill="#63b8ff" stroke="#63b8ff" points="262.84,-240.91 267.95,-250.19 269.74,-239.75 262.84,-240.91"/>
</g>
<!-- Node13 -->
<g id="node13" class="node">
<title>Node13</title>
<g id="a_node13"><a xlink:href="namespacevecCore.html#af5ae6bac35d59b00c29fd4380c615e86" target="_top" xlink:title=" ">
<polygon fill="white" stroke="#666666" points="153.5,-56 43.5,-56 43.5,-37 153.5,-37 153.5,-56"/>
<text text-anchor="middle" x="98.5" y="-44" font-family="Helvetica,sans-Serif" font-size="10.00">vecCore::ReduceAdd</text>
</a>
</g>
</g>
<!-- Node4&#45;&gt;Node13 -->
<g id="edge12" class="edge">
<title>Node4&#45;&gt;Node13</title>
<path fill="none" stroke="#63b8ff" d="M268.32,-240.45C264.82,-199.71 251.06,-110.07 197,-64.5 185.02,-54.4 169.24,-49.21 153.87,-46.71"/>
<polygon fill="#63b8ff" stroke="#63b8ff" points="264.82,-240.61 269.02,-250.34 271.8,-240.11 264.82,-240.61"/>
</g>
<!-- Node14 -->
<g id="node14" class="node">
<title>Node14</title>
<g id="a_node14"><a xlink:href="namespacevecCore.html#a418a4e9c96935fc85e4e6712489e18ac" target="_top" xlink:title=" ">
<polygon fill="white" stroke="#666666" points="154.5,-19 42.5,-19 42.5,0 154.5,0 154.5,-19"/>
<text text-anchor="middle" x="98.5" y="-7" font-family="Helvetica,sans-Serif" font-size="10.00">vecCore::ReduceMax</text>
</a>
</g>
</g>
<!-- Node4&#45;&gt;Node14 -->
<g id="edge13" class="edge">
<title>Node4&#45;&gt;Node14</title>
<path fill="none" stroke="#63b8ff" d="M269.73,-240.41C269.01,-194.23 260.35,-83.79 197,-27.5 185.48,-17.27 170.1,-11.99 154.97,-9.45"/>
<polygon fill="#63b8ff" stroke="#63b8ff" points="266.23,-240.13 269.76,-250.12 273.23,-240.11 266.23,-240.13"/>
</g>
<!-- Node15 -->
<g id="node15" class="node">
<title>Node15</title>
<g id="a_node15"><a xlink:href="namespacevecCore.html#ae701e4480574bb9dd38ac3df90884257" target="_top" xlink:title=" ">
<polygon fill="white" stroke="#666666" points="153,-338 44,-338 44,-319 153,-319 153,-338"/>
<text text-anchor="middle" x="98.5" y="-326" font-family="Helvetica,sans-Serif" font-size="10.00">vecCore::ReduceMin</text>
</a>
</g>
</g>
<!-- Node4&#45;&gt;Node15 -->
<g id="edge14" class="edge">
<title>Node4&#45;&gt;Node15</title>
<path fill="none" stroke="#63b8ff" d="M249.07,-278.2C235.18,-288.72 215.96,-301.74 197,-309.5 183.35,-315.09 167.95,-319.06 153.48,-321.88"/>
<polygon fill="#63b8ff" stroke="#63b8ff" points="250.85,-281.25 256.57,-272.34 246.54,-275.74 250.85,-281.25"/>
</g>
<!-- Node16 -->
<g id="node16" class="node">
<title>Node16</title>
<g id="a_node16"><a xlink:href="structvecCore_1_1GatherScatterImplementation.html#a03f8ce92b4f7500e88272ed448518090" target="_top" xlink:title=" ">
<polygon fill="white" stroke="#666666" points="192,-300.5 5,-300.5 5,-270.5 192,-270.5 192,-300.5"/>
<text text-anchor="start" x="13" y="-288.5" font-family="Helvetica,sans-Serif" font-size="10.00">vecCore::GatherScatterImplementation</text>
<text text-anchor="middle" x="98.5" y="-277.5" font-family="Helvetica,sans-Serif" font-size="10.00">::Scatter</text>
</a>
</g>
</g>
<!-- Node4&#45;&gt;Node16 -->
<g id="edge15" class="edge">
<title>Node4&#45;&gt;Node16</title>
<path fill="none" stroke="#63b8ff" d="M221.45,-268.28C212.31,-269.57 202.46,-270.96 192.46,-272.38"/>
<polygon fill="#63b8ff" stroke="#63b8ff" points="221.7,-271.78 231.11,-266.92 220.72,-264.85 221.7,-271.78"/>
</g>
<!-- Node17 -->
<g id="node17" class="node">
<title>Node17</title>
<g id="a_node17"><a xlink:href="structvecCore_1_1LoadStoreImplementation.html#abaa8e55659d773dc8abb850b16e04678" target="_top" xlink:title=" ">
<polygon fill="white" stroke="#666666" points="183.5,-252.5 13.5,-252.5 13.5,-222.5 183.5,-222.5 183.5,-252.5"/>
<text text-anchor="start" x="21.5" y="-240.5" font-family="Helvetica,sans-Serif" font-size="10.00">vecCore::LoadStoreImplementation</text>
<text text-anchor="middle" x="98.5" y="-229.5" font-family="Helvetica,sans-Serif" font-size="10.00">::Store</text>
</a>
</g>
</g>
<!-- Node4&#45;&gt;Node17 -->
<g id="edge16" class="edge">
<title>Node4&#45;&gt;Node17</title>
<path fill="none" stroke="#63b8ff" d="M221.3,-254.7C209.55,-253.04 196.65,-251.21 183.76,-249.4"/>
<polygon fill="#63b8ff" stroke="#63b8ff" points="220.72,-258.15 231.11,-256.08 221.7,-251.22 220.72,-258.15"/>
</g>
<!-- Node19 -->
<g id="node19" class="node">
<title>Node19</title>
<g id="a_node19"><a xlink:href="namespacevecCore.html#a211f237ccf30b72af40548291b739272" target="_top" xlink:title=" ">
<polygon fill="white" stroke="#666666" points="307.5,-498 233.5,-498 233.5,-479 307.5,-479 307.5,-498"/>
<text text-anchor="middle" x="270.5" y="-486" font-family="Helvetica,sans-Serif" font-size="10.00">vecCore::Set</text>
</a>
</g>
</g>
<!-- Node18&#45;&gt;Node19 -->
<g id="edge18" class="edge">
<title>Node18&#45;&gt;Node19</title>
<path fill="none" stroke="#63b8ff" d="M399.49,-438.55C368.45,-450.66 324.43,-467.84 296.95,-478.57"/>
<polygon fill="#63b8ff" stroke="#63b8ff" points="400.42,-441.95 408.47,-435.05 397.88,-435.43 400.42,-441.95"/>
</g>
<!-- Node19&#45;&gt;Node5 -->
<g id="edge19" class="edge">
<title>Node19&#45;&gt;Node5</title>
<path fill="none" stroke="#63b8ff" d="M247.11,-472.04C233.27,-462.52 214.8,-450.99 197,-443.5 189.37,-440.29 181.21,-437.44 172.99,-434.93"/>
<polygon fill="#63b8ff" stroke="#63b8ff" points="244.88,-474.74 255.06,-477.65 248.91,-469.02 244.88,-474.74"/>
</g>
<!-- Node19&#45;&gt;Node6 -->
<g id="edge22" class="edge">
<title>Node19&#45;&gt;Node6</title>
<path fill="none" stroke="#63b8ff" d="M259.32,-468.64C247.33,-447.28 225.38,-413.89 197,-395.5 191.88,-392.18 186.34,-389.32 180.58,-386.86"/>
<polygon fill="#63b8ff" stroke="#63b8ff" points="256.13,-470.1 263.95,-477.25 262.29,-466.78 256.13,-470.1"/>
</g>
<!-- Node19&#45;&gt;Node7 -->
<g id="edge23" class="edge">
<title>Node19&#45;&gt;Node7</title>
<path fill="none" stroke="#63b8ff" d="M221.81,-494.67C198.08,-497.74 169.51,-501.44 145.95,-504.49"/>
<polygon fill="#63b8ff" stroke="#63b8ff" points="222.06,-498.17 231.53,-493.41 221.16,-491.23 222.06,-498.17"/>
</g>
<!-- Node19&#45;&gt;Node8 -->
<g id="edge24" class="edge">
<title>Node19&#45;&gt;Node8</title>
<path fill="none" stroke="#63b8ff" d="M221.78,-482.6C212.55,-481.47 202.59,-480.24 192.49,-478.99"/>
<polygon fill="#63b8ff" stroke="#63b8ff" points="221.17,-486.06 231.53,-483.81 222.03,-479.11 221.17,-486.06"/>
</g>
<!-- Node20 -->
<g id="node20" class="node">
<title>Node20</title>
<g id="a_node20"><a xlink:href="namespacevecCore.html#a1f2a79b75b5b3decff8b5afdb08e8af8" target="_top" xlink:title=" ">
<polygon fill="white" stroke="#666666" points="153.5,-643 43.5,-643 43.5,-624 153.5,-624 153.5,-643"/>
<text text-anchor="middle" x="98.5" y="-631" font-family="Helvetica,sans-Serif" font-size="10.00">vecCore::AssignLane</text>
</a>
</g>
</g>
<!-- Node19&#45;&gt;Node20 -->
<g id="edge20" class="edge">
<title>Node19&#45;&gt;Node20</title>
<path fill="none" stroke="#63b8ff" d="M263.75,-509.16C254.62,-537.87 233.95,-589.27 197,-615.5 184.51,-624.37 168.92,-629.25 153.89,-631.84"/>
<polygon fill="#63b8ff" stroke="#63b8ff" points="267.03,-510.41 266.54,-499.83 260.32,-508.41 267.03,-510.41"/>
</g>
<!-- Node21 -->
<g id="node21" class="node">
<title>Node21</title>
<g id="a_node21"><a xlink:href="namespacevecCore.html#a164486a9bb5308400ead845fa48177c9" target="_top" xlink:title=" ">
<polygon fill="white" stroke="#666666" points="165.5,-606 31.5,-606 31.5,-587 165.5,-587 165.5,-606"/>
<text text-anchor="middle" x="98.5" y="-594" font-family="Helvetica,sans-Serif" font-size="10.00">vecCore::AssignMaskLane</text>
</a>
</g>
</g>
<!-- Node19&#45;&gt;Node21 -->
<g id="edge21" class="edge">
<title>Node19&#45;&gt;Node21</title>
<path fill="none" stroke="#63b8ff" d="M258.91,-508.37C246.8,-529.06 224.97,-560.74 197,-577.5 187.53,-583.17 176.7,-587.2 165.79,-590.04"/>
<polygon fill="#63b8ff" stroke="#63b8ff" points="261.91,-510.18 263.74,-499.75 255.8,-506.76 261.91,-510.18"/>
</g>
<!-- Node22 -->
<g id="node22" class="node">
<title>Node22</title>
<g id="a_node22"><a xlink:href="structvecCore_1_1LoadStoreImplementation.html#ab0899849de37f38f65884b2c83b01f44" target="_top" xlink:title=" ">
<polygon fill="white" stroke="#666666" points="183.5,-568.5 13.5,-568.5 13.5,-538.5 183.5,-538.5 183.5,-568.5"/>
<text text-anchor="start" x="21.5" y="-556.5" font-family="Helvetica,sans-Serif" font-size="10.00">vecCore::LoadStoreImplementation</text>
<text text-anchor="middle" x="98.5" y="-545.5" font-family="Helvetica,sans-Serif" font-size="10.00">::Load</text>
</a>
</g>
</g>
<!-- Node19&#45;&gt;Node22 -->
<g id="edge25" class="edge">
<title>Node19&#45;&gt;Node22</title>
<path fill="none" stroke="#63b8ff" d="M245.21,-504.46C231.51,-512.88 213.81,-522.82 197,-529.5 188.98,-532.68 180.42,-535.54 171.82,-538.06"/>
<polygon fill="#63b8ff" stroke="#63b8ff" points="246.95,-507.5 253.54,-499.2 243.22,-501.57 246.95,-507.5"/>
</g>
</g>
</svg>
