<?xml version="1.0" encoding="UTF-8" standalone="no"?>
<!DOCTYPE svg PUBLIC "-//W3C//DTD SVG 1.1//EN"
 "http://www.w3.org/Graphics/SVG/1.1/DTD/svg11.dtd">
<!-- Generated by graphviz version 7.1.0 (20230121.1956)
 -->
<!-- Title: vecCore::GenericMaskingImplementation::Blend Pages: 1 -->
<svg width="850pt" height="64pt"
 viewBox="0.00 0.00 850.00 64.00" xmlns="http://www.w3.org/2000/svg" xmlns:xlink="http://www.w3.org/1999/xlink">
<g id="graph0" class="graph" transform="scale(1 1) rotate(0) translate(4 60)">
<title>vecCore::GenericMaskingImplementation::Blend</title>
<!-- Node1 -->
<g id="node1" class="node">
<title>Node1</title>
<g id="a_node1"><a xlink:title=" ">
<polygon fill="#999999" stroke="#666666" points="197,-42.5 0,-42.5 0,-12.5 197,-12.5 197,-42.5"/>
<text text-anchor="start" x="8" y="-30.5" font-family="Helvetica,sans-Serif" font-size="10.00">vecCore::GenericMaskingImplementation</text>
<text text-anchor="middle" x="98.5" y="-19.5" font-family="Helvetica,sans-Serif" font-size="10.00">::Blend</text>
</a>
</g>
</g>
<!-- Node2 -->
<g id="node2" class="node">
<title>Node2</title>
<g id="a_node2"><a xlink:href="namespacevecCore.html#a0bc95998843376452d74d5c8f5337845" target="_top" xlink:title=" ">
<polygon fill="white" stroke="#666666" points="308,-56 233,-56 233,-37 308,-37 308,-56"/>
<text text-anchor="middle" x="270.5" y="-44" font-family="Helvetica,sans-Serif" font-size="10.00">vecCore::Get</text>
</a>
</g>
</g>
<!-- Node1&#45;&gt;Node2 -->
<g id="edge1" class="edge">
<title>Node1&#45;&gt;Node2</title>
<path fill="none" stroke="#63b8ff" d="M197.4,-38.44C205.74,-39.37 213.9,-40.29 221.56,-41.14"/>
<polygon fill="#63b8ff" stroke="#63b8ff" points="220.94,-44.59 231.26,-42.23 221.71,-37.64 220.94,-44.59"/>
</g>
<!-- Node6 -->
<g id="node6" class="node">
<title>Node6</title>
<g id="a_node6"><a xlink:href="namespacevecCore.html#a211f237ccf30b72af40548291b739272" target="_top" xlink:title=" ">
<polygon fill="white" stroke="#666666" points="307.5,-19 233.5,-19 233.5,0 307.5,0 307.5,-19"/>
<text text-anchor="middle" x="270.5" y="-7" font-family="Helvetica,sans-Serif" font-size="10.00">vecCore::Set</text>
</a>
</g>
</g>
<!-- Node1&#45;&gt;Node6 -->
<g id="edge5" class="edge">
<title>Node1&#45;&gt;Node6</title>
<path fill="none" stroke="#63b8ff" d="M197.4,-17.13C205.83,-16.24 214.09,-15.37 221.83,-14.55"/>
<polygon fill="#63b8ff" stroke="#63b8ff" points="222.06,-18.04 231.64,-13.51 221.32,-11.08 222.06,-18.04"/>
</g>
<!-- Node3 -->
<g id="node3" class="node">
<title>Node3</title>
<g id="a_node3"><a xlink:href="structvecCore_1_1IndexingImplementation.html#a0b0b6789dfa2a5b707df9ebd1886a6b4" target="_top" xlink:title=" ">
<polygon fill="white" stroke="#666666" points="529,-56 344,-56 344,-37 529,-37 529,-56"/>
<text text-anchor="middle" x="436.5" y="-44" font-family="Helvetica,sans-Serif" font-size="10.00">vecCore::IndexingImplementation::Get</text>
</a>
</g>
</g>
<!-- Node2&#45;&gt;Node3 -->
<g id="edge2" class="edge">
<title>Node2&#45;&gt;Node3</title>
<path fill="none" stroke="#63b8ff" d="M308.3,-46.5C315.72,-46.5 323.86,-46.5 332.32,-46.5"/>
<polygon fill="#63b8ff" stroke="#63b8ff" points="332.09,-50 342.09,-46.5 332.09,-43 332.09,-50"/>
</g>
<!-- Node4 -->
<g id="node4" class="node">
<title>Node4</title>
<g id="a_node4"><a xlink:href="namespacevecCore.html#a744ecfff38071bf6a45e7a17cede5b0a" target="_top" xlink:title=" ">
<polygon fill="white" stroke="#666666" points="649,-37 565,-37 565,-18 649,-18 649,-37"/>
<text text-anchor="middle" x="607" y="-25" font-family="Helvetica,sans-Serif" font-size="10.00">vecCore::Begin</text>
</a>
</g>
</g>
<!-- Node3&#45;&gt;Node4 -->
<g id="edge3" class="edge">
<title>Node3&#45;&gt;Node4</title>
<path fill="none" stroke="#63b8ff" d="M525.7,-36.55C535.22,-35.48 544.68,-34.41 553.58,-33.41"/>
<polygon fill="#63b8ff" stroke="#63b8ff" points="553.87,-36.9 563.41,-32.3 553.08,-29.94 553.87,-36.9"/>
</g>
<!-- Node5 -->
<g id="node5" class="node">
<title>Node5</title>
<g id="a_node5"><a xlink:href="structvecCore_1_1IteratorImplementation.html#a8d629157cd044ba27ad3f77d09c9930a" target="_top" xlink:title=" ">
<polygon fill="white" stroke="#666666" points="842,-42.5 685,-42.5 685,-12.5 842,-12.5 842,-42.5"/>
<text text-anchor="start" x="693" y="-30.5" font-family="Helvetica,sans-Serif" font-size="10.00">vecCore::IteratorImplementation</text>
<text text-anchor="middle" x="763.5" y="-19.5" font-family="Helvetica,sans-Serif" font-size="10.00">::Begin</text>
</a>
</g>
</g>
<!-- Node4&#45;&gt;Node5 -->
<g id="edge4" class="edge">
<title>Node4&#45;&gt;Node5</title>
<path fill="none" stroke="#63b8ff" d="M649.4,-27.5C656.9,-27.5 664.98,-27.5 673.24,-27.5"/>
<polygon fill="#63b8ff" stroke="#63b8ff" points="673.08,-31 683.08,-27.5 673.08,-24 673.08,-31"/>
</g>
<!-- Node7 -->
<g id="node7" class="node">
<title>Node7</title>
<g id="a_node7"><a xlink:href="structvecCore_1_1IndexingImplementation.html#a04d0ce397356d802d033e242a9b86bc7" target="_top" xlink:title=" ">
<polygon fill="white" stroke="#666666" points="528.5,-19 344.5,-19 344.5,0 528.5,0 528.5,-19"/>
<text text-anchor="middle" x="436.5" y="-7" font-family="Helvetica,sans-Serif" font-size="10.00">vecCore::IndexingImplementation::Set</text>
</a>
</g>
</g>
<!-- Node6&#45;&gt;Node7 -->
<g id="edge6" class="edge">
<title>Node6&#45;&gt;Node7</title>
<path fill="none" stroke="#63b8ff" d="M307.9,-9.5C315.59,-9.5 324.08,-9.5 332.9,-9.5"/>
<polygon fill="#63b8ff" stroke="#63b8ff" points="332.71,-13 342.71,-9.5 332.71,-6 332.71,-13"/>
</g>
<!-- Node7&#45;&gt;Node4 -->
<g id="edge7" class="edge">
<title>Node7&#45;&gt;Node4</title>
<path fill="none" stroke="#63b8ff" d="M528.65,-19.24C537.09,-20.14 545.44,-21.03 553.35,-21.88"/>
<polygon fill="#63b8ff" stroke="#63b8ff" points="552.77,-25.33 563.09,-22.92 553.52,-18.37 552.77,-25.33"/>
</g>
</g>
</svg>
