<?xml version="1.0" encoding="UTF-8" standalone="no"?>
<!DOCTYPE svg PUBLIC "-//W3C//DTD SVG 1.1//EN"
 "http://www.w3.org/Graphics/SVG/1.1/DTD/svg11.dtd">
<!-- Generated by graphviz version 7.1.0 (20230121.1956)
 -->
<!-- Title: vecCore::IndexingImplementation::Set Pages: 1 -->
<svg width="535pt" height="295pt"
 viewBox="0.00 0.00 535.00 295.00" xmlns="http://www.w3.org/2000/svg" xmlns:xlink="http://www.w3.org/1999/xlink">
<g id="graph0" class="graph" transform="scale(1 1) rotate(0) translate(4 291)">
<title>vecCore::IndexingImplementation::Set</title>
<!-- Node1 -->
<g id="node1" class="node">
<title>Node1</title>
<g id="a_node1"><a xlink:title=" ">
<polygon fill="#999999" stroke="#666666" points="527,-158.5 343,-158.5 343,-139.5 527,-139.5 527,-158.5"/>
<text text-anchor="middle" x="435" y="-146.5" font-family="Helvetica,sans-Serif" font-size="10.00">vecCore::IndexingImplementation::Set</text>
</a>
</g>
</g>
<!-- Node2 -->
<g id="node2" class="node">
<title>Node2</title>
<g id="a_node2"><a xlink:href="namespacevecCore.html#a211f237ccf30b72af40548291b739272" target="_top" xlink:title=" ">
<polygon fill="white" stroke="#666666" points="307,-158.5 233,-158.5 233,-139.5 307,-139.5 307,-158.5"/>
<text text-anchor="middle" x="270" y="-146.5" font-family="Helvetica,sans-Serif" font-size="10.00">vecCore::Set</text>
</a>
</g>
</g>
<!-- Node1&#45;&gt;Node2 -->
<g id="edge1" class="edge">
<title>Node1&#45;&gt;Node2</title>
<path fill="none" stroke="#63b8ff" d="M331.62,-149C323.11,-149 314.92,-149 307.47,-149"/>
<polygon fill="#63b8ff" stroke="#63b8ff" points="331.46,-152.5 341.46,-149 331.46,-145.5 331.46,-152.5"/>
</g>
<!-- Node3 -->
<g id="node3" class="node">
<title>Node3</title>
<g id="a_node3"><a xlink:href="structvecCore_1_1GenericMaskingImplementation.html#a844c93572de9dd1576452a054aea46b3" target="_top" xlink:title=" ">
<polygon fill="white" stroke="#666666" points="197,-287 0,-287 0,-257 197,-257 197,-287"/>
<text text-anchor="start" x="8" y="-275" font-family="Helvetica,sans-Serif" font-size="10.00">vecCore::GenericMaskingImplementation</text>
<text text-anchor="middle" x="98.5" y="-264" font-family="Helvetica,sans-Serif" font-size="10.00">::Assign</text>
</a>
</g>
</g>
<!-- Node2&#45;&gt;Node3 -->
<g id="edge2" class="edge">
<title>Node2&#45;&gt;Node3</title>
<path fill="none" stroke="#63b8ff" d="M259.76,-169.13C248.3,-191.82 226.58,-228.12 197,-248 192.08,-251.31 186.75,-254.16 181.2,-256.62"/>
<polygon fill="#63b8ff" stroke="#63b8ff" points="262.83,-170.83 264.03,-160.3 256.53,-167.78 262.83,-170.83"/>
</g>
<!-- Node4 -->
<g id="node4" class="node">
<title>Node4</title>
<g id="a_node4"><a xlink:href="namespacevecCore.html#a1f2a79b75b5b3decff8b5afdb08e8af8" target="_top" xlink:title=" ">
<polygon fill="white" stroke="#666666" points="153.5,-238.5 43.5,-238.5 43.5,-219.5 153.5,-219.5 153.5,-238.5"/>
<text text-anchor="middle" x="98.5" y="-226.5" font-family="Helvetica,sans-Serif" font-size="10.00">vecCore::AssignLane</text>
</a>
</g>
</g>
<!-- Node2&#45;&gt;Node4 -->
<g id="edge3" class="edge">
<title>Node2&#45;&gt;Node4</title>
<path fill="none" stroke="#63b8ff" d="M253.41,-166.86C239.94,-181.1 219.18,-200.38 197,-211 183.73,-217.36 168.44,-221.48 153.97,-224.14"/>
<polygon fill="#63b8ff" stroke="#63b8ff" points="255.63,-169.62 259.79,-159.87 250.46,-164.9 255.63,-169.62"/>
</g>
<!-- Node5 -->
<g id="node5" class="node">
<title>Node5</title>
<g id="a_node5"><a xlink:href="namespacevecCore.html#a164486a9bb5308400ead845fa48177c9" target="_top" xlink:title=" ">
<polygon fill="white" stroke="#666666" points="165.5,-201.5 31.5,-201.5 31.5,-182.5 165.5,-182.5 165.5,-201.5"/>
<text text-anchor="middle" x="98.5" y="-189.5" font-family="Helvetica,sans-Serif" font-size="10.00">vecCore::AssignMaskLane</text>
</a>
</g>
</g>
<!-- Node2&#45;&gt;Node5 -->
<g id="edge4" class="edge">
<title>Node2&#45;&gt;Node5</title>
<path fill="none" stroke="#63b8ff" d="M231.35,-162.57C220.36,-166.25 208.28,-170.03 197,-173 184.24,-176.35 170.4,-179.4 157.26,-182.02"/>
<polygon fill="#63b8ff" stroke="#63b8ff" points="232.14,-166 240.47,-159.45 229.87,-159.38 232.14,-166"/>
</g>
<!-- Node6 -->
<g id="node6" class="node">
<title>Node6</title>
<g id="a_node6"><a xlink:href="structvecCore_1_1GenericMaskingImplementation.html#ad71b7c26a7165080d62f5d590b0f4d73" target="_top" xlink:title=" ">
<polygon fill="white" stroke="#666666" points="197,-164 0,-164 0,-134 197,-134 197,-164"/>
<text text-anchor="start" x="8" y="-152" font-family="Helvetica,sans-Serif" font-size="10.00">vecCore::GenericMaskingImplementation</text>
<text text-anchor="middle" x="98.5" y="-141" font-family="Helvetica,sans-Serif" font-size="10.00">::Blend</text>
</a>
</g>
</g>
<!-- Node2&#45;&gt;Node6 -->
<g id="edge5" class="edge">
<title>Node2&#45;&gt;Node6</title>
<path fill="none" stroke="#63b8ff" d="M221.21,-149C213.65,-149 205.61,-149 197.4,-149"/>
<polygon fill="#63b8ff" stroke="#63b8ff" points="221.12,-152.5 231.12,-149 221.12,-145.5 221.12,-152.5"/>
</g>
<!-- Node7 -->
<g id="node7" class="node">
<title>Node7</title>
<g id="a_node7"><a xlink:href="namespacevecCore.html#a98d52c47c802cf3d9d7f5f177b39f062" target="_top" xlink:title=" ">
<polygon fill="white" stroke="#666666" points="145.5,-115.5 51.5,-115.5 51.5,-96.5 145.5,-96.5 145.5,-115.5"/>
<text text-anchor="middle" x="98.5" y="-103.5" font-family="Helvetica,sans-Serif" font-size="10.00">vecCore::Convert</text>
</a>
</g>
</g>
<!-- Node2&#45;&gt;Node7 -->
<g id="edge6" class="edge">
<title>Node2&#45;&gt;Node7</title>
<path fill="none" stroke="#63b8ff" d="M231.35,-135.43C220.36,-131.75 208.28,-127.97 197,-125 180.49,-120.66 162.17,-116.83 145.9,-113.77"/>
<polygon fill="#63b8ff" stroke="#63b8ff" points="229.87,-138.62 240.47,-138.55 232.14,-132 229.87,-138.62"/>
</g>
<!-- Node8 -->
<g id="node8" class="node">
<title>Node8</title>
<g id="a_node8"><a xlink:href="structvecCore_1_1GatherScatterImplementation.html#a76603f42775f63b3c9fa979bfbb79663" target="_top" xlink:title=" ">
<polygon fill="white" stroke="#666666" points="192,-78 5,-78 5,-48 192,-48 192,-78"/>
<text text-anchor="start" x="13" y="-66" font-family="Helvetica,sans-Serif" font-size="10.00">vecCore::GatherScatterImplementation</text>
<text text-anchor="middle" x="98.5" y="-55" font-family="Helvetica,sans-Serif" font-size="10.00">::Gather</text>
</a>
</g>
</g>
<!-- Node2&#45;&gt;Node8 -->
<g id="edge7" class="edge">
<title>Node2&#45;&gt;Node8</title>
<path fill="none" stroke="#63b8ff" d="M252.32,-130.98C238.68,-117.28 218.25,-98.98 197,-88 189.86,-84.31 182.14,-81.14 174.27,-78.42"/>
<polygon fill="#63b8ff" stroke="#63b8ff" points="249.73,-133.33 259.19,-138.1 254.76,-128.47 249.73,-133.33"/>
</g>
<!-- Node9 -->
<g id="node9" class="node">
<title>Node9</title>
<g id="a_node9"><a xlink:href="structvecCore_1_1LoadStoreImplementation.html#ab0899849de37f38f65884b2c83b01f44" target="_top" xlink:title=" ">
<polygon fill="white" stroke="#666666" points="183.5,-30 13.5,-30 13.5,0 183.5,0 183.5,-30"/>
<text text-anchor="start" x="21.5" y="-18" font-family="Helvetica,sans-Serif" font-size="10.00">vecCore::LoadStoreImplementation</text>
<text text-anchor="middle" x="98.5" y="-7" font-family="Helvetica,sans-Serif" font-size="10.00">::Load</text>
</a>
</g>
</g>
<!-- Node2&#45;&gt;Node9 -->
<g id="edge8" class="edge">
<title>Node2&#45;&gt;Node9</title>
<path fill="none" stroke="#63b8ff" d="M261.3,-128.86C250.69,-103.87 229.16,-61.78 197,-39 192.31,-35.67 187.2,-32.81 181.87,-30.34"/>
<polygon fill="#63b8ff" stroke="#63b8ff" points="257.96,-129.94 264.95,-137.9 264.45,-127.31 257.96,-129.94"/>
</g>
</g>
</svg>
