<?xml version="1.0" encoding="UTF-8" standalone="no"?>
<svg
   xmlns:dc="http://purl.org/dc/elements/1.1/"
   xmlns:cc="http://creativecommons.org/ns#"
   xmlns:rdf="http://www.w3.org/1999/02/22-rdf-syntax-ns#"
   xmlns:svg="http://www.w3.org/2000/svg"
   xmlns="http://www.w3.org/2000/svg"
   xmlns:sodipodi="http://sodipodi.sourceforge.net/DTD/sodipodi-0.dtd"
   xmlns:inkscape="http://www.inkscape.org/namespaces/inkscape"
   version="1.1"
   viewBox="14 -260 945.00001 125.45452"
   stroke-miterlimit="10"
   id="svg425"
   sodipodi:docname="veccore-api.svg"
   width="250.03125mm"
   height="33.193176mm"
   style="fill:none;stroke:none;stroke-linecap:square;stroke-miterlimit:10"
   inkscape:version="0.92.1 r">
  <metadata
     id="metadata431">
    <rdf:RDF>
      <cc:Work
         rdf:about="">
        <dc:format>image/svg+xml</dc:format>
        <dc:type
           rdf:resource="http://purl.org/dc/dcmitype/StillImage" />
        <dc:title></dc:title>
      </cc:Work>
    </rdf:RDF>
  </metadata>
  <defs
     id="defs429" />
  <sodipodi:namedview
     pagecolor="#ffffff"
     bordercolor="#666666"
     borderopacity="1"
     objecttolerance="10"
     gridtolerance="10"
     guidetolerance="10"
     inkscape:pageopacity="0"
     inkscape:pageshadow="2"
     inkscape:window-width="1810"
     inkscape:window-height="893"
     id="namedview427"
     showgrid="false"
     inkscape:pagecheckerboard="true"
     showborder="true"
     borderlayer="true"
     units="mm"
     inkscape:showpageshadow="false"
     viewbox-x="14"
     viewbox-y="-260"
     viewbox-width="944.98"
     inkscape:zoom="1.4666667"
     inkscape:cx="495.36364"
     inkscape:cy="-17.72725"
     inkscape:window-x="686"
     inkscape:window-y="120"
     inkscape:window-maximized="0"
     inkscape:current-layer="svg425"
     fit-margin-top="0"
     fit-margin-left="0"
     fit-margin-right="0"
     fit-margin-bottom="0"
     showguides="true" />
  <clipPath
     id="g139fd55d64_0_337.0">
    <path
       d="M 0,0 H 960 V 540 H 0 Z"
       id="path2"
       inkscape:connector-curvature="0"
       style="clip-rule:nonzero" />
  </clipPath>
  <g
     clip-path="url(#g139fd55d64_0_337.0)"
     id="g423"
     transform="translate(-6.418457e-7,-414.54548)">
    <path
       d="M 0,0 H 960 V 540 H 0 Z"
       id="path5"
       inkscape:connector-curvature="0"
       style="fill:none;fill-rule:evenodd" />
    <path
       d="m 240.99184,179.55121 h 21.20042 v 15.17064 h -21.20042 z"
       id="path7"
       inkscape:connector-curvature="0"
       style="fill:#6fa8dc;fill-rule:evenodd" />
    <path
       d="m 240.99184,179.55121 h 21.20042 v 15.17064 h -21.20042 z"
       id="path9"
       inkscape:connector-curvature="0"
       style="fill-rule:evenodd;stroke:#000000;stroke-width:3;stroke-linecap:butt;stroke-linejoin:round" />
    <path
       d="m 262.19226,179.55121 h 21.20041 v 15.17064 h -21.20041 z"
       id="path11"
       inkscape:connector-curvature="0"
       style="fill:#6fa8dc;fill-rule:evenodd" />
    <path
       d="m 262.19226,179.55121 h 21.20041 v 15.17064 h -21.20041 z"
       id="path13"
       inkscape:connector-curvature="0"
       style="fill-rule:evenodd;stroke:#000000;stroke-width:3;stroke-linecap:butt;stroke-linejoin:round" />
    <path
       d="m 283.39267,179.55121 h 21.20044 v 15.17064 h -21.20044 z"
       id="path15"
       inkscape:connector-curvature="0"
       style="fill:#6fa8dc;fill-rule:evenodd" />
    <path
       d="m 283.39267,179.55121 h 21.20044 v 15.17064 h -21.20044 z"
       id="path17"
       inkscape:connector-curvature="0"
       style="fill-rule:evenodd;stroke:#000000;stroke-width:3;stroke-linecap:butt;stroke-linejoin:round" />
    <path
       d="m 304.5931,179.55121 h 21.20041 v 15.17064 H 304.5931 Z"
       id="path19"
       inkscape:connector-curvature="0"
       style="fill:#6fa8dc;fill-rule:evenodd" />
    <path
       d="m 304.5931,179.55121 h 21.20041 v 15.17064 H 304.5931 Z"
       id="path21"
       inkscape:connector-curvature="0"
       style="fill-rule:evenodd;stroke:#000000;stroke-width:3;stroke-linecap:butt;stroke-linejoin:round" />
    <path
       d="m 240.99184,238.43065 h 21.20042 v 15.17064 h -21.20042 z"
       id="path23"
       inkscape:connector-curvature="0"
       style="fill:#d9d9d9;fill-rule:evenodd" />
    <path
       d="m 240.99184,238.43065 h 21.20042 v 15.17064 h -21.20042 z"
       id="path25"
       inkscape:connector-curvature="0"
       style="fill-rule:evenodd;stroke:#000000;stroke-width:3;stroke-linecap:butt;stroke-linejoin:round" />
    <path
       d="m 262.19226,238.43065 h 21.20041 v 15.17064 h -21.20041 z"
       id="path27"
       inkscape:connector-curvature="0"
       style="fill:#6fa8dc;fill-rule:evenodd" />
    <path
       d="m 262.19226,238.43065 h 21.20041 v 15.17064 h -21.20041 z"
       id="path29"
       inkscape:connector-curvature="0"
       style="fill-rule:evenodd;stroke:#000000;stroke-width:3;stroke-linecap:butt;stroke-linejoin:round" />
    <path
       d="m 283.39267,238.43065 h 21.20044 v 15.17064 h -21.20044 z"
       id="path31"
       inkscape:connector-curvature="0"
       style="fill:#d9d9d9;fill-rule:evenodd" />
    <path
       d="m 283.39267,238.43065 h 21.20044 v 15.17064 h -21.20044 z"
       id="path33"
       inkscape:connector-curvature="0"
       style="fill-rule:evenodd;stroke:#000000;stroke-width:3;stroke-linecap:butt;stroke-linejoin:round" />
    <path
       d="m 304.5931,238.43065 h 21.20041 v 15.17064 H 304.5931 Z"
       id="path35"
       inkscape:connector-curvature="0"
       style="fill:#6fa8dc;fill-rule:evenodd" />
    <path
       d="m 304.5931,238.43065 h 21.20041 v 15.17064 H 304.5931 Z"
       id="path37"
       inkscape:connector-curvature="0"
       style="fill-rule:evenodd;stroke:#000000;stroke-width:3;stroke-linecap:butt;stroke-linejoin:round" />
    <path
       d="m 272.79245,194.72185 v 43.71654"
       id="path39"
       inkscape:connector-curvature="0"
       style="fill:#000000;fill-opacity:0;fill-rule:evenodd" />
    <path
       d="m 272.79248,194.72185 v 36.86237"
       id="path41"
       inkscape:connector-curvature="0"
       style="fill-rule:evenodd;stroke:#434343;stroke-width:2;stroke-linecap:butt;stroke-linejoin:round" />
    <path
       d="m 272.79248,231.58421 -2.24918,-2.24918 2.24918,6.17954 2.24915,-6.17954 z"
       id="path43"
       inkscape:connector-curvature="0"
       style="fill:#434343;fill-rule:evenodd;stroke:#434343;stroke-width:2;stroke-linecap:butt" />
    <path
       d="m 315.1933,194.72185 v 43.71654"
       id="path45"
       inkscape:connector-curvature="0"
       style="fill:#000000;fill-opacity:0;fill-rule:evenodd" />
    <path
       d="m 315.1933,194.72185 v 36.86237"
       id="path47"
       inkscape:connector-curvature="0"
       style="fill-rule:evenodd;stroke:#434343;stroke-width:2;stroke-linecap:butt;stroke-linejoin:round" />
    <path
       d="m 315.1933,231.58421 -2.24918,-2.24918 2.24918,6.17954 2.24918,-6.17954 z"
       id="path49"
       inkscape:connector-curvature="0"
       style="fill:#434343;fill-rule:evenodd;stroke:#434343;stroke-width:2;stroke-linecap:butt" />
    <path
       d="m 251.59204,194.72185 v 17.82677"
       id="path51"
       inkscape:connector-curvature="0"
       style="fill:#000000;fill-opacity:0;fill-rule:evenodd" />
    <path
       d="m 251.59204,194.72185 v 10.24678"
       id="path53"
       inkscape:connector-curvature="0"
       style="fill-rule:evenodd;stroke:#434343;stroke-width:2;stroke-linecap:butt;stroke-linejoin:round" />
    <path
       d="m 254.88205,204.96861 v 6.58 h -6.58 v -6.58 z"
       id="path55"
       inkscape:connector-curvature="0"
       style="fill:#434343;fill-rule:nonzero;stroke:#434343;stroke-width:2;stroke-linecap:butt" />
    <path
       d="m 293.9929,194.72185 v 17.82677"
       id="path57"
       inkscape:connector-curvature="0"
       style="fill:#000000;fill-opacity:0;fill-rule:evenodd" />
    <path
       d="m 293.9929,194.72185 v 10.24678"
       id="path59"
       inkscape:connector-curvature="0"
       style="fill-rule:evenodd;stroke:#434343;stroke-width:2;stroke-linecap:butt;stroke-linejoin:round" />
    <path
       d="m 297.2829,204.96861 v 6.58 h -6.58002 v -6.58 z"
       id="path61"
       inkscape:connector-curvature="0"
       style="fill:#434343;fill-rule:nonzero;stroke:#434343;stroke-width:2;stroke-linecap:butt" />
    <path
       d="m 380.99554,178.4848 h 21.20044 v 15.17065 h -21.20044 z"
       id="path63"
       inkscape:connector-curvature="0"
       style="fill:#e06666;fill-rule:evenodd" />
    <path
       d="m 380.99554,178.4848 h 21.20044 v 15.17065 h -21.20044 z"
       id="path65"
       inkscape:connector-curvature="0"
       style="fill-rule:evenodd;stroke:#000000;stroke-width:3;stroke-linecap:butt;stroke-linejoin:round" />
    <path
       d="m 402.19598,178.4848 h 21.20041 v 15.17065 h -21.20041 z"
       id="path67"
       inkscape:connector-curvature="0"
       style="fill:#e06666;fill-rule:evenodd" />
    <path
       d="m 402.19598,178.4848 h 21.20041 v 15.17065 h -21.20041 z"
       id="path69"
       inkscape:connector-curvature="0"
       style="fill-rule:evenodd;stroke:#000000;stroke-width:3;stroke-linecap:butt;stroke-linejoin:round" />
    <path
       d="m 423.3964,178.4848 h 21.20044 v 15.17065 H 423.3964 Z"
       id="path71"
       inkscape:connector-curvature="0"
       style="fill:#e06666;fill-rule:evenodd" />
    <path
       d="m 423.3964,178.4848 h 21.20044 v 15.17065 H 423.3964 Z"
       id="path73"
       inkscape:connector-curvature="0"
       style="fill-rule:evenodd;stroke:#000000;stroke-width:3;stroke-linecap:butt;stroke-linejoin:round" />
    <path
       d="m 444.59683,178.4848 h 21.20041 v 15.17065 h -21.20041 z"
       id="path75"
       inkscape:connector-curvature="0"
       style="fill:#e06666;fill-rule:evenodd" />
    <path
       d="m 444.59683,178.4848 h 21.20041 v 15.17065 h -21.20041 z"
       id="path77"
       inkscape:connector-curvature="0"
       style="fill-rule:evenodd;stroke:#000000;stroke-width:3;stroke-linecap:butt;stroke-linejoin:round" />
    <path
       d="m 380.99554,258.2938 h 21.20044 v 15.17062 h -21.20044 z"
       id="path79"
       inkscape:connector-curvature="0"
       style="fill:#e06666;fill-rule:evenodd" />
    <path
       d="m 380.99554,258.2938 h 21.20044 v 15.17062 h -21.20044 z"
       id="path81"
       inkscape:connector-curvature="0"
       style="fill-rule:evenodd;stroke:#000000;stroke-width:3;stroke-linecap:butt;stroke-linejoin:round" />
    <path
       d="m 402.19598,258.2938 h 21.20041 v 15.17062 h -21.20041 z"
       id="path83"
       inkscape:connector-curvature="0"
       style="fill:#93c47d;fill-rule:evenodd" />
    <path
       d="m 402.19598,258.2938 h 21.20041 v 15.17062 h -21.20041 z"
       id="path85"
       inkscape:connector-curvature="0"
       style="fill-rule:evenodd;stroke:#000000;stroke-width:3;stroke-linecap:butt;stroke-linejoin:round" />
    <path
       d="m 423.3964,258.2938 h 21.20044 v 15.17062 H 423.3964 Z"
       id="path87"
       inkscape:connector-curvature="0"
       style="fill:#e06666;fill-rule:evenodd" />
    <path
       d="m 423.3964,258.2938 h 21.20044 v 15.17062 H 423.3964 Z"
       id="path89"
       inkscape:connector-curvature="0"
       style="fill-rule:evenodd;stroke:#000000;stroke-width:3;stroke-linecap:butt;stroke-linejoin:round" />
    <path
       d="m 444.59683,258.2938 h 21.20041 v 15.17062 h -21.20041 z"
       id="path91"
       inkscape:connector-curvature="0"
       style="fill:#93c47d;fill-rule:evenodd" />
    <path
       d="m 444.59683,258.2938 h 21.20041 v 15.17062 h -21.20041 z"
       id="path93"
       inkscape:connector-curvature="0"
       style="fill-rule:evenodd;stroke:#000000;stroke-width:3;stroke-linecap:butt;stroke-linejoin:round" />
    <path
       d="m 391.59576,193.65546 v 64.62991"
       id="path95"
       inkscape:connector-curvature="0"
       style="fill:#000000;fill-opacity:0;fill-rule:evenodd" />
    <path
       d="M 391.59576,193.65546 V 251.4312"
       id="path97"
       inkscape:connector-curvature="0"
       style="fill-rule:evenodd;stroke:#434343;stroke-width:2;stroke-linecap:butt;stroke-linejoin:round" />
    <path
       d="m 391.59576,251.4312 -2.24918,-2.24916 2.24918,6.17953 2.24918,-6.17953 z"
       id="path99"
       inkscape:connector-curvature="0"
       style="fill:#434343;fill-rule:evenodd;stroke:#434343;stroke-width:2;stroke-linecap:butt" />
    <path
       d="m 412.7962,220.6461 v 37.6378"
       id="path101"
       inkscape:connector-curvature="0"
       style="fill:#000000;fill-opacity:0;fill-rule:evenodd" />
    <path
       d="m 412.79617,220.6461 v 30.78363"
       id="path103"
       inkscape:connector-curvature="0"
       style="fill-rule:evenodd;stroke:#434343;stroke-width:2;stroke-linecap:butt;stroke-linejoin:round" />
    <path
       d="m 412.79617,251.42972 -2.24918,-2.24916 2.24918,6.17953 2.24918,-6.17953 z"
       id="path105"
       inkscape:connector-curvature="0"
       style="fill:#434343;fill-rule:evenodd;stroke:#434343;stroke-width:2;stroke-linecap:butt" />
    <path
       d="m 433.9966,193.65546 v 64.62991"
       id="path107"
       inkscape:connector-curvature="0"
       style="fill:#000000;fill-opacity:0;fill-rule:evenodd" />
    <path
       d="M 433.99658,193.65546 V 251.4312"
       id="path109"
       inkscape:connector-curvature="0"
       style="fill-rule:evenodd;stroke:#434343;stroke-width:2;stroke-linecap:butt;stroke-linejoin:round" />
    <path
       d="m 433.99658,251.4312 -2.24915,-2.24916 2.24915,6.17953 2.24918,-6.17953 z"
       id="path111"
       inkscape:connector-curvature="0"
       style="fill:#434343;fill-rule:evenodd;stroke:#434343;stroke-width:2;stroke-linecap:butt" />
    <path
       d="m 455.19702,220.6461 v 37.6378"
       id="path113"
       inkscape:connector-curvature="0"
       style="fill:#000000;fill-opacity:0;fill-rule:evenodd" />
    <path
       d="m 455.19702,220.6461 v 30.78363"
       id="path115"
       inkscape:connector-curvature="0"
       style="fill-rule:evenodd;stroke:#434343;stroke-width:2;stroke-linecap:butt;stroke-linejoin:round" />
    <path
       d="m 455.19702,251.42972 -2.24918,-2.24916 2.24918,6.17953 2.24915,-6.17953 z"
       id="path117"
       inkscape:connector-curvature="0"
       style="fill:#434343;fill-rule:evenodd;stroke:#434343;stroke-width:2;stroke-linecap:butt" />
    <path
       d="m 380.99554,205.47546 h 21.20044 v 15.17064 h -21.20044 z"
       id="path119"
       inkscape:connector-curvature="0"
       style="fill:#93c47d;fill-rule:evenodd" />
    <path
       d="m 380.99554,205.47546 h 21.20044 v 15.17064 h -21.20044 z"
       id="path121"
       inkscape:connector-curvature="0"
       style="fill-rule:evenodd;stroke:#000000;stroke-width:3;stroke-linecap:butt;stroke-linejoin:round" />
    <path
       d="m 402.19598,205.47546 h 21.20041 v 15.17064 h -21.20041 z"
       id="path123"
       inkscape:connector-curvature="0"
       style="fill:#93c47d;fill-rule:evenodd" />
    <path
       d="m 402.19598,205.47546 h 21.20041 v 15.17064 h -21.20041 z"
       id="path125"
       inkscape:connector-curvature="0"
       style="fill-rule:evenodd;stroke:#000000;stroke-width:3;stroke-linecap:butt;stroke-linejoin:round" />
    <path
       d="m 423.3964,205.47546 h 21.20044 V 220.6461 H 423.3964 Z"
       id="path127"
       inkscape:connector-curvature="0"
       style="fill:#93c47d;fill-rule:evenodd" />
    <path
       d="m 423.3964,205.47546 h 21.20044 V 220.6461 H 423.3964 Z"
       id="path129"
       inkscape:connector-curvature="0"
       style="fill-rule:evenodd;stroke:#000000;stroke-width:3;stroke-linecap:butt;stroke-linejoin:round" />
    <path
       d="m 444.59683,205.47546 h 21.20041 v 15.17064 h -21.20041 z"
       id="path131"
       inkscape:connector-curvature="0"
       style="fill:#93c47d;fill-rule:evenodd" />
    <path
       d="m 444.59683,205.47546 h 21.20041 v 15.17064 h -21.20041 z"
       id="path133"
       inkscape:connector-curvature="0"
       style="fill-rule:evenodd;stroke:#000000;stroke-width:3;stroke-linecap:butt;stroke-linejoin:round" />
    <path
       d="m 380.99554,231.62042 h 21.20044 v 8.40146 h -21.20044 z"
       id="path135"
       inkscape:connector-curvature="0"
       style="fill:#e06666;fill-rule:evenodd" />
    <path
       d="m 380.99554,231.62042 h 21.20044 v 8.40146 h -21.20044 z"
       id="path137"
       inkscape:connector-curvature="0"
       style="fill-rule:evenodd;stroke:#000000;stroke-width:3;stroke-linecap:butt;stroke-linejoin:round" />
    <path
       d="m 402.19598,231.62042 h 21.20041 v 8.40146 h -21.20041 z"
       id="path139"
       inkscape:connector-curvature="0"
       style="fill:#93c47d;fill-rule:evenodd" />
    <path
       d="m 402.19598,231.62042 h 21.20041 v 8.40146 h -21.20041 z"
       id="path141"
       inkscape:connector-curvature="0"
       style="fill-rule:evenodd;stroke:#000000;stroke-width:3;stroke-linecap:butt;stroke-linejoin:round" />
    <path
       d="m 423.3964,231.62042 h 21.20044 v 8.40146 H 423.3964 Z"
       id="path143"
       inkscape:connector-curvature="0"
       style="fill:#e06666;fill-rule:evenodd" />
    <path
       d="m 423.3964,231.62042 h 21.20044 v 8.40146 H 423.3964 Z"
       id="path145"
       inkscape:connector-curvature="0"
       style="fill-rule:evenodd;stroke:#000000;stroke-width:3;stroke-linecap:butt;stroke-linejoin:round" />
    <path
       d="m 444.59683,231.62042 h 21.20041 v 8.40146 h -21.20041 z"
       id="path147"
       inkscape:connector-curvature="0"
       style="fill:#93c47d;fill-rule:evenodd" />
    <path
       d="m 444.59683,231.62042 h 21.20041 v 8.40146 h -21.20041 z"
       id="path149"
       inkscape:connector-curvature="0"
       style="fill-rule:evenodd;stroke:#000000;stroke-width:3;stroke-linecap:butt;stroke-linejoin:round" />
    <path
       d="m 126.40714,178.33878 h 21.20042 v 15.17064 h -21.20042 z"
       id="path151"
       inkscape:connector-curvature="0"
       style="fill:#cccccc;fill-rule:evenodd" />
    <path
       d="m 126.40714,178.33878 h 21.20042 v 15.17064 h -21.20042 z"
       id="path153"
       inkscape:connector-curvature="0"
       style="fill-rule:evenodd;stroke:#000000;stroke-width:3;stroke-linecap:butt;stroke-linejoin:round" />
    <path
       d="m 147.60756,178.33878 h 21.20042 v 15.17064 h -21.20042 z"
       id="path155"
       inkscape:connector-curvature="0"
       style="fill:#9fc5e8;fill-rule:evenodd" />
    <path
       d="m 147.60756,178.33878 h 21.20042 v 15.17064 h -21.20042 z"
       id="path157"
       inkscape:connector-curvature="0"
       style="fill-rule:evenodd;stroke:#000000;stroke-width:3;stroke-linecap:butt;stroke-linejoin:round" />
    <path
       d="m 168.80798,178.33878 h 21.20042 v 15.17064 h -21.20042 z"
       id="path159"
       inkscape:connector-curvature="0"
       style="fill:#cccccc;fill-rule:evenodd" />
    <path
       d="m 168.80798,178.33878 h 21.20042 v 15.17064 h -21.20042 z"
       id="path161"
       inkscape:connector-curvature="0"
       style="fill-rule:evenodd;stroke:#000000;stroke-width:3;stroke-linecap:butt;stroke-linejoin:round" />
    <path
       d="m 190.0084,178.33878 h 21.20042 v 15.17064 H 190.0084 Z"
       id="path163"
       inkscape:connector-curvature="0"
       style="fill:#cccccc;fill-rule:evenodd" />
    <path
       d="m 190.0084,178.33878 h 21.20042 v 15.17064 H 190.0084 Z"
       id="path165"
       inkscape:connector-curvature="0"
       style="fill-rule:evenodd;stroke:#000000;stroke-width:3;stroke-linecap:butt;stroke-linejoin:round" />
    <path
       d="m 132.44827,219.6375 h 21.13385 v 15.2126 h -21.13385 z"
       id="path167"
       inkscape:connector-curvature="0"
       style="fill:#9fc5e8;fill-rule:evenodd" />
    <path
       d="m 132.44827,219.6375 h 21.13385 v 15.2126 h -21.13385 z"
       id="path169"
       inkscape:connector-curvature="0"
       style="fill-rule:evenodd;stroke:#000000;stroke-width:3;stroke-linecap:butt;stroke-linejoin:round" />
    <path
       d="m 143.0152,219.6375 15.18111,-26.14172"
       id="path171"
       inkscape:connector-curvature="0"
       style="fill:#000000;fill-opacity:0;fill-rule:evenodd" />
    <path
       d="m 143.0152,219.63751 11.73903,-20.21452"
       id="path173"
       inkscape:connector-curvature="0"
       style="fill-rule:evenodd;stroke:#434343;stroke-width:2;stroke-linecap:butt;stroke-linejoin:round" />
    <path
       d="m 154.75423,199.42299 0.81549,3.07449 1.15828,-6.47331 -5.04826,4.21431 z"
       id="path175"
       inkscape:connector-curvature="0"
       style="fill:#434343;fill-rule:evenodd;stroke:#434343;stroke-width:2;stroke-linecap:butt" />
    <path
       d="m 24.094742,178.33495 h 21.20042 v 15.17065 h -21.20042 z"
       id="path177"
       inkscape:connector-curvature="0"
       style="fill:#d9d9d9;fill-rule:evenodd" />
    <path
       d="m 24.094742,178.33495 h 21.20042 v 15.17065 h -21.20042 z"
       id="path179"
       inkscape:connector-curvature="0"
       style="fill-rule:evenodd;stroke:#000000;stroke-width:3;stroke-linecap:butt;stroke-linejoin:round" />
    <path
       d="m 45.295162,178.33495 h 21.20042 v 15.17065 h -21.20042 z"
       id="path181"
       inkscape:connector-curvature="0"
       style="fill:#d9d9d9;fill-rule:evenodd" />
    <path
       d="m 45.295162,178.33495 h 21.20042 v 15.17065 h -21.20042 z"
       id="path183"
       inkscape:connector-curvature="0"
       style="fill-rule:evenodd;stroke:#000000;stroke-width:3;stroke-linecap:butt;stroke-linejoin:round" />
    <path
       d="M 66.49558,178.33495 H 87.696004 V 193.5056 H 66.49558 Z"
       id="path185"
       inkscape:connector-curvature="0"
       style="fill:#999999;fill-rule:evenodd" />
    <path
       d="M 66.49558,178.33495 H 87.696004 V 193.5056 H 66.49558 Z"
       id="path187"
       inkscape:connector-curvature="0"
       style="fill-rule:evenodd;stroke:#000000;stroke-width:3;stroke-linecap:butt;stroke-linejoin:round" />
    <path
       d="m 87.69601,178.33495 h 21.20042 V 193.5056 H 87.69601 Z"
       id="path189"
       inkscape:connector-curvature="0"
       style="fill:#d9d9d9;fill-rule:evenodd" />
    <path
       d="m 87.69601,178.33495 h 21.20042 V 193.5056 H 87.69601 Z"
       id="path191"
       inkscape:connector-curvature="0"
       style="fill-rule:evenodd;stroke:#000000;stroke-width:3;stroke-linecap:butt;stroke-linejoin:round" />
    <path
       d="m 45.913387,219.63791 h 21.133854 v 15.2126 H 45.913387 Z"
       id="path193"
       inkscape:connector-curvature="0"
       style="fill:#999999;fill-rule:evenodd" />
    <path
       d="m 45.913387,219.63791 h 21.133854 v 15.2126 H 45.913387 Z"
       id="path195"
       inkscape:connector-curvature="0"
       style="fill-rule:evenodd;stroke:#000000;stroke-width:3;stroke-linecap:butt;stroke-linejoin:round" />
    <path
       d="M 77.095795,193.5056 56.465874,219.64732"
       id="path197"
       inkscape:connector-curvature="0"
       style="fill:#000000;fill-opacity:0;fill-rule:evenodd" />
    <path
       d="M 77.095795,193.5056 60.711972,214.26677"
       id="path199"
       inkscape:connector-curvature="0"
       style="fill-rule:evenodd;stroke:#434343;stroke-width:2;stroke-linecap:butt;stroke-linejoin:round" />
    <path
       d="m 60.71197,214.26678 -0.372265,-3.15895 -2.062561,6.24429 5.593769,-3.45761 z"
       id="path201"
       inkscape:connector-curvature="0"
       style="fill:#434343;fill-rule:evenodd;stroke:#434343;stroke-width:2;stroke-linecap:butt" />
    <path
       d="m 481.20404,178.28354 h 21.13385 v 15.2126 h -21.13385 z"
       id="path203"
       inkscape:connector-curvature="0"
       style="fill:#cccccc;fill-rule:evenodd" />
    <path
       d="m 481.20404,178.28354 h 21.13385 v 15.2126 h -21.13385 z"
       id="path205"
       inkscape:connector-curvature="0"
       style="fill-rule:evenodd;stroke:#000000;stroke-width:3;stroke-linecap:butt;stroke-linejoin:round" />
    <path
       d="m 502.40356,178.28354 h 21.13385 v 15.2126 h -21.13385 z"
       id="path207"
       inkscape:connector-curvature="0"
       style="fill:#f6b26b;fill-rule:evenodd" />
    <path
       d="m 502.40356,178.28354 h 21.13385 v 15.2126 h -21.13385 z"
       id="path209"
       inkscape:connector-curvature="0"
       style="fill-rule:evenodd;stroke:#000000;stroke-width:3;stroke-linecap:butt;stroke-linejoin:round" />
    <path
       d="m 523.6031,178.28354 h 21.13391 v 15.2126 H 523.6031 Z"
       id="path211"
       inkscape:connector-curvature="0"
       style="fill:#cccccc;fill-rule:evenodd" />
    <path
       d="m 523.6031,178.28354 h 21.13391 v 15.2126 H 523.6031 Z"
       id="path213"
       inkscape:connector-curvature="0"
       style="fill-rule:evenodd;stroke:#000000;stroke-width:3;stroke-linecap:butt;stroke-linejoin:round" />
    <path
       d="m 544.8027,178.28354 h 21.13385 v 15.2126 H 544.8027 Z"
       id="path215"
       inkscape:connector-curvature="0"
       style="fill:#cccccc;fill-rule:evenodd" />
    <path
       d="m 544.8027,178.28354 h 21.13385 v 15.2126 H 544.8027 Z"
       id="path217"
       inkscape:connector-curvature="0"
       style="fill-rule:evenodd;stroke:#000000;stroke-width:3;stroke-linecap:butt;stroke-linejoin:round" />
    <path
       d="m 566.0019,178.28354 h 21.13385 v 15.2126 H 566.0019 Z"
       id="path219"
       inkscape:connector-curvature="0"
       style="fill:#f6b26b;fill-rule:evenodd" />
    <path
       d="m 566.0019,178.28354 h 21.13385 v 15.2126 H 566.0019 Z"
       id="path221"
       inkscape:connector-curvature="0"
       style="fill-rule:evenodd;stroke:#000000;stroke-width:3;stroke-linecap:butt;stroke-linejoin:round" />
    <path
       d="m 587.2014,178.28354 h 21.13385 v 15.2126 H 587.2014 Z"
       id="path223"
       inkscape:connector-curvature="0"
       style="fill:#cccccc;fill-rule:evenodd" />
    <path
       d="m 587.2014,178.28354 h 21.13385 v 15.2126 H 587.2014 Z"
       id="path225"
       inkscape:connector-curvature="0"
       style="fill-rule:evenodd;stroke:#000000;stroke-width:3;stroke-linecap:butt;stroke-linejoin:round" />
    <path
       d="m 608.40094,178.28354 h 21.13391 v 15.2126 h -21.13391 z"
       id="path227"
       inkscape:connector-curvature="0"
       style="fill:#cccccc;fill-rule:evenodd" />
    <path
       d="m 608.40094,178.28354 h 21.13391 v 15.2126 h -21.13391 z"
       id="path229"
       inkscape:connector-curvature="0"
       style="fill-rule:evenodd;stroke:#000000;stroke-width:3;stroke-linecap:butt;stroke-linejoin:round" />
    <path
       d="m 629.6005,178.28354 h 21.13385 v 15.2126 H 629.6005 Z"
       id="path231"
       inkscape:connector-curvature="0"
       style="fill:#f6b26b;fill-rule:evenodd" />
    <path
       d="m 629.6005,178.28354 h 21.13385 v 15.2126 H 629.6005 Z"
       id="path233"
       inkscape:connector-curvature="0"
       style="fill-rule:evenodd;stroke:#000000;stroke-width:3;stroke-linecap:butt;stroke-linejoin:round" />
    <path
       d="m 651.13007,178.28354 h 21.13385 v 15.2126 h -21.13385 z"
       id="path235"
       inkscape:connector-curvature="0"
       style="fill:#cccccc;fill-rule:evenodd" />
    <path
       d="m 651.13007,178.28354 h 21.13385 v 15.2126 h -21.13385 z"
       id="path237"
       inkscape:connector-curvature="0"
       style="fill-rule:evenodd;stroke:#000000;stroke-width:3;stroke-linecap:butt;stroke-linejoin:round" />
    <path
       d="m 673.0621,178.28354 h 21.13385 v 15.2126 H 673.0621 Z"
       id="path239"
       inkscape:connector-curvature="0"
       style="fill:#cccccc;fill-rule:evenodd" />
    <path
       d="m 673.0621,178.28354 h 21.13385 v 15.2126 H 673.0621 Z"
       id="path241"
       inkscape:connector-curvature="0"
       style="fill-rule:evenodd;stroke:#000000;stroke-width:3;stroke-linecap:butt;stroke-linejoin:round" />
    <path
       d="m 694.26166,178.28354 h 21.13385 v 15.2126 h -21.13385 z"
       id="path243"
       inkscape:connector-curvature="0"
       style="fill:#f6b26b;fill-rule:evenodd" />
    <path
       d="m 694.26166,178.28354 h 21.13385 v 15.2126 h -21.13385 z"
       id="path245"
       inkscape:connector-curvature="0"
       style="fill-rule:evenodd;stroke:#000000;stroke-width:3;stroke-linecap:butt;stroke-linejoin:round" />
    <path
       d="m 534.169,232.81285 h 21.20044 v 15.17064 H 534.169 Z"
       id="path247"
       inkscape:connector-curvature="0"
       style="fill:#f6b26b;fill-rule:evenodd" />
    <path
       d="m 534.169,232.81285 h 21.20044 v 15.17064 H 534.169 Z"
       id="path249"
       inkscape:connector-curvature="0"
       style="fill-rule:evenodd;stroke:#000000;stroke-width:3;stroke-linecap:butt;stroke-linejoin:round" />
    <path
       d="m 555.36945,232.81285 h 21.20044 v 15.17064 h -21.20044 z"
       id="path251"
       inkscape:connector-curvature="0"
       style="fill:#f6b26b;fill-rule:evenodd" />
    <path
       d="m 555.36945,232.81285 h 21.20044 v 15.17064 h -21.20044 z"
       id="path253"
       inkscape:connector-curvature="0"
       style="fill-rule:evenodd;stroke:#000000;stroke-width:3;stroke-linecap:butt;stroke-linejoin:round" />
    <path
       d="m 576.5699,232.81285 h 21.20044 v 15.17064 H 576.5699 Z"
       id="path255"
       inkscape:connector-curvature="0"
       style="fill:#f6b26b;fill-rule:evenodd" />
    <path
       d="m 576.5699,232.81285 h 21.20044 v 15.17064 H 576.5699 Z"
       id="path257"
       inkscape:connector-curvature="0"
       style="fill-rule:evenodd;stroke:#000000;stroke-width:3;stroke-linecap:butt;stroke-linejoin:round" />
    <path
       d="m 597.7703,232.81285 h 21.20038 v 15.17064 H 597.7703 Z"
       id="path259"
       inkscape:connector-curvature="0"
       style="fill:#f6b26b;fill-rule:evenodd" />
    <path
       d="m 597.7703,232.81285 h 21.20038 v 15.17064 H 597.7703 Z"
       id="path261"
       inkscape:connector-curvature="0"
       style="fill-rule:evenodd;stroke:#000000;stroke-width:3;stroke-linecap:butt;stroke-linejoin:round" />
    <path
       d="m 512.9705,193.49614 31.81097,39.30708"
       id="path263"
       inkscape:connector-curvature="0"
       style="fill:#000000;fill-opacity:0;fill-rule:evenodd" />
    <path
       d="m 512.9705,193.49614 27.49915,33.97913"
       id="path265"
       inkscape:connector-curvature="0"
       style="fill-rule:evenodd;stroke:#434343;stroke-width:2;stroke-linecap:butt;stroke-linejoin:round" />
    <path
       d="m 540.46967,227.47527 -3.16333,-0.33342 5.63586,3.38863 -2.13916,-6.21849 z"
       id="path267"
       inkscape:connector-curvature="0"
       style="fill:#434343;fill-rule:evenodd;stroke:#434343;stroke-width:2;stroke-linecap:butt" />
    <path
       d="m 576.5688,193.49614 -10.61414,39.30708"
       id="path269"
       inkscape:connector-curvature="0"
       style="fill:#000000;fill-opacity:0;fill-rule:evenodd" />
    <path
       d="m 576.5688,193.49614 -8.82733,32.68993"
       id="path271"
       inkscape:connector-curvature="0"
       style="fill-rule:evenodd;stroke:#434343;stroke-width:2;stroke-linecap:butt;stroke-linejoin:round" />
    <path
       d="m 567.7415,226.18607 -1.58508,-2.75774 0.56042,6.5522 3.78235,-5.37951 z"
       id="path273"
       inkscape:connector-curvature="0"
       style="fill:#434343;fill-rule:evenodd;stroke:#434343;stroke-width:2;stroke-linecap:butt" />
    <path
       d="m 640.1674,193.49614 -53.00787,39.30708"
       id="path275"
       inkscape:connector-curvature="0"
       style="fill:#000000;fill-opacity:0;fill-rule:evenodd" />
    <path
       d="m 640.1674,193.49614 -47.50226,35.22447"
       id="path277"
       inkscape:connector-curvature="0"
       style="fill-rule:evenodd;stroke:#434343;stroke-width:2;stroke-linecap:butt;stroke-linejoin:round" />
    <path
       d="m 592.6652,228.72063 0.46692,-3.14635 -3.62402,5.48743 6.3034,-1.87413 z"
       id="path279"
       inkscape:connector-curvature="0"
       style="fill:#434343;fill-rule:evenodd;stroke:#434343;stroke-width:2;stroke-linecap:butt" />
    <path
       d="m 704.82855,193.49614 -96.47241,39.30708"
       id="path281"
       inkscape:connector-curvature="0"
       style="fill:#000000;fill-opacity:0;fill-rule:evenodd" />
    <path
       d="m 704.82855,193.49614 -90.12488,36.72082"
       id="path283"
       inkscape:connector-curvature="0"
       style="fill-rule:evenodd;stroke:#434343;stroke-width:2;stroke-linecap:butt;stroke-linejoin:round" />
    <path
       d="m 614.7037,230.21698 1.23419,-2.93158 -4.87402,4.41461 6.57141,-0.24879 z"
       id="path285"
       inkscape:connector-curvature="0"
       style="fill:#434343;fill-rule:evenodd;stroke:#434343;stroke-width:2;stroke-linecap:butt" />
    <path
       d="m 738.6348,178.30092 h 21.13385 v 15.2126 H 738.6348 Z"
       id="path287"
       inkscape:connector-curvature="0"
       style="fill:#cccccc;fill-rule:evenodd" />
    <path
       d="m 738.6348,178.30092 h 21.13385 v 15.2126 H 738.6348 Z"
       id="path289"
       inkscape:connector-curvature="0"
       style="fill-rule:evenodd;stroke:#000000;stroke-width:3;stroke-linecap:butt;stroke-linejoin:round" />
    <path
       d="m 759.83435,178.30092 h 21.13385 v 15.2126 h -21.13385 z"
       id="path291"
       inkscape:connector-curvature="0"
       style="fill:#b4a7d6;fill-rule:evenodd" />
    <path
       d="m 759.83435,178.30092 h 21.13385 v 15.2126 h -21.13385 z"
       id="path293"
       inkscape:connector-curvature="0"
       style="fill-rule:evenodd;stroke:#000000;stroke-width:3;stroke-linecap:butt;stroke-linejoin:round" />
    <path
       d="m 781.03394,178.30092 h 21.13385 v 15.2126 h -21.13385 z"
       id="path295"
       inkscape:connector-curvature="0"
       style="fill:#cccccc;fill-rule:evenodd" />
    <path
       d="m 781.03394,178.30092 h 21.13385 v 15.2126 h -21.13385 z"
       id="path297"
       inkscape:connector-curvature="0"
       style="fill-rule:evenodd;stroke:#000000;stroke-width:3;stroke-linecap:butt;stroke-linejoin:round" />
    <path
       d="M 802.23315,178.30092 H 823.367 v 15.2126 h -21.13385 z"
       id="path299"
       inkscape:connector-curvature="0"
       style="fill:#b4a7d6;fill-rule:evenodd" />
    <path
       d="M 802.23315,178.30092 H 823.367 v 15.2126 h -21.13385 z"
       id="path301"
       inkscape:connector-curvature="0"
       style="fill-rule:evenodd;stroke:#000000;stroke-width:3;stroke-linecap:butt;stroke-linejoin:round" />
    <path
       d="m 823.4327,178.30092 h 21.13385 v 15.2126 H 823.4327 Z"
       id="path303"
       inkscape:connector-curvature="0"
       style="fill:#cccccc;fill-rule:evenodd" />
    <path
       d="m 823.4327,178.30092 h 21.13385 v 15.2126 H 823.4327 Z"
       id="path305"
       inkscape:connector-curvature="0"
       style="fill-rule:evenodd;stroke:#000000;stroke-width:3;stroke-linecap:butt;stroke-linejoin:round" />
    <path
       d="m 844.6322,178.30092 h 21.13385 v 15.2126 H 844.6322 Z"
       id="path307"
       inkscape:connector-curvature="0"
       style="fill:#b4a7d6;fill-rule:evenodd" />
    <path
       d="m 844.6322,178.30092 h 21.13385 v 15.2126 H 844.6322 Z"
       id="path309"
       inkscape:connector-curvature="0"
       style="fill-rule:evenodd;stroke:#000000;stroke-width:3;stroke-linecap:butt;stroke-linejoin:round" />
    <path
       d="m 865.8318,178.30092 h 21.13385 v 15.2126 H 865.8318 Z"
       id="path311"
       inkscape:connector-curvature="0"
       style="fill:#cccccc;fill-rule:evenodd" />
    <path
       d="m 865.8318,178.30092 h 21.13385 v 15.2126 H 865.8318 Z"
       id="path313"
       inkscape:connector-curvature="0"
       style="fill-rule:evenodd;stroke:#000000;stroke-width:3;stroke-linecap:butt;stroke-linejoin:round" />
    <path
       d="m 887.3613,178.30092 h 21.13385 v 15.2126 H 887.3613 Z"
       id="path315"
       inkscape:connector-curvature="0"
       style="fill:#cccccc;fill-rule:evenodd" />
    <path
       d="m 887.3613,178.30092 h 21.13385 v 15.2126 H 887.3613 Z"
       id="path317"
       inkscape:connector-curvature="0"
       style="fill-rule:evenodd;stroke:#000000;stroke-width:3;stroke-linecap:butt;stroke-linejoin:round" />
    <path
       d="m 908.56085,178.30092 h 21.13385 v 15.2126 h -21.13385 z"
       id="path319"
       inkscape:connector-curvature="0"
       style="fill:#b4a7d6;fill-rule:evenodd" />
    <path
       d="m 908.56085,178.30092 h 21.13385 v 15.2126 h -21.13385 z"
       id="path321"
       inkscape:connector-curvature="0"
       style="fill-rule:evenodd;stroke:#000000;stroke-width:3;stroke-linecap:butt;stroke-linejoin:round" />
    <path
       d="m 929.7604,178.30092 h 21.13391 v 15.2126 H 929.7604 Z"
       id="path323"
       inkscape:connector-curvature="0"
       style="fill:#cccccc;fill-rule:evenodd" />
    <path
       d="m 929.7604,178.30092 h 21.13391 v 15.2126 H 929.7604 Z"
       id="path325"
       inkscape:connector-curvature="0"
       style="fill-rule:evenodd;stroke:#000000;stroke-width:3;stroke-linecap:butt;stroke-linejoin:round" />
    <path
       d="m 768.40485,231.88141 h 21.20038 v 15.17065 h -21.20038 z"
       id="path327"
       inkscape:connector-curvature="0"
       style="fill:#b4a7d6;fill-rule:evenodd" />
    <path
       d="m 768.40485,231.88141 h 21.20038 v 15.17065 h -21.20038 z"
       id="path329"
       inkscape:connector-curvature="0"
       style="fill-rule:evenodd;stroke:#000000;stroke-width:3;stroke-linecap:butt;stroke-linejoin:round" />
    <path
       d="m 789.6052,231.88141 h 21.20044 v 15.17065 H 789.6052 Z"
       id="path331"
       inkscape:connector-curvature="0"
       style="fill:#b4a7d6;fill-rule:evenodd" />
    <path
       d="m 789.6052,231.88141 h 21.20044 v 15.17065 H 789.6052 Z"
       id="path333"
       inkscape:connector-curvature="0"
       style="fill-rule:evenodd;stroke:#000000;stroke-width:3;stroke-linecap:butt;stroke-linejoin:round" />
    <path
       d="m 810.80566,231.88141 h 21.20044 v 15.17065 h -21.20044 z"
       id="path335"
       inkscape:connector-curvature="0"
       style="fill:#b4a7d6;fill-rule:evenodd" />
    <path
       d="m 810.80566,231.88141 h 21.20044 v 15.17065 h -21.20044 z"
       id="path337"
       inkscape:connector-curvature="0"
       style="fill-rule:evenodd;stroke:#000000;stroke-width:3;stroke-linecap:butt;stroke-linejoin:round" />
    <path
       d="m 832.0061,231.88141 h 21.20044 v 15.17065 H 832.0061 Z"
       id="path339"
       inkscape:connector-curvature="0"
       style="fill:#b4a7d6;fill-rule:evenodd" />
    <path
       d="m 832.0061,231.88141 h 21.20044 v 15.17065 H 832.0061 Z"
       id="path341"
       inkscape:connector-curvature="0"
       style="fill-rule:evenodd;stroke:#000000;stroke-width:3;stroke-linecap:butt;stroke-linejoin:round" />
    <path
       d="m 779.00507,231.88141 -8.59845,-38.3622"
       id="path343"
       inkscape:connector-curvature="0"
       style="fill:#000000;fill-opacity:0;fill-rule:evenodd" />
    <path
       d="m 779.005,231.88142 -7.0993,-31.67397"
       id="path345"
       inkscape:connector-curvature="0"
       style="fill-rule:evenodd;stroke:#434343;stroke-width:2;stroke-linecap:butt;stroke-linejoin:round" />
    <path
       d="m 771.90564,200.20744 2.68665,1.70279 -3.54627,-5.538 -0.84314,6.52184 z"
       id="path347"
       inkscape:connector-curvature="0"
       style="fill:#434343;fill-rule:evenodd;stroke:#434343;stroke-width:2;stroke-linecap:butt" />
    <path
       d="m 800.20544,231.88141 12.59845,-38.3622"
       id="path349"
       inkscape:connector-curvature="0"
       style="fill:#000000;fill-opacity:0;fill-rule:evenodd" />
    <path
       d="M 800.20544,231.88142 810.66528,200.0312"
       id="path351"
       inkscape:connector-curvature="0"
       style="fill-rule:evenodd;stroke:#434343;stroke-width:2;stroke-linecap:butt;stroke-linejoin:round" />
    <path
       d="m 810.6653,200.03122 1.43512,2.83864 -0.2088,-6.5728 -4.06494,5.16926 z"
       id="path353"
       inkscape:connector-curvature="0"
       style="fill:#434343;fill-rule:evenodd;stroke:#434343;stroke-width:2;stroke-linecap:butt" />
    <path
       d="m 821.4059,231.88141 33.79529,-38.3622"
       id="path355"
       inkscape:connector-curvature="0"
       style="fill:#000000;fill-opacity:0;fill-rule:evenodd" />
    <path
       d="m 821.4058,231.88142 29.26446,-33.21913"
       id="path357"
       inkscape:connector-curvature="0"
       style="fill-rule:evenodd;stroke:#434343;stroke-width:2;stroke-linecap:butt;stroke-linejoin:round" />
    <path
       d="m 850.6703,198.66231 0.20093,3.17445 2.39715,-6.12364 -5.77252,3.1501 z"
       id="path359"
       inkscape:connector-curvature="0"
       style="fill:#434343;fill-rule:evenodd;stroke:#434343;stroke-width:2;stroke-linecap:butt" />
    <path
       d="m 842.6063,231.88141 76.5354,-38.3622"
       id="path361"
       inkscape:connector-curvature="0"
       style="fill:#000000;fill-opacity:0;fill-rule:evenodd" />
    <path
       d="m 842.6063,231.88142 70.40784,-35.29088"
       id="path363"
       inkscape:connector-curvature="0"
       style="fill-rule:evenodd;stroke:#434343;stroke-width:2;stroke-linecap:butt;stroke-linejoin:round" />
    <path
       d="m 913.0142,196.59055 -1.00287,3.01857 4.51654,-4.77975 -6.53222,0.7583 z"
       id="path365"
       inkscape:connector-curvature="0"
       style="fill:#434343;fill-rule:evenodd;stroke:#434343;stroke-width:2;stroke-linecap:butt" />
    <path
       d="m 24.08343,156.33081 h 84.8189 v 21.95274 h -84.8189 z"
       id="path367"
       inkscape:connector-curvature="0"
       style="fill:#000000;fill-opacity:0;fill-rule:evenodd" />
    <path
       d="m 45.164684,167.55905 q 0,-1.23437 0.34375,-2.1875 0.359375,-0.95312 0.96875,-1.59375 0.609375,-0.65625 1.4375,-1 0.828125,-0.34375 1.765625,-0.34375 1,0 1.6875,0.39063 0.703125,0.375 1.1875,0.84375 l -1.21875,1.375 q -0.3125,-0.32813 -0.6875,-0.51563 -0.375,-0.20312 -0.96875,-0.20312 -0.484375,0 -0.890625,0.21875 -0.390625,0.21875 -0.703125,0.625 -0.296875,0.40625 -0.46875,1 -0.171875,0.57812 -0.171875,1.3125 0,1.51562 0.578125,2.35937 0.578125,0.82813 1.75,0.82813 0.28125,0 0.53125,-0.0781 0.265625,-0.0781 0.421875,-0.23437 v -1.67188 h -1.421875 v -1.79687 h 3.40625 v 4.5 q -0.5,0.45312 -1.3125,0.82812 -0.796875,0.35938 -1.75,0.35938 -0.9375,0 -1.765625,-0.32813 -0.8125,-0.32812 -1.421875,-0.95312 -0.609375,-0.625 -0.953125,-1.5625 -0.34375,-0.9375 -0.34375,-2.17188 z m 8.965652,1.10938 q 0,-0.92188 0.3125,-1.64063 0.328125,-0.71875 0.859375,-1.21875 0.546875,-0.5 1.234375,-0.76562 0.703125,-0.28125 1.453125,-0.28125 0.859375,0 1.515625,0.28125 0.671875,0.26562 1.09375,0.75 0.4375,0.46875 0.65625,1.125 0.234375,0.65625 0.234375,1.42187 0,0.29688 -0.03125,0.57813 -0.03125,0.26562 -0.0625,0.39062 h -5 q 0.109375,0.84375 0.71875,1.21875 0.609375,0.35938 1.4375,0.35938 0.515625,0 0.96875,-0.125 0.453125,-0.125 0.953125,-0.39063 l 0.71875,1.32813 q -0.625,0.40625 -1.40625,0.64062 -0.78125,0.23438 -1.53125,0.23438 -0.875,0 -1.625,-0.26563 -0.75,-0.26562 -1.3125,-0.76562 -0.546875,-0.5 -0.875,-1.21875 -0.3125,-0.73438 -0.3125,-1.65625 z m 5.359375,-0.8125 q 0,-0.625 -0.34375,-1.01563 -0.34375,-0.39062 -1.109375,-0.39062 -0.59375,0 -1.0625,0.34375 -0.46875,0.34375 -0.609375,1.0625 z m 5.215656,-1.1875 h -1.875003 v -1.625 l 1.984378,-0.0937 0.28125,-1.98438 h 1.8125 v 1.98438 h 3.15625 v 1.71875 h -3.15625 v 2.60937 q 0,0.85938 0.375,1.21875 0.375,0.34375 1.1875,0.34375 0.4375,0 0.796875,-0.0625 0.359375,-0.0781 0.6875,-0.20312 l 0.390625,1.59375 q -0.5,0.14062 -1.109375,0.26562 -0.59375,0.14063 -1.328125,0.14063 -0.875,0 -1.5,-0.23438 -0.609375,-0.25 -1,-0.67187 -0.375,-0.4375 -0.546875,-1.03125 -0.15625,-0.60938 -0.15625,-1.34375 z m 12.059402,8.40625 q -1.46875,-1.3125 -2.3125,-3.01563 -0.84375,-1.71875 -0.84375,-3.84375 0,-2.125 0.84375,-3.82812 0.84375,-1.71875 2.3125,-3.03125 l 1.234375,0.98437 q -1.328125,1.29688 -1.9375,2.70313 -0.609375,1.40625 -0.609375,3.17187 0,0.89063 0.140625,1.6875 0.15625,0.78125 0.453125,1.5 0.3125,0.71875 0.796875,1.375 0.484375,0.67188 1.15625,1.3125 z m 4.809403,-0.98438 q 0.671875,-0.64062 1.15625,-1.3125 0.484375,-0.65625 0.78125,-1.375 0.3125,-0.71875 0.453125,-1.5 0.15625,-0.79687 0.15625,-1.6875 0,-1.76562 -0.609375,-3.17187 -0.609375,-1.40625 -1.9375,-2.70313 l 1.234375,-0.98437 q 1.46875,1.3125 2.3125,3.03125 0.84375,1.70312 0.84375,3.82812 0,2.125 -0.84375,3.84375 -0.84375,1.70313 -2.3125,3.01563 z"
       id="path369"
       inkscape:connector-curvature="0"
       style="fill:#000000;fill-rule:nonzero" />
    <path
       d="m 126.52644,156.33081 h 84.81889 v 21.95274 h -84.81889 z"
       id="path371"
       inkscape:connector-curvature="0"
       style="fill:#000000;fill-opacity:0;fill-rule:evenodd" />
    <path
       d="m 148.9827,169.63718 q 0.54687,0.45312 1.20312,0.75 0.65625,0.28125 1.29688,0.28125 0.76562,0 1.10937,-0.25 0.35938,-0.26563 0.35938,-0.70313 0,-0.21875 -0.10938,-0.375 -0.0937,-0.17187 -0.29687,-0.29687 -0.1875,-0.14063 -0.46875,-0.25 -0.28125,-0.10938 -0.64063,-0.25 l -1.26562,-0.53125 q -0.40625,-0.15625 -0.78125,-0.39063 -0.375,-0.25 -0.67188,-0.5625 -0.28125,-0.32812 -0.45312,-0.75 -0.17188,-0.4375 -0.17188,-0.96875 0,-0.60937 0.26563,-1.14062 0.26562,-0.53125 0.73437,-0.92188 0.46875,-0.40625 1.125,-0.625 0.67188,-0.21875 1.45313,-0.21875 0.90625,0 1.75,0.32813 0.84375,0.32812 1.51562,0.95312 l -1.125,1.39063 q -0.51562,-0.375 -1.01562,-0.57813 -0.48438,-0.20312 -1.125,-0.20312 -0.64063,0 -1,0.23437 -0.34375,0.23438 -0.34375,0.65625 0,0.45313 0.45312,0.6875 0.45313,0.21875 1.15625,0.46875 l 1.1875,0.51563 q 0.96875,0.35937 1.53125,0.98437 0.5625,0.625 0.5625,1.67188 0,0.60937 -0.26562,1.15625 -0.25,0.54687 -0.73438,0.96875 -0.46875,0.40625 -1.17187,0.65625 -0.70313,0.25 -1.625,0.25 -0.98438,0 -1.95313,-0.35938 -0.96875,-0.35937 -1.76562,-1.0625 z m 7.59065,-0.96875 q 0,-0.92188 0.3125,-1.64063 0.32813,-0.71875 0.85938,-1.21875 0.54687,-0.5 1.23437,-0.76562 0.70313,-0.28125 1.45313,-0.28125 0.85937,0 1.51562,0.28125 0.67188,0.26562 1.09375,0.75 0.4375,0.46875 0.65625,1.125 0.23438,0.65625 0.23438,1.42187 0,0.29688 -0.0312,0.57813 -0.0312,0.26562 -0.0625,0.39062 h -5 q 0.10937,0.84375 0.71875,1.21875 0.60937,0.35938 1.4375,0.35938 0.51562,0 0.96875,-0.125 0.45312,-0.125 0.95312,-0.39063 l 0.71875,1.32813 q -0.625,0.40625 -1.40625,0.64062 -0.78125,0.23438 -1.53125,0.23438 -0.875,0 -1.625,-0.26563 -0.75,-0.26562 -1.3125,-0.76562 -0.54687,-0.5 -0.875,-1.21875 -0.3125,-0.73438 -0.3125,-1.65625 z m 5.35938,-0.8125 q 0,-0.625 -0.34375,-1.01563 -0.34375,-0.39062 -1.10938,-0.39062 -0.59375,0 -1.0625,0.34375 -0.46875,0.34375 -0.60937,1.0625 z m 5.21565,-1.1875 h -1.875 v -1.625 l 1.98437,-0.0937 0.28125,-1.98438 h 1.8125 v 1.98438 h 3.15625 v 1.71875 h -3.15625 v 2.60937 q 0,0.85938 0.375,1.21875 0.375,0.34375 1.1875,0.34375 0.4375,0 0.79688,-0.0625 0.35937,-0.0781 0.6875,-0.20312 l 0.39062,1.59375 q -0.5,0.14062 -1.10937,0.26562 -0.59375,0.14063 -1.32813,0.14063 -0.875,0 -1.5,-0.23438 -0.60937,-0.25 -1,-0.67187 -0.375,-0.4375 -0.54687,-1.03125 -0.15625,-0.60938 -0.15625,-1.34375 z m 12.0594,8.40625 q -1.46875,-1.3125 -2.3125,-3.01563 -0.84375,-1.71875 -0.84375,-3.84375 0,-2.125 0.84375,-3.82812 0.84375,-1.71875 2.3125,-3.03125 l 1.23438,0.98437 q -1.32813,1.29688 -1.9375,2.70313 -0.60938,1.40625 -0.60938,3.17187 0,0.89063 0.14063,1.6875 0.15625,0.78125 0.45312,1.5 0.3125,0.71875 0.79688,1.375 0.48437,0.67188 1.15625,1.3125 z m 4.8094,-0.98438 q 0.67188,-0.64062 1.15625,-1.3125 0.48438,-0.65625 0.78125,-1.375 0.3125,-0.71875 0.45313,-1.5 0.15625,-0.79687 0.15625,-1.6875 0,-1.76562 -0.60938,-3.17187 -0.60937,-1.40625 -1.9375,-2.70313 l 1.23438,-0.98437 q 1.46875,1.3125 2.3125,3.03125 0.84375,1.70312 0.84375,3.82812 0,2.125 -0.84375,3.84375 -0.84375,1.70313 -2.3125,3.01563 z"
       id="path373"
       inkscape:connector-curvature="0"
       style="fill:#000000;fill-rule:nonzero" />
    <path
       d="M 481.20486,156.3307 H 715.4096 v 21.95276 H 481.20486 Z"
       id="path375"
       inkscape:connector-curvature="0"
       style="fill:#000000;fill-opacity:0;fill-rule:evenodd" />
    <path
       d="m 563.7884,167.55896 q 0,-1.23437 0.34375,-2.1875 0.35938,-0.95312 0.96875,-1.59375 0.60938,-0.65625 1.4375,-1 0.82813,-0.34375 1.76563,-0.34375 1,0 1.6875,0.39063 0.70312,0.375 1.1875,0.84375 l -1.21875,1.375 q -0.3125,-0.32813 -0.6875,-0.51563 -0.375,-0.20312 -0.96875,-0.20312 -0.48438,0 -0.89063,0.21875 -0.39062,0.21875 -0.70312,0.625 -0.29688,0.40625 -0.46875,1 -0.17188,0.57812 -0.17188,1.3125 0,1.51562 0.57813,2.35937 0.57812,0.82813 1.75,0.82813 0.28125,0 0.53125,-0.0781 0.26562,-0.0781 0.42187,-0.23437 v -1.67188 h -1.42187 v -1.79687 h 3.40625 v 4.5 q -0.5,0.45312 -1.3125,0.82812 -0.79688,0.35938 -1.75,0.35938 -0.9375,0 -1.76563,-0.32813 -0.8125,-0.32812 -1.42187,-0.95312 -0.60938,-0.625 -0.95313,-1.5625 -0.34375,-0.9375 -0.34375,-2.17188 z m 9.05939,2.76563 q 0,-0.64063 0.26562,-1.10938 0.26563,-0.46875 0.85938,-0.79687 0.59375,-0.34375 1.51562,-0.53125 0.9375,-0.20313 2.25,-0.28125 -0.0469,-0.51563 -0.4375,-0.79688 -0.375,-0.28125 -1.14062,-0.28125 -0.54688,0 -1.09375,0.1875 -0.54688,0.1875 -1.17188,0.5 l -0.78125,-1.4375 q 0.76563,-0.4375 1.64063,-0.71875 0.875,-0.29687 1.84375,-0.29687 1.54687,0 2.45312,0.82812 0.90625,0.82813 0.90625,2.53125 v 4.26563 h -1.8125 l -0.15625,-0.84375 h -0.0625 q -0.5625,0.4375 -1.25,0.73437 -0.67187,0.29688 -1.39062,0.29688 -0.5625,0 -1.01563,-0.1875 -0.45312,-0.17188 -0.76562,-0.46875 -0.3125,-0.3125 -0.48438,-0.71875 -0.17187,-0.40625 -0.17187,-0.875 z m 2.10937,-0.17188 q 0,0.35938 0.26563,0.53125 0.28125,0.17188 0.76562,0.17188 0.5,0 0.9375,-0.20313 0.4375,-0.20312 0.8125,-0.5 v -1.23437 q -0.8125,0.0469 -1.35937,0.15625 -0.53125,0.10937 -0.85938,0.26562 -0.3125,0.15625 -0.4375,0.375 -0.125,0.20313 -0.125,0.4375 z m 8.37189,-3.48437 h -1.875 v -1.625 l 1.98437,-0.0937 0.28125,-1.98438 h 1.8125 v 1.98438 h 3.15625 v 1.71875 h -3.15625 v 2.60937 q 0,0.85938 0.375,1.21875 0.375,0.34375 1.1875,0.34375 0.4375,0 0.79688,-0.0625 0.35937,-0.0781 0.6875,-0.20312 l 0.39062,1.59375 q -0.5,0.14062 -1.10937,0.26562 -0.59375,0.14063 -1.32813,0.14063 -0.875,0 -1.5,-0.23438 -0.60937,-0.25 -1,-0.67187 -0.375,-0.4375 -0.54687,-1.03125 -0.15625,-0.60938 -0.15625,-1.34375 z m 7.26257,-4.79688 h 2.20313 v 2.57813 l -0.10938,1.42187 q 0.21875,-0.20312 0.48438,-0.40625 0.26562,-0.20312 0.5625,-0.35937 0.3125,-0.15625 0.67187,-0.25 0.375,-0.0937 0.79688,-0.0937 1.25,0 1.82812,0.8125 0.57813,0.8125 0.57813,2.21875 v 4.59375 h -2.20313 v -4.3125 q 0,-0.75 -0.23437,-1.09375 -0.23438,-0.34375 -0.85938,-0.34375 -0.45312,0 -0.79687,0.20312 -0.32813,0.1875 -0.71875,0.57813 v 4.96875 h -2.20313 z m 8.54376,6.79688 q 0,-0.92188 0.3125,-1.64063 0.32813,-0.71875 0.85938,-1.21875 0.54687,-0.5 1.23437,-0.76562 0.70313,-0.28125 1.45313,-0.28125 0.85937,0 1.51562,0.28125 0.67188,0.26562 1.09375,0.75 0.4375,0.46875 0.65625,1.125 0.23438,0.65625 0.23438,1.42187 0,0.29688 -0.0312,0.57813 -0.0312,0.26562 -0.0625,0.39062 h -5 q 0.10937,0.84375 0.71875,1.21875 0.60937,0.35938 1.4375,0.35938 0.51562,0 0.96875,-0.125 0.45312,-0.125 0.95312,-0.39063 l 0.71875,1.32813 q -0.625,0.40625 -1.40625,0.64062 -0.78125,0.23438 -1.53125,0.23438 -0.875,0 -1.625,-0.26563 -0.75,-0.26562 -1.3125,-0.76562 -0.54687,-0.5 -0.875,-1.21875 -0.3125,-0.73438 -0.3125,-1.65625 z m 5.35938,-0.8125 q 0,-0.625 -0.34375,-1.01563 -0.34375,-0.39062 -1.10938,-0.39062 -0.59375,0 -1.0625,0.34375 -0.46875,0.34375 -0.60937,1.0625 z m 4.34064,-2.90625 h 1.8125 l 0.17187,1.625 h 0.0469 q 0.54687,-0.92188 1.32812,-1.35938 0.78125,-0.45312 1.6875,-0.45312 0.5,0 0.79688,0.0781 0.3125,0.0781 0.64062,0.23438 l -0.45312,1.84375 q -0.34375,-0.10938 -0.625,-0.15625 -0.26563,-0.0625 -0.6875,-0.0625 -0.6875,0 -1.35938,0.40625 -0.67187,0.40625 -1.15625,1.40625 v 3.875 h -2.20312 z m 12.93438,10.125 q -1.46875,-1.3125 -2.3125,-3.01563 -0.84375,-1.71875 -0.84375,-3.84375 0,-2.125 0.84375,-3.82812 0.84375,-1.71875 2.3125,-3.03125 l 1.23438,0.98437 q -1.32813,1.29688 -1.9375,2.70313 -0.60938,1.40625 -0.60938,3.17187 0,0.89063 0.14063,1.6875 0.15625,0.78125 0.45312,1.5 0.3125,0.71875 0.79688,1.375 0.48437,0.67188 1.15625,1.3125 z m 4.80945,-0.98438 q 0.67188,-0.64062 1.15625,-1.3125 0.48438,-0.65625 0.78125,-1.375 0.3125,-0.71875 0.45313,-1.5 0.15625,-0.79687 0.15625,-1.6875 0,-1.76562 -0.60938,-3.17187 -0.60937,-1.40625 -1.9375,-2.70313 l 1.23438,-0.98437 q 1.46875,1.3125 2.3125,3.03125 0.84375,1.70312 0.84375,3.82812 0,2.125 -0.84375,3.84375 -0.84375,1.70313 -2.3125,3.01563 z"
       id="path377"
       inkscape:connector-curvature="0"
       style="fill:#000000;fill-rule:nonzero" />
    <path
       d="m 738.6352,156.3307 h 212.25195 v 21.95276 H 738.6352 Z"
       id="path379"
       inkscape:connector-curvature="0"
       style="fill:#000000;fill-opacity:0;fill-rule:evenodd" />
    <path
       d="m 807.2204,169.63708 q 0.54688,0.45312 1.20313,0.75 0.65625,0.28125 1.29687,0.28125 0.76563,0 1.10938,-0.25 0.35937,-0.26563 0.35937,-0.70313 0,-0.21875 -0.10937,-0.375 -0.0937,-0.17187 -0.29688,-0.29687 -0.1875,-0.14063 -0.46875,-0.25 -0.28125,-0.10938 -0.64062,-0.25 l -1.26563,-0.53125 q -0.40625,-0.15625 -0.78125,-0.39063 -0.375,-0.25 -0.67187,-0.5625 -0.28125,-0.32812 -0.45313,-0.75 -0.17187,-0.4375 -0.17187,-0.96875 0,-0.60937 0.26562,-1.14062 0.26563,-0.53125 0.73438,-0.92188 0.46875,-0.40625 1.125,-0.625 0.67187,-0.21875 1.45312,-0.21875 0.90625,0 1.75,0.32813 0.84375,0.32812 1.51563,0.95312 l -1.125,1.39063 q -0.51563,-0.375 -1.01563,-0.57813 -0.48437,-0.20312 -1.125,-0.20312 -0.64062,0 -1,0.23437 -0.34375,0.23438 -0.34375,0.65625 0,0.45313 0.45313,0.6875 0.45312,0.21875 1.15625,0.46875 l 1.1875,0.51563 q 0.96875,0.35937 1.53125,0.98437 0.5625,0.625 0.5625,1.67188 0,0.60937 -0.26563,1.15625 -0.25,0.54687 -0.73437,0.96875 -0.46875,0.40625 -1.17188,0.65625 -0.70312,0.25 -1.625,0.25 -0.98437,0 -1.95312,-0.35938 -0.96875,-0.35937 -1.76563,-1.0625 z m 7.76257,-0.96875 q 0,-0.9375 0.34375,-1.65625 0.35938,-0.73438 0.95313,-1.21875 0.59375,-0.5 1.375,-0.76563 0.78125,-0.26562 1.64062,-0.26562 0.875,0 1.59375,0.29687 0.71875,0.28125 1.1875,0.71875 l -1.01562,1.35938 q -0.82813,-0.57813 -1.64063,-0.57813 -0.96875,0 -1.57812,0.57813 -0.59375,0.5625 -0.59375,1.53125 0,0.96875 0.57812,1.54687 0.57813,0.5625 1.51563,0.5625 0.57812,0 1.07812,-0.20312 0.5,-0.21875 0.875,-0.5 l 0.90625,1.39062 q -0.67187,0.57813 -1.5,0.84375 -0.8125,0.26563 -1.57812,0.26563 -0.875,0 -1.625,-0.26563 -0.75,-0.26562 -1.3125,-0.75 -0.5625,-0.5 -0.89063,-1.23437 -0.3125,-0.73438 -0.3125,-1.65625 z m 8.71564,1.65625 q 0,-0.64063 0.26563,-1.10938 0.26562,-0.46875 0.85937,-0.79687 0.59375,-0.34375 1.51563,-0.53125 0.9375,-0.20313 2.25,-0.28125 -0.0469,-0.51563 -0.4375,-0.79688 -0.375,-0.28125 -1.14063,-0.28125 -0.54687,0 -1.09375,0.1875 -0.54687,0.1875 -1.17187,0.5 l -0.78125,-1.4375 q 0.76562,-0.4375 1.64062,-0.71875 0.875,-0.29687 1.84375,-0.29687 1.54688,0 2.45313,0.82812 0.90625,0.82813 0.90625,2.53125 v 4.26563 h -1.8125 l -0.15625,-0.84375 h -0.0625 q -0.5625,0.4375 -1.25,0.73437 -0.67188,0.29688 -1.39063,0.29688 -0.5625,0 -1.01562,-0.1875 -0.45313,-0.17188 -0.76563,-0.46875 -0.3125,-0.3125 -0.48437,-0.71875 -0.17188,-0.40625 -0.17188,-0.875 z m 2.10938,-0.17188 q 0,0.35938 0.26562,0.53125 0.28125,0.17188 0.76563,0.17188 0.5,0 0.9375,-0.20313 0.4375,-0.20312 0.8125,-0.5 v -1.23437 q -0.8125,0.0469 -1.35938,0.15625 -0.53125,0.10937 -0.85937,0.26562 -0.3125,0.15625 -0.4375,0.375 -0.125,0.20313 -0.125,0.4375 z m 8.37188,-3.48437 h -1.875 v -1.625 l 1.98438,-0.0937 0.28125,-1.98438 h 1.8125 v 1.98438 h 3.15625 v 1.71875 H 836.383 v 2.60937 q 0,0.85938 0.375,1.21875 0.375,0.34375 1.1875,0.34375 0.4375,0 0.79687,-0.0625 0.35938,-0.0781 0.6875,-0.20312 l 0.39063,1.59375 q -0.5,0.14062 -1.10938,0.26562 -0.59375,0.14063 -1.32812,0.14063 -0.875,0 -1.5,-0.23438 -0.60938,-0.25 -1,-0.67187 -0.375,-0.4375 -0.54688,-1.03125 -0.15625,-0.60938 -0.15625,-1.34375 z m 8.79376,0 h -1.875 v -1.625 l 1.98438,-0.0937 0.28125,-1.98438 h 1.8125 v 1.98438 h 3.15625 v 1.71875 h -3.15625 v 2.60937 q 0,0.85938 0.375,1.21875 0.375,0.34375 1.1875,0.34375 0.4375,0 0.79687,-0.0625 0.35938,-0.0781 0.6875,-0.20312 l 0.39063,1.59375 q -0.5,0.14062 -1.10938,0.26562 -0.59375,0.14063 -1.32812,0.14063 -0.875,0 -1.5,-0.23438 -0.60938,-0.25 -1,-0.67187 -0.375,-0.4375 -0.54688,-1.03125 -0.15625,-0.60938 -0.15625,-1.34375 z m 7.01258,2 q 0,-0.92188 0.3125,-1.64063 0.32812,-0.71875 0.85937,-1.21875 0.54688,-0.5 1.23438,-0.76562 0.70312,-0.28125 1.45312,-0.28125 0.85938,0 1.51563,0.28125 0.67187,0.26562 1.09375,0.75 0.4375,0.46875 0.65625,1.125 0.23437,0.65625 0.23437,1.42187 0,0.29688 -0.0312,0.57813 -0.0312,0.26562 -0.0625,0.39062 h -5 q 0.10938,0.84375 0.71875,1.21875 0.60938,0.35938 1.4375,0.35938 0.51563,0 0.96875,-0.125 0.45313,-0.125 0.95313,-0.39063 l 0.71875,1.32813 q -0.625,0.40625 -1.40625,0.64062 -0.78125,0.23438 -1.53125,0.23438 -0.875,0 -1.625,-0.26563 -0.75,-0.26562 -1.3125,-0.76562 -0.54688,-0.5 -0.875,-1.21875 -0.3125,-0.73438 -0.3125,-1.65625 z m 5.35937,-0.8125 q 0,-0.625 -0.34375,-1.01563 -0.34375,-0.39062 -1.10937,-0.39062 -0.59375,0 -1.0625,0.34375 -0.46875,0.34375 -0.60938,1.0625 z m 4.34064,-2.90625 h 1.8125 l 0.17187,1.625 h 0.0469 q 0.54687,-0.92188 1.32812,-1.35938 0.78125,-0.45312 1.6875,-0.45312 0.5,0 0.79688,0.0781 0.3125,0.0781 0.64062,0.23438 l -0.45312,1.84375 q -0.34375,-0.10938 -0.625,-0.15625 -0.26563,-0.0625 -0.6875,-0.0625 -0.6875,0 -1.35938,0.40625 -0.67187,0.40625 -1.15625,1.40625 v 3.875 h -2.20312 z m 12.93439,10.125 q -1.46875,-1.3125 -2.3125,-3.01563 -0.84375,-1.71875 -0.84375,-3.84375 0,-2.125 0.84375,-3.82812 0.84375,-1.71875 2.3125,-3.03125 l 1.23437,0.98437 q -1.32812,1.29688 -1.9375,2.70313 -0.60937,1.40625 -0.60937,3.17187 0,0.89063 0.14062,1.6875 0.15625,0.78125 0.45313,1.5 0.3125,0.71875 0.79687,1.375 0.48438,0.67188 1.15625,1.3125 z m 4.80938,-0.98438 q 0.67188,-0.64062 1.15625,-1.3125 0.48438,-0.65625 0.78125,-1.375 0.3125,-0.71875 0.45313,-1.5 0.15625,-0.79687 0.15625,-1.6875 0,-1.76562 -0.60938,-3.17187 -0.60937,-1.40625 -1.9375,-2.70313 l 1.23438,-0.98437 q 1.46875,1.3125 2.3125,3.03125 0.84375,1.70312 0.84375,3.82812 0,2.125 -0.84375,3.84375 -0.84375,1.70313 -2.3125,3.01563 z"
       id="path381"
       inkscape:connector-curvature="0"
       style="fill:#000000;fill-rule:nonzero" />
    <path
       d="m 377.71436,156.33081 h 92.59842 v 21.95274 h -92.59842 z"
       id="path383"
       inkscape:connector-curvature="0"
       style="fill:#000000;fill-opacity:0;fill-rule:evenodd" />
    <path
       d="m 394.50095,162.60593 h 3.04687 q 0.76563,0 1.42188,0.10937 0.65625,0.10938 1.125,0.40625 0.48437,0.28125 0.76562,0.75 0.28125,0.45313 0.28125,1.17188 0,0.32812 -0.10937,0.65625 -0.0937,0.32812 -0.29688,0.60937 -0.20312,0.28125 -0.53125,0.51563 -0.3125,0.21875 -0.75,0.32812 v 0.0625 q 1.0625,0.1875 1.59375,0.75 0.54688,0.54688 0.54688,1.54688 0,0.75 -0.29688,1.29687 -0.28125,0.53125 -0.79687,0.89063 -0.5,0.34375 -1.1875,0.51562 -0.67188,0.17188 -1.46875,0.17188 h -3.34375 z m 2.95312,3.95312 q 0.8125,0 1.17188,-0.32812 0.35937,-0.32813 0.35937,-0.875 0,-0.5625 -0.375,-0.79688 -0.35937,-0.23437 -1.14062,-0.23437 h -0.76563 v 2.23437 z m 0.20313,4.125 q 1.76562,0 1.76562,-1.34375 0,-0.64062 -0.42187,-0.9375 -0.42188,-0.29687 -1.34375,-0.29687 h -0.95313 v 2.57812 z m 5.30942,-8.8125 h 4.35937 v 7.70313 q 0,0.34375 0.0937,0.57812 0.0937,0.21875 0.26563,0.375 0.17187,0.14063 0.39062,0.20313 0.21875,0.0469 0.45313,0.0469 0.25,0 0.53125,-0.0469 0.28125,-0.0469 0.64062,-0.1875 l 0.48438,1.625 q -0.29688,0.0781 -0.5625,0.15625 -0.25,0.0781 -0.5,0.125 -0.25,0.0625 -0.54688,0.0937 -0.28125,0.0312 -0.625,0.0312 -1.40625,0 -2.125,-0.82813 -0.70312,-0.84375 -0.70312,-2.26562 v -5.875 h -2.15625 z m 8.68438,6.79688 q 0,-0.92188 0.3125,-1.64063 0.32813,-0.71875 0.85938,-1.21875 0.54687,-0.5 1.23437,-0.76562 0.70313,-0.28125 1.45313,-0.28125 0.85937,0 1.51562,0.28125 0.67188,0.26562 1.09375,0.75 0.4375,0.46875 0.65625,1.125 0.23438,0.65625 0.23438,1.42187 0,0.29688 -0.0312,0.57813 -0.0312,0.26562 -0.0625,0.39062 h -5 q 0.10937,0.84375 0.71875,1.21875 0.60937,0.35938 1.4375,0.35938 0.51562,0 0.96875,-0.125 0.45312,-0.125 0.95312,-0.39063 l 0.71875,1.32813 q -0.625,0.40625 -1.40625,0.64062 -0.78125,0.23438 -1.53125,0.23438 -0.875,0 -1.625,-0.26563 -0.75,-0.26562 -1.3125,-0.76562 -0.54687,-0.5 -0.875,-1.21875 -0.3125,-0.73438 -0.3125,-1.65625 z m 5.35938,-0.8125 q 0,-0.625 -0.34375,-1.01563 -0.34375,-0.39062 -1.10938,-0.39062 -0.59375,0 -1.0625,0.34375 -0.46875,0.34375 -0.60937,1.0625 z m 3.68442,-2.90625 h 1.79687 l 0.17188,0.98437 h 0.0625 q 0.46875,-0.48437 1.09375,-0.82812 0.625,-0.34375 1.46875,-0.34375 1.26562,0 1.84375,0.8125 0.57812,0.8125 0.57812,2.21875 v 4.59375 h -2.20312 v -4.3125 q 0,-0.75 -0.23438,-1.09375 -0.23437,-0.34375 -0.85937,-0.34375 -0.45313,0 -0.79688,0.20312 -0.32812,0.1875 -0.71875,0.57813 v 4.96875 h -2.20312 z m 8.41876,3.71875 q 0,-0.92188 0.26562,-1.64063 0.28125,-0.71875 0.71875,-1.21875 0.4375,-0.5 1,-0.76562 0.57813,-0.28125 1.20313,-0.28125 0.64062,0 1.07812,0.21875 0.4375,0.21875 0.82813,0.57812 l -0.0781,-1.15625 v -2.53125 h 2.20313 v 10.51563 h -1.79688 l -0.17187,-0.76563 h -0.0469 q -0.42187,0.40625 -0.96875,0.6875 -0.53125,0.26563 -1.09375,0.26563 -0.70312,0 -1.28125,-0.26563 -0.57812,-0.28125 -1,-0.78125 -0.40625,-0.5 -0.64062,-1.21875 -0.21875,-0.73437 -0.21875,-1.64062 z m 2.26562,-0.0312 q 0,1.10937 0.375,1.625 0.375,0.5 1.0625,0.5 0.375,0 0.6875,-0.15625 0.32813,-0.15625 0.625,-0.53125 v -3.01563 q -0.29687,-0.26562 -0.60937,-0.375 -0.3125,-0.10937 -0.64063,-0.10937 -0.60937,0 -1.0625,0.51562 -0.4375,0.5 -0.4375,1.54688 z m 11.70005,6.4375 q -1.46875,-1.3125 -2.3125,-3.01563 -0.84375,-1.71875 -0.84375,-3.84375 0,-2.125 0.84375,-3.82812 0.84375,-1.71875 2.3125,-3.03125 l 1.23437,0.98437 q -1.32812,1.29688 -1.9375,2.70313 -0.60937,1.40625 -0.60937,3.17187 0,0.89063 0.14062,1.6875 0.15625,0.78125 0.45313,1.5 0.3125,0.71875 0.79687,1.375 0.48438,0.67188 1.15625,1.3125 z m 4.80942,-0.98438 q 0.67187,-0.64062 1.15625,-1.3125 0.48437,-0.65625 0.78125,-1.375 0.3125,-0.71875 0.45312,-1.5 0.15625,-0.79687 0.15625,-1.6875 0,-1.76562 -0.60937,-3.17187 -0.60938,-1.40625 -1.9375,-2.70313 l 1.23437,-0.98437 q 1.46875,1.3125 2.3125,3.03125 0.84375,1.70312 0.84375,3.82812 0,2.125 -0.84375,3.84375 -0.84375,1.70313 -2.3125,3.01563 z"
       id="path385"
       inkscape:connector-curvature="0"
       style="fill:#000000;fill-rule:nonzero" />
    <path
       d="m 208.69061,156.33081 h 152.22046 v 21.95274 H 208.69061 Z"
       id="path387"
       inkscape:connector-curvature="0"
       style="fill:#000000;fill-opacity:0;fill-rule:evenodd" />
    <path
       d="m 224.21315,162.60593 h 2.21875 l 0.98438,3.46875 0.32812,1.34375 h 0.0469 l 0.32812,-1.34375 0.9375,-3.46875 h 2.21875 v 9.78125 h -1.79687 v -3.1875 q 0,-0.40625 0.0312,-1 0.0312,-0.59375 0.0781,-1.21875 0.0469,-0.64063 0.0937,-1.23438 0.0469,-0.59375 0.0937,-0.98437 h -0.0469 l -0.76563,2.6875 -0.75,2.32812 h -0.98437 l -0.75,-2.32812 -0.73438,-2.6875 h -0.0625 q 0.0469,0.39062 0.0937,0.98437 0.0469,0.59375 0.0937,1.23438 0.0469,0.625 0.0781,1.21875 0.0312,0.59375 0.0312,1 v 3.1875 h -1.76563 z m 8.7469,7.71875 q 0,-0.64063 0.26563,-1.10938 0.26562,-0.46875 0.85937,-0.79687 0.59375,-0.34375 1.51563,-0.53125 0.9375,-0.20313 2.25,-0.28125 -0.0469,-0.51563 -0.4375,-0.79688 -0.375,-0.28125 -1.14063,-0.28125 -0.54687,0 -1.09375,0.1875 -0.54687,0.1875 -1.17187,0.5 l -0.78125,-1.4375 q 0.76562,-0.4375 1.64062,-0.71875 0.875,-0.29687 1.84375,-0.29687 1.54688,0 2.45313,0.82812 0.90625,0.82813 0.90625,2.53125 v 4.26563 h -1.8125 l -0.15625,-0.84375 h -0.0625 q -0.5625,0.4375 -1.25,0.73437 -0.67188,0.29688 -1.39063,0.29688 -0.5625,0 -1.01562,-0.1875 -0.45313,-0.17188 -0.76563,-0.46875 -0.3125,-0.3125 -0.48437,-0.71875 -0.17188,-0.40625 -0.17188,-0.875 z m 2.10938,-0.17188 q 0,0.35938 0.26562,0.53125 0.28125,0.17188 0.76563,0.17188 0.5,0 0.9375,-0.20313 0.4375,-0.20312 0.8125,-0.5 v -1.23437 q -0.8125,0.0469 -1.35938,0.15625 -0.53125,0.10937 -0.85937,0.26562 -0.3125,0.15625 -0.4375,0.375 -0.125,0.20313 -0.125,0.4375 z m 7.54377,-0.10937 q 0.65625,0.40625 1.29688,0.65625 0.65625,0.23437 1.40625,0.23437 0.76562,0 1.09375,-0.15625 0.32812,-0.17187 0.32812,-0.46875 0,-0.35937 -0.54687,-0.5625 -0.54688,-0.21875 -1.4375,-0.48437 -0.5,-0.125 -0.98438,-0.3125 -0.46875,-0.1875 -0.84375,-0.45313 -0.375,-0.26562 -0.60937,-0.60937 -0.21875,-0.34375 -0.21875,-0.79688 0,-0.51562 0.23437,-0.9375 0.23438,-0.4375 0.67188,-0.73437 0.45312,-0.3125 1.09375,-0.48438 0.64062,-0.17187 1.42187,-0.17187 1,0 1.8125,0.32812 0.8125,0.32813 1.40625,0.70313 l -0.98437,1.3125 q -0.51563,-0.29688 -1.0625,-0.5 -0.53125,-0.20313 -1.125,-0.20313 -0.70313,0 -1,0.15625 -0.28125,0.14063 -0.28125,0.42188 0,0.17187 0.14062,0.3125 0.15625,0.125 0.40625,0.23437 0.26563,0.10938 0.60938,0.20313 0.35937,0.0937 0.75,0.20312 0.54687,0.14063 1.04687,0.32813 0.5,0.1875 0.875,0.45312 0.375,0.25 0.59375,0.60938 0.21875,0.35937 0.21875,0.84375 0,0.51562 -0.23437,0.95312 -0.23438,0.42188 -0.70313,0.75 -0.45312,0.32813 -1.14062,0.51563 -0.67188,0.1875 -1.57813,0.1875 -1,0 -1.96875,-0.32813 -0.95312,-0.34375 -1.67187,-0.8125 z m 8.15316,-8.17188 h 2.20312 v 6.07813 h 0.0625 l 2.73438,-3 h 2.40625 l -2.8125,3.0625 3.04687,4.375 h -2.39062 l -1.95313,-3.03125 -1.09375,1.15625 v 1.875 h -2.20312 z m 8.48129,6.79688 q 0,-0.92188 0.3125,-1.64063 0.32812,-0.71875 0.85937,-1.21875 0.54688,-0.5 1.23438,-0.76562 0.70312,-0.28125 1.45312,-0.28125 0.85938,0 1.51563,0.28125 0.67187,0.26562 1.09375,0.75 0.4375,0.46875 0.65625,1.125 0.23437,0.65625 0.23437,1.42187 0,0.29688 -0.0312,0.57813 -0.0312,0.26562 -0.0625,0.39062 h -5 q 0.10938,0.84375 0.71875,1.21875 0.60938,0.35938 1.4375,0.35938 0.51563,0 0.96875,-0.125 0.45313,-0.125 0.95313,-0.39063 l 0.71875,1.32813 q -0.625,0.40625 -1.40625,0.64062 -0.78125,0.23438 -1.53125,0.23438 -0.875,0 -1.625,-0.26563 -0.75,-0.26562 -1.3125,-0.76562 -0.54688,-0.5 -0.875,-1.21875 -0.3125,-0.73438 -0.3125,-1.65625 z m 5.35937,-0.8125 q 0,-0.625 -0.34375,-1.01563 -0.34375,-0.39062 -1.10937,-0.39062 -0.59375,0 -1.0625,0.34375 -0.46875,0.34375 -0.60938,1.0625 z m 3.30939,0.8125 q 0,-0.92188 0.26563,-1.64063 0.28125,-0.71875 0.71875,-1.21875 0.4375,-0.5 1,-0.76562 0.57812,-0.28125 1.20312,-0.28125 0.64063,0 1.07813,0.21875 0.4375,0.21875 0.82812,0.57812 l -0.0781,-1.15625 v -2.53125 h 2.20312 v 10.51563 h -1.79687 l -0.17188,-0.76563 h -0.0469 q -0.42188,0.40625 -0.96875,0.6875 -0.53125,0.26563 -1.09375,0.26563 -0.70313,0 -1.28125,-0.26563 -0.57813,-0.28125 -1,-0.78125 -0.40625,-0.5 -0.64063,-1.21875 -0.21875,-0.73437 -0.21875,-1.64062 z m 2.26563,-0.0312 q 0,1.10937 0.375,1.625 0.375,0.5 1.0625,0.5 0.375,0 0.6875,-0.15625 0.32812,-0.15625 0.625,-0.53125 v -3.01563 q -0.29688,-0.26562 -0.60938,-0.375 -0.3125,-0.10937 -0.64062,-0.10937 -0.60938,0 -1.0625,0.51562 -0.4375,0.5 -0.4375,1.54688 z m 11.30941,-0.29688 -0.21875,-0.90625 q -0.20312,-0.73437 -0.39062,-1.54687 -0.1875,-0.82813 -0.39063,-1.59375 h -0.0625 q -0.17187,0.78125 -0.375,1.59375 -0.1875,0.8125 -0.39062,1.54687 l -0.21875,0.90625 z m 0.45313,1.71875 h -2.95313 l -0.59375,2.32813 h -2.25 l 3.04688,-9.78125 h 2.625 l 3.04687,9.78125 h -2.32812 z m 4.63751,-0.0156 q 0.65625,0.40625 1.29688,0.65625 0.65625,0.23437 1.40625,0.23437 0.76562,0 1.09375,-0.15625 0.32812,-0.17187 0.32812,-0.46875 0,-0.35937 -0.54687,-0.5625 -0.54688,-0.21875 -1.4375,-0.48437 -0.5,-0.125 -0.98438,-0.3125 -0.46875,-0.1875 -0.84375,-0.45313 -0.375,-0.26562 -0.60937,-0.60937 -0.21875,-0.34375 -0.21875,-0.79688 0,-0.51562 0.23437,-0.9375 0.23438,-0.4375 0.67188,-0.73437 0.45312,-0.3125 1.09375,-0.48438 0.64062,-0.17187 1.42187,-0.17187 1,0 1.8125,0.32812 0.8125,0.32813 1.40625,0.70313 l -0.98437,1.3125 q -0.51563,-0.29688 -1.0625,-0.5 -0.53125,-0.20313 -1.125,-0.20313 -0.70313,0 -1,0.15625 -0.28125,0.14063 -0.28125,0.42188 0,0.17187 0.14062,0.3125 0.15625,0.125 0.40625,0.23437 0.26563,0.10938 0.60938,0.20313 0.35937,0.0937 0.75,0.20312 0.54687,0.14063 1.04687,0.32813 0.5,0.1875 0.875,0.45312 0.375,0.25 0.59375,0.60938 0.21875,0.35937 0.21875,0.84375 0,0.51562 -0.23437,0.95312 -0.23438,0.42188 -0.70313,0.75 -0.45312,0.32813 -1.14062,0.51563 -0.67188,0.1875 -1.57813,0.1875 -1,0 -1.96875,-0.32813 -0.95312,-0.34375 -1.67187,-0.8125 z m 8.79379,0 q 0.65625,0.40625 1.29688,0.65625 0.65625,0.23437 1.40625,0.23437 0.76562,0 1.09375,-0.15625 0.32812,-0.17187 0.32812,-0.46875 0,-0.35937 -0.54687,-0.5625 -0.54688,-0.21875 -1.4375,-0.48437 -0.5,-0.125 -0.98438,-0.3125 -0.46875,-0.1875 -0.84375,-0.45313 -0.375,-0.26562 -0.60937,-0.60937 -0.21875,-0.34375 -0.21875,-0.79688 0,-0.51562 0.23437,-0.9375 0.23438,-0.4375 0.67188,-0.73437 0.45312,-0.3125 1.09375,-0.48438 0.64062,-0.17187 1.42187,-0.17187 1,0 1.8125,0.32812 0.8125,0.32813 1.40625,0.70313 l -0.98437,1.3125 q -0.51563,-0.29688 -1.0625,-0.5 -0.53125,-0.20313 -1.125,-0.20313 -0.70313,0 -1,0.15625 -0.28125,0.14063 -0.28125,0.42188 0,0.17187 0.14062,0.3125 0.15625,0.125 0.40625,0.23437 0.26563,0.10938 0.60938,0.20313 0.35937,0.0937 0.75,0.20312 0.54687,0.14063 1.04687,0.32813 0.5,0.1875 0.875,0.45312 0.375,0.25 0.59375,0.60938 0.21875,0.35937 0.21875,0.84375 0,0.51562 -0.23437,0.95312 -0.23438,0.42188 -0.70313,0.75 -0.45312,0.32813 -1.14062,0.51563 -0.67188,0.1875 -1.57813,0.1875 -1,0 -1.96875,-0.32813 -0.95312,-0.34375 -1.67187,-0.8125 z m 8.20002,-5.09375 h 5.1875 v 7.4375 h -2.20313 v -5.71875 h -2.98437 z m 3.98437,-1.09375 q -0.64062,0 -1.0625,-0.35938 -0.40625,-0.35937 -0.40625,-0.98437 0,-0.60938 0.40625,-0.98438 0.42188,-0.39062 1.0625,-0.39062 0.64063,0 1.04688,0.39062 0.42187,0.375 0.42187,0.98438 0,0.625 -0.42187,0.98437 -0.40625,0.35938 -1.04688,0.35938 z m 6.20004,9.46875 q 0,0.40625 0.5,0.625 0.5,0.21875 1.39063,0.21875 0.90625,0 1.45312,-0.26563 0.5625,-0.25 0.5625,-0.64062 0,-0.35938 -0.34375,-0.48438 -0.32812,-0.10937 -0.96875,-0.10937 h -0.92187 q -0.40625,0 -0.67188,-0.0312 -0.26562,-0.0156 -0.46875,-0.0625 -0.29687,0.1875 -0.42187,0.35937 -0.10938,0.17188 -0.10938,0.39063 z m -1.79687,0.32812 q 0,-0.92187 1.15625,-1.48437 v -0.0625 q -0.29688,-0.20313 -0.53125,-0.5 -0.21875,-0.29688 -0.21875,-0.78125 0,-0.375 0.25,-0.75 0.25,-0.375 0.625,-0.64063 v -0.0625 q -0.39063,-0.26562 -0.6875,-0.75 -0.28125,-0.5 -0.28125,-1.15625 0,-0.67187 0.26562,-1.17187 0.26563,-0.5 0.6875,-0.84375 0.4375,-0.34375 1.01563,-0.51563 0.57812,-0.17187 1.21875,-0.17187 0.6875,0 1.21875,0.1875 h 3.01562 v 1.60937 h -1.51562 q 0.14062,0.15625 0.23437,0.42188 0.10938,0.26562 0.10938,0.5625 0,0.64062 -0.23438,1.10937 -0.23437,0.46875 -0.65625,0.78125 -0.40625,0.29688 -0.96875,0.45313 -0.5625,0.14062 -1.20312,0.14062 -0.48438,0 -1.03125,-0.14062 -0.15625,0.10937 -0.25,0.23437 -0.0781,0.125 -0.0781,0.29688 0,0.29687 0.29688,0.4375 0.3125,0.14062 0.96875,0.14062 h 1.375 q 1.46875,0 2.23437,0.4375 0.78125,0.42188 0.78125,1.4375 0,0.57813 -0.3125,1.07813 -0.3125,0.5 -0.89062,0.84375 -0.5625,0.35937 -1.39063,0.5625 -0.82812,0.20312 -1.82812,0.20312 -0.71875,0 -1.34375,-0.125 -0.625,-0.10937 -1.07813,-0.34375 -0.4375,-0.23437 -0.70312,-0.59375 -0.25,-0.35937 -0.25,-0.84375 z m 3.5,-4.95312 q 0.45312,0 0.79687,-0.3125 0.34375,-0.3125 0.34375,-0.92188 0,-0.59375 -0.34375,-0.90625 -0.34375,-0.3125 -0.79687,-0.3125 -0.46875,0 -0.79688,0.3125 -0.3125,0.3125 -0.3125,0.90625 0,0.60938 0.3125,0.92188 0.32813,0.3125 0.79688,0.3125 z m 5.59064,-3.75 h 1.79687 l 0.17188,0.98437 h 0.0625 q 0.46875,-0.48437 1.09375,-0.82812 0.625,-0.34375 1.46875,-0.34375 1.26562,0 1.84375,0.8125 0.57812,0.8125 0.57812,2.21875 v 4.59375 h -2.20312 v -4.3125 q 0,-0.75 -0.23438,-1.09375 -0.23437,-0.34375 -0.85937,-0.34375 -0.45313,0 -0.79688,0.20312 -0.32812,0.1875 -0.71875,0.57813 v 4.96875 h -2.20312 z m 13.59066,10.125 q -1.46875,-1.3125 -2.3125,-3.01563 -0.84375,-1.71875 -0.84375,-3.84375 0,-2.125 0.84375,-3.82812 0.84375,-1.71875 2.3125,-3.03125 l 1.23438,0.98437 q -1.32813,1.29688 -1.9375,2.70313 -0.60938,1.40625 -0.60938,3.17187 0,0.89063 0.14063,1.6875 0.15625,0.78125 0.45312,1.5 0.3125,0.71875 0.79688,1.375 0.48437,0.67188 1.15625,1.3125 z m 4.80939,-0.98438 q 0.67188,-0.64062 1.15625,-1.3125 0.48438,-0.65625 0.78125,-1.375 0.3125,-0.71875 0.45313,-1.5 0.15625,-0.79687 0.15625,-1.6875 0,-1.76562 -0.60938,-3.17187 -0.60937,-1.40625 -1.9375,-2.70313 l 1.23438,-0.98437 q 1.46875,1.3125 2.3125,3.03125 0.84375,1.70312 0.84375,3.82812 0,2.125 -0.84375,3.84375 -0.84375,1.70313 -2.3125,3.01563 z"
       id="path389"
       inkscape:connector-curvature="0"
       style="fill:#000000;fill-rule:nonzero" />
    <path
       d="m 324.4868,187.75209 h 62.04724 v 15.52756 H 324.4868 Z"
       id="path391"
       inkscape:connector-curvature="0"
       style="fill:#000000;fill-opacity:0;fill-rule:evenodd" />
    <path
       d="m 340.29797,194.00337 h 0.82813 l 0.0937,0.82812 h 0.0312 q 0.23437,-0.4375 0.54687,-0.70312 0.32813,-0.28125 0.875,-0.28125 0.96875,0 1.20313,1.09375 0.28125,-0.5 0.60937,-0.79688 0.34375,-0.29687 0.875,-0.29687 0.67188,0 1.03125,0.5 0.35938,0.5 0.35938,1.4375 v 4.53125 h -1.03125 v -4.4375 q 0,-1.10938 -0.6875,-1.10938 -0.34375,0 -0.59375,0.25 -0.23438,0.23438 -0.48438,0.71875 v 4.57813 h -0.85937 v -4.4375 q 0,-1.10938 -0.71875,-1.10938 -0.34375,0 -0.57813,0.25 -0.23437,0.23438 -0.46875,0.71875 v 4.57813 h -1.03125 z m 8.26248,4.67187 q 0,-0.53125 0.25,-0.92187 0.26563,-0.40625 0.8125,-0.6875 0.5625,-0.28125 1.42188,-0.46875 0.875,-0.1875 2.09375,-0.28125 -0.0156,-0.32813 -0.10938,-0.60938 -0.0781,-0.29687 -0.28125,-0.5 -0.1875,-0.21875 -0.51562,-0.34375 -0.3125,-0.14062 -0.76563,-0.14062 -0.625,0 -1.20312,0.25 -0.5625,0.23437 -1.01563,0.5 l -0.40625,-0.71875 q 0.23438,-0.15625 0.54688,-0.3125 0.32812,-0.17188 0.67187,-0.29688 0.35938,-0.14062 0.76563,-0.21875 0.40625,-0.0781 0.82812,-0.0781 1.29688,0 1.92188,0.70312 0.625,0.70313 0.625,1.89063 v 3.875 h -0.85938 l -0.0937,-0.85938 h -0.0469 q -0.53125,0.42188 -1.17188,0.71875 -0.64062,0.29688 -1.3125,0.29688 -0.45312,0 -0.84375,-0.125 -0.39062,-0.125 -0.6875,-0.34375 -0.28125,-0.23438 -0.45312,-0.5625 -0.17188,-0.32813 -0.17188,-0.76563 z m 1.04688,-0.0781 q 0,0.28125 0.10937,0.46875 0.125,0.1875 0.3125,0.3125 0.1875,0.125 0.4375,0.1875 0.26563,0.0469 0.53125,0.0469 0.54688,0 1.0625,-0.23437 0.53125,-0.25 1.07813,-0.70313 v -1.65625 q -1.01563,0.0781 -1.70313,0.21875 -0.67187,0.14063 -1.07812,0.34375 -0.40625,0.20313 -0.57813,0.45313 -0.17187,0.25 -0.17187,0.5625 z m 7.3562,0.1875 q 0.53125,0.39062 1.14062,0.625 0.625,0.23437 1.46875,0.23437 0.85938,0 1.28125,-0.28125 0.42188,-0.29687 0.42188,-0.70312 0,-0.375 -0.45313,-0.65625 -0.45312,-0.28125 -1.60937,-0.57813 -0.48438,-0.10937 -0.92188,-0.28125 -0.4375,-0.17187 -0.76562,-0.39062 -0.32813,-0.23438 -0.53125,-0.5 -0.1875,-0.28125 -0.1875,-0.625 0,-0.375 0.17187,-0.70313 0.17188,-0.32812 0.5,-0.5625 0.32813,-0.25 0.82813,-0.375 0.5,-0.14062 1.15625,-0.14062 0.71875,0 1.39062,0.23437 0.67188,0.23438 1.14063,0.5625 l -0.51563,0.6875 q -0.42187,-0.29687 -0.9375,-0.46875 -0.5,-0.1875 -1.07812,-0.1875 -0.4375,0 -0.75,0.0781 -0.29688,0.0625 -0.48438,0.1875 -0.17187,0.125 -0.25,0.29687 -0.0781,0.17188 -0.0781,0.34375 0,0.39063 0.53125,0.65625 0.53125,0.25 1.39062,0.46875 1.29688,0.32813 1.90625,0.75 0.625,0.40625 0.625,1.125 0,0.39063 -0.1875,0.73438 -0.1875,0.34375 -0.54687,0.60937 -0.34375,0.25 -0.875,0.39063 -0.53125,0.15625 -1.20313,0.15625 -0.9375,0 -1.73437,-0.28125 -0.78125,-0.29688 -1.35938,-0.70313 z m 7.9187,-7.71875 h 1.0625 v 6.26562 h 0.0625 l 3.40625,-3.32812 h 1.21875 l -2.51563,2.5 2.85938,3.8125 h -1.20313 l -2.32812,-3.15625 -1.5,1.4375 v 1.71875 h -1.0625 z"
       id="path393"
       inkscape:connector-curvature="0"
       style="fill:#000000;fill-rule:nonzero" />
    <path
       d="m 240.99184,212.53632 h 21.20042 v 8.40144 h -21.20042 z"
       id="path395"
       inkscape:connector-curvature="0"
       style="fill:#e06666;fill-rule:evenodd" />
    <path
       d="m 240.99184,212.53632 h 21.20042 v 8.40144 h -21.20042 z"
       id="path397"
       inkscape:connector-curvature="0"
       style="fill-rule:evenodd;stroke:#000000;stroke-width:3;stroke-linecap:butt;stroke-linejoin:round" />
    <path
       d="m 262.19226,212.53632 h 21.20041 v 8.40144 h -21.20041 z"
       id="path399"
       inkscape:connector-curvature="0"
       style="fill:#6fa8dc;fill-rule:evenodd" />
    <path
       d="m 262.19226,212.53632 h 21.20041 v 8.40144 h -21.20041 z"
       id="path401"
       inkscape:connector-curvature="0"
       style="fill-rule:evenodd;stroke:#000000;stroke-width:3;stroke-linecap:butt;stroke-linejoin:round" />
    <path
       d="m 283.39267,212.53632 h 21.20044 v 8.40144 h -21.20044 z"
       id="path403"
       inkscape:connector-curvature="0"
       style="fill:#e06666;fill-rule:evenodd" />
    <path
       d="m 283.39267,212.53632 h 21.20044 v 8.40144 h -21.20044 z"
       id="path405"
       inkscape:connector-curvature="0"
       style="fill-rule:evenodd;stroke:#000000;stroke-width:3;stroke-linecap:butt;stroke-linejoin:round" />
    <path
       d="m 304.5931,212.53632 h 21.20041 v 8.40144 H 304.5931 Z"
       id="path407"
       inkscape:connector-curvature="0"
       style="fill:#6fa8dc;fill-rule:evenodd" />
    <path
       d="m 304.5931,212.53632 h 21.20041 v 8.40144 H 304.5931 Z"
       id="path409"
       inkscape:connector-curvature="0"
       style="fill-rule:evenodd;stroke:#000000;stroke-width:3;stroke-linecap:butt;stroke-linejoin:round" />
    <path
       d="m 355.5104,203.27965 25.48032,32.53543"
       id="path411"
       inkscape:connector-curvature="0"
       style="fill:#000000;fill-opacity:0;fill-rule:evenodd" />
    <path
       d="m 355.5104,203.27965 21.78088,27.81166"
       id="path413"
       inkscape:connector-curvature="0"
       style="fill-rule:evenodd;stroke:#595959;stroke-width:1;stroke-linecap:butt;stroke-linejoin:round" />
    <path
       d="m 375.99088,232.10973 4.09848,2.55441 -1.49768,-4.59124 z"
       id="path415"
       inkscape:connector-curvature="0"
       style="fill:#595959;fill-rule:evenodd;stroke:#595959;stroke-width:1;stroke-linecap:butt" />
    <path
       d="m 355.5104,203.27965 -29.73227,13.44882"
       id="path417"
       inkscape:connector-curvature="0"
       style="fill:#000000;fill-opacity:0;fill-rule:evenodd" />
    <path
       d="m 355.5104,203.27965 -24.2655,10.97606"
       id="path419"
       inkscape:connector-curvature="0"
       style="fill-rule:evenodd;stroke:#595959;stroke-width:1;stroke-linecap:butt;stroke-linejoin:round" />
    <path
       d="m 330.56415,212.75076 -3.45404,3.37521 4.81549,-0.36535 z"
       id="path421"
       inkscape:connector-curvature="0"
       style="fill:#595959;fill-rule:evenodd;stroke:#595959;stroke-width:1;stroke-linecap:butt" />
  </g>
  <rect
     id="rect218"
     width="945"
     height="125.45454"
     x="14"
     y="-260" />
  <rect
     id="rect220"
     width="42.954544"
     height="204.54546"
     x="138.0909"
     y="-267.5" />
  <rect
     id="rect222"
     width="945"
     height="125.45453"
     x="14"
     y="-260" />
  <rect
     style="fill:none"
     id="rect4699"
     width="945"
     height="125.45453"
     x="14"
     y="-260" />
</svg>
