<?xml version="1.0" encoding="UTF-8" standalone="no"?>
<!DOCTYPE svg PUBLIC "-//W3C//DTD SVG 1.1//EN"
 "http://www.w3.org/Graphics/SVG/1.1/DTD/svg11.dtd">
<!-- Generated by graphviz version 2.47.1 (20210417.1919)
 -->
<!-- Title: VecCore/Backend/Implementation.h Pages: 1 -->
<svg width="294pt" height="140pt"
 viewBox="0.00 0.00 293.50 140.00" xmlns="http://www.w3.org/2000/svg" xmlns:xlink="http://www.w3.org/1999/xlink">
<g id="graph0" class="graph" transform="scale(1 1) rotate(0) translate(4 136)">
<title>VecCore/Backend/Implementation.h</title>
<polygon fill="white" stroke="transparent" points="-4,4 -4,-136 289.5,-136 289.5,4 -4,4"/>
<!-- Node1 -->
<g id="node1" class="node">
<title>Node1</title>
<g id="a_node1"><a xlink:title=" ">
<polygon fill="#bfbfbf" stroke="black" points="52.5,-112.5 52.5,-131.5 226.5,-131.5 226.5,-112.5 52.5,-112.5"/>
<text text-anchor="middle" x="139.5" y="-119.5" font-family="Helvetica,sans-Serif" font-size="10.00">VecCore/Backend/Implementation.h</text>
</a>
</g>
</g>
<!-- Node2 -->
<g id="node2" class="node">
<title>Node2</title>
<g id="a_node2"><a xlink:href="Interface_8h.html" target="_top" xlink:title=" ">
<polygon fill="white" stroke="black" points="0,-0.5 0,-19.5 63,-19.5 63,-0.5 0,-0.5"/>
<text text-anchor="middle" x="31.5" y="-7.5" font-family="Helvetica,sans-Serif" font-size="10.00">Interface.h</text>
</a>
</g>
</g>
<!-- Node1&#45;&gt;Node2 -->
<g id="edge1" class="edge">
<title>Node1&#45;&gt;Node2</title>
<path fill="none" stroke="midnightblue" d="M117.54,-112.43C100.69,-104.94 77.8,-92.64 62.5,-76 50.09,-62.51 41.73,-43.15 36.85,-29.07"/>
<polygon fill="midnightblue" stroke="midnightblue" points="40.17,-27.97 33.78,-19.51 33.5,-30.11 40.17,-27.97"/>
</g>
<!-- Node3 -->
<g id="node3" class="node">
<title>Node3</title>
<g id="a_node3"><a xlink:href="Limits_8h.html" target="_top" xlink:title=" ">
<polygon fill="white" stroke="black" points="71.5,-56.5 71.5,-75.5 131.5,-75.5 131.5,-56.5 71.5,-56.5"/>
<text text-anchor="middle" x="101.5" y="-63.5" font-family="Helvetica,sans-Serif" font-size="10.00">../Limits.h</text>
</a>
</g>
</g>
<!-- Node1&#45;&gt;Node3 -->
<g id="edge2" class="edge">
<title>Node1&#45;&gt;Node3</title>
<path fill="none" stroke="midnightblue" d="M133.23,-112.08C127.86,-104.46 119.98,-93.26 113.42,-83.94"/>
<polygon fill="midnightblue" stroke="midnightblue" points="116.28,-81.91 107.66,-75.75 110.55,-85.94 116.28,-81.91"/>
</g>
<!-- Node7 -->
<g id="node7" class="node">
<title>Node7</title>
<g id="a_node7"><a xlink:title=" ">
<polygon fill="white" stroke="#bfbfbf" points="149.5,-56.5 149.5,-75.5 205.5,-75.5 205.5,-56.5 149.5,-56.5"/>
<text text-anchor="middle" x="177.5" y="-63.5" font-family="Helvetica,sans-Serif" font-size="10.00">algorithm</text>
</a>
</g>
</g>
<!-- Node1&#45;&gt;Node7 -->
<g id="edge7" class="edge">
<title>Node1&#45;&gt;Node7</title>
<path fill="none" stroke="midnightblue" d="M145.77,-112.08C151.14,-104.46 159.02,-93.26 165.58,-83.94"/>
<polygon fill="midnightblue" stroke="midnightblue" points="168.45,-85.94 171.34,-75.75 162.72,-81.91 168.45,-85.94"/>
</g>
<!-- Node8 -->
<g id="node8" class="node">
<title>Node8</title>
<g id="a_node8"><a xlink:title=" ">
<polygon fill="white" stroke="#bfbfbf" points="223.5,-56.5 223.5,-75.5 285.5,-75.5 285.5,-56.5 223.5,-56.5"/>
<text text-anchor="middle" x="254.5" y="-63.5" font-family="Helvetica,sans-Serif" font-size="10.00">type_traits</text>
</a>
</g>
</g>
<!-- Node1&#45;&gt;Node8 -->
<g id="edge8" class="edge">
<title>Node1&#45;&gt;Node8</title>
<path fill="none" stroke="midnightblue" d="M157.72,-112.44C176.4,-103.68 205.66,-89.94 227.12,-79.86"/>
<polygon fill="midnightblue" stroke="midnightblue" points="228.8,-82.93 236.36,-75.52 225.82,-76.6 228.8,-82.93"/>
</g>
<!-- Node3&#45;&gt;Node2 -->
<g id="edge3" class="edge">
<title>Node3&#45;&gt;Node2</title>
<path fill="none" stroke="midnightblue" d="M90.25,-56.32C79.7,-48.18 63.7,-35.84 51.06,-26.09"/>
<polygon fill="midnightblue" stroke="midnightblue" points="53.01,-23.17 42.95,-19.83 48.73,-28.71 53.01,-23.17"/>
</g>
<!-- Node4 -->
<g id="node4" class="node">
<title>Node4</title>
<g id="a_node4"><a xlink:title=" ">
<polygon fill="white" stroke="#bfbfbf" points="81,-0.5 81,-19.5 122,-19.5 122,-0.5 81,-0.5"/>
<text text-anchor="middle" x="101.5" y="-7.5" font-family="Helvetica,sans-Serif" font-size="10.00">cfloat</text>
</a>
</g>
</g>
<!-- Node3&#45;&gt;Node4 -->
<g id="edge4" class="edge">
<title>Node3&#45;&gt;Node4</title>
<path fill="none" stroke="midnightblue" d="M101.5,-56.08C101.5,-49.01 101.5,-38.86 101.5,-29.99"/>
<polygon fill="midnightblue" stroke="midnightblue" points="105,-29.75 101.5,-19.75 98,-29.75 105,-29.75"/>
</g>
<!-- Node5 -->
<g id="node5" class="node">
<title>Node5</title>
<g id="a_node5"><a xlink:title=" ">
<polygon fill="white" stroke="#bfbfbf" points="140,-0.5 140,-19.5 185,-19.5 185,-0.5 140,-0.5"/>
<text text-anchor="middle" x="162.5" y="-7.5" font-family="Helvetica,sans-Serif" font-size="10.00">climits</text>
</a>
</g>
</g>
<!-- Node3&#45;&gt;Node5 -->
<g id="edge5" class="edge">
<title>Node3&#45;&gt;Node5</title>
<path fill="none" stroke="midnightblue" d="M111.3,-56.32C120.32,-48.34 133.91,-36.31 144.82,-26.65"/>
<polygon fill="midnightblue" stroke="midnightblue" points="147.35,-29.08 152.52,-19.83 142.71,-23.84 147.35,-29.08"/>
</g>
<!-- Node6 -->
<g id="node6" class="node">
<title>Node6</title>
<g id="a_node6"><a xlink:title=" ">
<polygon fill="white" stroke="#bfbfbf" points="203.5,-0.5 203.5,-19.5 247.5,-19.5 247.5,-0.5 203.5,-0.5"/>
<text text-anchor="middle" x="225.5" y="-7.5" font-family="Helvetica,sans-Serif" font-size="10.00">cmath</text>
</a>
</g>
</g>
<!-- Node3&#45;&gt;Node6 -->
<g id="edge6" class="edge">
<title>Node3&#45;&gt;Node6</title>
<path fill="none" stroke="midnightblue" d="M121.15,-56.44C141.46,-47.6 173.4,-33.69 196.6,-23.59"/>
<polygon fill="midnightblue" stroke="midnightblue" points="198.17,-26.72 205.94,-19.52 195.38,-20.3 198.17,-26.72"/>
</g>
</g>
</svg>
