<?xml version="1.0" encoding="UTF-8" standalone="no"?>
<!DOCTYPE svg PUBLIC "-//W3C//DTD SVG 1.1//EN"
 "http://www.w3.org/Graphics/SVG/1.1/DTD/svg11.dtd">
<!-- Generated by graphviz version 2.47.1 (20210417.1919)
 -->
<!-- Title: vecCore::AssignLane Pages: 1 -->
<svg width="761pt" height="39pt"
 viewBox="0.00 0.00 761.00 39.00" xmlns="http://www.w3.org/2000/svg" xmlns:xlink="http://www.w3.org/1999/xlink">
<g id="graph0" class="graph" transform="scale(1 1) rotate(0) translate(4 35)">
<title>vecCore::AssignLane</title>
<polygon fill="white" stroke="transparent" points="-4,4 -4,-35 757,-35 757,4 -4,4"/>
<!-- Node1 -->
<g id="node1" class="node">
<title>Node1</title>
<g id="a_node1"><a xlink:title=" ">
<polygon fill="#bfbfbf" stroke="black" points="0,-6 0,-25 110,-25 110,-6 0,-6"/>
<text text-anchor="middle" x="55" y="-13" font-family="Helvetica,sans-Serif" font-size="10.00">vecCore::AssignLane</text>
</a>
</g>
</g>
<!-- Node2 -->
<g id="node2" class="node">
<title>Node2</title>
<g id="a_node2"><a xlink:href="namespacevecCore.html#a211f237ccf30b72af40548291b739272" target="_top" xlink:title=" ">
<polygon fill="white" stroke="black" points="146,-6 146,-25 220,-25 220,-6 146,-6"/>
<text text-anchor="middle" x="183" y="-13" font-family="Helvetica,sans-Serif" font-size="10.00">vecCore::Set</text>
</a>
</g>
</g>
<!-- Node1&#45;&gt;Node2 -->
<g id="edge1" class="edge">
<title>Node1&#45;&gt;Node2</title>
<path fill="none" stroke="midnightblue" d="M110.17,-15.5C118.61,-15.5 127.27,-15.5 135.52,-15.5"/>
<polygon fill="midnightblue" stroke="midnightblue" points="135.7,-19 145.7,-15.5 135.7,-12 135.7,-19"/>
</g>
<!-- Node3 -->
<g id="node3" class="node">
<title>Node3</title>
<g id="a_node3"><a xlink:href="structvecCore_1_1IndexingImplementation.html#a04d0ce397356d802d033e242a9b86bc7" target="_top" xlink:title=" ">
<polygon fill="white" stroke="black" points="256,-6 256,-25 440,-25 440,-6 256,-6"/>
<text text-anchor="middle" x="348" y="-13" font-family="Helvetica,sans-Serif" font-size="10.00">vecCore::IndexingImplementation::Set</text>
</a>
</g>
</g>
<!-- Node2&#45;&gt;Node3 -->
<g id="edge2" class="edge">
<title>Node2&#45;&gt;Node3</title>
<path fill="none" stroke="midnightblue" d="M220.17,-15.5C228.01,-15.5 236.67,-15.5 245.67,-15.5"/>
<polygon fill="midnightblue" stroke="midnightblue" points="245.95,-19 255.95,-15.5 245.95,-12 245.95,-19"/>
</g>
<!-- Node4 -->
<g id="node4" class="node">
<title>Node4</title>
<g id="a_node4"><a xlink:href="namespacevecCore.html#a744ecfff38071bf6a45e7a17cede5b0a" target="_top" xlink:title=" ">
<polygon fill="white" stroke="black" points="476,-6 476,-25 560,-25 560,-6 476,-6"/>
<text text-anchor="middle" x="518" y="-13" font-family="Helvetica,sans-Serif" font-size="10.00">vecCore::Begin</text>
</a>
</g>
</g>
<!-- Node3&#45;&gt;Node4 -->
<g id="edge3" class="edge">
<title>Node3&#45;&gt;Node4</title>
<path fill="none" stroke="midnightblue" d="M440.37,-15.5C448.94,-15.5 457.39,-15.5 465.39,-15.5"/>
<polygon fill="midnightblue" stroke="midnightblue" points="465.61,-19 475.61,-15.5 465.61,-12 465.61,-19"/>
</g>
<!-- Node5 -->
<g id="node5" class="node">
<title>Node5</title>
<g id="a_node5"><a xlink:href="structvecCore_1_1IteratorImplementation.html#a72e48906a04cbcb83fe7bac49836ed43" target="_top" xlink:title=" ">
<polygon fill="white" stroke="black" points="596,-0.5 596,-30.5 753,-30.5 753,-0.5 596,-0.5"/>
<text text-anchor="start" x="604" y="-18.5" font-family="Helvetica,sans-Serif" font-size="10.00">vecCore::IteratorImplementation</text>
<text text-anchor="middle" x="674.5" y="-7.5" font-family="Helvetica,sans-Serif" font-size="10.00">::Begin</text>
</a>
</g>
</g>
<!-- Node4&#45;&gt;Node5 -->
<g id="edge4" class="edge">
<title>Node4&#45;&gt;Node5</title>
<path fill="none" stroke="midnightblue" d="M560.4,-15.5C568.39,-15.5 577.04,-15.5 585.87,-15.5"/>
<polygon fill="midnightblue" stroke="midnightblue" points="585.89,-19 595.89,-15.5 585.89,-12 585.89,-19"/>
</g>
</g>
</svg>
