<?xml version="1.0" encoding="UTF-8" standalone="no"?>
<!DOCTYPE svg PUBLIC "-//W3C//DTD SVG 1.1//EN"
 "http://www.w3.org/Graphics/SVG/1.1/DTD/svg11.dtd">
<!-- Generated by graphviz version 2.47.1 (20210417.1919)
 -->
<!-- Title: VecCore/Backend/Scalar.h Pages: 1 -->
<svg width="307pt" height="196pt"
 viewBox="0.00 0.00 307.00 196.00" xmlns="http://www.w3.org/2000/svg" xmlns:xlink="http://www.w3.org/1999/xlink">
<g id="graph0" class="graph" transform="scale(1 1) rotate(0) translate(4 192)">
<title>VecCore/Backend/Scalar.h</title>
<polygon fill="white" stroke="transparent" points="-4,4 -4,-192 303,-192 303,4 -4,4"/>
<!-- Node1 -->
<g id="node1" class="node">
<title>Node1</title>
<g id="a_node1"><a xlink:title=" ">
<polygon fill="#bfbfbf" stroke="black" points="0,-168.5 0,-187.5 134,-187.5 134,-168.5 0,-168.5"/>
<text text-anchor="middle" x="67" y="-175.5" font-family="Helvetica,sans-Serif" font-size="10.00">VecCore/Backend/Scalar.h</text>
</a>
</g>
</g>
<!-- Node2 -->
<g id="node2" class="node">
<title>Node2</title>
<g id="a_node2"><a xlink:href="Interface_8h.html" target="_top" xlink:title=" ">
<polygon fill="white" stroke="black" points="0.5,-0.5 0.5,-19.5 63.5,-19.5 63.5,-0.5 0.5,-0.5"/>
<text text-anchor="middle" x="32" y="-7.5" font-family="Helvetica,sans-Serif" font-size="10.00">Interface.h</text>
</a>
</g>
</g>
<!-- Node1&#45;&gt;Node2 -->
<g id="edge1" class="edge">
<title>Node1&#45;&gt;Node2</title>
<path fill="none" stroke="midnightblue" d="M65.12,-168.08C59.61,-141.95 43.43,-65.21 35.92,-29.58"/>
<polygon fill="midnightblue" stroke="midnightblue" points="39.29,-28.63 33.81,-19.57 32.44,-30.08 39.29,-28.63"/>
</g>
<!-- Node3 -->
<g id="node3" class="node">
<title>Node3</title>
<g id="a_node3"><a xlink:href="Implementation_8h.html" target="_top" xlink:title=" ">
<polygon fill="white" stroke="black" points="69,-112.5 69,-131.5 161,-131.5 161,-112.5 69,-112.5"/>
<text text-anchor="middle" x="115" y="-119.5" font-family="Helvetica,sans-Serif" font-size="10.00">Implementation.h</text>
</a>
</g>
</g>
<!-- Node1&#45;&gt;Node3 -->
<g id="edge2" class="edge">
<title>Node1&#45;&gt;Node3</title>
<path fill="none" stroke="midnightblue" d="M74.93,-168.08C81.85,-160.3 92.07,-148.8 100.45,-139.37"/>
<polygon fill="midnightblue" stroke="midnightblue" points="103.19,-141.55 107.22,-131.75 97.96,-136.9 103.19,-141.55"/>
</g>
<!-- Node3&#45;&gt;Node2 -->
<g id="edge3" class="edge">
<title>Node3&#45;&gt;Node2</title>
<path fill="none" stroke="midnightblue" d="M106.91,-112.3C98.79,-103.42 86.07,-89.12 76,-76 63.98,-60.34 51.48,-41.59 42.89,-28.27"/>
<polygon fill="midnightblue" stroke="midnightblue" points="45.71,-26.19 37.38,-19.64 39.81,-29.95 45.71,-26.19"/>
</g>
<!-- Node4 -->
<g id="node4" class="node">
<title>Node4</title>
<g id="a_node4"><a xlink:href="Limits_8h.html" target="_top" xlink:title=" ">
<polygon fill="white" stroke="black" points="85,-56.5 85,-75.5 145,-75.5 145,-56.5 85,-56.5"/>
<text text-anchor="middle" x="115" y="-63.5" font-family="Helvetica,sans-Serif" font-size="10.00">../Limits.h</text>
</a>
</g>
</g>
<!-- Node3&#45;&gt;Node4 -->
<g id="edge4" class="edge">
<title>Node3&#45;&gt;Node4</title>
<path fill="none" stroke="midnightblue" d="M115,-112.08C115,-105.01 115,-94.86 115,-85.99"/>
<polygon fill="midnightblue" stroke="midnightblue" points="118.5,-85.75 115,-75.75 111.5,-85.75 118.5,-85.75"/>
</g>
<!-- Node8 -->
<g id="node8" class="node">
<title>Node8</title>
<g id="a_node8"><a xlink:title=" ">
<polygon fill="white" stroke="#bfbfbf" points="163,-56.5 163,-75.5 219,-75.5 219,-56.5 163,-56.5"/>
<text text-anchor="middle" x="191" y="-63.5" font-family="Helvetica,sans-Serif" font-size="10.00">algorithm</text>
</a>
</g>
</g>
<!-- Node3&#45;&gt;Node8 -->
<g id="edge9" class="edge">
<title>Node3&#45;&gt;Node8</title>
<path fill="none" stroke="midnightblue" d="M127.21,-112.32C138.78,-104.11 156.38,-91.6 170.16,-81.81"/>
<polygon fill="midnightblue" stroke="midnightblue" points="172.44,-84.48 178.57,-75.83 168.39,-78.77 172.44,-84.48"/>
</g>
<!-- Node9 -->
<g id="node9" class="node">
<title>Node9</title>
<g id="a_node9"><a xlink:title=" ">
<polygon fill="white" stroke="#bfbfbf" points="237,-56.5 237,-75.5 299,-75.5 299,-56.5 237,-56.5"/>
<text text-anchor="middle" x="268" y="-63.5" font-family="Helvetica,sans-Serif" font-size="10.00">type_traits</text>
</a>
</g>
</g>
<!-- Node3&#45;&gt;Node9 -->
<g id="edge10" class="edge">
<title>Node3&#45;&gt;Node9</title>
<path fill="none" stroke="midnightblue" d="M139.24,-112.44C164.87,-103.4 205.49,-89.06 234.24,-78.92"/>
<polygon fill="midnightblue" stroke="midnightblue" points="235.61,-82.15 243.87,-75.52 233.28,-75.54 235.61,-82.15"/>
</g>
<!-- Node4&#45;&gt;Node2 -->
<g id="edge5" class="edge">
<title>Node4&#45;&gt;Node2</title>
<path fill="none" stroke="midnightblue" d="M101.66,-56.32C88.84,-47.98 69.22,-35.21 54.06,-25.35"/>
<polygon fill="midnightblue" stroke="midnightblue" points="55.59,-22.17 45.3,-19.65 51.78,-28.04 55.59,-22.17"/>
</g>
<!-- Node5 -->
<g id="node5" class="node">
<title>Node5</title>
<g id="a_node5"><a xlink:title=" ">
<polygon fill="white" stroke="#bfbfbf" points="81.5,-0.5 81.5,-19.5 122.5,-19.5 122.5,-0.5 81.5,-0.5"/>
<text text-anchor="middle" x="102" y="-7.5" font-family="Helvetica,sans-Serif" font-size="10.00">cfloat</text>
</a>
</g>
</g>
<!-- Node4&#45;&gt;Node5 -->
<g id="edge6" class="edge">
<title>Node4&#45;&gt;Node5</title>
<path fill="none" stroke="midnightblue" d="M112.85,-56.08C111.13,-48.93 108.65,-38.64 106.5,-29.69"/>
<polygon fill="midnightblue" stroke="midnightblue" points="109.85,-28.65 104.11,-19.75 103.04,-30.29 109.85,-28.65"/>
</g>
<!-- Node6 -->
<g id="node6" class="node">
<title>Node6</title>
<g id="a_node6"><a xlink:title=" ">
<polygon fill="white" stroke="#bfbfbf" points="140.5,-0.5 140.5,-19.5 185.5,-19.5 185.5,-0.5 140.5,-0.5"/>
<text text-anchor="middle" x="163" y="-7.5" font-family="Helvetica,sans-Serif" font-size="10.00">climits</text>
</a>
</g>
</g>
<!-- Node4&#45;&gt;Node6 -->
<g id="edge7" class="edge">
<title>Node4&#45;&gt;Node6</title>
<path fill="none" stroke="midnightblue" d="M122.93,-56.08C129.85,-48.3 140.07,-36.8 148.45,-27.37"/>
<polygon fill="midnightblue" stroke="midnightblue" points="151.19,-29.55 155.22,-19.75 145.96,-24.9 151.19,-29.55"/>
</g>
<!-- Node7 -->
<g id="node7" class="node">
<title>Node7</title>
<g id="a_node7"><a xlink:title=" ">
<polygon fill="white" stroke="#bfbfbf" points="204,-0.5 204,-19.5 248,-19.5 248,-0.5 204,-0.5"/>
<text text-anchor="middle" x="226" y="-7.5" font-family="Helvetica,sans-Serif" font-size="10.00">cmath</text>
</a>
</g>
</g>
<!-- Node4&#45;&gt;Node7 -->
<g id="edge8" class="edge">
<title>Node4&#45;&gt;Node7</title>
<path fill="none" stroke="midnightblue" d="M132.83,-56.32C150.72,-47.62 178.48,-34.12 199.05,-24.11"/>
<polygon fill="midnightblue" stroke="midnightblue" points="200.75,-27.18 208.21,-19.65 197.69,-20.88 200.75,-27.18"/>
</g>
</g>
</svg>
