<?xml version="1.0" encoding="UTF-8" standalone="no"?>
<!DOCTYPE svg PUBLIC "-//W3C//DTD SVG 1.1//EN"
 "http://www.w3.org/Graphics/SVG/1.1/DTD/svg11.dtd">
<!-- Generated by graphviz version 2.47.1 (20210417.1919)
 -->
<!-- Title: vecCore::IndexingImplementation::Set Pages: 1 -->
<svg width="535pt" height="302pt"
 viewBox="0.00 0.00 535.00 302.00" xmlns="http://www.w3.org/2000/svg" xmlns:xlink="http://www.w3.org/1999/xlink">
<g id="graph0" class="graph" transform="scale(1 1) rotate(0) translate(4 298)">
<title>vecCore::IndexingImplementation::Set</title>
<polygon fill="white" stroke="transparent" points="-4,4 -4,-298 531,-298 531,4 -4,4"/>
<!-- Node1 -->
<g id="node1" class="node">
<title>Node1</title>
<g id="a_node1"><a xlink:title=" ">
<polygon fill="#bfbfbf" stroke="black" points="343,-143 343,-162 527,-162 527,-143 343,-143"/>
<text text-anchor="middle" x="435" y="-150" font-family="Helvetica,sans-Serif" font-size="10.00">vecCore::IndexingImplementation::Set</text>
</a>
</g>
</g>
<!-- Node2 -->
<g id="node2" class="node">
<title>Node2</title>
<g id="a_node2"><a xlink:href="namespacevecCore.html#a211f237ccf30b72af40548291b739272" target="_top" xlink:title=" ">
<polygon fill="white" stroke="black" points="233,-143 233,-162 307,-162 307,-143 233,-143"/>
<text text-anchor="middle" x="270" y="-150" font-family="Helvetica,sans-Serif" font-size="10.00">vecCore::Set</text>
</a>
</g>
</g>
<!-- Node1&#45;&gt;Node2 -->
<g id="edge1" class="edge">
<title>Node1&#45;&gt;Node2</title>
<path fill="none" stroke="midnightblue" d="M332.95,-152.5C323.82,-152.5 315.03,-152.5 307.09,-152.5"/>
<polygon fill="midnightblue" stroke="midnightblue" points="332.97,-156 342.97,-152.5 332.97,-149 332.97,-156"/>
</g>
<!-- Node3 -->
<g id="node3" class="node">
<title>Node3</title>
<g id="a_node3"><a xlink:href="structvecCore_1_1GenericMaskingImplementation.html#a844c93572de9dd1576452a054aea46b3" target="_top" xlink:title=" ">
<polygon fill="white" stroke="black" points="0,-263.5 0,-293.5 197,-293.5 197,-263.5 0,-263.5"/>
<text text-anchor="start" x="8" y="-281.5" font-family="Helvetica,sans-Serif" font-size="10.00">vecCore::GenericMaskingImplementation</text>
<text text-anchor="middle" x="98.5" y="-270.5" font-family="Helvetica,sans-Serif" font-size="10.00">::Assign</text>
</a>
</g>
</g>
<!-- Node2&#45;&gt;Node3 -->
<g id="edge2" class="edge">
<title>Node2&#45;&gt;Node3</title>
<path fill="none" stroke="midnightblue" d="M260.62,-171.38C249.44,-194.33 227.47,-232.6 197,-253.5 191.38,-257.36 185.21,-260.62 178.79,-263.37"/>
<polygon fill="midnightblue" stroke="midnightblue" points="263.8,-172.84 264.86,-162.3 257.46,-169.87 263.8,-172.84"/>
</g>
<!-- Node4 -->
<g id="node4" class="node">
<title>Node4</title>
<g id="a_node4"><a xlink:href="namespacevecCore.html#a1f2a79b75b5b3decff8b5afdb08e8af8" target="_top" xlink:title=" ">
<polygon fill="white" stroke="black" points="43.5,-225 43.5,-244 153.5,-244 153.5,-225 43.5,-225"/>
<text text-anchor="middle" x="98.5" y="-232" font-family="Helvetica,sans-Serif" font-size="10.00">vecCore::AssignLane</text>
</a>
</g>
</g>
<!-- Node2&#45;&gt;Node4 -->
<g id="edge3" class="edge">
<title>Node2&#45;&gt;Node4</title>
<path fill="none" stroke="midnightblue" d="M253.82,-170.18C240.38,-184.67 219.44,-204.5 197,-215.5 183.6,-222.06 168.13,-226.36 153.51,-229.17"/>
<polygon fill="midnightblue" stroke="midnightblue" points="256.75,-172.16 260.83,-162.38 251.54,-167.48 256.75,-172.16"/>
</g>
<!-- Node5 -->
<g id="node5" class="node">
<title>Node5</title>
<g id="a_node5"><a xlink:href="namespacevecCore.html#a164486a9bb5308400ead845fa48177c9" target="_top" xlink:title=" ">
<polygon fill="white" stroke="black" points="31.5,-187 31.5,-206 165.5,-206 165.5,-187 31.5,-187"/>
<text text-anchor="middle" x="98.5" y="-194" font-family="Helvetica,sans-Serif" font-size="10.00">vecCore::AssignMaskLane</text>
</a>
</g>
</g>
<!-- Node2&#45;&gt;Node5 -->
<g id="edge4" class="edge">
<title>Node2&#45;&gt;Node5</title>
<path fill="none" stroke="midnightblue" d="M234.76,-165.5C222.91,-169.7 209.48,-174.14 197,-177.5 183.68,-181.09 169.16,-184.29 155.5,-187"/>
<polygon fill="midnightblue" stroke="midnightblue" points="236.07,-168.75 244.28,-162.06 233.69,-162.17 236.07,-168.75"/>
</g>
<!-- Node6 -->
<g id="node6" class="node">
<title>Node6</title>
<g id="a_node6"><a xlink:href="structvecCore_1_1GenericMaskingImplementation.html#ad71b7c26a7165080d62f5d590b0f4d73" target="_top" xlink:title=" ">
<polygon fill="white" stroke="black" points="0,-137.5 0,-167.5 197,-167.5 197,-137.5 0,-137.5"/>
<text text-anchor="start" x="8" y="-155.5" font-family="Helvetica,sans-Serif" font-size="10.00">vecCore::GenericMaskingImplementation</text>
<text text-anchor="middle" x="98.5" y="-144.5" font-family="Helvetica,sans-Serif" font-size="10.00">::Blend</text>
</a>
</g>
</g>
<!-- Node2&#45;&gt;Node6 -->
<g id="edge5" class="edge">
<title>Node2&#45;&gt;Node6</title>
<path fill="none" stroke="midnightblue" d="M222.46,-152.5C214.44,-152.5 205.84,-152.5 197.05,-152.5"/>
<polygon fill="midnightblue" stroke="midnightblue" points="222.64,-156 232.64,-152.5 222.64,-149 222.64,-156"/>
</g>
<!-- Node7 -->
<g id="node7" class="node">
<title>Node7</title>
<g id="a_node7"><a xlink:href="namespacevecCore.html#a98d52c47c802cf3d9d7f5f177b39f062" target="_top" xlink:title=" ">
<polygon fill="white" stroke="black" points="51.5,-99 51.5,-118 145.5,-118 145.5,-99 51.5,-99"/>
<text text-anchor="middle" x="98.5" y="-106" font-family="Helvetica,sans-Serif" font-size="10.00">vecCore::Convert</text>
</a>
</g>
</g>
<!-- Node2&#45;&gt;Node7 -->
<g id="edge6" class="edge">
<title>Node2&#45;&gt;Node7</title>
<path fill="none" stroke="midnightblue" d="M233.21,-139.63C221.73,-135.76 208.91,-131.69 197,-128.5 180.48,-124.07 162.15,-120.07 145.89,-116.84"/>
<polygon fill="midnightblue" stroke="midnightblue" points="232.3,-143.02 242.9,-142.96 234.58,-136.4 232.3,-143.02"/>
</g>
<!-- Node8 -->
<g id="node8" class="node">
<title>Node8</title>
<g id="a_node8"><a xlink:href="structvecCore_1_1GatherScatterImplementation.html#a76603f42775f63b3c9fa979bfbb79663" target="_top" xlink:title=" ">
<polygon fill="white" stroke="black" points="5,-49.5 5,-79.5 192,-79.5 192,-49.5 5,-49.5"/>
<text text-anchor="start" x="13" y="-67.5" font-family="Helvetica,sans-Serif" font-size="10.00">vecCore::GatherScatterImplementation</text>
<text text-anchor="middle" x="98.5" y="-56.5" font-family="Helvetica,sans-Serif" font-size="10.00">::Gather</text>
</a>
</g>
</g>
<!-- Node2&#45;&gt;Node8 -->
<g id="edge7" class="edge">
<title>Node2&#45;&gt;Node8</title>
<path fill="none" stroke="midnightblue" d="M253.65,-135.15C240.1,-120.87 219.11,-101.15 197,-89.5 189.66,-85.63 181.68,-82.34 173.56,-79.54"/>
<polygon fill="midnightblue" stroke="midnightblue" points="251.37,-137.84 260.72,-142.82 256.52,-133.1 251.37,-137.84"/>
</g>
<!-- Node9 -->
<g id="node9" class="node">
<title>Node9</title>
<g id="a_node9"><a xlink:href="structvecCore_1_1LoadStoreImplementation.html#ab0899849de37f38f65884b2c83b01f44" target="_top" xlink:title=" ">
<polygon fill="white" stroke="black" points="13.5,-0.5 13.5,-30.5 183.5,-30.5 183.5,-0.5 13.5,-0.5"/>
<text text-anchor="start" x="21.5" y="-18.5" font-family="Helvetica,sans-Serif" font-size="10.00">vecCore::LoadStoreImplementation</text>
<text text-anchor="middle" x="98.5" y="-7.5" font-family="Helvetica,sans-Serif" font-size="10.00">::Load</text>
</a>
</g>
</g>
<!-- Node2&#45;&gt;Node9 -->
<g id="edge8" class="edge">
<title>Node2&#45;&gt;Node9</title>
<path fill="none" stroke="midnightblue" d="M261.94,-133.45C251.62,-108.26 229.96,-64.29 197,-40.5 191.62,-36.61 185.68,-33.33 179.48,-30.56"/>
<polygon fill="midnightblue" stroke="midnightblue" points="258.77,-134.94 265.67,-142.98 265.29,-132.39 258.77,-134.94"/>
</g>
</g>
</svg>
