<?xml version="1.0" encoding="UTF-8" standalone="no"?>
<!DOCTYPE svg PUBLIC "-//W3C//DTD SVG 1.1//EN"
 "http://www.w3.org/Graphics/SVG/1.1/DTD/svg11.dtd">
<!-- Generated by graphviz version 2.44.1 (20200629.0846)
 -->
<!-- Title: vecCore::AssignMaskLane Pages: 1 -->
<svg width="785pt" height="39pt"
 viewBox="0.00 0.00 785.00 39.00" xmlns="http://www.w3.org/2000/svg" xmlns:xlink="http://www.w3.org/1999/xlink">
<g id="graph0" class="graph" transform="scale(1 1) rotate(0) translate(4 35)">
<title>vecCore::AssignMaskLane</title>
<polygon fill="white" stroke="transparent" points="-4,4 -4,-35 781,-35 781,4 -4,4"/>
<!-- Node1 -->
<g id="node1" class="node">
<title>Node1</title>
<g id="a_node1"><a xlink:title=" ">
<polygon fill="#bfbfbf" stroke="black" points="0,-6 0,-25 134,-25 134,-6 0,-6"/>
<text text-anchor="middle" x="67" y="-13" font-family="Helvetica,sans-Serif" font-size="10.00">vecCore::AssignMaskLane</text>
</a>
</g>
</g>
<!-- Node2 -->
<g id="node2" class="node">
<title>Node2</title>
<g id="a_node2"><a xlink:href="namespacevecCore.html#a211f237ccf30b72af40548291b739272" target="_top" xlink:title=" ">
<polygon fill="white" stroke="black" points="170,-6 170,-25 244,-25 244,-6 170,-6"/>
<text text-anchor="middle" x="207" y="-13" font-family="Helvetica,sans-Serif" font-size="10.00">vecCore::Set</text>
</a>
</g>
</g>
<!-- Node1&#45;&gt;Node2 -->
<g id="edge1" class="edge">
<title>Node1&#45;&gt;Node2</title>
<path fill="none" stroke="midnightblue" d="M134.17,-15.5C142.83,-15.5 151.55,-15.5 159.78,-15.5"/>
<polygon fill="midnightblue" stroke="midnightblue" points="159.9,-19 169.9,-15.5 159.9,-12 159.9,-19"/>
</g>
<!-- Node3 -->
<g id="node3" class="node">
<title>Node3</title>
<g id="a_node3"><a xlink:href="structvecCore_1_1IndexingImplementation.html#a04d0ce397356d802d033e242a9b86bc7" target="_top" xlink:title=" ">
<polygon fill="white" stroke="black" points="280,-6 280,-25 464,-25 464,-6 280,-6"/>
<text text-anchor="middle" x="372" y="-13" font-family="Helvetica,sans-Serif" font-size="10.00">vecCore::IndexingImplementation::Set</text>
</a>
</g>
</g>
<!-- Node2&#45;&gt;Node3 -->
<g id="edge2" class="edge">
<title>Node2&#45;&gt;Node3</title>
<path fill="none" stroke="midnightblue" d="M244.17,-15.5C252.01,-15.5 260.67,-15.5 269.67,-15.5"/>
<polygon fill="midnightblue" stroke="midnightblue" points="269.95,-19 279.95,-15.5 269.95,-12 269.95,-19"/>
</g>
<!-- Node4 -->
<g id="node4" class="node">
<title>Node4</title>
<g id="a_node4"><a xlink:href="namespacevecCore.html#a744ecfff38071bf6a45e7a17cede5b0a" target="_top" xlink:title=" ">
<polygon fill="white" stroke="black" points="500,-6 500,-25 584,-25 584,-6 500,-6"/>
<text text-anchor="middle" x="542" y="-13" font-family="Helvetica,sans-Serif" font-size="10.00">vecCore::Begin</text>
</a>
</g>
</g>
<!-- Node3&#45;&gt;Node4 -->
<g id="edge3" class="edge">
<title>Node3&#45;&gt;Node4</title>
<path fill="none" stroke="midnightblue" d="M464.37,-15.5C472.94,-15.5 481.39,-15.5 489.39,-15.5"/>
<polygon fill="midnightblue" stroke="midnightblue" points="489.61,-19 499.61,-15.5 489.61,-12 489.61,-19"/>
</g>
<!-- Node5 -->
<g id="node5" class="node">
<title>Node5</title>
<g id="a_node5"><a xlink:href="structvecCore_1_1IteratorImplementation.html#a72e48906a04cbcb83fe7bac49836ed43" target="_top" xlink:title=" ">
<polygon fill="white" stroke="black" points="620,-0.5 620,-30.5 777,-30.5 777,-0.5 620,-0.5"/>
<text text-anchor="start" x="628" y="-18.5" font-family="Helvetica,sans-Serif" font-size="10.00">vecCore::IteratorImplementation</text>
<text text-anchor="middle" x="698.5" y="-7.5" font-family="Helvetica,sans-Serif" font-size="10.00">::Begin</text>
</a>
</g>
</g>
<!-- Node4&#45;&gt;Node5 -->
<g id="edge4" class="edge">
<title>Node4&#45;&gt;Node5</title>
<path fill="none" stroke="midnightblue" d="M584.4,-15.5C592.39,-15.5 601.04,-15.5 609.87,-15.5"/>
<polygon fill="midnightblue" stroke="midnightblue" points="609.89,-19 619.89,-15.5 609.89,-12 609.89,-19"/>
</g>
</g>
</svg>
