<?xml version="1.0" encoding="UTF-8" standalone="no"?>
<!DOCTYPE svg PUBLIC "-//W3C//DTD SVG 1.1//EN"
 "http://www.w3.org/Graphics/SVG/1.1/DTD/svg11.dtd">
<!-- Generated by graphviz version 2.44.1 (20200629.0846)
 -->
<!-- Title: vecCore::GatherScatterImplementation::Scatter Pages: 1 -->
<svg width="840pt" height="39pt"
 viewBox="0.00 0.00 840.00 39.00" xmlns="http://www.w3.org/2000/svg" xmlns:xlink="http://www.w3.org/1999/xlink">
<g id="graph0" class="graph" transform="scale(1 1) rotate(0) translate(4 35)">
<title>vecCore::GatherScatterImplementation::Scatter</title>
<polygon fill="white" stroke="transparent" points="-4,4 -4,-35 836,-35 836,4 -4,4"/>
<!-- Node1 -->
<g id="node1" class="node">
<title>Node1</title>
<g id="a_node1"><a xlink:title=" ">
<polygon fill="#bfbfbf" stroke="black" points="0,-0.5 0,-30.5 187,-30.5 187,-0.5 0,-0.5"/>
<text text-anchor="start" x="8" y="-18.5" font-family="Helvetica,sans-Serif" font-size="10.00">vecCore::GatherScatterImplementation</text>
<text text-anchor="middle" x="93.5" y="-7.5" font-family="Helvetica,sans-Serif" font-size="10.00">::Scatter</text>
</a>
</g>
</g>
<!-- Node2 -->
<g id="node2" class="node">
<title>Node2</title>
<g id="a_node2"><a xlink:href="namespacevecCore.html#a0bc95998843376452d74d5c8f5337845" target="_top" xlink:title=" ">
<polygon fill="white" stroke="black" points="223,-6 223,-25 298,-25 298,-6 223,-6"/>
<text text-anchor="middle" x="260.5" y="-13" font-family="Helvetica,sans-Serif" font-size="10.00">vecCore::Get</text>
</a>
</g>
</g>
<!-- Node1&#45;&gt;Node2 -->
<g id="edge1" class="edge">
<title>Node1&#45;&gt;Node2</title>
<path fill="none" stroke="midnightblue" d="M187.13,-15.5C195.91,-15.5 204.54,-15.5 212.61,-15.5"/>
<polygon fill="midnightblue" stroke="midnightblue" points="212.86,-19 222.86,-15.5 212.86,-12 212.86,-19"/>
</g>
<!-- Node3 -->
<g id="node3" class="node">
<title>Node3</title>
<g id="a_node3"><a xlink:href="structvecCore_1_1IndexingImplementation.html#abd2d0f232679541dacf3c6d019372e42" target="_top" xlink:title=" ">
<polygon fill="white" stroke="black" points="334,-6 334,-25 519,-25 519,-6 334,-6"/>
<text text-anchor="middle" x="426.5" y="-13" font-family="Helvetica,sans-Serif" font-size="10.00">vecCore::IndexingImplementation::Get</text>
</a>
</g>
</g>
<!-- Node2&#45;&gt;Node3 -->
<g id="edge2" class="edge">
<title>Node2&#45;&gt;Node3</title>
<path fill="none" stroke="midnightblue" d="M298.3,-15.5C306.13,-15.5 314.75,-15.5 323.7,-15.5"/>
<polygon fill="midnightblue" stroke="midnightblue" points="323.93,-19 333.93,-15.5 323.93,-12 323.93,-19"/>
</g>
<!-- Node4 -->
<g id="node4" class="node">
<title>Node4</title>
<g id="a_node4"><a xlink:href="namespacevecCore.html#a744ecfff38071bf6a45e7a17cede5b0a" target="_top" xlink:title=" ">
<polygon fill="white" stroke="black" points="555,-6 555,-25 639,-25 639,-6 555,-6"/>
<text text-anchor="middle" x="597" y="-13" font-family="Helvetica,sans-Serif" font-size="10.00">vecCore::Begin</text>
</a>
</g>
</g>
<!-- Node3&#45;&gt;Node4 -->
<g id="edge3" class="edge">
<title>Node3&#45;&gt;Node4</title>
<path fill="none" stroke="midnightblue" d="M519.15,-15.5C527.94,-15.5 536.62,-15.5 544.81,-15.5"/>
<polygon fill="midnightblue" stroke="midnightblue" points="544.89,-19 554.89,-15.5 544.89,-12 544.89,-19"/>
</g>
<!-- Node5 -->
<g id="node5" class="node">
<title>Node5</title>
<g id="a_node5"><a xlink:href="structvecCore_1_1IteratorImplementation.html#a72e48906a04cbcb83fe7bac49836ed43" target="_top" xlink:title=" ">
<polygon fill="white" stroke="black" points="675,-0.5 675,-30.5 832,-30.5 832,-0.5 675,-0.5"/>
<text text-anchor="start" x="683" y="-18.5" font-family="Helvetica,sans-Serif" font-size="10.00">vecCore::IteratorImplementation</text>
<text text-anchor="middle" x="753.5" y="-7.5" font-family="Helvetica,sans-Serif" font-size="10.00">::Begin</text>
</a>
</g>
</g>
<!-- Node4&#45;&gt;Node5 -->
<g id="edge4" class="edge">
<title>Node4&#45;&gt;Node5</title>
<path fill="none" stroke="midnightblue" d="M639.4,-15.5C647.39,-15.5 656.04,-15.5 664.87,-15.5"/>
<polygon fill="midnightblue" stroke="midnightblue" points="664.89,-19 674.89,-15.5 664.89,-12 664.89,-19"/>
</g>
</g>
</svg>
